M48
;DRILL file {KiCad (5.0.0)} date 03/06/20 23:55:56
;FORMAT={-:-/ absolute / metric / decimal}
FMAT,2
METRIC,TZ
T1C0.800
T2C1.000
T3C1.520
T4C2.700
T5C3.200
%
G90
G05
M71
T1
X89.8Y-110.25
X91.05Y-107.075
X92.525Y-103.32
X94.Y-112.6
X94.731Y-104.971
X96.7Y-104.25
X99.9Y-100.4
X100.Y-95.2
X100.38Y-107.375
X101.125Y-111.89
X101.2Y-103.1
X110.4Y-104.2
X110.8Y-116.6
X113.8Y-99.45
X120.3Y-112.5
X120.9Y-110.4
X122.5Y-112.8
X124.3Y-96.1
X131.6Y-94.8
X131.9Y-101.25
X132.496Y-103.955
X151.Y-100.6
X151.Y-103.1
X151.Y-105.6
X151.45Y-131.15
X151.45Y-133.65
X151.45Y-136.15
X151.45Y-138.65
X105.05Y-92.06
X105.05Y-107.3
X107.59Y-92.06
X107.59Y-107.3
X110.13Y-92.06
X110.13Y-107.3
X112.67Y-92.06
X112.67Y-107.3
X115.21Y-92.06
X115.21Y-107.3
X117.75Y-92.06
X117.75Y-107.3
X120.29Y-92.06
X120.29Y-107.3
X122.83Y-92.06
X122.83Y-107.3
X125.37Y-92.06
X125.37Y-107.3
X127.91Y-92.06
X127.91Y-107.3
X130.45Y-92.06
X130.45Y-107.3
X132.99Y-92.06
X132.99Y-107.3
X135.53Y-92.06
X135.53Y-107.3
X138.07Y-92.06
X138.07Y-107.3
X140.61Y-92.06
X140.61Y-107.3
T2
X156.7Y-101.85
X156.7Y-104.35
X90.9Y-133.46
X90.9Y-136.
X93.44Y-133.46
X93.44Y-136.
X95.98Y-133.46
X95.98Y-136.
X98.52Y-133.46
X98.52Y-136.
X101.06Y-133.46
X101.06Y-136.
X103.6Y-133.46
X103.6Y-136.
T3
X82.Y-100.56
X82.Y-105.64
T4
X81.6Y-144.1
X156.6Y-113.1
X81.6Y-113.1
X156.6Y-144.1
T5
X156.6Y-93.1
X81.6Y-128.6
X156.6Y-128.6
X81.6Y-93.1
T0
M30
