M48
;DRILL file {KiCad (5.0.0)} date 03/04/20 20:03:11
;FORMAT={-:-/ absolute / metric / decimal}
FMAT,2
METRIC,TZ
T1C0.400
T2C0.762
T3C0.800
T4C1.000
T5C1.520
T6C2.700
T7C3.200
%
G90
G05
M71
T1
X85.4Y-107.5
X87.1Y-99.2
X87.1Y-101.7
X87.887Y-114.813
X89.1Y-103.1
X90.5Y-115.1
X91.4Y-104.3
X92.3Y-109.2
X92.937Y-105.763
X93.6Y-112.
X93.813Y-114.188
X93.862Y-108.675
X94.Y-104.1
X94.587Y-107.413
X94.6Y-111.2
X94.863Y-105.637
X95.25Y-101.55
X95.7Y-103.4
X96.1Y-114.5
X96.225Y-111.2
X97.1Y-100.9
X97.5Y-108.5
X97.6Y-109.9
X97.9Y-95.5
X99.Y-110.025
X99.802Y-113.997
X100.637Y-103.437
X104.325Y-103.5
X104.325Y-105.799
X109.7Y-105.8
X111.9Y-105.8
X117.Y-110.025
X121.4Y-109.9
X126.4Y-103.75
X130.3Y-104.475
X132.Y-95.9
X138.25Y-114.
X138.8Y-111.6
X139.22Y-113.97
X140.53Y-114.78
X142.75Y-120.6
X142.799Y-112.349
X143.75Y-118.
X145.5Y-105.7
X145.6Y-117.
X151.45Y-133.65
T2
X151.Y-100.6
X151.Y-103.1
X151.Y-105.6
T3
X100.05Y-92.06
X100.05Y-107.3
X102.59Y-92.06
X102.59Y-107.3
X105.13Y-92.06
X105.13Y-107.3
X107.67Y-92.06
X107.67Y-107.3
X110.21Y-92.06
X110.21Y-107.3
X112.75Y-92.06
X112.75Y-107.3
X115.29Y-92.06
X115.29Y-107.3
X117.83Y-92.06
X117.83Y-107.3
X120.37Y-92.06
X120.37Y-107.3
X122.91Y-92.06
X122.91Y-107.3
X125.45Y-92.06
X125.45Y-107.3
X127.99Y-92.06
X127.99Y-107.3
X130.53Y-92.06
X130.53Y-107.3
X133.07Y-92.06
X133.07Y-107.3
X135.61Y-92.06
X135.61Y-107.3
X151.45Y-131.15
X151.45Y-133.65
X151.45Y-136.15
X151.45Y-138.65
T4
X156.7Y-101.85
X156.7Y-104.35
T5
X82.Y-100.56
X82.Y-105.64
T6
X156.6Y-113.1
X81.6Y-144.1
X81.6Y-113.1
X156.6Y-144.1
T7
X81.6Y-128.6
X156.6Y-128.6
X156.6Y-93.1
X81.6Y-93.1
T0
M30
