  0
SECTION
  2
HEADER
  9
$ANGBASE
  50
0.0
  9
$ANGDIR
  70
  1
  9
$MEASUREMENT
  70
0
  0
ENDSEC
  0
SECTION
  2
TABLES
  0
TABLE
  2
LTYPE
  70
4
  0
LTYPE
  5
40F
  2
CONTINUOUS
  70
0
  3
Solid line
  72
65
  73
0
  40
0.0
  0
LTYPE
  5
410
  2
DASHDOT
 70
0
  3
Dash Dot ____ _ ____ _
 72
65
 73
4
 40
2.0
 49
1.25
 49
-0.25
 49
0.25
 49
-0.25
  0
LTYPE
  5
411
  2
DASHED
 70
0
  3
Dashed __ __ __ __ __
 72
65
 73
2
 40
0.75
 49
0.5
 49
-0.25
  0
LTYPE
  5
43B
  2
DOTTED
 70
0
  3
Dotted .  .  .  .
 72
65
 73
2
 40
0.2
 49
0.0
 49
-0.2
  0
ENDTAB
  0
TABLE
  2
STYLE
  70
4
  0
STYLE
  2
KICAD
  70
0
  40
0
  41
1
  42
1
  50
0
  71
0
  3
isocp.shx
  0
STYLE
  2
KICADB
  70
0
  40
0
  41
1
  42
1
  50
0
  71
0
  3
isocp.shx
  0
STYLE
  2
KICADI
  70
0
  40
0
  41
1
  42
1
  50
15
  71
0
  3
isocp.shx
  0
STYLE
  2
KICADBI
  70
0
  40
0
  41
1
  42
1
  50
15
  71
0
  3
isocp.shx
  0
ENDTAB
  0
TABLE
  2
LAYER
  70
30
  0
LAYER
  2
BLACK
  70
0
  62
7
  6
CONTINUOUS
  0
LAYER
  2
GRAY1
  70
0
  62
251
  6
CONTINUOUS
  0
LAYER
  2
GRAY2
  70
0
  62
8
  6
CONTINUOUS
  0
LAYER
  2
GRAY3
  70
0
  62
9
  6
CONTINUOUS
  0
LAYER
  2
WHITE
  70
0
  62
7
  6
CONTINUOUS
  0
LAYER
  2
LYELLOW
  70
0
  62
51
  6
CONTINUOUS
  0
LAYER
  2
BLUE1
  70
0
  62
178
  6
CONTINUOUS
  0
LAYER
  2
GREEN1
  70
0
  62
98
  6
CONTINUOUS
  0
LAYER
  2
CYAN1
  70
0
  62
138
  6
CONTINUOUS
  0
LAYER
  2
RED1
  70
0
  62
18
  6
CONTINUOUS
  0
LAYER
  2
MAGENTA1
  70
0
  62
228
  6
CONTINUOUS
  0
LAYER
  2
BROWN1
  70
0
  62
58
  6
CONTINUOUS
  0
LAYER
  2
BLUE2
  70
0
  62
5
  6
CONTINUOUS
  0
LAYER
  2
GREEN2
  70
0
  62
3
  6
CONTINUOUS
  0
LAYER
  2
CYAN2
  70
0
  62
4
  6
CONTINUOUS
  0
LAYER
  2
RED2
  70
0
  62
1
  6
CONTINUOUS
  0
LAYER
  2
MAGENTA2
  70
0
  62
6
  6
CONTINUOUS
  0
LAYER
  2
BROWN2
  70
0
  62
54
  6
CONTINUOUS
  0
LAYER
  2
BLUE3
  70
0
  62
171
  6
CONTINUOUS
  0
LAYER
  2
GREEN3
  70
0
  62
91
  6
CONTINUOUS
  0
LAYER
  2
CYAN3
  70
0
  62
131
  6
CONTINUOUS
  0
LAYER
  2
RED3
  70
0
  62
11
  6
CONTINUOUS
  0
LAYER
  2
MAGENTA3
  70
0
  62
221
  6
CONTINUOUS
  0
LAYER
  2
YELLOW3
  70
0
  62
2
  6
CONTINUOUS
  0
LAYER
  2
BLUE4
  70
0
  62
5
  6
CONTINUOUS
  0
LAYER
  2
GREEN4
  70
0
  62
3
  6
CONTINUOUS
  0
LAYER
  2
CYAN4
  70
0
  62
4
  6
CONTINUOUS
  0
LAYER
  2
RED4
  70
0
  62
1
  6
CONTINUOUS
  0
LAYER
  2
MAGENTA4
  70
0
  62
6
  6
CONTINUOUS
  0
LAYER
  2
YELLOW4
  70
0
  62
2
  6
CONTINUOUS
  0
ENDTAB
  0
ENDSEC
  0
SECTION
  2
ENTITIES
0
ARC
8
BLACK
10
79.1
20
-146.6
40
2
50
180
51
270
0
ARC
8
BLACK
10
79.1
20
-90.6
40
2
50
90
51
180
0
ARC
8
BLACK
10
159.1
20
-90.6
40
2
50
-0
51
90
0
ARC
8
BLACK
10
159.1
20
-146.6
40
2
50
-90
51
-0
0
LINE
8
BLACK
6
CONTINUOUS
10
77.1
20
-90.6
11
77.1
21
-146.6
0
LINE
8
BLACK
6
CONTINUOUS
10
159.1
20
-88.6
11
79.1
21
-88.6
0
LINE
8
BLACK
6
CONTINUOUS
10
161.1
20
-146.6
11
161.1
21
-90.6
0
LINE
8
BLACK
6
CONTINUOUS
10
79.0984
20
-148.6
11
159.1
21
-148.6
0
LINE
8
BLACK
6
CONTINUOUS
10
79.8893
20
-153.332
11
79.8893
21
-150.332
0
LINE
8
BLACK
6
CONTINUOUS
10
79.8893
20
-150.332
11
80.6036
21
-150.332
0
LINE
8
BLACK
6
CONTINUOUS
10
80.6036
20
-150.332
11
81.0321
21
-150.475
0
LINE
8
BLACK
6
CONTINUOUS
10
81.0321
20
-150.475
11
81.3179
21
-150.761
0
LINE
8
BLACK
6
CONTINUOUS
10
81.3179
20
-150.761
11
81.4607
21
-151.046
0
LINE
8
BLACK
6
CONTINUOUS
10
81.4607
20
-151.046
11
81.6036
21
-151.618
0
LINE
8
BLACK
6
CONTINUOUS
10
81.6036
20
-151.618
11
81.6036
21
-152.046
0
LINE
8
BLACK
6
CONTINUOUS
10
81.6036
20
-152.046
11
81.4607
21
-152.618
0
LINE
8
BLACK
6
CONTINUOUS
10
81.4607
20
-152.618
11
81.3179
21
-152.904
0
LINE
8
BLACK
6
CONTINUOUS
10
81.3179
20
-152.904
11
81.0321
21
-153.189
0
LINE
8
BLACK
6
CONTINUOUS
10
81.0321
20
-153.189
11
80.6036
21
-153.332
0
LINE
8
BLACK
6
CONTINUOUS
10
80.6036
20
-153.332
11
79.8893
21
-153.332
0
LINE
8
BLACK
6
CONTINUOUS
10
82.8893
20
-153.332
11
82.8893
21
-151.332
0
LINE
8
BLACK
6
CONTINUOUS
10
82.8893
20
-151.904
11
83.0321
21
-151.618
0
LINE
8
BLACK
6
CONTINUOUS
10
83.0321
20
-151.618
11
83.175
21
-151.475
0
LINE
8
BLACK
6
CONTINUOUS
10
83.175
20
-151.475
11
83.4607
21
-151.332
0
LINE
8
BLACK
6
CONTINUOUS
10
83.4607
20
-151.332
11
83.7464
21
-151.332
0
LINE
8
BLACK
6
CONTINUOUS
10
84.7464
20
-153.332
11
84.7464
21
-151.332
0
LINE
8
BLACK
6
CONTINUOUS
10
84.7464
20
-150.332
11
84.6036
21
-150.475
0
LINE
8
BLACK
6
CONTINUOUS
10
84.6036
20
-150.475
11
84.7464
21
-150.618
0
LINE
8
BLACK
6
CONTINUOUS
10
84.7464
20
-150.618
11
84.8893
21
-150.475
0
LINE
8
BLACK
6
CONTINUOUS
10
84.8893
20
-150.475
11
84.7464
21
-150.332
0
LINE
8
BLACK
6
CONTINUOUS
10
84.7464
20
-150.332
11
84.7464
21
-150.618
0
LINE
8
BLACK
6
CONTINUOUS
10
86.6036
20
-153.332
11
86.3179
21
-153.189
0
LINE
8
BLACK
6
CONTINUOUS
10
86.3179
20
-153.189
11
86.175
21
-152.904
0
LINE
8
BLACK
6
CONTINUOUS
10
86.175
20
-152.904
11
86.175
21
-150.332
0
LINE
8
BLACK
6
CONTINUOUS
10
88.175
20
-153.332
11
87.8893
21
-153.189
0
LINE
8
BLACK
6
CONTINUOUS
10
87.8893
20
-153.189
11
87.7464
21
-152.904
0
LINE
8
BLACK
6
CONTINUOUS
10
87.7464
20
-152.904
11
87.7464
21
-150.332
0
LINE
8
BLACK
6
CONTINUOUS
10
91.6036
20
-153.332
11
91.6036
21
-150.332
0
LINE
8
BLACK
6
CONTINUOUS
10
91.6036
20
-150.332
11
92.6036
21
-152.475
0
LINE
8
BLACK
6
CONTINUOUS
10
92.6036
20
-152.475
11
93.6036
21
-150.332
0
LINE
8
BLACK
6
CONTINUOUS
10
93.6036
20
-150.332
11
93.6036
21
-153.332
0
LINE
8
BLACK
6
CONTINUOUS
10
96.3179
20
-153.332
11
96.3179
21
-151.761
0
LINE
8
BLACK
6
CONTINUOUS
10
96.3179
20
-151.761
11
96.175
21
-151.475
0
LINE
8
BLACK
6
CONTINUOUS
10
96.175
20
-151.475
11
95.8893
21
-151.332
0
LINE
8
BLACK
6
CONTINUOUS
10
95.8893
20
-151.332
11
95.3179
21
-151.332
0
LINE
8
BLACK
6
CONTINUOUS
10
95.3179
20
-151.332
11
95.0321
21
-151.475
0
LINE
8
BLACK
6
CONTINUOUS
10
96.3179
20
-153.189
11
96.0321
21
-153.332
0
LINE
8
BLACK
6
CONTINUOUS
10
96.0321
20
-153.332
11
95.3179
21
-153.332
0
LINE
8
BLACK
6
CONTINUOUS
10
95.3179
20
-153.332
11
95.0321
21
-153.189
0
LINE
8
BLACK
6
CONTINUOUS
10
95.0321
20
-153.189
11
94.8893
21
-152.904
0
LINE
8
BLACK
6
CONTINUOUS
10
94.8893
20
-152.904
11
94.8893
21
-152.618
0
LINE
8
BLACK
6
CONTINUOUS
10
94.8893
20
-152.618
11
95.0321
21
-152.332
0
LINE
8
BLACK
6
CONTINUOUS
10
95.0321
20
-152.332
11
95.3179
21
-152.189
0
LINE
8
BLACK
6
CONTINUOUS
10
95.3179
20
-152.189
11
96.0321
21
-152.189
0
LINE
8
BLACK
6
CONTINUOUS
10
96.0321
20
-152.189
11
96.3179
21
-152.046
0
LINE
8
BLACK
6
CONTINUOUS
10
97.7464
20
-151.332
11
97.7464
21
-154.332
0
LINE
8
BLACK
6
CONTINUOUS
10
97.7464
20
-151.475
11
98.0321
21
-151.332
0
LINE
8
BLACK
6
CONTINUOUS
10
98.0321
20
-151.332
11
98.6036
21
-151.332
0
LINE
8
BLACK
6
CONTINUOUS
10
98.6036
20
-151.332
11
98.8893
21
-151.475
0
LINE
8
BLACK
6
CONTINUOUS
10
98.8893
20
-151.475
11
99.0321
21
-151.618
0
LINE
8
BLACK
6
CONTINUOUS
10
99.0321
20
-151.618
11
99.175
21
-151.904
0
LINE
8
BLACK
6
CONTINUOUS
10
99.175
20
-151.904
11
99.175
21
-152.761
0
LINE
8
BLACK
6
CONTINUOUS
10
99.175
20
-152.761
11
99.0321
21
-153.046
0
LINE
8
BLACK
6
CONTINUOUS
10
99.0321
20
-153.046
11
98.8893
21
-153.189
0
LINE
8
BLACK
6
CONTINUOUS
10
98.8893
20
-153.189
11
98.6036
21
-153.332
0
LINE
8
BLACK
6
CONTINUOUS
10
98.6036
20
-153.332
11
98.0321
21
-153.332
0
LINE
8
BLACK
6
CONTINUOUS
10
98.0321
20
-153.332
11
97.7464
21
-153.189
0
LINE
8
BLACK
6
CONTINUOUS
10
100.461
20
-153.046
11
100.604
21
-153.189
0
LINE
8
BLACK
6
CONTINUOUS
10
100.604
20
-153.189
11
100.461
21
-153.332
0
LINE
8
BLACK
6
CONTINUOUS
10
100.461
20
-153.332
11
100.318
21
-153.189
0
LINE
8
BLACK
6
CONTINUOUS
10
100.318
20
-153.189
11
100.461
21
-153.046
0
LINE
8
BLACK
6
CONTINUOUS
10
100.461
20
-153.046
11
100.461
21
-153.332
0
LINE
8
BLACK
6
CONTINUOUS
10
100.461
20
-151.475
11
100.604
21
-151.618
0
LINE
8
BLACK
6
CONTINUOUS
10
100.604
20
-151.618
11
100.461
21
-151.761
0
LINE
8
BLACK
6
CONTINUOUS
10
100.461
20
-151.761
11
100.318
21
-151.618
0
LINE
8
BLACK
6
CONTINUOUS
10
100.318
20
-151.618
11
100.461
21
-151.475
0
LINE
8
BLACK
6
CONTINUOUS
10
100.461
20
-151.475
11
100.461
21
-151.761
  0
ENDSEC
  0
EOF
