  0
SECTION
  2
HEADER
  9
$ANGBASE
  50
0.0
  9
$ANGDIR
  70
  1
  9
$MEASUREMENT
  70
0
  0
ENDSEC
  0
SECTION
  2
TABLES
  0
TABLE
  2
LTYPE
  70
4
  0
LTYPE
  5
40F
  2
CONTINUOUS
  70
0
  3
Solid line
  72
65
  73
0
  40
0.0
  0
LTYPE
  5
410
  2
DASHDOT
 70
0
  3
Dash Dot ____ _ ____ _
 72
65
 73
4
 40
2.0
 49
1.25
 49
-0.25
 49
0.25
 49
-0.25
  0
LTYPE
  5
411
  2
DASHED
 70
0
  3
Dashed __ __ __ __ __
 72
65
 73
2
 40
0.75
 49
0.5
 49
-0.25
  0
LTYPE
  5
43B
  2
DOTTED
 70
0
  3
Dotted .  .  .  .
 72
65
 73
2
 40
0.2
 49
0.0
 49
-0.2
  0
ENDTAB
  0
TABLE
  2
STYLE
  70
4
  0
STYLE
  2
KICAD
  70
0
  40
0
  41
1
  42
1
  50
0
  71
0
  3
isocp.shx
  0
STYLE
  2
KICADB
  70
0
  40
0
  41
1
  42
1
  50
0
  71
0
  3
isocp.shx
  0
STYLE
  2
KICADI
  70
0
  40
0
  41
1
  42
1
  50
15
  71
0
  3
isocp.shx
  0
STYLE
  2
KICADBI
  70
0
  40
0
  41
1
  42
1
  50
15
  71
0
  3
isocp.shx
  0
ENDTAB
  0
TABLE
  2
LAYER
  70
30
  0
LAYER
  2
BLACK
  70
0
  62
7
  6
CONTINUOUS
  0
LAYER
  2
GRAY1
  70
0
  62
251
  6
CONTINUOUS
  0
LAYER
  2
GRAY2
  70
0
  62
8
  6
CONTINUOUS
  0
LAYER
  2
GRAY3
  70
0
  62
9
  6
CONTINUOUS
  0
LAYER
  2
WHITE
  70
0
  62
7
  6
CONTINUOUS
  0
LAYER
  2
LYELLOW
  70
0
  62
51
  6
CONTINUOUS
  0
LAYER
  2
BLUE1
  70
0
  62
178
  6
CONTINUOUS
  0
LAYER
  2
GREEN1
  70
0
  62
98
  6
CONTINUOUS
  0
LAYER
  2
CYAN1
  70
0
  62
138
  6
CONTINUOUS
  0
LAYER
  2
RED1
  70
0
  62
18
  6
CONTINUOUS
  0
LAYER
  2
MAGENTA1
  70
0
  62
228
  6
CONTINUOUS
  0
LAYER
  2
BROWN1
  70
0
  62
58
  6
CONTINUOUS
  0
LAYER
  2
BLUE2
  70
0
  62
5
  6
CONTINUOUS
  0
LAYER
  2
GREEN2
  70
0
  62
3
  6
CONTINUOUS
  0
LAYER
  2
CYAN2
  70
0
  62
4
  6
CONTINUOUS
  0
LAYER
  2
RED2
  70
0
  62
1
  6
CONTINUOUS
  0
LAYER
  2
MAGENTA2
  70
0
  62
6
  6
CONTINUOUS
  0
LAYER
  2
BROWN2
  70
0
  62
54
  6
CONTINUOUS
  0
LAYER
  2
BLUE3
  70
0
  62
171
  6
CONTINUOUS
  0
LAYER
  2
GREEN3
  70
0
  62
91
  6
CONTINUOUS
  0
LAYER
  2
CYAN3
  70
0
  62
131
  6
CONTINUOUS
  0
LAYER
  2
RED3
  70
0
  62
11
  6
CONTINUOUS
  0
LAYER
  2
MAGENTA3
  70
0
  62
221
  6
CONTINUOUS
  0
LAYER
  2
YELLOW3
  70
0
  62
2
  6
CONTINUOUS
  0
LAYER
  2
BLUE4
  70
0
  62
5
  6
CONTINUOUS
  0
LAYER
  2
GREEN4
  70
0
  62
3
  6
CONTINUOUS
  0
LAYER
  2
CYAN4
  70
0
  62
4
  6
CONTINUOUS
  0
LAYER
  2
RED4
  70
0
  62
1
  6
CONTINUOUS
  0
LAYER
  2
MAGENTA4
  70
0
  62
6
  6
CONTINUOUS
  0
LAYER
  2
YELLOW4
  70
0
  62
2
  6
CONTINUOUS
  0
ENDTAB
  0
ENDSEC
  0
SECTION
  2
ENTITIES
0
ARC
8
BLACK
10
79.1
20
-146.6
40
2
50
180
51
270
0
ARC
8
BLACK
10
79.1
20
-90.6
40
2
50
90
51
180
0
ARC
8
BLACK
10
159.1
20
-90.6
40
2
50
-0
51
90
0
ARC
8
BLACK
10
159.1
20
-146.6
40
2
50
-90
51
-0
0
LINE
8
BLACK
6
CONTINUOUS
10
77.1
20
-90.6
11
77.1
21
-146.6
0
LINE
8
BLACK
6
CONTINUOUS
10
159.1
20
-88.6
11
79.1
21
-88.6
0
LINE
8
BLACK
6
CONTINUOUS
10
161.1
20
-146.6
11
161.1
21
-90.6
0
LINE
8
BLACK
6
CONTINUOUS
10
79.0984
20
-148.6
11
159.1
21
-148.6
0
LINE
8
BLACK
6
CONTINUOUS
10
86.5
20
-96
11
87.3
21
-96.8
0
LINE
8
BLACK
6
CONTINUOUS
10
87.3
20
-96
11
86.5
21
-96.8
0
LINE
8
BLACK
6
CONTINUOUS
10
86.6
20
-98.65
11
87.4
21
-99.45
0
LINE
8
BLACK
6
CONTINUOUS
10
87.4
20
-98.65
11
86.6
21
-99.45
0
LINE
8
BLACK
6
CONTINUOUS
10
86.6
20
-105.8
11
87.4
21
-106.6
0
LINE
8
BLACK
6
CONTINUOUS
10
87.4
20
-105.8
11
86.6
21
-106.6
0
LINE
8
BLACK
6
CONTINUOUS
10
88.1
20
-133.3
11
88.9
21
-134.1
0
LINE
8
BLACK
6
CONTINUOUS
10
88.9
20
-133.3
11
88.1
21
-134.1
0
LINE
8
BLACK
6
CONTINUOUS
10
89.3996
20
-109.85
11
90.1996
21
-110.65
0
LINE
8
BLACK
6
CONTINUOUS
10
90.1996
20
-109.85
11
89.3996
21
-110.65
0
LINE
8
BLACK
6
CONTINUOUS
10
90.65
20
-106.675
11
91.45
21
-107.475
0
LINE
8
BLACK
6
CONTINUOUS
10
91.45
20
-106.675
11
90.65
21
-107.475
0
LINE
8
BLACK
6
CONTINUOUS
10
92.125
20
-102.92
11
92.925
21
-103.72
0
LINE
8
BLACK
6
CONTINUOUS
10
92.925
20
-102.92
11
92.125
21
-103.72
0
LINE
8
BLACK
6
CONTINUOUS
10
93.6
20
-112.2
11
94.4
21
-113
0
LINE
8
BLACK
6
CONTINUOUS
10
94.4
20
-112.2
11
93.6
21
-113
0
LINE
8
BLACK
6
CONTINUOUS
10
94.3307
20
-104.571
11
95.1307
21
-105.371
0
LINE
8
BLACK
6
CONTINUOUS
10
95.1307
20
-104.571
11
94.3307
21
-105.371
0
LINE
8
BLACK
6
CONTINUOUS
10
94.7
20
-130.2
11
95.5
21
-131
0
LINE
8
BLACK
6
CONTINUOUS
10
95.5
20
-130.2
11
94.7
21
-131
0
LINE
8
BLACK
6
CONTINUOUS
10
96.3
20
-103.85
11
97.1
21
-104.65
0
LINE
8
BLACK
6
CONTINUOUS
10
97.1
20
-103.85
11
96.3
21
-104.65
0
LINE
8
BLACK
6
CONTINUOUS
10
99.5
20
-100
11
100.3
21
-100.8
0
LINE
8
BLACK
6
CONTINUOUS
10
100.3
20
-100
11
99.5
21
-100.8
0
LINE
8
BLACK
6
CONTINUOUS
10
99.6
20
-94.8
11
100.4
21
-95.6
0
LINE
8
BLACK
6
CONTINUOUS
10
100.4
20
-94.8
11
99.6
21
-95.6
0
LINE
8
BLACK
6
CONTINUOUS
10
99.98
20
-106.975
11
100.78
21
-107.775
0
LINE
8
BLACK
6
CONTINUOUS
10
100.78
20
-106.975
11
99.98
21
-107.775
0
LINE
8
BLACK
6
CONTINUOUS
10
100.725
20
-111.49
11
101.525
21
-112.29
0
LINE
8
BLACK
6
CONTINUOUS
10
101.525
20
-111.49
11
100.725
21
-112.29
0
LINE
8
BLACK
6
CONTINUOUS
10
100.8
20
-102.7
11
101.6
21
-103.5
0
LINE
8
BLACK
6
CONTINUOUS
10
101.6
20
-102.7
11
100.8
21
-103.5
0
LINE
8
BLACK
6
CONTINUOUS
10
106.5
20
-129.7
11
107.3
21
-130.5
0
LINE
8
BLACK
6
CONTINUOUS
10
107.3
20
-129.7
11
106.5
21
-130.5
0
LINE
8
BLACK
6
CONTINUOUS
10
110
20
-103.8
11
110.8
21
-104.6
0
LINE
8
BLACK
6
CONTINUOUS
10
110.8
20
-103.8
11
110
21
-104.6
0
LINE
8
BLACK
6
CONTINUOUS
10
110.174
20
-109.199
11
110.974
21
-109.999
0
LINE
8
BLACK
6
CONTINUOUS
10
110.974
20
-109.199
11
110.174
21
-109.999
0
LINE
8
BLACK
6
CONTINUOUS
10
110.5
20
-128.4
11
111.3
21
-129.2
0
LINE
8
BLACK
6
CONTINUOUS
10
111.3
20
-128.4
11
110.5
21
-129.2
0
LINE
8
BLACK
6
CONTINUOUS
10
113.4
20
-99.05
11
114.2
21
-99.85
0
LINE
8
BLACK
6
CONTINUOUS
10
114.2
20
-99.05
11
113.4
21
-99.85
0
LINE
8
BLACK
6
CONTINUOUS
10
119.9
20
-112.1
11
120.7
21
-112.9
0
LINE
8
BLACK
6
CONTINUOUS
10
120.7
20
-112.1
11
119.9
21
-112.9
0
LINE
8
BLACK
6
CONTINUOUS
10
120.5
20
-110
11
121.3
21
-110.8
0
LINE
8
BLACK
6
CONTINUOUS
10
121.3
20
-110
11
120.5
21
-110.8
0
LINE
8
BLACK
6
CONTINUOUS
10
122.1
20
-112.4
11
122.9
21
-113.2
0
LINE
8
BLACK
6
CONTINUOUS
10
122.9
20
-112.4
11
122.1
21
-113.2
0
LINE
8
BLACK
6
CONTINUOUS
10
123.9
20
-95.7
11
124.7
21
-96.5
0
LINE
8
BLACK
6
CONTINUOUS
10
124.7
20
-95.7
11
123.9
21
-96.5
0
LINE
8
BLACK
6
CONTINUOUS
10
127.7
20
-103.9
11
128.5
21
-104.7
0
LINE
8
BLACK
6
CONTINUOUS
10
128.5
20
-103.9
11
127.7
21
-104.7
0
LINE
8
BLACK
6
CONTINUOUS
10
131.2
20
-94.4
11
132
21
-95.2
0
LINE
8
BLACK
6
CONTINUOUS
10
132
20
-94.4
11
131.2
21
-95.2
0
LINE
8
BLACK
6
CONTINUOUS
10
131.5
20
-100.85
11
132.3
21
-101.65
0
LINE
8
BLACK
6
CONTINUOUS
10
132.3
20
-100.85
11
131.5
21
-101.65
0
LINE
8
BLACK
6
CONTINUOUS
10
139.8
20
-97.2
11
140.6
21
-98
0
LINE
8
BLACK
6
CONTINUOUS
10
140.6
20
-97.2
11
139.8
21
-98
0
LINE
8
BLACK
6
CONTINUOUS
10
146.7
20
-126.5
11
147.5
21
-127.3
0
LINE
8
BLACK
6
CONTINUOUS
10
147.5
20
-126.5
11
146.7
21
-127.3
0
LINE
8
BLACK
6
CONTINUOUS
10
148.2
20
-136
11
149
21
-136.8
0
LINE
8
BLACK
6
CONTINUOUS
10
149
20
-136
11
148.2
21
-136.8
0
LINE
8
BLACK
6
CONTINUOUS
10
151.1
20
-128
11
151.9
21
-128.8
0
LINE
8
BLACK
6
CONTINUOUS
10
151.9
20
-128
11
151.1
21
-128.8
0
LINE
8
BLACK
6
CONTINUOUS
10
150.6
20
-100.2
11
151.4
21
-101
0
LINE
8
BLACK
6
CONTINUOUS
10
151.4
20
-100.2
11
150.6
21
-101
0
LINE
8
BLACK
6
CONTINUOUS
10
150.6
20
-102.7
11
151.4
21
-103.5
0
LINE
8
BLACK
6
CONTINUOUS
10
151.4
20
-102.7
11
150.6
21
-103.5
0
LINE
8
BLACK
6
CONTINUOUS
10
150.6
20
-105.2
11
151.4
21
-106
0
LINE
8
BLACK
6
CONTINUOUS
10
151.4
20
-105.2
11
150.6
21
-106
0
LINE
8
BLACK
6
CONTINUOUS
10
151.05
20
-130.75
11
151.85
21
-131.55
0
LINE
8
BLACK
6
CONTINUOUS
10
151.85
20
-130.75
11
151.05
21
-131.55
0
LINE
8
BLACK
6
CONTINUOUS
10
151.05
20
-133.25
11
151.85
21
-134.05
0
LINE
8
BLACK
6
CONTINUOUS
10
151.85
20
-133.25
11
151.05
21
-134.05
0
LINE
8
BLACK
6
CONTINUOUS
10
151.05
20
-135.75
11
151.85
21
-136.55
0
LINE
8
BLACK
6
CONTINUOUS
10
151.85
20
-135.75
11
151.05
21
-136.55
0
LINE
8
BLACK
6
CONTINUOUS
10
151.05
20
-138.25
11
151.85
21
-139.05
0
LINE
8
BLACK
6
CONTINUOUS
10
151.85
20
-138.25
11
151.05
21
-139.05
0
LINE
8
BLACK
6
CONTINUOUS
10
104.65
20
-91.66
11
105.45
21
-92.46
0
LINE
8
BLACK
6
CONTINUOUS
10
105.45
20
-91.66
11
104.65
21
-92.46
0
LINE
8
BLACK
6
CONTINUOUS
10
104.65
20
-106.9
11
105.45
21
-107.7
0
LINE
8
BLACK
6
CONTINUOUS
10
105.45
20
-106.9
11
104.65
21
-107.7
0
LINE
8
BLACK
6
CONTINUOUS
10
107.19
20
-91.66
11
107.99
21
-92.46
0
LINE
8
BLACK
6
CONTINUOUS
10
107.99
20
-91.66
11
107.19
21
-92.46
0
LINE
8
BLACK
6
CONTINUOUS
10
107.19
20
-106.9
11
107.99
21
-107.7
0
LINE
8
BLACK
6
CONTINUOUS
10
107.99
20
-106.9
11
107.19
21
-107.7
0
LINE
8
BLACK
6
CONTINUOUS
10
109.73
20
-91.66
11
110.53
21
-92.46
0
LINE
8
BLACK
6
CONTINUOUS
10
110.53
20
-91.66
11
109.73
21
-92.46
0
LINE
8
BLACK
6
CONTINUOUS
10
109.73
20
-106.9
11
110.53
21
-107.7
0
LINE
8
BLACK
6
CONTINUOUS
10
110.53
20
-106.9
11
109.73
21
-107.7
0
LINE
8
BLACK
6
CONTINUOUS
10
112.27
20
-91.66
11
113.07
21
-92.46
0
LINE
8
BLACK
6
CONTINUOUS
10
113.07
20
-91.66
11
112.27
21
-92.46
0
LINE
8
BLACK
6
CONTINUOUS
10
112.27
20
-106.9
11
113.07
21
-107.7
0
LINE
8
BLACK
6
CONTINUOUS
10
113.07
20
-106.9
11
112.27
21
-107.7
0
LINE
8
BLACK
6
CONTINUOUS
10
114.81
20
-91.66
11
115.61
21
-92.46
0
LINE
8
BLACK
6
CONTINUOUS
10
115.61
20
-91.66
11
114.81
21
-92.46
0
LINE
8
BLACK
6
CONTINUOUS
10
114.81
20
-106.9
11
115.61
21
-107.7
0
LINE
8
BLACK
6
CONTINUOUS
10
115.61
20
-106.9
11
114.81
21
-107.7
0
LINE
8
BLACK
6
CONTINUOUS
10
117.35
20
-91.66
11
118.15
21
-92.46
0
LINE
8
BLACK
6
CONTINUOUS
10
118.15
20
-91.66
11
117.35
21
-92.46
0
LINE
8
BLACK
6
CONTINUOUS
10
117.35
20
-106.9
11
118.15
21
-107.7
0
LINE
8
BLACK
6
CONTINUOUS
10
118.15
20
-106.9
11
117.35
21
-107.7
0
LINE
8
BLACK
6
CONTINUOUS
10
119.89
20
-91.66
11
120.69
21
-92.46
0
LINE
8
BLACK
6
CONTINUOUS
10
120.69
20
-91.66
11
119.89
21
-92.46
0
LINE
8
BLACK
6
CONTINUOUS
10
119.89
20
-106.9
11
120.69
21
-107.7
0
LINE
8
BLACK
6
CONTINUOUS
10
120.69
20
-106.9
11
119.89
21
-107.7
0
LINE
8
BLACK
6
CONTINUOUS
10
122.43
20
-91.66
11
123.23
21
-92.46
0
LINE
8
BLACK
6
CONTINUOUS
10
123.23
20
-91.66
11
122.43
21
-92.46
0
LINE
8
BLACK
6
CONTINUOUS
10
122.43
20
-106.9
11
123.23
21
-107.7
0
LINE
8
BLACK
6
CONTINUOUS
10
123.23
20
-106.9
11
122.43
21
-107.7
0
LINE
8
BLACK
6
CONTINUOUS
10
124.97
20
-91.66
11
125.77
21
-92.46
0
LINE
8
BLACK
6
CONTINUOUS
10
125.77
20
-91.66
11
124.97
21
-92.46
0
LINE
8
BLACK
6
CONTINUOUS
10
124.97
20
-106.9
11
125.77
21
-107.7
0
LINE
8
BLACK
6
CONTINUOUS
10
125.77
20
-106.9
11
124.97
21
-107.7
0
LINE
8
BLACK
6
CONTINUOUS
10
127.51
20
-91.66
11
128.31
21
-92.46
0
LINE
8
BLACK
6
CONTINUOUS
10
128.31
20
-91.66
11
127.51
21
-92.46
0
LINE
8
BLACK
6
CONTINUOUS
10
127.51
20
-106.9
11
128.31
21
-107.7
0
LINE
8
BLACK
6
CONTINUOUS
10
128.31
20
-106.9
11
127.51
21
-107.7
0
LINE
8
BLACK
6
CONTINUOUS
10
130.05
20
-91.66
11
130.85
21
-92.46
0
LINE
8
BLACK
6
CONTINUOUS
10
130.85
20
-91.66
11
130.05
21
-92.46
0
LINE
8
BLACK
6
CONTINUOUS
10
130.05
20
-106.9
11
130.85
21
-107.7
0
LINE
8
BLACK
6
CONTINUOUS
10
130.85
20
-106.9
11
130.05
21
-107.7
0
LINE
8
BLACK
6
CONTINUOUS
10
132.59
20
-91.66
11
133.39
21
-92.46
0
LINE
8
BLACK
6
CONTINUOUS
10
133.39
20
-91.66
11
132.59
21
-92.46
0
LINE
8
BLACK
6
CONTINUOUS
10
132.59
20
-106.9
11
133.39
21
-107.7
0
LINE
8
BLACK
6
CONTINUOUS
10
133.39
20
-106.9
11
132.59
21
-107.7
0
LINE
8
BLACK
6
CONTINUOUS
10
135.13
20
-91.66
11
135.93
21
-92.46
0
LINE
8
BLACK
6
CONTINUOUS
10
135.93
20
-91.66
11
135.13
21
-92.46
0
LINE
8
BLACK
6
CONTINUOUS
10
135.13
20
-106.9
11
135.93
21
-107.7
0
LINE
8
BLACK
6
CONTINUOUS
10
135.93
20
-106.9
11
135.13
21
-107.7
0
LINE
8
BLACK
6
CONTINUOUS
10
137.67
20
-91.66
11
138.47
21
-92.46
0
LINE
8
BLACK
6
CONTINUOUS
10
138.47
20
-91.66
11
137.67
21
-92.46
0
LINE
8
BLACK
6
CONTINUOUS
10
137.67
20
-106.9
11
138.47
21
-107.7
0
LINE
8
BLACK
6
CONTINUOUS
10
138.47
20
-106.9
11
137.67
21
-107.7
0
LINE
8
BLACK
6
CONTINUOUS
10
140.21
20
-91.66
11
141.01
21
-92.46
0
LINE
8
BLACK
6
CONTINUOUS
10
141.01
20
-91.66
11
140.21
21
-92.46
0
LINE
8
BLACK
6
CONTINUOUS
10
140.21
20
-106.9
11
141.01
21
-107.7
0
LINE
8
BLACK
6
CONTINUOUS
10
141.01
20
-106.9
11
140.21
21
-107.7
0
CIRCLE
8
BLACK
10
156.7
20
-101.85
40
0.5
0
CIRCLE
8
BLACK
10
156.7
20
-104.35
40
0.5
0
CIRCLE
8
BLACK
10
90.9
20
-133.46
40
0.5
0
CIRCLE
8
BLACK
10
90.9
20
-136
40
0.5
0
CIRCLE
8
BLACK
10
93.44
20
-133.46
40
0.5
0
CIRCLE
8
BLACK
10
93.44
20
-136
40
0.5
0
CIRCLE
8
BLACK
10
95.98
20
-133.46
40
0.5
0
CIRCLE
8
BLACK
10
95.98
20
-136
40
0.5
0
CIRCLE
8
BLACK
10
98.52
20
-133.46
40
0.5
0
CIRCLE
8
BLACK
10
98.52
20
-136
40
0.5
0
CIRCLE
8
BLACK
10
101.06
20
-133.46
40
0.5
0
CIRCLE
8
BLACK
10
101.06
20
-136
40
0.5
0
CIRCLE
8
BLACK
10
103.6
20
-133.46
40
0.5
0
CIRCLE
8
BLACK
10
103.6
20
-136
40
0.5
0
LINE
8
BLACK
6
CONTINUOUS
10
82
20
-99.8
11
82
21
-101.32
0
LINE
8
BLACK
6
CONTINUOUS
10
81.24
20
-100.56
11
82.76
21
-100.56
0
LINE
8
BLACK
6
CONTINUOUS
10
82
20
-104.88
11
82
21
-106.4
0
LINE
8
BLACK
6
CONTINUOUS
10
81.24
20
-105.64
11
82.76
21
-105.64
0
LINE
8
BLACK
6
CONTINUOUS
10
82.5546
20
-114.055
11
82.5546
21
-112.145
0
LINE
8
BLACK
6
CONTINUOUS
10
82.5546
20
-112.145
11
80.6454
21
-112.145
0
LINE
8
BLACK
6
CONTINUOUS
10
80.6454
20
-112.145
11
80.6454
21
-114.055
0
LINE
8
BLACK
6
CONTINUOUS
10
80.6454
20
-114.055
11
82.5546
21
-114.055
0
LINE
8
BLACK
6
CONTINUOUS
10
82.5546
20
-145.055
11
82.5546
21
-143.145
0
LINE
8
BLACK
6
CONTINUOUS
10
82.5546
20
-143.145
11
80.6454
21
-143.145
0
LINE
8
BLACK
6
CONTINUOUS
10
80.6454
20
-143.145
11
80.6454
21
-145.055
0
LINE
8
BLACK
6
CONTINUOUS
10
80.6454
20
-145.055
11
82.5546
21
-145.055
0
LINE
8
BLACK
6
CONTINUOUS
10
157.555
20
-114.055
11
157.555
21
-112.145
0
LINE
8
BLACK
6
CONTINUOUS
10
157.555
20
-112.145
11
155.645
21
-112.145
0
LINE
8
BLACK
6
CONTINUOUS
10
155.645
20
-112.145
11
155.645
21
-114.055
0
LINE
8
BLACK
6
CONTINUOUS
10
155.645
20
-114.055
11
157.555
21
-114.055
0
LINE
8
BLACK
6
CONTINUOUS
10
157.555
20
-145.055
11
157.555
21
-143.145
0
LINE
8
BLACK
6
CONTINUOUS
10
157.555
20
-143.145
11
155.645
21
-143.145
0
LINE
8
BLACK
6
CONTINUOUS
10
155.645
20
-143.145
11
155.645
21
-145.055
0
LINE
8
BLACK
6
CONTINUOUS
10
155.645
20
-145.055
11
157.555
21
-145.055
0
LINE
8
BLACK
6
CONTINUOUS
10
81.6
20
-94.7
11
83.2
21
-93.1
0
LINE
8
BLACK
6
CONTINUOUS
10
83.2
20
-93.1
11
81.6
21
-91.5
0
LINE
8
BLACK
6
CONTINUOUS
10
81.6
20
-91.5
11
80
21
-93.1
0
LINE
8
BLACK
6
CONTINUOUS
10
80
20
-93.1
11
81.6
21
-94.7
0
LINE
8
BLACK
6
CONTINUOUS
10
81.6
20
-130.2
11
83.2
21
-128.6
0
LINE
8
BLACK
6
CONTINUOUS
10
83.2
20
-128.6
11
81.6
21
-127
0
LINE
8
BLACK
6
CONTINUOUS
10
81.6
20
-127
11
80
21
-128.6
0
LINE
8
BLACK
6
CONTINUOUS
10
80
20
-128.6
11
81.6
21
-130.2
0
LINE
8
BLACK
6
CONTINUOUS
10
156.6
20
-130.2
11
158.2
21
-128.6
0
LINE
8
BLACK
6
CONTINUOUS
10
158.2
20
-128.6
11
156.6
21
-127
0
LINE
8
BLACK
6
CONTINUOUS
10
156.6
20
-127
11
155
21
-128.6
0
LINE
8
BLACK
6
CONTINUOUS
10
155
20
-128.6
11
156.6
21
-130.2
0
LINE
8
BLACK
6
CONTINUOUS
10
156.6
20
-94.7
11
158.2
21
-93.1
0
LINE
8
BLACK
6
CONTINUOUS
10
158.2
20
-93.1
11
156.6
21
-91.5
0
LINE
8
BLACK
6
CONTINUOUS
10
156.6
20
-91.5
11
155
21
-93.1
0
LINE
8
BLACK
6
CONTINUOUS
10
155
20
-93.1
11
156.6
21
-94.7
0
LINE
8
BLACK
6
CONTINUOUS
10
79.8893
20
-153.332
11
79.8893
21
-150.332
0
LINE
8
BLACK
6
CONTINUOUS
10
79.8893
20
-150.332
11
80.6036
21
-150.332
0
LINE
8
BLACK
6
CONTINUOUS
10
80.6036
20
-150.332
11
81.0321
21
-150.475
0
LINE
8
BLACK
6
CONTINUOUS
10
81.0321
20
-150.475
11
81.3179
21
-150.761
0
LINE
8
BLACK
6
CONTINUOUS
10
81.3179
20
-150.761
11
81.4607
21
-151.046
0
LINE
8
BLACK
6
CONTINUOUS
10
81.4607
20
-151.046
11
81.6036
21
-151.618
0
LINE
8
BLACK
6
CONTINUOUS
10
81.6036
20
-151.618
11
81.6036
21
-152.046
0
LINE
8
BLACK
6
CONTINUOUS
10
81.6036
20
-152.046
11
81.4607
21
-152.618
0
LINE
8
BLACK
6
CONTINUOUS
10
81.4607
20
-152.618
11
81.3179
21
-152.904
0
LINE
8
BLACK
6
CONTINUOUS
10
81.3179
20
-152.904
11
81.0321
21
-153.189
0
LINE
8
BLACK
6
CONTINUOUS
10
81.0321
20
-153.189
11
80.6036
21
-153.332
0
LINE
8
BLACK
6
CONTINUOUS
10
80.6036
20
-153.332
11
79.8893
21
-153.332
0
LINE
8
BLACK
6
CONTINUOUS
10
82.8893
20
-153.332
11
82.8893
21
-151.332
0
LINE
8
BLACK
6
CONTINUOUS
10
82.8893
20
-151.904
11
83.0321
21
-151.618
0
LINE
8
BLACK
6
CONTINUOUS
10
83.0321
20
-151.618
11
83.175
21
-151.475
0
LINE
8
BLACK
6
CONTINUOUS
10
83.175
20
-151.475
11
83.4607
21
-151.332
0
LINE
8
BLACK
6
CONTINUOUS
10
83.4607
20
-151.332
11
83.7464
21
-151.332
0
LINE
8
BLACK
6
CONTINUOUS
10
84.7464
20
-153.332
11
84.7464
21
-151.332
0
LINE
8
BLACK
6
CONTINUOUS
10
84.7464
20
-150.332
11
84.6036
21
-150.475
0
LINE
8
BLACK
6
CONTINUOUS
10
84.6036
20
-150.475
11
84.7464
21
-150.618
0
LINE
8
BLACK
6
CONTINUOUS
10
84.7464
20
-150.618
11
84.8893
21
-150.475
0
LINE
8
BLACK
6
CONTINUOUS
10
84.8893
20
-150.475
11
84.7464
21
-150.332
0
LINE
8
BLACK
6
CONTINUOUS
10
84.7464
20
-150.332
11
84.7464
21
-150.618
0
LINE
8
BLACK
6
CONTINUOUS
10
86.6036
20
-153.332
11
86.3179
21
-153.189
0
LINE
8
BLACK
6
CONTINUOUS
10
86.3179
20
-153.189
11
86.175
21
-152.904
0
LINE
8
BLACK
6
CONTINUOUS
10
86.175
20
-152.904
11
86.175
21
-150.332
0
LINE
8
BLACK
6
CONTINUOUS
10
88.175
20
-153.332
11
87.8893
21
-153.189
0
LINE
8
BLACK
6
CONTINUOUS
10
87.8893
20
-153.189
11
87.7464
21
-152.904
0
LINE
8
BLACK
6
CONTINUOUS
10
87.7464
20
-152.904
11
87.7464
21
-150.332
0
LINE
8
BLACK
6
CONTINUOUS
10
91.6036
20
-153.332
11
91.6036
21
-150.332
0
LINE
8
BLACK
6
CONTINUOUS
10
91.6036
20
-150.332
11
92.6036
21
-152.475
0
LINE
8
BLACK
6
CONTINUOUS
10
92.6036
20
-152.475
11
93.6036
21
-150.332
0
LINE
8
BLACK
6
CONTINUOUS
10
93.6036
20
-150.332
11
93.6036
21
-153.332
0
LINE
8
BLACK
6
CONTINUOUS
10
96.3179
20
-153.332
11
96.3179
21
-151.761
0
LINE
8
BLACK
6
CONTINUOUS
10
96.3179
20
-151.761
11
96.175
21
-151.475
0
LINE
8
BLACK
6
CONTINUOUS
10
96.175
20
-151.475
11
95.8893
21
-151.332
0
LINE
8
BLACK
6
CONTINUOUS
10
95.8893
20
-151.332
11
95.3179
21
-151.332
0
LINE
8
BLACK
6
CONTINUOUS
10
95.3179
20
-151.332
11
95.0321
21
-151.475
0
LINE
8
BLACK
6
CONTINUOUS
10
96.3179
20
-153.189
11
96.0321
21
-153.332
0
LINE
8
BLACK
6
CONTINUOUS
10
96.0321
20
-153.332
11
95.3179
21
-153.332
0
LINE
8
BLACK
6
CONTINUOUS
10
95.3179
20
-153.332
11
95.0321
21
-153.189
0
LINE
8
BLACK
6
CONTINUOUS
10
95.0321
20
-153.189
11
94.8893
21
-152.904
0
LINE
8
BLACK
6
CONTINUOUS
10
94.8893
20
-152.904
11
94.8893
21
-152.618
0
LINE
8
BLACK
6
CONTINUOUS
10
94.8893
20
-152.618
11
95.0321
21
-152.332
0
LINE
8
BLACK
6
CONTINUOUS
10
95.0321
20
-152.332
11
95.3179
21
-152.189
0
LINE
8
BLACK
6
CONTINUOUS
10
95.3179
20
-152.189
11
96.0321
21
-152.189
0
LINE
8
BLACK
6
CONTINUOUS
10
96.0321
20
-152.189
11
96.3179
21
-152.046
0
LINE
8
BLACK
6
CONTINUOUS
10
97.7464
20
-151.332
11
97.7464
21
-154.332
0
LINE
8
BLACK
6
CONTINUOUS
10
97.7464
20
-151.475
11
98.0321
21
-151.332
0
LINE
8
BLACK
6
CONTINUOUS
10
98.0321
20
-151.332
11
98.6036
21
-151.332
0
LINE
8
BLACK
6
CONTINUOUS
10
98.6036
20
-151.332
11
98.8893
21
-151.475
0
LINE
8
BLACK
6
CONTINUOUS
10
98.8893
20
-151.475
11
99.0321
21
-151.618
0
LINE
8
BLACK
6
CONTINUOUS
10
99.0321
20
-151.618
11
99.175
21
-151.904
0
LINE
8
BLACK
6
CONTINUOUS
10
99.175
20
-151.904
11
99.175
21
-152.761
0
LINE
8
BLACK
6
CONTINUOUS
10
99.175
20
-152.761
11
99.0321
21
-153.046
0
LINE
8
BLACK
6
CONTINUOUS
10
99.0321
20
-153.046
11
98.8893
21
-153.189
0
LINE
8
BLACK
6
CONTINUOUS
10
98.8893
20
-153.189
11
98.6036
21
-153.332
0
LINE
8
BLACK
6
CONTINUOUS
10
98.6036
20
-153.332
11
98.0321
21
-153.332
0
LINE
8
BLACK
6
CONTINUOUS
10
98.0321
20
-153.332
11
97.7464
21
-153.189
0
LINE
8
BLACK
6
CONTINUOUS
10
100.461
20
-153.046
11
100.604
21
-153.189
0
LINE
8
BLACK
6
CONTINUOUS
10
100.604
20
-153.189
11
100.461
21
-153.332
0
LINE
8
BLACK
6
CONTINUOUS
10
100.461
20
-153.332
11
100.318
21
-153.189
0
LINE
8
BLACK
6
CONTINUOUS
10
100.318
20
-153.189
11
100.461
21
-153.046
0
LINE
8
BLACK
6
CONTINUOUS
10
100.461
20
-153.046
11
100.461
21
-153.332
0
LINE
8
BLACK
6
CONTINUOUS
10
100.461
20
-151.475
11
100.604
21
-151.618
0
LINE
8
BLACK
6
CONTINUOUS
10
100.604
20
-151.618
11
100.461
21
-151.761
0
LINE
8
BLACK
6
CONTINUOUS
10
100.461
20
-151.761
11
100.318
21
-151.618
0
LINE
8
BLACK
6
CONTINUOUS
10
100.318
20
-151.618
11
100.461
21
-151.475
0
LINE
8
BLACK
6
CONTINUOUS
10
100.461
20
-151.475
11
100.461
21
-151.761
0
LINE
8
BLACK
6
CONTINUOUS
10
76.225
20
-157.875
11
77.025
21
-158.675
0
LINE
8
BLACK
6
CONTINUOUS
10
77.025
20
-157.875
11
76.225
21
-158.675
0
LINE
8
BLACK
6
CONTINUOUS
10
80.4607
20
-156.632
11
80.7464
21
-156.632
0
LINE
8
BLACK
6
CONTINUOUS
10
80.7464
20
-156.632
11
81.0321
21
-156.775
0
LINE
8
BLACK
6
CONTINUOUS
10
81.0321
20
-156.775
11
81.175
21
-156.918
0
LINE
8
BLACK
6
CONTINUOUS
10
81.175
20
-156.918
11
81.3179
21
-157.204
0
LINE
8
BLACK
6
CONTINUOUS
10
81.3179
20
-157.204
11
81.4607
21
-157.775
0
LINE
8
BLACK
6
CONTINUOUS
10
81.4607
20
-157.775
11
81.4607
21
-158.489
0
LINE
8
BLACK
6
CONTINUOUS
10
81.4607
20
-158.489
11
81.3179
21
-159.061
0
LINE
8
BLACK
6
CONTINUOUS
10
81.3179
20
-159.061
11
81.175
21
-159.346
0
LINE
8
BLACK
6
CONTINUOUS
10
81.175
20
-159.346
11
81.0321
21
-159.489
0
LINE
8
BLACK
6
CONTINUOUS
10
81.0321
20
-159.489
11
80.7464
21
-159.632
0
LINE
8
BLACK
6
CONTINUOUS
10
80.7464
20
-159.632
11
80.4607
21
-159.632
0
LINE
8
BLACK
6
CONTINUOUS
10
80.4607
20
-159.632
11
80.175
21
-159.489
0
LINE
8
BLACK
6
CONTINUOUS
10
80.175
20
-159.489
11
80.0321
21
-159.346
0
LINE
8
BLACK
6
CONTINUOUS
10
80.0321
20
-159.346
11
79.8893
21
-159.061
0
LINE
8
BLACK
6
CONTINUOUS
10
79.8893
20
-159.061
11
79.7464
21
-158.489
0
LINE
8
BLACK
6
CONTINUOUS
10
79.7464
20
-158.489
11
79.7464
21
-157.775
0
LINE
8
BLACK
6
CONTINUOUS
10
79.7464
20
-157.775
11
79.8893
21
-157.204
0
LINE
8
BLACK
6
CONTINUOUS
10
79.8893
20
-157.204
11
80.0321
21
-156.918
0
LINE
8
BLACK
6
CONTINUOUS
10
80.0321
20
-156.918
11
80.175
21
-156.775
0
LINE
8
BLACK
6
CONTINUOUS
10
80.175
20
-156.775
11
80.4607
21
-156.632
0
LINE
8
BLACK
6
CONTINUOUS
10
82.7464
20
-159.346
11
82.8893
21
-159.489
0
LINE
8
BLACK
6
CONTINUOUS
10
82.8893
20
-159.489
11
82.7464
21
-159.632
0
LINE
8
BLACK
6
CONTINUOUS
10
82.7464
20
-159.632
11
82.6036
21
-159.489
0
LINE
8
BLACK
6
CONTINUOUS
10
82.6036
20
-159.489
11
82.7464
21
-159.346
0
LINE
8
BLACK
6
CONTINUOUS
10
82.7464
20
-159.346
11
82.7464
21
-159.632
0
LINE
8
BLACK
6
CONTINUOUS
10
84.6036
20
-157.918
11
84.3179
21
-157.775
0
LINE
8
BLACK
6
CONTINUOUS
10
84.3179
20
-157.775
11
84.175
21
-157.632
0
LINE
8
BLACK
6
CONTINUOUS
10
84.175
20
-157.632
11
84.0321
21
-157.346
0
LINE
8
BLACK
6
CONTINUOUS
10
84.0321
20
-157.346
11
84.0321
21
-157.204
0
LINE
8
BLACK
6
CONTINUOUS
10
84.0321
20
-157.204
11
84.175
21
-156.918
0
LINE
8
BLACK
6
CONTINUOUS
10
84.175
20
-156.918
11
84.3179
21
-156.775
0
LINE
8
BLACK
6
CONTINUOUS
10
84.3179
20
-156.775
11
84.6036
21
-156.632
0
LINE
8
BLACK
6
CONTINUOUS
10
84.6036
20
-156.632
11
85.175
21
-156.632
0
LINE
8
BLACK
6
CONTINUOUS
10
85.175
20
-156.632
11
85.4607
21
-156.775
0
LINE
8
BLACK
6
CONTINUOUS
10
85.4607
20
-156.775
11
85.6036
21
-156.918
0
LINE
8
BLACK
6
CONTINUOUS
10
85.6036
20
-156.918
11
85.7464
21
-157.204
0
LINE
8
BLACK
6
CONTINUOUS
10
85.7464
20
-157.204
11
85.7464
21
-157.346
0
LINE
8
BLACK
6
CONTINUOUS
10
85.7464
20
-157.346
11
85.6036
21
-157.632
0
LINE
8
BLACK
6
CONTINUOUS
10
85.6036
20
-157.632
11
85.4607
21
-157.775
0
LINE
8
BLACK
6
CONTINUOUS
10
85.4607
20
-157.775
11
85.175
21
-157.918
0
LINE
8
BLACK
6
CONTINUOUS
10
85.175
20
-157.918
11
84.6036
21
-157.918
0
LINE
8
BLACK
6
CONTINUOUS
10
84.6036
20
-157.918
11
84.3179
21
-158.061
0
LINE
8
BLACK
6
CONTINUOUS
10
84.3179
20
-158.061
11
84.175
21
-158.204
0
LINE
8
BLACK
6
CONTINUOUS
10
84.175
20
-158.204
11
84.0321
21
-158.489
0
LINE
8
BLACK
6
CONTINUOUS
10
84.0321
20
-158.489
11
84.0321
21
-159.061
0
LINE
8
BLACK
6
CONTINUOUS
10
84.0321
20
-159.061
11
84.175
21
-159.346
0
LINE
8
BLACK
6
CONTINUOUS
10
84.175
20
-159.346
11
84.3179
21
-159.489
0
LINE
8
BLACK
6
CONTINUOUS
10
84.3179
20
-159.489
11
84.6036
21
-159.632
0
LINE
8
BLACK
6
CONTINUOUS
10
84.6036
20
-159.632
11
85.175
21
-159.632
0
LINE
8
BLACK
6
CONTINUOUS
10
85.175
20
-159.632
11
85.4607
21
-159.489
0
LINE
8
BLACK
6
CONTINUOUS
10
85.4607
20
-159.489
11
85.6036
21
-159.346
0
LINE
8
BLACK
6
CONTINUOUS
10
85.6036
20
-159.346
11
85.7464
21
-159.061
0
LINE
8
BLACK
6
CONTINUOUS
10
85.7464
20
-159.061
11
85.7464
21
-158.489
0
LINE
8
BLACK
6
CONTINUOUS
10
85.7464
20
-158.489
11
85.6036
21
-158.204
0
LINE
8
BLACK
6
CONTINUOUS
10
85.6036
20
-158.204
11
85.4607
21
-158.061
0
LINE
8
BLACK
6
CONTINUOUS
10
85.4607
20
-158.061
11
85.175
21
-157.918
0
LINE
8
BLACK
6
CONTINUOUS
10
87.6036
20
-156.632
11
87.8893
21
-156.632
0
LINE
8
BLACK
6
CONTINUOUS
10
87.8893
20
-156.632
11
88.175
21
-156.775
0
LINE
8
BLACK
6
CONTINUOUS
10
88.175
20
-156.775
11
88.3179
21
-156.918
0
LINE
8
BLACK
6
CONTINUOUS
10
88.3179
20
-156.918
11
88.4607
21
-157.204
0
LINE
8
BLACK
6
CONTINUOUS
10
88.4607
20
-157.204
11
88.6036
21
-157.775
0
LINE
8
BLACK
6
CONTINUOUS
10
88.6036
20
-157.775
11
88.6036
21
-158.489
0
LINE
8
BLACK
6
CONTINUOUS
10
88.6036
20
-158.489
11
88.4607
21
-159.061
0
LINE
8
BLACK
6
CONTINUOUS
10
88.4607
20
-159.061
11
88.3179
21
-159.346
0
LINE
8
BLACK
6
CONTINUOUS
10
88.3179
20
-159.346
11
88.175
21
-159.489
0
LINE
8
BLACK
6
CONTINUOUS
10
88.175
20
-159.489
11
87.8893
21
-159.632
0
LINE
8
BLACK
6
CONTINUOUS
10
87.8893
20
-159.632
11
87.6036
21
-159.632
0
LINE
8
BLACK
6
CONTINUOUS
10
87.6036
20
-159.632
11
87.3179
21
-159.489
0
LINE
8
BLACK
6
CONTINUOUS
10
87.3179
20
-159.489
11
87.175
21
-159.346
0
LINE
8
BLACK
6
CONTINUOUS
10
87.175
20
-159.346
11
87.0321
21
-159.061
0
LINE
8
BLACK
6
CONTINUOUS
10
87.0321
20
-159.061
11
86.8893
21
-158.489
0
LINE
8
BLACK
6
CONTINUOUS
10
86.8893
20
-158.489
11
86.8893
21
-157.775
0
LINE
8
BLACK
6
CONTINUOUS
10
86.8893
20
-157.775
11
87.0321
21
-157.204
0
LINE
8
BLACK
6
CONTINUOUS
10
87.0321
20
-157.204
11
87.175
21
-156.918
0
LINE
8
BLACK
6
CONTINUOUS
10
87.175
20
-156.918
11
87.3179
21
-156.775
0
LINE
8
BLACK
6
CONTINUOUS
10
87.3179
20
-156.775
11
87.6036
21
-156.632
0
LINE
8
BLACK
6
CONTINUOUS
10
89.8893
20
-159.632
11
89.8893
21
-157.632
0
LINE
8
BLACK
6
CONTINUOUS
10
89.8893
20
-157.918
11
90.0321
21
-157.775
0
LINE
8
BLACK
6
CONTINUOUS
10
90.0321
20
-157.775
11
90.3179
21
-157.632
0
LINE
8
BLACK
6
CONTINUOUS
10
90.3179
20
-157.632
11
90.7464
21
-157.632
0
LINE
8
BLACK
6
CONTINUOUS
10
90.7464
20
-157.632
11
91.0321
21
-157.775
0
LINE
8
BLACK
6
CONTINUOUS
10
91.0321
20
-157.775
11
91.175
21
-158.061
0
LINE
8
BLACK
6
CONTINUOUS
10
91.175
20
-158.061
11
91.175
21
-159.632
0
LINE
8
BLACK
6
CONTINUOUS
10
91.175
20
-158.061
11
91.3179
21
-157.775
0
LINE
8
BLACK
6
CONTINUOUS
10
91.3179
20
-157.775
11
91.6036
21
-157.632
0
LINE
8
BLACK
6
CONTINUOUS
10
91.6036
20
-157.632
11
92.0321
21
-157.632
0
LINE
8
BLACK
6
CONTINUOUS
10
92.0321
20
-157.632
11
92.3179
21
-157.775
0
LINE
8
BLACK
6
CONTINUOUS
10
92.3179
20
-157.775
11
92.4607
21
-158.061
0
LINE
8
BLACK
6
CONTINUOUS
10
92.4607
20
-158.061
11
92.4607
21
-159.632
0
LINE
8
BLACK
6
CONTINUOUS
10
93.8893
20
-159.632
11
93.8893
21
-157.632
0
LINE
8
BLACK
6
CONTINUOUS
10
93.8893
20
-157.918
11
94.0321
21
-157.775
0
LINE
8
BLACK
6
CONTINUOUS
10
94.0321
20
-157.775
11
94.3179
21
-157.632
0
LINE
8
BLACK
6
CONTINUOUS
10
94.3179
20
-157.632
11
94.7464
21
-157.632
0
LINE
8
BLACK
6
CONTINUOUS
10
94.7464
20
-157.632
11
95.0321
21
-157.775
0
LINE
8
BLACK
6
CONTINUOUS
10
95.0321
20
-157.775
11
95.175
21
-158.061
0
LINE
8
BLACK
6
CONTINUOUS
10
95.175
20
-158.061
11
95.175
21
-159.632
0
LINE
8
BLACK
6
CONTINUOUS
10
95.175
20
-158.061
11
95.3179
21
-157.775
0
LINE
8
BLACK
6
CONTINUOUS
10
95.3179
20
-157.775
11
95.6036
21
-157.632
0
LINE
8
BLACK
6
CONTINUOUS
10
95.6036
20
-157.632
11
96.0321
21
-157.632
0
LINE
8
BLACK
6
CONTINUOUS
10
96.0321
20
-157.632
11
96.3179
21
-157.775
0
LINE
8
BLACK
6
CONTINUOUS
10
96.3179
20
-157.775
11
96.4607
21
-158.061
0
LINE
8
BLACK
6
CONTINUOUS
10
96.4607
20
-158.061
11
96.4607
21
-159.632
0
LINE
8
BLACK
6
CONTINUOUS
10
102.318
20
-156.489
11
99.7464
21
-160.346
0
LINE
8
BLACK
6
CONTINUOUS
10
106.175
20
-156.632
11
106.461
21
-156.632
0
LINE
8
BLACK
6
CONTINUOUS
10
106.461
20
-156.632
11
106.746
21
-156.775
0
LINE
8
BLACK
6
CONTINUOUS
10
106.746
20
-156.775
11
106.889
21
-156.918
0
LINE
8
BLACK
6
CONTINUOUS
10
106.889
20
-156.918
11
107.032
21
-157.204
0
LINE
8
BLACK
6
CONTINUOUS
10
107.032
20
-157.204
11
107.175
21
-157.775
0
LINE
8
BLACK
6
CONTINUOUS
10
107.175
20
-157.775
11
107.175
21
-158.489
0
LINE
8
BLACK
6
CONTINUOUS
10
107.175
20
-158.489
11
107.032
21
-159.061
0
LINE
8
BLACK
6
CONTINUOUS
10
107.032
20
-159.061
11
106.889
21
-159.346
0
LINE
8
BLACK
6
CONTINUOUS
10
106.889
20
-159.346
11
106.746
21
-159.489
0
LINE
8
BLACK
6
CONTINUOUS
10
106.746
20
-159.489
11
106.461
21
-159.632
0
LINE
8
BLACK
6
CONTINUOUS
10
106.461
20
-159.632
11
106.175
21
-159.632
0
LINE
8
BLACK
6
CONTINUOUS
10
106.175
20
-159.632
11
105.889
21
-159.489
0
LINE
8
BLACK
6
CONTINUOUS
10
105.889
20
-159.489
11
105.746
21
-159.346
0
LINE
8
BLACK
6
CONTINUOUS
10
105.746
20
-159.346
11
105.604
21
-159.061
0
LINE
8
BLACK
6
CONTINUOUS
10
105.604
20
-159.061
11
105.461
21
-158.489
0
LINE
8
BLACK
6
CONTINUOUS
10
105.461
20
-158.489
11
105.461
21
-157.775
0
LINE
8
BLACK
6
CONTINUOUS
10
105.461
20
-157.775
11
105.604
21
-157.204
0
LINE
8
BLACK
6
CONTINUOUS
10
105.604
20
-157.204
11
105.746
21
-156.918
0
LINE
8
BLACK
6
CONTINUOUS
10
105.746
20
-156.918
11
105.889
21
-156.775
0
LINE
8
BLACK
6
CONTINUOUS
10
105.889
20
-156.775
11
106.175
21
-156.632
0
LINE
8
BLACK
6
CONTINUOUS
10
108.461
20
-159.346
11
108.604
21
-159.489
0
LINE
8
BLACK
6
CONTINUOUS
10
108.604
20
-159.489
11
108.461
21
-159.632
0
LINE
8
BLACK
6
CONTINUOUS
10
108.461
20
-159.632
11
108.318
21
-159.489
0
LINE
8
BLACK
6
CONTINUOUS
10
108.318
20
-159.489
11
108.461
21
-159.346
0
LINE
8
BLACK
6
CONTINUOUS
10
108.461
20
-159.346
11
108.461
21
-159.632
0
LINE
8
BLACK
6
CONTINUOUS
10
110.461
20
-156.632
11
110.746
21
-156.632
0
LINE
8
BLACK
6
CONTINUOUS
10
110.746
20
-156.632
11
111.032
21
-156.775
0
LINE
8
BLACK
6
CONTINUOUS
10
111.032
20
-156.775
11
111.175
21
-156.918
0
LINE
8
BLACK
6
CONTINUOUS
10
111.175
20
-156.918
11
111.318
21
-157.204
0
LINE
8
BLACK
6
CONTINUOUS
10
111.318
20
-157.204
11
111.461
21
-157.775
0
LINE
8
BLACK
6
CONTINUOUS
10
111.461
20
-157.775
11
111.461
21
-158.489
0
LINE
8
BLACK
6
CONTINUOUS
10
111.461
20
-158.489
11
111.318
21
-159.061
0
LINE
8
BLACK
6
CONTINUOUS
10
111.318
20
-159.061
11
111.175
21
-159.346
0
LINE
8
BLACK
6
CONTINUOUS
10
111.175
20
-159.346
11
111.032
21
-159.489
0
LINE
8
BLACK
6
CONTINUOUS
10
111.032
20
-159.489
11
110.746
21
-159.632
0
LINE
8
BLACK
6
CONTINUOUS
10
110.746
20
-159.632
11
110.461
21
-159.632
0
LINE
8
BLACK
6
CONTINUOUS
10
110.461
20
-159.632
11
110.175
21
-159.489
0
LINE
8
BLACK
6
CONTINUOUS
10
110.175
20
-159.489
11
110.032
21
-159.346
0
LINE
8
BLACK
6
CONTINUOUS
10
110.032
20
-159.346
11
109.889
21
-159.061
0
LINE
8
BLACK
6
CONTINUOUS
10
109.889
20
-159.061
11
109.746
21
-158.489
0
LINE
8
BLACK
6
CONTINUOUS
10
109.746
20
-158.489
11
109.746
21
-157.775
0
LINE
8
BLACK
6
CONTINUOUS
10
109.746
20
-157.775
11
109.889
21
-157.204
0
LINE
8
BLACK
6
CONTINUOUS
10
109.889
20
-157.204
11
110.032
21
-156.918
0
LINE
8
BLACK
6
CONTINUOUS
10
110.032
20
-156.918
11
110.175
21
-156.775
0
LINE
8
BLACK
6
CONTINUOUS
10
110.175
20
-156.775
11
110.461
21
-156.632
0
LINE
8
BLACK
6
CONTINUOUS
10
112.461
20
-156.632
11
114.318
21
-156.632
0
LINE
8
BLACK
6
CONTINUOUS
10
114.318
20
-156.632
11
113.318
21
-157.775
0
LINE
8
BLACK
6
CONTINUOUS
10
113.318
20
-157.775
11
113.746
21
-157.775
0
LINE
8
BLACK
6
CONTINUOUS
10
113.746
20
-157.775
11
114.032
21
-157.918
0
LINE
8
BLACK
6
CONTINUOUS
10
114.032
20
-157.918
11
114.175
21
-158.061
0
LINE
8
BLACK
6
CONTINUOUS
10
114.175
20
-158.061
11
114.318
21
-158.346
0
LINE
8
BLACK
6
CONTINUOUS
10
114.318
20
-158.346
11
114.318
21
-159.061
0
LINE
8
BLACK
6
CONTINUOUS
10
114.318
20
-159.061
11
114.175
21
-159.346
0
LINE
8
BLACK
6
CONTINUOUS
10
114.175
20
-159.346
11
114.032
21
-159.489
0
LINE
8
BLACK
6
CONTINUOUS
10
114.032
20
-159.489
11
113.746
21
-159.632
0
LINE
8
BLACK
6
CONTINUOUS
10
113.746
20
-159.632
11
112.889
21
-159.632
0
LINE
8
BLACK
6
CONTINUOUS
10
112.889
20
-159.632
11
112.604
21
-159.489
0
LINE
8
BLACK
6
CONTINUOUS
10
112.604
20
-159.489
11
112.461
21
-159.346
0
LINE
8
BLACK
6
CONTINUOUS
10
117.175
20
-159.632
11
115.461
21
-159.632
0
LINE
8
BLACK
6
CONTINUOUS
10
116.318
20
-159.632
11
116.318
21
-156.632
0
LINE
8
BLACK
6
CONTINUOUS
10
116.318
20
-156.632
11
116.032
21
-157.061
0
LINE
8
BLACK
6
CONTINUOUS
10
116.032
20
-157.061
11
115.746
21
-157.346
0
LINE
8
BLACK
6
CONTINUOUS
10
115.746
20
-157.346
11
115.461
21
-157.489
0
LINE
8
BLACK
6
CONTINUOUS
10
118.318
20
-156.632
11
118.318
21
-157.204
0
LINE
8
BLACK
6
CONTINUOUS
10
119.461
20
-156.632
11
119.461
21
-157.204
0
LINE
8
BLACK
6
CONTINUOUS
10
123.889
20
-160.775
11
123.746
21
-160.632
0
LINE
8
BLACK
6
CONTINUOUS
10
123.746
20
-160.632
11
123.461
21
-160.204
0
LINE
8
BLACK
6
CONTINUOUS
10
123.461
20
-160.204
11
123.318
21
-159.918
0
LINE
8
BLACK
6
CONTINUOUS
10
123.318
20
-159.918
11
123.175
21
-159.489
0
LINE
8
BLACK
6
CONTINUOUS
10
123.175
20
-159.489
11
123.032
21
-158.775
0
LINE
8
BLACK
6
CONTINUOUS
10
123.032
20
-158.775
11
123.032
21
-158.204
0
LINE
8
BLACK
6
CONTINUOUS
10
123.032
20
-158.204
11
123.175
21
-157.489
0
LINE
8
BLACK
6
CONTINUOUS
10
123.175
20
-157.489
11
123.318
21
-157.061
0
LINE
8
BLACK
6
CONTINUOUS
10
123.318
20
-157.061
11
123.461
21
-156.775
0
LINE
8
BLACK
6
CONTINUOUS
10
123.461
20
-156.775
11
123.746
21
-156.346
0
LINE
8
BLACK
6
CONTINUOUS
10
123.746
20
-156.346
11
123.889
21
-156.204
0
LINE
8
BLACK
6
CONTINUOUS
10
126.318
20
-156.632
11
125.746
21
-156.632
0
LINE
8
BLACK
6
CONTINUOUS
10
125.746
20
-156.632
11
125.461
21
-156.775
0
LINE
8
BLACK
6
CONTINUOUS
10
125.461
20
-156.775
11
125.318
21
-156.918
0
LINE
8
BLACK
6
CONTINUOUS
10
125.318
20
-156.918
11
125.032
21
-157.346
0
LINE
8
BLACK
6
CONTINUOUS
10
125.032
20
-157.346
11
124.889
21
-157.918
0
LINE
8
BLACK
6
CONTINUOUS
10
124.889
20
-157.918
11
124.889
21
-159.061
0
LINE
8
BLACK
6
CONTINUOUS
10
124.889
20
-159.061
11
125.032
21
-159.346
0
LINE
8
BLACK
6
CONTINUOUS
10
125.032
20
-159.346
11
125.175
21
-159.489
0
LINE
8
BLACK
6
CONTINUOUS
10
125.175
20
-159.489
11
125.461
21
-159.632
0
LINE
8
BLACK
6
CONTINUOUS
10
125.461
20
-159.632
11
126.032
21
-159.632
0
LINE
8
BLACK
6
CONTINUOUS
10
126.032
20
-159.632
11
126.318
21
-159.489
0
LINE
8
BLACK
6
CONTINUOUS
10
126.318
20
-159.489
11
126.461
21
-159.346
0
LINE
8
BLACK
6
CONTINUOUS
10
126.461
20
-159.346
11
126.604
21
-159.061
0
LINE
8
BLACK
6
CONTINUOUS
10
126.604
20
-159.061
11
126.604
21
-158.346
0
LINE
8
BLACK
6
CONTINUOUS
10
126.604
20
-158.346
11
126.461
21
-158.061
0
LINE
8
BLACK
6
CONTINUOUS
10
126.461
20
-158.061
11
126.318
21
-157.918
0
LINE
8
BLACK
6
CONTINUOUS
10
126.318
20
-157.918
11
126.032
21
-157.775
0
LINE
8
BLACK
6
CONTINUOUS
10
126.032
20
-157.775
11
125.461
21
-157.775
0
LINE
8
BLACK
6
CONTINUOUS
10
125.461
20
-157.775
11
125.175
21
-157.918
0
LINE
8
BLACK
6
CONTINUOUS
10
125.175
20
-157.918
11
125.032
21
-158.061
0
LINE
8
BLACK
6
CONTINUOUS
10
125.032
20
-158.061
11
124.889
21
-158.346
0
LINE
8
BLACK
6
CONTINUOUS
10
128.032
20
-159.632
11
128.604
21
-159.632
0
LINE
8
BLACK
6
CONTINUOUS
10
128.604
20
-159.632
11
128.889
21
-159.489
0
LINE
8
BLACK
6
CONTINUOUS
10
128.889
20
-159.489
11
129.032
21
-159.346
0
LINE
8
BLACK
6
CONTINUOUS
10
129.032
20
-159.346
11
129.318
21
-158.918
0
LINE
8
BLACK
6
CONTINUOUS
10
129.318
20
-158.918
11
129.461
21
-158.346
0
LINE
8
BLACK
6
CONTINUOUS
10
129.461
20
-158.346
11
129.461
21
-157.204
0
LINE
8
BLACK
6
CONTINUOUS
10
129.461
20
-157.204
11
129.318
21
-156.918
0
LINE
8
BLACK
6
CONTINUOUS
10
129.318
20
-156.918
11
129.175
21
-156.775
0
LINE
8
BLACK
6
CONTINUOUS
10
129.175
20
-156.775
11
128.889
21
-156.632
0
LINE
8
BLACK
6
CONTINUOUS
10
128.889
20
-156.632
11
128.318
21
-156.632
0
LINE
8
BLACK
6
CONTINUOUS
10
128.318
20
-156.632
11
128.032
21
-156.775
0
LINE
8
BLACK
6
CONTINUOUS
10
128.032
20
-156.775
11
127.889
21
-156.918
0
LINE
8
BLACK
6
CONTINUOUS
10
127.889
20
-156.918
11
127.746
21
-157.204
0
LINE
8
BLACK
6
CONTINUOUS
10
127.746
20
-157.204
11
127.746
21
-157.918
0
LINE
8
BLACK
6
CONTINUOUS
10
127.746
20
-157.918
11
127.889
21
-158.204
0
LINE
8
BLACK
6
CONTINUOUS
10
127.889
20
-158.204
11
128.032
21
-158.346
0
LINE
8
BLACK
6
CONTINUOUS
10
128.032
20
-158.346
11
128.318
21
-158.489
0
LINE
8
BLACK
6
CONTINUOUS
10
128.318
20
-158.489
11
128.889
21
-158.489
0
LINE
8
BLACK
6
CONTINUOUS
10
128.889
20
-158.489
11
129.175
21
-158.346
0
LINE
8
BLACK
6
CONTINUOUS
10
129.175
20
-158.346
11
129.318
21
-158.204
0
LINE
8
BLACK
6
CONTINUOUS
10
129.318
20
-158.204
11
129.461
21
-157.918
0
LINE
8
BLACK
6
CONTINUOUS
10
133.032
20
-159.632
11
133.032
21
-156.632
0
LINE
8
BLACK
6
CONTINUOUS
10
134.318
20
-159.632
11
134.318
21
-158.061
0
LINE
8
BLACK
6
CONTINUOUS
10
134.318
20
-158.061
11
134.175
21
-157.775
0
LINE
8
BLACK
6
CONTINUOUS
10
134.175
20
-157.775
11
133.889
21
-157.632
0
LINE
8
BLACK
6
CONTINUOUS
10
133.889
20
-157.632
11
133.461
21
-157.632
0
LINE
8
BLACK
6
CONTINUOUS
10
133.461
20
-157.632
11
133.175
21
-157.775
0
LINE
8
BLACK
6
CONTINUOUS
10
133.175
20
-157.775
11
133.032
21
-157.918
0
LINE
8
BLACK
6
CONTINUOUS
10
136.175
20
-159.632
11
135.889
21
-159.489
0
LINE
8
BLACK
6
CONTINUOUS
10
135.889
20
-159.489
11
135.746
21
-159.346
0
LINE
8
BLACK
6
CONTINUOUS
10
135.746
20
-159.346
11
135.604
21
-159.061
0
LINE
8
BLACK
6
CONTINUOUS
10
135.604
20
-159.061
11
135.604
21
-158.204
0
LINE
8
BLACK
6
CONTINUOUS
10
135.604
20
-158.204
11
135.746
21
-157.918
0
LINE
8
BLACK
6
CONTINUOUS
10
135.746
20
-157.918
11
135.889
21
-157.775
0
LINE
8
BLACK
6
CONTINUOUS
10
135.889
20
-157.775
11
136.175
21
-157.632
0
LINE
8
BLACK
6
CONTINUOUS
10
136.175
20
-157.632
11
136.604
21
-157.632
0
LINE
8
BLACK
6
CONTINUOUS
10
136.604
20
-157.632
11
136.889
21
-157.775
0
LINE
8
BLACK
6
CONTINUOUS
10
136.889
20
-157.775
11
137.032
21
-157.918
0
LINE
8
BLACK
6
CONTINUOUS
10
137.032
20
-157.918
11
137.175
21
-158.204
0
LINE
8
BLACK
6
CONTINUOUS
10
137.175
20
-158.204
11
137.175
21
-159.061
0
LINE
8
BLACK
6
CONTINUOUS
10
137.175
20
-159.061
11
137.032
21
-159.346
0
LINE
8
BLACK
6
CONTINUOUS
10
137.032
20
-159.346
11
136.889
21
-159.489
0
LINE
8
BLACK
6
CONTINUOUS
10
136.889
20
-159.489
11
136.604
21
-159.632
0
LINE
8
BLACK
6
CONTINUOUS
10
136.604
20
-159.632
11
136.175
21
-159.632
0
LINE
8
BLACK
6
CONTINUOUS
10
138.889
20
-159.632
11
138.604
21
-159.489
0
LINE
8
BLACK
6
CONTINUOUS
10
138.604
20
-159.489
11
138.461
21
-159.204
0
LINE
8
BLACK
6
CONTINUOUS
10
138.461
20
-159.204
11
138.461
21
-156.632
0
LINE
8
BLACK
6
CONTINUOUS
10
141.175
20
-159.489
11
140.889
21
-159.632
0
LINE
8
BLACK
6
CONTINUOUS
10
140.889
20
-159.632
11
140.318
21
-159.632
0
LINE
8
BLACK
6
CONTINUOUS
10
140.318
20
-159.632
11
140.032
21
-159.489
0
LINE
8
BLACK
6
CONTINUOUS
10
140.032
20
-159.489
11
139.889
21
-159.204
0
LINE
8
BLACK
6
CONTINUOUS
10
139.889
20
-159.204
11
139.889
21
-158.061
0
LINE
8
BLACK
6
CONTINUOUS
10
139.889
20
-158.061
11
140.032
21
-157.775
0
LINE
8
BLACK
6
CONTINUOUS
10
140.032
20
-157.775
11
140.318
21
-157.632
0
LINE
8
BLACK
6
CONTINUOUS
10
140.318
20
-157.632
11
140.889
21
-157.632
0
LINE
8
BLACK
6
CONTINUOUS
10
140.889
20
-157.632
11
141.175
21
-157.775
0
LINE
8
BLACK
6
CONTINUOUS
10
141.175
20
-157.775
11
141.318
21
-158.061
0
LINE
8
BLACK
6
CONTINUOUS
10
141.318
20
-158.061
11
141.318
21
-158.346
0
LINE
8
BLACK
6
CONTINUOUS
10
141.318
20
-158.346
11
139.889
21
-158.632
0
LINE
8
BLACK
6
CONTINUOUS
10
142.461
20
-159.489
11
142.746
21
-159.632
0
LINE
8
BLACK
6
CONTINUOUS
10
142.746
20
-159.632
11
143.318
21
-159.632
0
LINE
8
BLACK
6
CONTINUOUS
10
143.318
20
-159.632
11
143.604
21
-159.489
0
LINE
8
BLACK
6
CONTINUOUS
10
143.604
20
-159.489
11
143.746
21
-159.204
0
LINE
8
BLACK
6
CONTINUOUS
10
143.746
20
-159.204
11
143.746
21
-159.061
0
LINE
8
BLACK
6
CONTINUOUS
10
143.746
20
-159.061
11
143.604
21
-158.775
0
LINE
8
BLACK
6
CONTINUOUS
10
143.604
20
-158.775
11
143.318
21
-158.632
0
LINE
8
BLACK
6
CONTINUOUS
10
143.318
20
-158.632
11
142.889
21
-158.632
0
LINE
8
BLACK
6
CONTINUOUS
10
142.889
20
-158.632
11
142.604
21
-158.489
0
LINE
8
BLACK
6
CONTINUOUS
10
142.604
20
-158.489
11
142.461
21
-158.204
0
LINE
8
BLACK
6
CONTINUOUS
10
142.461
20
-158.204
11
142.461
21
-158.061
0
LINE
8
BLACK
6
CONTINUOUS
10
142.461
20
-158.061
11
142.604
21
-157.775
0
LINE
8
BLACK
6
CONTINUOUS
10
142.604
20
-157.775
11
142.889
21
-157.632
0
LINE
8
BLACK
6
CONTINUOUS
10
142.889
20
-157.632
11
143.318
21
-157.632
0
LINE
8
BLACK
6
CONTINUOUS
10
143.318
20
-157.632
11
143.604
21
-157.775
0
LINE
8
BLACK
6
CONTINUOUS
10
144.746
20
-160.775
11
144.889
21
-160.632
0
LINE
8
BLACK
6
CONTINUOUS
10
144.889
20
-160.632
11
145.175
21
-160.204
0
LINE
8
BLACK
6
CONTINUOUS
10
145.175
20
-160.204
11
145.318
21
-159.918
0
LINE
8
BLACK
6
CONTINUOUS
10
145.318
20
-159.918
11
145.461
21
-159.489
0
LINE
8
BLACK
6
CONTINUOUS
10
145.461
20
-159.489
11
145.604
21
-158.775
0
LINE
8
BLACK
6
CONTINUOUS
10
145.604
20
-158.775
11
145.604
21
-158.204
0
LINE
8
BLACK
6
CONTINUOUS
10
145.604
20
-158.204
11
145.461
21
-157.489
0
LINE
8
BLACK
6
CONTINUOUS
10
145.461
20
-157.489
11
145.318
21
-157.061
0
LINE
8
BLACK
6
CONTINUOUS
10
145.318
20
-157.061
11
145.175
21
-156.775
0
LINE
8
BLACK
6
CONTINUOUS
10
145.175
20
-156.775
11
144.889
21
-156.346
0
LINE
8
BLACK
6
CONTINUOUS
10
144.889
20
-156.346
11
144.746
21
-156.204
0
CIRCLE
8
BLACK
10
76.525
20
-162.235
40
0.5
0
LINE
8
BLACK
6
CONTINUOUS
10
81.4607
20
-163.592
11
79.7464
21
-163.592
0
LINE
8
BLACK
6
CONTINUOUS
10
80.6036
20
-163.592
11
80.6036
21
-160.592
0
LINE
8
BLACK
6
CONTINUOUS
10
80.6036
20
-160.592
11
80.3179
21
-161.021
0
LINE
8
BLACK
6
CONTINUOUS
10
80.3179
20
-161.021
11
80.0321
21
-161.306
0
LINE
8
BLACK
6
CONTINUOUS
10
80.0321
20
-161.306
11
79.7464
21
-161.449
0
LINE
8
BLACK
6
CONTINUOUS
10
82.7464
20
-163.306
11
82.8893
21
-163.449
0
LINE
8
BLACK
6
CONTINUOUS
10
82.8893
20
-163.449
11
82.7464
21
-163.592
0
LINE
8
BLACK
6
CONTINUOUS
10
82.7464
20
-163.592
11
82.6036
21
-163.449
0
LINE
8
BLACK
6
CONTINUOUS
10
82.6036
20
-163.449
11
82.7464
21
-163.306
0
LINE
8
BLACK
6
CONTINUOUS
10
82.7464
20
-163.306
11
82.7464
21
-163.592
0
LINE
8
BLACK
6
CONTINUOUS
10
84.7464
20
-160.592
11
85.0321
21
-160.592
0
LINE
8
BLACK
6
CONTINUOUS
10
85.0321
20
-160.592
11
85.3179
21
-160.735
0
LINE
8
BLACK
6
CONTINUOUS
10
85.3179
20
-160.735
11
85.4607
21
-160.878
0
LINE
8
BLACK
6
CONTINUOUS
10
85.4607
20
-160.878
11
85.6036
21
-161.164
0
LINE
8
BLACK
6
CONTINUOUS
10
85.6036
20
-161.164
11
85.7464
21
-161.735
0
LINE
8
BLACK
6
CONTINUOUS
10
85.7464
20
-161.735
11
85.7464
21
-162.449
0
LINE
8
BLACK
6
CONTINUOUS
10
85.7464
20
-162.449
11
85.6036
21
-163.021
0
LINE
8
BLACK
6
CONTINUOUS
10
85.6036
20
-163.021
11
85.4607
21
-163.306
0
LINE
8
BLACK
6
CONTINUOUS
10
85.4607
20
-163.306
11
85.3179
21
-163.449
0
LINE
8
BLACK
6
CONTINUOUS
10
85.3179
20
-163.449
11
85.0321
21
-163.592
0
LINE
8
BLACK
6
CONTINUOUS
10
85.0321
20
-163.592
11
84.7464
21
-163.592
0
LINE
8
BLACK
6
CONTINUOUS
10
84.7464
20
-163.592
11
84.4607
21
-163.449
0
LINE
8
BLACK
6
CONTINUOUS
10
84.4607
20
-163.449
11
84.3179
21
-163.306
0
LINE
8
BLACK
6
CONTINUOUS
10
84.3179
20
-163.306
11
84.175
21
-163.021
0
LINE
8
BLACK
6
CONTINUOUS
10
84.175
20
-163.021
11
84.0321
21
-162.449
0
LINE
8
BLACK
6
CONTINUOUS
10
84.0321
20
-162.449
11
84.0321
21
-161.735
0
LINE
8
BLACK
6
CONTINUOUS
10
84.0321
20
-161.735
11
84.175
21
-161.164
0
LINE
8
BLACK
6
CONTINUOUS
10
84.175
20
-161.164
11
84.3179
21
-160.878
0
LINE
8
BLACK
6
CONTINUOUS
10
84.3179
20
-160.878
11
84.4607
21
-160.735
0
LINE
8
BLACK
6
CONTINUOUS
10
84.4607
20
-160.735
11
84.7464
21
-160.592
0
LINE
8
BLACK
6
CONTINUOUS
10
87.6036
20
-160.592
11
87.8893
21
-160.592
0
LINE
8
BLACK
6
CONTINUOUS
10
87.8893
20
-160.592
11
88.175
21
-160.735
0
LINE
8
BLACK
6
CONTINUOUS
10
88.175
20
-160.735
11
88.3179
21
-160.878
0
LINE
8
BLACK
6
CONTINUOUS
10
88.3179
20
-160.878
11
88.4607
21
-161.164
0
LINE
8
BLACK
6
CONTINUOUS
10
88.4607
20
-161.164
11
88.6036
21
-161.735
0
LINE
8
BLACK
6
CONTINUOUS
10
88.6036
20
-161.735
11
88.6036
21
-162.449
0
LINE
8
BLACK
6
CONTINUOUS
10
88.6036
20
-162.449
11
88.4607
21
-163.021
0
LINE
8
BLACK
6
CONTINUOUS
10
88.4607
20
-163.021
11
88.3179
21
-163.306
0
LINE
8
BLACK
6
CONTINUOUS
10
88.3179
20
-163.306
11
88.175
21
-163.449
0
LINE
8
BLACK
6
CONTINUOUS
10
88.175
20
-163.449
11
87.8893
21
-163.592
0
LINE
8
BLACK
6
CONTINUOUS
10
87.8893
20
-163.592
11
87.6036
21
-163.592
0
LINE
8
BLACK
6
CONTINUOUS
10
87.6036
20
-163.592
11
87.3179
21
-163.449
0
LINE
8
BLACK
6
CONTINUOUS
10
87.3179
20
-163.449
11
87.175
21
-163.306
0
LINE
8
BLACK
6
CONTINUOUS
10
87.175
20
-163.306
11
87.0321
21
-163.021
0
LINE
8
BLACK
6
CONTINUOUS
10
87.0321
20
-163.021
11
86.8893
21
-162.449
0
LINE
8
BLACK
6
CONTINUOUS
10
86.8893
20
-162.449
11
86.8893
21
-161.735
0
LINE
8
BLACK
6
CONTINUOUS
10
86.8893
20
-161.735
11
87.0321
21
-161.164
0
LINE
8
BLACK
6
CONTINUOUS
10
87.0321
20
-161.164
11
87.175
21
-160.878
0
LINE
8
BLACK
6
CONTINUOUS
10
87.175
20
-160.878
11
87.3179
21
-160.735
0
LINE
8
BLACK
6
CONTINUOUS
10
87.3179
20
-160.735
11
87.6036
21
-160.592
0
LINE
8
BLACK
6
CONTINUOUS
10
89.8893
20
-163.592
11
89.8893
21
-161.592
0
LINE
8
BLACK
6
CONTINUOUS
10
89.8893
20
-161.878
11
90.0321
21
-161.735
0
LINE
8
BLACK
6
CONTINUOUS
10
90.0321
20
-161.735
11
90.3179
21
-161.592
0
LINE
8
BLACK
6
CONTINUOUS
10
90.3179
20
-161.592
11
90.7464
21
-161.592
0
LINE
8
BLACK
6
CONTINUOUS
10
90.7464
20
-161.592
11
91.0321
21
-161.735
0
LINE
8
BLACK
6
CONTINUOUS
10
91.0321
20
-161.735
11
91.175
21
-162.021
0
LINE
8
BLACK
6
CONTINUOUS
10
91.175
20
-162.021
11
91.175
21
-163.592
0
LINE
8
BLACK
6
CONTINUOUS
10
91.175
20
-162.021
11
91.3179
21
-161.735
0
LINE
8
BLACK
6
CONTINUOUS
10
91.3179
20
-161.735
11
91.6036
21
-161.592
0
LINE
8
BLACK
6
CONTINUOUS
10
91.6036
20
-161.592
11
92.0321
21
-161.592
0
LINE
8
BLACK
6
CONTINUOUS
10
92.0321
20
-161.592
11
92.3179
21
-161.735
0
LINE
8
BLACK
6
CONTINUOUS
10
92.3179
20
-161.735
11
92.4607
21
-162.021
0
LINE
8
BLACK
6
CONTINUOUS
10
92.4607
20
-162.021
11
92.4607
21
-163.592
0
LINE
8
BLACK
6
CONTINUOUS
10
93.8893
20
-163.592
11
93.8893
21
-161.592
0
LINE
8
BLACK
6
CONTINUOUS
10
93.8893
20
-161.878
11
94.0321
21
-161.735
0
LINE
8
BLACK
6
CONTINUOUS
10
94.0321
20
-161.735
11
94.3179
21
-161.592
0
LINE
8
BLACK
6
CONTINUOUS
10
94.3179
20
-161.592
11
94.7464
21
-161.592
0
LINE
8
BLACK
6
CONTINUOUS
10
94.7464
20
-161.592
11
95.0321
21
-161.735
0
LINE
8
BLACK
6
CONTINUOUS
10
95.0321
20
-161.735
11
95.175
21
-162.021
0
LINE
8
BLACK
6
CONTINUOUS
10
95.175
20
-162.021
11
95.175
21
-163.592
0
LINE
8
BLACK
6
CONTINUOUS
10
95.175
20
-162.021
11
95.3179
21
-161.735
0
LINE
8
BLACK
6
CONTINUOUS
10
95.3179
20
-161.735
11
95.6036
21
-161.592
0
LINE
8
BLACK
6
CONTINUOUS
10
95.6036
20
-161.592
11
96.0321
21
-161.592
0
LINE
8
BLACK
6
CONTINUOUS
10
96.0321
20
-161.592
11
96.3179
21
-161.735
0
LINE
8
BLACK
6
CONTINUOUS
10
96.3179
20
-161.735
11
96.4607
21
-162.021
0
LINE
8
BLACK
6
CONTINUOUS
10
96.4607
20
-162.021
11
96.4607
21
-163.592
0
LINE
8
BLACK
6
CONTINUOUS
10
102.318
20
-160.449
11
99.7464
21
-164.306
0
LINE
8
BLACK
6
CONTINUOUS
10
106.175
20
-160.592
11
106.461
21
-160.592
0
LINE
8
BLACK
6
CONTINUOUS
10
106.461
20
-160.592
11
106.746
21
-160.735
0
LINE
8
BLACK
6
CONTINUOUS
10
106.746
20
-160.735
11
106.889
21
-160.878
0
LINE
8
BLACK
6
CONTINUOUS
10
106.889
20
-160.878
11
107.032
21
-161.164
0
LINE
8
BLACK
6
CONTINUOUS
10
107.032
20
-161.164
11
107.175
21
-161.735
0
LINE
8
BLACK
6
CONTINUOUS
10
107.175
20
-161.735
11
107.175
21
-162.449
0
LINE
8
BLACK
6
CONTINUOUS
10
107.175
20
-162.449
11
107.032
21
-163.021
0
LINE
8
BLACK
6
CONTINUOUS
10
107.032
20
-163.021
11
106.889
21
-163.306
0
LINE
8
BLACK
6
CONTINUOUS
10
106.889
20
-163.306
11
106.746
21
-163.449
0
LINE
8
BLACK
6
CONTINUOUS
10
106.746
20
-163.449
11
106.461
21
-163.592
0
LINE
8
BLACK
6
CONTINUOUS
10
106.461
20
-163.592
11
106.175
21
-163.592
0
LINE
8
BLACK
6
CONTINUOUS
10
106.175
20
-163.592
11
105.889
21
-163.449
0
LINE
8
BLACK
6
CONTINUOUS
10
105.889
20
-163.449
11
105.746
21
-163.306
0
LINE
8
BLACK
6
CONTINUOUS
10
105.746
20
-163.306
11
105.604
21
-163.021
0
LINE
8
BLACK
6
CONTINUOUS
10
105.604
20
-163.021
11
105.461
21
-162.449
0
LINE
8
BLACK
6
CONTINUOUS
10
105.461
20
-162.449
11
105.461
21
-161.735
0
LINE
8
BLACK
6
CONTINUOUS
10
105.461
20
-161.735
11
105.604
21
-161.164
0
LINE
8
BLACK
6
CONTINUOUS
10
105.604
20
-161.164
11
105.746
21
-160.878
0
LINE
8
BLACK
6
CONTINUOUS
10
105.746
20
-160.878
11
105.889
21
-160.735
0
LINE
8
BLACK
6
CONTINUOUS
10
105.889
20
-160.735
11
106.175
21
-160.592
0
LINE
8
BLACK
6
CONTINUOUS
10
108.461
20
-163.306
11
108.604
21
-163.449
0
LINE
8
BLACK
6
CONTINUOUS
10
108.604
20
-163.449
11
108.461
21
-163.592
0
LINE
8
BLACK
6
CONTINUOUS
10
108.461
20
-163.592
11
108.318
21
-163.449
0
LINE
8
BLACK
6
CONTINUOUS
10
108.318
20
-163.449
11
108.461
21
-163.306
0
LINE
8
BLACK
6
CONTINUOUS
10
108.461
20
-163.306
11
108.461
21
-163.592
0
LINE
8
BLACK
6
CONTINUOUS
10
110.461
20
-160.592
11
110.746
21
-160.592
0
LINE
8
BLACK
6
CONTINUOUS
10
110.746
20
-160.592
11
111.032
21
-160.735
0
LINE
8
BLACK
6
CONTINUOUS
10
111.032
20
-160.735
11
111.175
21
-160.878
0
LINE
8
BLACK
6
CONTINUOUS
10
111.175
20
-160.878
11
111.318
21
-161.164
0
LINE
8
BLACK
6
CONTINUOUS
10
111.318
20
-161.164
11
111.461
21
-161.735
0
LINE
8
BLACK
6
CONTINUOUS
10
111.461
20
-161.735
11
111.461
21
-162.449
0
LINE
8
BLACK
6
CONTINUOUS
10
111.461
20
-162.449
11
111.318
21
-163.021
0
LINE
8
BLACK
6
CONTINUOUS
10
111.318
20
-163.021
11
111.175
21
-163.306
0
LINE
8
BLACK
6
CONTINUOUS
10
111.175
20
-163.306
11
111.032
21
-163.449
0
LINE
8
BLACK
6
CONTINUOUS
10
111.032
20
-163.449
11
110.746
21
-163.592
0
LINE
8
BLACK
6
CONTINUOUS
10
110.746
20
-163.592
11
110.461
21
-163.592
0
LINE
8
BLACK
6
CONTINUOUS
10
110.461
20
-163.592
11
110.175
21
-163.449
0
LINE
8
BLACK
6
CONTINUOUS
10
110.175
20
-163.449
11
110.032
21
-163.306
0
LINE
8
BLACK
6
CONTINUOUS
10
110.032
20
-163.306
11
109.889
21
-163.021
0
LINE
8
BLACK
6
CONTINUOUS
10
109.889
20
-163.021
11
109.746
21
-162.449
0
LINE
8
BLACK
6
CONTINUOUS
10
109.746
20
-162.449
11
109.746
21
-161.735
0
LINE
8
BLACK
6
CONTINUOUS
10
109.746
20
-161.735
11
109.889
21
-161.164
0
LINE
8
BLACK
6
CONTINUOUS
10
109.889
20
-161.164
11
110.032
21
-160.878
0
LINE
8
BLACK
6
CONTINUOUS
10
110.032
20
-160.878
11
110.175
21
-160.735
0
LINE
8
BLACK
6
CONTINUOUS
10
110.175
20
-160.735
11
110.461
21
-160.592
0
LINE
8
BLACK
6
CONTINUOUS
10
112.461
20
-160.592
11
114.318
21
-160.592
0
LINE
8
BLACK
6
CONTINUOUS
10
114.318
20
-160.592
11
113.318
21
-161.735
0
LINE
8
BLACK
6
CONTINUOUS
10
113.318
20
-161.735
11
113.746
21
-161.735
0
LINE
8
BLACK
6
CONTINUOUS
10
113.746
20
-161.735
11
114.032
21
-161.878
0
LINE
8
BLACK
6
CONTINUOUS
10
114.032
20
-161.878
11
114.175
21
-162.021
0
LINE
8
BLACK
6
CONTINUOUS
10
114.175
20
-162.021
11
114.318
21
-162.306
0
LINE
8
BLACK
6
CONTINUOUS
10
114.318
20
-162.306
11
114.318
21
-163.021
0
LINE
8
BLACK
6
CONTINUOUS
10
114.318
20
-163.021
11
114.175
21
-163.306
0
LINE
8
BLACK
6
CONTINUOUS
10
114.175
20
-163.306
11
114.032
21
-163.449
0
LINE
8
BLACK
6
CONTINUOUS
10
114.032
20
-163.449
11
113.746
21
-163.592
0
LINE
8
BLACK
6
CONTINUOUS
10
113.746
20
-163.592
11
112.889
21
-163.592
0
LINE
8
BLACK
6
CONTINUOUS
10
112.889
20
-163.592
11
112.604
21
-163.449
0
LINE
8
BLACK
6
CONTINUOUS
10
112.604
20
-163.449
11
112.461
21
-163.306
0
LINE
8
BLACK
6
CONTINUOUS
10
115.746
20
-163.592
11
116.318
21
-163.592
0
LINE
8
BLACK
6
CONTINUOUS
10
116.318
20
-163.592
11
116.604
21
-163.449
0
LINE
8
BLACK
6
CONTINUOUS
10
116.604
20
-163.449
11
116.746
21
-163.306
0
LINE
8
BLACK
6
CONTINUOUS
10
116.746
20
-163.306
11
117.032
21
-162.878
0
LINE
8
BLACK
6
CONTINUOUS
10
117.032
20
-162.878
11
117.175
21
-162.306
0
LINE
8
BLACK
6
CONTINUOUS
10
117.175
20
-162.306
11
117.175
21
-161.164
0
LINE
8
BLACK
6
CONTINUOUS
10
117.175
20
-161.164
11
117.032
21
-160.878
0
LINE
8
BLACK
6
CONTINUOUS
10
117.032
20
-160.878
11
116.889
21
-160.735
0
LINE
8
BLACK
6
CONTINUOUS
10
116.889
20
-160.735
11
116.604
21
-160.592
0
LINE
8
BLACK
6
CONTINUOUS
10
116.604
20
-160.592
11
116.032
21
-160.592
0
LINE
8
BLACK
6
CONTINUOUS
10
116.032
20
-160.592
11
115.746
21
-160.735
0
LINE
8
BLACK
6
CONTINUOUS
10
115.746
20
-160.735
11
115.604
21
-160.878
0
LINE
8
BLACK
6
CONTINUOUS
10
115.604
20
-160.878
11
115.461
21
-161.164
0
LINE
8
BLACK
6
CONTINUOUS
10
115.461
20
-161.164
11
115.461
21
-161.878
0
LINE
8
BLACK
6
CONTINUOUS
10
115.461
20
-161.878
11
115.604
21
-162.164
0
LINE
8
BLACK
6
CONTINUOUS
10
115.604
20
-162.164
11
115.746
21
-162.306
0
LINE
8
BLACK
6
CONTINUOUS
10
115.746
20
-162.306
11
116.032
21
-162.449
0
LINE
8
BLACK
6
CONTINUOUS
10
116.032
20
-162.449
11
116.604
21
-162.449
0
LINE
8
BLACK
6
CONTINUOUS
10
116.604
20
-162.449
11
116.889
21
-162.306
0
LINE
8
BLACK
6
CONTINUOUS
10
116.889
20
-162.306
11
117.032
21
-162.164
0
LINE
8
BLACK
6
CONTINUOUS
10
117.032
20
-162.164
11
117.175
21
-161.878
0
LINE
8
BLACK
6
CONTINUOUS
10
118.318
20
-160.592
11
118.318
21
-161.164
0
LINE
8
BLACK
6
CONTINUOUS
10
119.461
20
-160.592
11
119.461
21
-161.164
0
LINE
8
BLACK
6
CONTINUOUS
10
123.889
20
-164.735
11
123.746
21
-164.592
0
LINE
8
BLACK
6
CONTINUOUS
10
123.746
20
-164.592
11
123.461
21
-164.164
0
LINE
8
BLACK
6
CONTINUOUS
10
123.461
20
-164.164
11
123.318
21
-163.878
0
LINE
8
BLACK
6
CONTINUOUS
10
123.318
20
-163.878
11
123.175
21
-163.449
0
LINE
8
BLACK
6
CONTINUOUS
10
123.175
20
-163.449
11
123.032
21
-162.735
0
LINE
8
BLACK
6
CONTINUOUS
10
123.032
20
-162.735
11
123.032
21
-162.164
0
LINE
8
BLACK
6
CONTINUOUS
10
123.032
20
-162.164
11
123.175
21
-161.449
0
LINE
8
BLACK
6
CONTINUOUS
10
123.175
20
-161.449
11
123.318
21
-161.021
0
LINE
8
BLACK
6
CONTINUOUS
10
123.318
20
-161.021
11
123.461
21
-160.735
0
LINE
8
BLACK
6
CONTINUOUS
10
123.461
20
-160.735
11
123.746
21
-160.306
0
LINE
8
BLACK
6
CONTINUOUS
10
123.746
20
-160.306
11
123.889
21
-160.164
0
LINE
8
BLACK
6
CONTINUOUS
10
126.604
20
-163.592
11
124.889
21
-163.592
0
LINE
8
BLACK
6
CONTINUOUS
10
125.746
20
-163.592
11
125.746
21
-160.592
0
LINE
8
BLACK
6
CONTINUOUS
10
125.746
20
-160.592
11
125.461
21
-161.021
0
LINE
8
BLACK
6
CONTINUOUS
10
125.461
20
-161.021
11
125.175
21
-161.306
0
LINE
8
BLACK
6
CONTINUOUS
10
125.175
20
-161.306
11
124.889
21
-161.449
0
LINE
8
BLACK
6
CONTINUOUS
10
129.175
20
-161.592
11
129.175
21
-163.592
0
LINE
8
BLACK
6
CONTINUOUS
10
128.461
20
-160.449
11
127.746
21
-162.592
0
LINE
8
BLACK
6
CONTINUOUS
10
127.746
20
-162.592
11
129.604
21
-162.592
0
LINE
8
BLACK
6
CONTINUOUS
10
133.032
20
-163.592
11
133.032
21
-160.592
0
LINE
8
BLACK
6
CONTINUOUS
10
134.318
20
-163.592
11
134.318
21
-162.021
0
LINE
8
BLACK
6
CONTINUOUS
10
134.318
20
-162.021
11
134.175
21
-161.735
0
LINE
8
BLACK
6
CONTINUOUS
10
134.175
20
-161.735
11
133.889
21
-161.592
0
LINE
8
BLACK
6
CONTINUOUS
10
133.889
20
-161.592
11
133.461
21
-161.592
0
LINE
8
BLACK
6
CONTINUOUS
10
133.461
20
-161.592
11
133.175
21
-161.735
0
LINE
8
BLACK
6
CONTINUOUS
10
133.175
20
-161.735
11
133.032
21
-161.878
0
LINE
8
BLACK
6
CONTINUOUS
10
136.175
20
-163.592
11
135.889
21
-163.449
0
LINE
8
BLACK
6
CONTINUOUS
10
135.889
20
-163.449
11
135.746
21
-163.306
0
LINE
8
BLACK
6
CONTINUOUS
10
135.746
20
-163.306
11
135.604
21
-163.021
0
LINE
8
BLACK
6
CONTINUOUS
10
135.604
20
-163.021
11
135.604
21
-162.164
0
LINE
8
BLACK
6
CONTINUOUS
10
135.604
20
-162.164
11
135.746
21
-161.878
0
LINE
8
BLACK
6
CONTINUOUS
10
135.746
20
-161.878
11
135.889
21
-161.735
0
LINE
8
BLACK
6
CONTINUOUS
10
135.889
20
-161.735
11
136.175
21
-161.592
0
LINE
8
BLACK
6
CONTINUOUS
10
136.175
20
-161.592
11
136.604
21
-161.592
0
LINE
8
BLACK
6
CONTINUOUS
10
136.604
20
-161.592
11
136.889
21
-161.735
0
LINE
8
BLACK
6
CONTINUOUS
10
136.889
20
-161.735
11
137.032
21
-161.878
0
LINE
8
BLACK
6
CONTINUOUS
10
137.032
20
-161.878
11
137.175
21
-162.164
0
LINE
8
BLACK
6
CONTINUOUS
10
137.175
20
-162.164
11
137.175
21
-163.021
0
LINE
8
BLACK
6
CONTINUOUS
10
137.175
20
-163.021
11
137.032
21
-163.306
0
LINE
8
BLACK
6
CONTINUOUS
10
137.032
20
-163.306
11
136.889
21
-163.449
0
LINE
8
BLACK
6
CONTINUOUS
10
136.889
20
-163.449
11
136.604
21
-163.592
0
LINE
8
BLACK
6
CONTINUOUS
10
136.604
20
-163.592
11
136.175
21
-163.592
0
LINE
8
BLACK
6
CONTINUOUS
10
138.889
20
-163.592
11
138.604
21
-163.449
0
LINE
8
BLACK
6
CONTINUOUS
10
138.604
20
-163.449
11
138.461
21
-163.164
0
LINE
8
BLACK
6
CONTINUOUS
10
138.461
20
-163.164
11
138.461
21
-160.592
0
LINE
8
BLACK
6
CONTINUOUS
10
141.175
20
-163.449
11
140.889
21
-163.592
0
LINE
8
BLACK
6
CONTINUOUS
10
140.889
20
-163.592
11
140.318
21
-163.592
0
LINE
8
BLACK
6
CONTINUOUS
10
140.318
20
-163.592
11
140.032
21
-163.449
0
LINE
8
BLACK
6
CONTINUOUS
10
140.032
20
-163.449
11
139.889
21
-163.164
0
LINE
8
BLACK
6
CONTINUOUS
10
139.889
20
-163.164
11
139.889
21
-162.021
0
LINE
8
BLACK
6
CONTINUOUS
10
139.889
20
-162.021
11
140.032
21
-161.735
0
LINE
8
BLACK
6
CONTINUOUS
10
140.032
20
-161.735
11
140.318
21
-161.592
0
LINE
8
BLACK
6
CONTINUOUS
10
140.318
20
-161.592
11
140.889
21
-161.592
0
LINE
8
BLACK
6
CONTINUOUS
10
140.889
20
-161.592
11
141.175
21
-161.735
0
LINE
8
BLACK
6
CONTINUOUS
10
141.175
20
-161.735
11
141.318
21
-162.021
0
LINE
8
BLACK
6
CONTINUOUS
10
141.318
20
-162.021
11
141.318
21
-162.306
0
LINE
8
BLACK
6
CONTINUOUS
10
141.318
20
-162.306
11
139.889
21
-162.592
0
LINE
8
BLACK
6
CONTINUOUS
10
142.461
20
-163.449
11
142.746
21
-163.592
0
LINE
8
BLACK
6
CONTINUOUS
10
142.746
20
-163.592
11
143.318
21
-163.592
0
LINE
8
BLACK
6
CONTINUOUS
10
143.318
20
-163.592
11
143.604
21
-163.449
0
LINE
8
BLACK
6
CONTINUOUS
10
143.604
20
-163.449
11
143.746
21
-163.164
0
LINE
8
BLACK
6
CONTINUOUS
10
143.746
20
-163.164
11
143.746
21
-163.021
0
LINE
8
BLACK
6
CONTINUOUS
10
143.746
20
-163.021
11
143.604
21
-162.735
0
LINE
8
BLACK
6
CONTINUOUS
10
143.604
20
-162.735
11
143.318
21
-162.592
0
LINE
8
BLACK
6
CONTINUOUS
10
143.318
20
-162.592
11
142.889
21
-162.592
0
LINE
8
BLACK
6
CONTINUOUS
10
142.889
20
-162.592
11
142.604
21
-162.449
0
LINE
8
BLACK
6
CONTINUOUS
10
142.604
20
-162.449
11
142.461
21
-162.164
0
LINE
8
BLACK
6
CONTINUOUS
10
142.461
20
-162.164
11
142.461
21
-162.021
0
LINE
8
BLACK
6
CONTINUOUS
10
142.461
20
-162.021
11
142.604
21
-161.735
0
LINE
8
BLACK
6
CONTINUOUS
10
142.604
20
-161.735
11
142.889
21
-161.592
0
LINE
8
BLACK
6
CONTINUOUS
10
142.889
20
-161.592
11
143.318
21
-161.592
0
LINE
8
BLACK
6
CONTINUOUS
10
143.318
20
-161.592
11
143.604
21
-161.735
0
LINE
8
BLACK
6
CONTINUOUS
10
144.746
20
-164.735
11
144.889
21
-164.592
0
LINE
8
BLACK
6
CONTINUOUS
10
144.889
20
-164.592
11
145.175
21
-164.164
0
LINE
8
BLACK
6
CONTINUOUS
10
145.175
20
-164.164
11
145.318
21
-163.878
0
LINE
8
BLACK
6
CONTINUOUS
10
145.318
20
-163.878
11
145.461
21
-163.449
0
LINE
8
BLACK
6
CONTINUOUS
10
145.461
20
-163.449
11
145.604
21
-162.735
0
LINE
8
BLACK
6
CONTINUOUS
10
145.604
20
-162.735
11
145.604
21
-162.164
0
LINE
8
BLACK
6
CONTINUOUS
10
145.604
20
-162.164
11
145.461
21
-161.449
0
LINE
8
BLACK
6
CONTINUOUS
10
145.461
20
-161.449
11
145.318
21
-161.021
0
LINE
8
BLACK
6
CONTINUOUS
10
145.318
20
-161.021
11
145.175
21
-160.735
0
LINE
8
BLACK
6
CONTINUOUS
10
145.175
20
-160.735
11
144.889
21
-160.306
0
LINE
8
BLACK
6
CONTINUOUS
10
144.889
20
-160.306
11
144.746
21
-160.164
0
LINE
8
BLACK
6
CONTINUOUS
10
76.265
20
-165.435
11
76.265
21
-166.955
0
LINE
8
BLACK
6
CONTINUOUS
10
75.505
20
-166.195
11
77.025
21
-166.195
0
LINE
8
BLACK
6
CONTINUOUS
10
81.4607
20
-167.552
11
79.7464
21
-167.552
0
LINE
8
BLACK
6
CONTINUOUS
10
80.6036
20
-167.552
11
80.6036
21
-164.552
0
LINE
8
BLACK
6
CONTINUOUS
10
80.6036
20
-164.552
11
80.3179
21
-164.981
0
LINE
8
BLACK
6
CONTINUOUS
10
80.3179
20
-164.981
11
80.0321
21
-165.266
0
LINE
8
BLACK
6
CONTINUOUS
10
80.0321
20
-165.266
11
79.7464
21
-165.409
0
LINE
8
BLACK
6
CONTINUOUS
10
82.7464
20
-167.266
11
82.8893
21
-167.409
0
LINE
8
BLACK
6
CONTINUOUS
10
82.8893
20
-167.409
11
82.7464
21
-167.552
0
LINE
8
BLACK
6
CONTINUOUS
10
82.7464
20
-167.552
11
82.6036
21
-167.409
0
LINE
8
BLACK
6
CONTINUOUS
10
82.6036
20
-167.409
11
82.7464
21
-167.266
0
LINE
8
BLACK
6
CONTINUOUS
10
82.7464
20
-167.266
11
82.7464
21
-167.552
0
LINE
8
BLACK
6
CONTINUOUS
10
85.6036
20
-164.552
11
84.175
21
-164.552
0
LINE
8
BLACK
6
CONTINUOUS
10
84.175
20
-164.552
11
84.0321
21
-165.981
0
LINE
8
BLACK
6
CONTINUOUS
10
84.0321
20
-165.981
11
84.175
21
-165.838
0
LINE
8
BLACK
6
CONTINUOUS
10
84.175
20
-165.838
11
84.4607
21
-165.695
0
LINE
8
BLACK
6
CONTINUOUS
10
84.4607
20
-165.695
11
85.175
21
-165.695
0
LINE
8
BLACK
6
CONTINUOUS
10
85.175
20
-165.695
11
85.4607
21
-165.838
0
LINE
8
BLACK
6
CONTINUOUS
10
85.4607
20
-165.838
11
85.6036
21
-165.981
0
LINE
8
BLACK
6
CONTINUOUS
10
85.6036
20
-165.981
11
85.7464
21
-166.266
0
LINE
8
BLACK
6
CONTINUOUS
10
85.7464
20
-166.266
11
85.7464
21
-166.981
0
LINE
8
BLACK
6
CONTINUOUS
10
85.7464
20
-166.981
11
85.6036
21
-167.266
0
LINE
8
BLACK
6
CONTINUOUS
10
85.6036
20
-167.266
11
85.4607
21
-167.409
0
LINE
8
BLACK
6
CONTINUOUS
10
85.4607
20
-167.409
11
85.175
21
-167.552
0
LINE
8
BLACK
6
CONTINUOUS
10
85.175
20
-167.552
11
84.4607
21
-167.552
0
LINE
8
BLACK
6
CONTINUOUS
10
84.4607
20
-167.552
11
84.175
21
-167.409
0
LINE
8
BLACK
6
CONTINUOUS
10
84.175
20
-167.409
11
84.0321
21
-167.266
0
LINE
8
BLACK
6
CONTINUOUS
10
86.8893
20
-164.838
11
87.0321
21
-164.695
0
LINE
8
BLACK
6
CONTINUOUS
10
87.0321
20
-164.695
11
87.3179
21
-164.552
0
LINE
8
BLACK
6
CONTINUOUS
10
87.3179
20
-164.552
11
88.0321
21
-164.552
0
LINE
8
BLACK
6
CONTINUOUS
10
88.0321
20
-164.552
11
88.3179
21
-164.695
0
LINE
8
BLACK
6
CONTINUOUS
10
88.3179
20
-164.695
11
88.4607
21
-164.838
0
LINE
8
BLACK
6
CONTINUOUS
10
88.4607
20
-164.838
11
88.6036
21
-165.124
0
LINE
8
BLACK
6
CONTINUOUS
10
88.6036
20
-165.124
11
88.6036
21
-165.409
0
LINE
8
BLACK
6
CONTINUOUS
10
88.6036
20
-165.409
11
88.4607
21
-165.838
0
LINE
8
BLACK
6
CONTINUOUS
10
88.4607
20
-165.838
11
86.7464
21
-167.552
0
LINE
8
BLACK
6
CONTINUOUS
10
86.7464
20
-167.552
11
88.6036
21
-167.552
0
LINE
8
BLACK
6
CONTINUOUS
10
89.8893
20
-167.552
11
89.8893
21
-165.552
0
LINE
8
BLACK
6
CONTINUOUS
10
89.8893
20
-165.838
11
90.0321
21
-165.695
0
LINE
8
BLACK
6
CONTINUOUS
10
90.0321
20
-165.695
11
90.3179
21
-165.552
0
LINE
8
BLACK
6
CONTINUOUS
10
90.3179
20
-165.552
11
90.7464
21
-165.552
0
LINE
8
BLACK
6
CONTINUOUS
10
90.7464
20
-165.552
11
91.0321
21
-165.695
0
LINE
8
BLACK
6
CONTINUOUS
10
91.0321
20
-165.695
11
91.175
21
-165.981
0
LINE
8
BLACK
6
CONTINUOUS
10
91.175
20
-165.981
11
91.175
21
-167.552
0
LINE
8
BLACK
6
CONTINUOUS
10
91.175
20
-165.981
11
91.3179
21
-165.695
0
LINE
8
BLACK
6
CONTINUOUS
10
91.3179
20
-165.695
11
91.6036
21
-165.552
0
LINE
8
BLACK
6
CONTINUOUS
10
91.6036
20
-165.552
11
92.0321
21
-165.552
0
LINE
8
BLACK
6
CONTINUOUS
10
92.0321
20
-165.552
11
92.3179
21
-165.695
0
LINE
8
BLACK
6
CONTINUOUS
10
92.3179
20
-165.695
11
92.4607
21
-165.981
0
LINE
8
BLACK
6
CONTINUOUS
10
92.4607
20
-165.981
11
92.4607
21
-167.552
0
LINE
8
BLACK
6
CONTINUOUS
10
93.8893
20
-167.552
11
93.8893
21
-165.552
0
LINE
8
BLACK
6
CONTINUOUS
10
93.8893
20
-165.838
11
94.0321
21
-165.695
0
LINE
8
BLACK
6
CONTINUOUS
10
94.0321
20
-165.695
11
94.3179
21
-165.552
0
LINE
8
BLACK
6
CONTINUOUS
10
94.3179
20
-165.552
11
94.7464
21
-165.552
0
LINE
8
BLACK
6
CONTINUOUS
10
94.7464
20
-165.552
11
95.0321
21
-165.695
0
LINE
8
BLACK
6
CONTINUOUS
10
95.0321
20
-165.695
11
95.175
21
-165.981
0
LINE
8
BLACK
6
CONTINUOUS
10
95.175
20
-165.981
11
95.175
21
-167.552
0
LINE
8
BLACK
6
CONTINUOUS
10
95.175
20
-165.981
11
95.3179
21
-165.695
0
LINE
8
BLACK
6
CONTINUOUS
10
95.3179
20
-165.695
11
95.6036
21
-165.552
0
LINE
8
BLACK
6
CONTINUOUS
10
95.6036
20
-165.552
11
96.0321
21
-165.552
0
LINE
8
BLACK
6
CONTINUOUS
10
96.0321
20
-165.552
11
96.3179
21
-165.695
0
LINE
8
BLACK
6
CONTINUOUS
10
96.3179
20
-165.695
11
96.4607
21
-165.981
0
LINE
8
BLACK
6
CONTINUOUS
10
96.4607
20
-165.981
11
96.4607
21
-167.552
0
LINE
8
BLACK
6
CONTINUOUS
10
102.318
20
-164.409
11
99.7464
21
-168.266
0
LINE
8
BLACK
6
CONTINUOUS
10
106.175
20
-164.552
11
106.461
21
-164.552
0
LINE
8
BLACK
6
CONTINUOUS
10
106.461
20
-164.552
11
106.746
21
-164.695
0
LINE
8
BLACK
6
CONTINUOUS
10
106.746
20
-164.695
11
106.889
21
-164.838
0
LINE
8
BLACK
6
CONTINUOUS
10
106.889
20
-164.838
11
107.032
21
-165.124
0
LINE
8
BLACK
6
CONTINUOUS
10
107.032
20
-165.124
11
107.175
21
-165.695
0
LINE
8
BLACK
6
CONTINUOUS
10
107.175
20
-165.695
11
107.175
21
-166.409
0
LINE
8
BLACK
6
CONTINUOUS
10
107.175
20
-166.409
11
107.032
21
-166.981
0
LINE
8
BLACK
6
CONTINUOUS
10
107.032
20
-166.981
11
106.889
21
-167.266
0
LINE
8
BLACK
6
CONTINUOUS
10
106.889
20
-167.266
11
106.746
21
-167.409
0
LINE
8
BLACK
6
CONTINUOUS
10
106.746
20
-167.409
11
106.461
21
-167.552
0
LINE
8
BLACK
6
CONTINUOUS
10
106.461
20
-167.552
11
106.175
21
-167.552
0
LINE
8
BLACK
6
CONTINUOUS
10
106.175
20
-167.552
11
105.889
21
-167.409
0
LINE
8
BLACK
6
CONTINUOUS
10
105.889
20
-167.409
11
105.746
21
-167.266
0
LINE
8
BLACK
6
CONTINUOUS
10
105.746
20
-167.266
11
105.604
21
-166.981
0
LINE
8
BLACK
6
CONTINUOUS
10
105.604
20
-166.981
11
105.461
21
-166.409
0
LINE
8
BLACK
6
CONTINUOUS
10
105.461
20
-166.409
11
105.461
21
-165.695
0
LINE
8
BLACK
6
CONTINUOUS
10
105.461
20
-165.695
11
105.604
21
-165.124
0
LINE
8
BLACK
6
CONTINUOUS
10
105.604
20
-165.124
11
105.746
21
-164.838
0
LINE
8
BLACK
6
CONTINUOUS
10
105.746
20
-164.838
11
105.889
21
-164.695
0
LINE
8
BLACK
6
CONTINUOUS
10
105.889
20
-164.695
11
106.175
21
-164.552
0
LINE
8
BLACK
6
CONTINUOUS
10
108.461
20
-167.266
11
108.604
21
-167.409
0
LINE
8
BLACK
6
CONTINUOUS
10
108.604
20
-167.409
11
108.461
21
-167.552
0
LINE
8
BLACK
6
CONTINUOUS
10
108.461
20
-167.552
11
108.318
21
-167.409
0
LINE
8
BLACK
6
CONTINUOUS
10
108.318
20
-167.409
11
108.461
21
-167.266
0
LINE
8
BLACK
6
CONTINUOUS
10
108.461
20
-167.266
11
108.461
21
-167.552
0
LINE
8
BLACK
6
CONTINUOUS
10
110.461
20
-164.552
11
110.746
21
-164.552
0
LINE
8
BLACK
6
CONTINUOUS
10
110.746
20
-164.552
11
111.032
21
-164.695
0
LINE
8
BLACK
6
CONTINUOUS
10
111.032
20
-164.695
11
111.175
21
-164.838
0
LINE
8
BLACK
6
CONTINUOUS
10
111.175
20
-164.838
11
111.318
21
-165.124
0
LINE
8
BLACK
6
CONTINUOUS
10
111.318
20
-165.124
11
111.461
21
-165.695
0
LINE
8
BLACK
6
CONTINUOUS
10
111.461
20
-165.695
11
111.461
21
-166.409
0
LINE
8
BLACK
6
CONTINUOUS
10
111.461
20
-166.409
11
111.318
21
-166.981
0
LINE
8
BLACK
6
CONTINUOUS
10
111.318
20
-166.981
11
111.175
21
-167.266
0
LINE
8
BLACK
6
CONTINUOUS
10
111.175
20
-167.266
11
111.032
21
-167.409
0
LINE
8
BLACK
6
CONTINUOUS
10
111.032
20
-167.409
11
110.746
21
-167.552
0
LINE
8
BLACK
6
CONTINUOUS
10
110.746
20
-167.552
11
110.461
21
-167.552
0
LINE
8
BLACK
6
CONTINUOUS
10
110.461
20
-167.552
11
110.175
21
-167.409
0
LINE
8
BLACK
6
CONTINUOUS
10
110.175
20
-167.409
11
110.032
21
-167.266
0
LINE
8
BLACK
6
CONTINUOUS
10
110.032
20
-167.266
11
109.889
21
-166.981
0
LINE
8
BLACK
6
CONTINUOUS
10
109.889
20
-166.981
11
109.746
21
-166.409
0
LINE
8
BLACK
6
CONTINUOUS
10
109.746
20
-166.409
11
109.746
21
-165.695
0
LINE
8
BLACK
6
CONTINUOUS
10
109.746
20
-165.695
11
109.889
21
-165.124
0
LINE
8
BLACK
6
CONTINUOUS
10
109.889
20
-165.124
11
110.032
21
-164.838
0
LINE
8
BLACK
6
CONTINUOUS
10
110.032
20
-164.838
11
110.175
21
-164.695
0
LINE
8
BLACK
6
CONTINUOUS
10
110.175
20
-164.695
11
110.461
21
-164.552
0
LINE
8
BLACK
6
CONTINUOUS
10
114.032
20
-164.552
11
113.461
21
-164.552
0
LINE
8
BLACK
6
CONTINUOUS
10
113.461
20
-164.552
11
113.175
21
-164.695
0
LINE
8
BLACK
6
CONTINUOUS
10
113.175
20
-164.695
11
113.032
21
-164.838
0
LINE
8
BLACK
6
CONTINUOUS
10
113.032
20
-164.838
11
112.746
21
-165.266
0
LINE
8
BLACK
6
CONTINUOUS
10
112.746
20
-165.266
11
112.604
21
-165.838
0
LINE
8
BLACK
6
CONTINUOUS
10
112.604
20
-165.838
11
112.604
21
-166.981
0
LINE
8
BLACK
6
CONTINUOUS
10
112.604
20
-166.981
11
112.746
21
-167.266
0
LINE
8
BLACK
6
CONTINUOUS
10
112.746
20
-167.266
11
112.889
21
-167.409
0
LINE
8
BLACK
6
CONTINUOUS
10
112.889
20
-167.409
11
113.175
21
-167.552
0
LINE
8
BLACK
6
CONTINUOUS
10
113.175
20
-167.552
11
113.746
21
-167.552
0
LINE
8
BLACK
6
CONTINUOUS
10
113.746
20
-167.552
11
114.032
21
-167.409
0
LINE
8
BLACK
6
CONTINUOUS
10
114.032
20
-167.409
11
114.175
21
-167.266
0
LINE
8
BLACK
6
CONTINUOUS
10
114.175
20
-167.266
11
114.318
21
-166.981
0
LINE
8
BLACK
6
CONTINUOUS
10
114.318
20
-166.981
11
114.318
21
-166.266
0
LINE
8
BLACK
6
CONTINUOUS
10
114.318
20
-166.266
11
114.175
21
-165.981
0
LINE
8
BLACK
6
CONTINUOUS
10
114.175
20
-165.981
11
114.032
21
-165.838
0
LINE
8
BLACK
6
CONTINUOUS
10
114.032
20
-165.838
11
113.746
21
-165.695
0
LINE
8
BLACK
6
CONTINUOUS
10
113.746
20
-165.695
11
113.175
21
-165.695
0
LINE
8
BLACK
6
CONTINUOUS
10
113.175
20
-165.695
11
112.889
21
-165.838
0
LINE
8
BLACK
6
CONTINUOUS
10
112.889
20
-165.838
11
112.746
21
-165.981
0
LINE
8
BLACK
6
CONTINUOUS
10
112.746
20
-165.981
11
112.604
21
-166.266
0
LINE
8
BLACK
6
CONTINUOUS
10
116.175
20
-164.552
11
116.461
21
-164.552
0
LINE
8
BLACK
6
CONTINUOUS
10
116.461
20
-164.552
11
116.746
21
-164.695
0
LINE
8
BLACK
6
CONTINUOUS
10
116.746
20
-164.695
11
116.889
21
-164.838
0
LINE
8
BLACK
6
CONTINUOUS
10
116.889
20
-164.838
11
117.032
21
-165.124
0
LINE
8
BLACK
6
CONTINUOUS
10
117.032
20
-165.124
11
117.175
21
-165.695
0
LINE
8
BLACK
6
CONTINUOUS
10
117.175
20
-165.695
11
117.175
21
-166.409
0
LINE
8
BLACK
6
CONTINUOUS
10
117.175
20
-166.409
11
117.032
21
-166.981
0
LINE
8
BLACK
6
CONTINUOUS
10
117.032
20
-166.981
11
116.889
21
-167.266
0
LINE
8
BLACK
6
CONTINUOUS
10
116.889
20
-167.266
11
116.746
21
-167.409
0
LINE
8
BLACK
6
CONTINUOUS
10
116.746
20
-167.409
11
116.461
21
-167.552
0
LINE
8
BLACK
6
CONTINUOUS
10
116.461
20
-167.552
11
116.175
21
-167.552
0
LINE
8
BLACK
6
CONTINUOUS
10
116.175
20
-167.552
11
115.889
21
-167.409
0
LINE
8
BLACK
6
CONTINUOUS
10
115.889
20
-167.409
11
115.746
21
-167.266
0
LINE
8
BLACK
6
CONTINUOUS
10
115.746
20
-167.266
11
115.604
21
-166.981
0
LINE
8
BLACK
6
CONTINUOUS
10
115.604
20
-166.981
11
115.461
21
-166.409
0
LINE
8
BLACK
6
CONTINUOUS
10
115.461
20
-166.409
11
115.461
21
-165.695
0
LINE
8
BLACK
6
CONTINUOUS
10
115.461
20
-165.695
11
115.604
21
-165.124
0
LINE
8
BLACK
6
CONTINUOUS
10
115.604
20
-165.124
11
115.746
21
-164.838
0
LINE
8
BLACK
6
CONTINUOUS
10
115.746
20
-164.838
11
115.889
21
-164.695
0
LINE
8
BLACK
6
CONTINUOUS
10
115.889
20
-164.695
11
116.175
21
-164.552
0
LINE
8
BLACK
6
CONTINUOUS
10
118.318
20
-164.552
11
118.318
21
-165.124
0
LINE
8
BLACK
6
CONTINUOUS
10
119.461
20
-164.552
11
119.461
21
-165.124
0
LINE
8
BLACK
6
CONTINUOUS
10
123.889
20
-168.695
11
123.746
21
-168.552
0
LINE
8
BLACK
6
CONTINUOUS
10
123.746
20
-168.552
11
123.461
21
-168.124
0
LINE
8
BLACK
6
CONTINUOUS
10
123.461
20
-168.124
11
123.318
21
-167.838
0
LINE
8
BLACK
6
CONTINUOUS
10
123.318
20
-167.838
11
123.175
21
-167.409
0
LINE
8
BLACK
6
CONTINUOUS
10
123.175
20
-167.409
11
123.032
21
-166.695
0
LINE
8
BLACK
6
CONTINUOUS
10
123.032
20
-166.695
11
123.032
21
-166.124
0
LINE
8
BLACK
6
CONTINUOUS
10
123.032
20
-166.124
11
123.175
21
-165.409
0
LINE
8
BLACK
6
CONTINUOUS
10
123.175
20
-165.409
11
123.318
21
-164.981
0
LINE
8
BLACK
6
CONTINUOUS
10
123.318
20
-164.981
11
123.461
21
-164.695
0
LINE
8
BLACK
6
CONTINUOUS
10
123.461
20
-164.695
11
123.746
21
-164.266
0
LINE
8
BLACK
6
CONTINUOUS
10
123.746
20
-164.266
11
123.889
21
-164.124
0
LINE
8
BLACK
6
CONTINUOUS
10
124.889
20
-164.838
11
125.032
21
-164.695
0
LINE
8
BLACK
6
CONTINUOUS
10
125.032
20
-164.695
11
125.318
21
-164.552
0
LINE
8
BLACK
6
CONTINUOUS
10
125.318
20
-164.552
11
126.032
21
-164.552
0
LINE
8
BLACK
6
CONTINUOUS
10
126.032
20
-164.552
11
126.318
21
-164.695
0
LINE
8
BLACK
6
CONTINUOUS
10
126.318
20
-164.695
11
126.461
21
-164.838
0
LINE
8
BLACK
6
CONTINUOUS
10
126.461
20
-164.838
11
126.604
21
-165.124
0
LINE
8
BLACK
6
CONTINUOUS
10
126.604
20
-165.124
11
126.604
21
-165.409
0
LINE
8
BLACK
6
CONTINUOUS
10
126.604
20
-165.409
11
126.461
21
-165.838
0
LINE
8
BLACK
6
CONTINUOUS
10
126.461
20
-165.838
11
124.746
21
-167.552
0
LINE
8
BLACK
6
CONTINUOUS
10
124.746
20
-167.552
11
126.604
21
-167.552
0
LINE
8
BLACK
6
CONTINUOUS
10
130.175
20
-167.552
11
130.175
21
-164.552
0
LINE
8
BLACK
6
CONTINUOUS
10
131.461
20
-167.552
11
131.461
21
-165.981
0
LINE
8
BLACK
6
CONTINUOUS
10
131.461
20
-165.981
11
131.318
21
-165.695
0
LINE
8
BLACK
6
CONTINUOUS
10
131.318
20
-165.695
11
131.032
21
-165.552
0
LINE
8
BLACK
6
CONTINUOUS
10
131.032
20
-165.552
11
130.604
21
-165.552
0
LINE
8
BLACK
6
CONTINUOUS
10
130.604
20
-165.552
11
130.318
21
-165.695
0
LINE
8
BLACK
6
CONTINUOUS
10
130.318
20
-165.695
11
130.175
21
-165.838
0
LINE
8
BLACK
6
CONTINUOUS
10
133.318
20
-167.552
11
133.032
21
-167.409
0
LINE
8
BLACK
6
CONTINUOUS
10
133.032
20
-167.409
11
132.889
21
-167.266
0
LINE
8
BLACK
6
CONTINUOUS
10
132.889
20
-167.266
11
132.746
21
-166.981
0
LINE
8
BLACK
6
CONTINUOUS
10
132.746
20
-166.981
11
132.746
21
-166.124
0
LINE
8
BLACK
6
CONTINUOUS
10
132.746
20
-166.124
11
132.889
21
-165.838
0
LINE
8
BLACK
6
CONTINUOUS
10
132.889
20
-165.838
11
133.032
21
-165.695
0
LINE
8
BLACK
6
CONTINUOUS
10
133.032
20
-165.695
11
133.318
21
-165.552
0
LINE
8
BLACK
6
CONTINUOUS
10
133.318
20
-165.552
11
133.746
21
-165.552
0
LINE
8
BLACK
6
CONTINUOUS
10
133.746
20
-165.552
11
134.032
21
-165.695
0
LINE
8
BLACK
6
CONTINUOUS
10
134.032
20
-165.695
11
134.175
21
-165.838
0
LINE
8
BLACK
6
CONTINUOUS
10
134.175
20
-165.838
11
134.318
21
-166.124
0
LINE
8
BLACK
6
CONTINUOUS
10
134.318
20
-166.124
11
134.318
21
-166.981
0
LINE
8
BLACK
6
CONTINUOUS
10
134.318
20
-166.981
11
134.175
21
-167.266
0
LINE
8
BLACK
6
CONTINUOUS
10
134.175
20
-167.266
11
134.032
21
-167.409
0
LINE
8
BLACK
6
CONTINUOUS
10
134.032
20
-167.409
11
133.746
21
-167.552
0
LINE
8
BLACK
6
CONTINUOUS
10
133.746
20
-167.552
11
133.318
21
-167.552
0
LINE
8
BLACK
6
CONTINUOUS
10
136.032
20
-167.552
11
135.746
21
-167.409
0
LINE
8
BLACK
6
CONTINUOUS
10
135.746
20
-167.409
11
135.604
21
-167.124
0
LINE
8
BLACK
6
CONTINUOUS
10
135.604
20
-167.124
11
135.604
21
-164.552
0
LINE
8
BLACK
6
CONTINUOUS
10
138.318
20
-167.409
11
138.032
21
-167.552
0
LINE
8
BLACK
6
CONTINUOUS
10
138.032
20
-167.552
11
137.461
21
-167.552
0
LINE
8
BLACK
6
CONTINUOUS
10
137.461
20
-167.552
11
137.175
21
-167.409
0
LINE
8
BLACK
6
CONTINUOUS
10
137.175
20
-167.409
11
137.032
21
-167.124
0
LINE
8
BLACK
6
CONTINUOUS
10
137.032
20
-167.124
11
137.032
21
-165.981
0
LINE
8
BLACK
6
CONTINUOUS
10
137.032
20
-165.981
11
137.175
21
-165.695
0
LINE
8
BLACK
6
CONTINUOUS
10
137.175
20
-165.695
11
137.461
21
-165.552
0
LINE
8
BLACK
6
CONTINUOUS
10
137.461
20
-165.552
11
138.032
21
-165.552
0
LINE
8
BLACK
6
CONTINUOUS
10
138.032
20
-165.552
11
138.318
21
-165.695
0
LINE
8
BLACK
6
CONTINUOUS
10
138.318
20
-165.695
11
138.461
21
-165.981
0
LINE
8
BLACK
6
CONTINUOUS
10
138.461
20
-165.981
11
138.461
21
-166.266
0
LINE
8
BLACK
6
CONTINUOUS
10
138.461
20
-166.266
11
137.032
21
-166.552
0
LINE
8
BLACK
6
CONTINUOUS
10
139.604
20
-167.409
11
139.889
21
-167.552
0
LINE
8
BLACK
6
CONTINUOUS
10
139.889
20
-167.552
11
140.461
21
-167.552
0
LINE
8
BLACK
6
CONTINUOUS
10
140.461
20
-167.552
11
140.746
21
-167.409
0
LINE
8
BLACK
6
CONTINUOUS
10
140.746
20
-167.409
11
140.889
21
-167.124
0
LINE
8
BLACK
6
CONTINUOUS
10
140.889
20
-167.124
11
140.889
21
-166.981
0
LINE
8
BLACK
6
CONTINUOUS
10
140.889
20
-166.981
11
140.746
21
-166.695
0
LINE
8
BLACK
6
CONTINUOUS
10
140.746
20
-166.695
11
140.461
21
-166.552
0
LINE
8
BLACK
6
CONTINUOUS
10
140.461
20
-166.552
11
140.032
21
-166.552
0
LINE
8
BLACK
6
CONTINUOUS
10
140.032
20
-166.552
11
139.746
21
-166.409
0
LINE
8
BLACK
6
CONTINUOUS
10
139.746
20
-166.409
11
139.604
21
-166.124
0
LINE
8
BLACK
6
CONTINUOUS
10
139.604
20
-166.124
11
139.604
21
-165.981
0
LINE
8
BLACK
6
CONTINUOUS
10
139.604
20
-165.981
11
139.746
21
-165.695
0
LINE
8
BLACK
6
CONTINUOUS
10
139.746
20
-165.695
11
140.032
21
-165.552
0
LINE
8
BLACK
6
CONTINUOUS
10
140.032
20
-165.552
11
140.461
21
-165.552
0
LINE
8
BLACK
6
CONTINUOUS
10
140.461
20
-165.552
11
140.746
21
-165.695
0
LINE
8
BLACK
6
CONTINUOUS
10
141.889
20
-168.695
11
142.032
21
-168.552
0
LINE
8
BLACK
6
CONTINUOUS
10
142.032
20
-168.552
11
142.318
21
-168.124
0
LINE
8
BLACK
6
CONTINUOUS
10
142.318
20
-168.124
11
142.461
21
-167.838
0
LINE
8
BLACK
6
CONTINUOUS
10
142.461
20
-167.838
11
142.604
21
-167.409
0
LINE
8
BLACK
6
CONTINUOUS
10
142.604
20
-167.409
11
142.746
21
-166.695
0
LINE
8
BLACK
6
CONTINUOUS
10
142.746
20
-166.695
11
142.746
21
-166.124
0
LINE
8
BLACK
6
CONTINUOUS
10
142.746
20
-166.124
11
142.604
21
-165.409
0
LINE
8
BLACK
6
CONTINUOUS
10
142.604
20
-165.409
11
142.461
21
-164.981
0
LINE
8
BLACK
6
CONTINUOUS
10
142.461
20
-164.981
11
142.318
21
-164.695
0
LINE
8
BLACK
6
CONTINUOUS
10
142.318
20
-164.695
11
142.032
21
-164.266
0
LINE
8
BLACK
6
CONTINUOUS
10
142.032
20
-164.266
11
141.889
21
-164.124
0
LINE
8
BLACK
6
CONTINUOUS
10
76.6296
20
-171.11
11
76.6296
21
-169.2
0
LINE
8
BLACK
6
CONTINUOUS
10
76.6296
20
-169.2
11
74.7204
21
-169.2
0
LINE
8
BLACK
6
CONTINUOUS
10
74.7204
20
-169.2
11
74.7204
21
-171.11
0
LINE
8
BLACK
6
CONTINUOUS
10
74.7204
20
-171.11
11
76.6296
21
-171.11
0
LINE
8
BLACK
6
CONTINUOUS
10
79.7464
20
-168.798
11
79.8893
21
-168.655
0
LINE
8
BLACK
6
CONTINUOUS
10
79.8893
20
-168.655
11
80.175
21
-168.512
0
LINE
8
BLACK
6
CONTINUOUS
10
80.175
20
-168.512
11
80.8893
21
-168.512
0
LINE
8
BLACK
6
CONTINUOUS
10
80.8893
20
-168.512
11
81.175
21
-168.655
0
LINE
8
BLACK
6
CONTINUOUS
10
81.175
20
-168.655
11
81.3179
21
-168.798
0
LINE
8
BLACK
6
CONTINUOUS
10
81.3179
20
-168.798
11
81.4607
21
-169.084
0
LINE
8
BLACK
6
CONTINUOUS
10
81.4607
20
-169.084
11
81.4607
21
-169.369
0
LINE
8
BLACK
6
CONTINUOUS
10
81.4607
20
-169.369
11
81.3179
21
-169.798
0
LINE
8
BLACK
6
CONTINUOUS
10
81.3179
20
-169.798
11
79.6036
21
-171.512
0
LINE
8
BLACK
6
CONTINUOUS
10
79.6036
20
-171.512
11
81.4607
21
-171.512
0
LINE
8
BLACK
6
CONTINUOUS
10
82.7464
20
-171.226
11
82.8893
21
-171.369
0
LINE
8
BLACK
6
CONTINUOUS
10
82.8893
20
-171.369
11
82.7464
21
-171.512
0
LINE
8
BLACK
6
CONTINUOUS
10
82.7464
20
-171.512
11
82.6036
21
-171.369
0
LINE
8
BLACK
6
CONTINUOUS
10
82.6036
20
-171.369
11
82.7464
21
-171.226
0
LINE
8
BLACK
6
CONTINUOUS
10
82.7464
20
-171.226
11
82.7464
21
-171.512
0
LINE
8
BLACK
6
CONTINUOUS
10
83.8893
20
-168.512
11
85.8893
21
-168.512
0
LINE
8
BLACK
6
CONTINUOUS
10
85.8893
20
-168.512
11
84.6036
21
-171.512
0
LINE
8
BLACK
6
CONTINUOUS
10
87.6036
20
-168.512
11
87.8893
21
-168.512
0
LINE
8
BLACK
6
CONTINUOUS
10
87.8893
20
-168.512
11
88.175
21
-168.655
0
LINE
8
BLACK
6
CONTINUOUS
10
88.175
20
-168.655
11
88.3179
21
-168.798
0
LINE
8
BLACK
6
CONTINUOUS
10
88.3179
20
-168.798
11
88.4607
21
-169.084
0
LINE
8
BLACK
6
CONTINUOUS
10
88.4607
20
-169.084
11
88.6036
21
-169.655
0
LINE
8
BLACK
6
CONTINUOUS
10
88.6036
20
-169.655
11
88.6036
21
-170.369
0
LINE
8
BLACK
6
CONTINUOUS
10
88.6036
20
-170.369
11
88.4607
21
-170.941
0
LINE
8
BLACK
6
CONTINUOUS
10
88.4607
20
-170.941
11
88.3179
21
-171.226
0
LINE
8
BLACK
6
CONTINUOUS
10
88.3179
20
-171.226
11
88.175
21
-171.369
0
LINE
8
BLACK
6
CONTINUOUS
10
88.175
20
-171.369
11
87.8893
21
-171.512
0
LINE
8
BLACK
6
CONTINUOUS
10
87.8893
20
-171.512
11
87.6036
21
-171.512
0
LINE
8
BLACK
6
CONTINUOUS
10
87.6036
20
-171.512
11
87.3179
21
-171.369
0
LINE
8
BLACK
6
CONTINUOUS
10
87.3179
20
-171.369
11
87.175
21
-171.226
0
LINE
8
BLACK
6
CONTINUOUS
10
87.175
20
-171.226
11
87.0321
21
-170.941
0
LINE
8
BLACK
6
CONTINUOUS
10
87.0321
20
-170.941
11
86.8893
21
-170.369
0
LINE
8
BLACK
6
CONTINUOUS
10
86.8893
20
-170.369
11
86.8893
21
-169.655
0
LINE
8
BLACK
6
CONTINUOUS
10
86.8893
20
-169.655
11
87.0321
21
-169.084
0
LINE
8
BLACK
6
CONTINUOUS
10
87.0321
20
-169.084
11
87.175
21
-168.798
0
LINE
8
BLACK
6
CONTINUOUS
10
87.175
20
-168.798
11
87.3179
21
-168.655
0
LINE
8
BLACK
6
CONTINUOUS
10
87.3179
20
-168.655
11
87.6036
21
-168.512
0
LINE
8
BLACK
6
CONTINUOUS
10
89.8893
20
-171.512
11
89.8893
21
-169.512
0
LINE
8
BLACK
6
CONTINUOUS
10
89.8893
20
-169.798
11
90.0321
21
-169.655
0
LINE
8
BLACK
6
CONTINUOUS
10
90.0321
20
-169.655
11
90.3179
21
-169.512
0
LINE
8
BLACK
6
CONTINUOUS
10
90.3179
20
-169.512
11
90.7464
21
-169.512
0
LINE
8
BLACK
6
CONTINUOUS
10
90.7464
20
-169.512
11
91.0321
21
-169.655
0
LINE
8
BLACK
6
CONTINUOUS
10
91.0321
20
-169.655
11
91.175
21
-169.941
0
LINE
8
BLACK
6
CONTINUOUS
10
91.175
20
-169.941
11
91.175
21
-171.512
0
LINE
8
BLACK
6
CONTINUOUS
10
91.175
20
-169.941
11
91.3179
21
-169.655
0
LINE
8
BLACK
6
CONTINUOUS
10
91.3179
20
-169.655
11
91.6036
21
-169.512
0
LINE
8
BLACK
6
CONTINUOUS
10
91.6036
20
-169.512
11
92.0321
21
-169.512
0
LINE
8
BLACK
6
CONTINUOUS
10
92.0321
20
-169.512
11
92.3179
21
-169.655
0
LINE
8
BLACK
6
CONTINUOUS
10
92.3179
20
-169.655
11
92.4607
21
-169.941
0
LINE
8
BLACK
6
CONTINUOUS
10
92.4607
20
-169.941
11
92.4607
21
-171.512
0
LINE
8
BLACK
6
CONTINUOUS
10
93.8893
20
-171.512
11
93.8893
21
-169.512
0
LINE
8
BLACK
6
CONTINUOUS
10
93.8893
20
-169.798
11
94.0321
21
-169.655
0
LINE
8
BLACK
6
CONTINUOUS
10
94.0321
20
-169.655
11
94.3179
21
-169.512
0
LINE
8
BLACK
6
CONTINUOUS
10
94.3179
20
-169.512
11
94.7464
21
-169.512
0
LINE
8
BLACK
6
CONTINUOUS
10
94.7464
20
-169.512
11
95.0321
21
-169.655
0
LINE
8
BLACK
6
CONTINUOUS
10
95.0321
20
-169.655
11
95.175
21
-169.941
0
LINE
8
BLACK
6
CONTINUOUS
10
95.175
20
-169.941
11
95.175
21
-171.512
0
LINE
8
BLACK
6
CONTINUOUS
10
95.175
20
-169.941
11
95.3179
21
-169.655
0
LINE
8
BLACK
6
CONTINUOUS
10
95.3179
20
-169.655
11
95.6036
21
-169.512
0
LINE
8
BLACK
6
CONTINUOUS
10
95.6036
20
-169.512
11
96.0321
21
-169.512
0
LINE
8
BLACK
6
CONTINUOUS
10
96.0321
20
-169.512
11
96.3179
21
-169.655
0
LINE
8
BLACK
6
CONTINUOUS
10
96.3179
20
-169.655
11
96.4607
21
-169.941
0
LINE
8
BLACK
6
CONTINUOUS
10
96.4607
20
-169.941
11
96.4607
21
-171.512
0
LINE
8
BLACK
6
CONTINUOUS
10
102.318
20
-168.369
11
99.7464
21
-172.226
0
LINE
8
BLACK
6
CONTINUOUS
10
106.175
20
-168.512
11
106.461
21
-168.512
0
LINE
8
BLACK
6
CONTINUOUS
10
106.461
20
-168.512
11
106.746
21
-168.655
0
LINE
8
BLACK
6
CONTINUOUS
10
106.746
20
-168.655
11
106.889
21
-168.798
0
LINE
8
BLACK
6
CONTINUOUS
10
106.889
20
-168.798
11
107.032
21
-169.084
0
LINE
8
BLACK
6
CONTINUOUS
10
107.032
20
-169.084
11
107.175
21
-169.655
0
LINE
8
BLACK
6
CONTINUOUS
10
107.175
20
-169.655
11
107.175
21
-170.369
0
LINE
8
BLACK
6
CONTINUOUS
10
107.175
20
-170.369
11
107.032
21
-170.941
0
LINE
8
BLACK
6
CONTINUOUS
10
107.032
20
-170.941
11
106.889
21
-171.226
0
LINE
8
BLACK
6
CONTINUOUS
10
106.889
20
-171.226
11
106.746
21
-171.369
0
LINE
8
BLACK
6
CONTINUOUS
10
106.746
20
-171.369
11
106.461
21
-171.512
0
LINE
8
BLACK
6
CONTINUOUS
10
106.461
20
-171.512
11
106.175
21
-171.512
0
LINE
8
BLACK
6
CONTINUOUS
10
106.175
20
-171.512
11
105.889
21
-171.369
0
LINE
8
BLACK
6
CONTINUOUS
10
105.889
20
-171.369
11
105.746
21
-171.226
0
LINE
8
BLACK
6
CONTINUOUS
10
105.746
20
-171.226
11
105.604
21
-170.941
0
LINE
8
BLACK
6
CONTINUOUS
10
105.604
20
-170.941
11
105.461
21
-170.369
0
LINE
8
BLACK
6
CONTINUOUS
10
105.461
20
-170.369
11
105.461
21
-169.655
0
LINE
8
BLACK
6
CONTINUOUS
10
105.461
20
-169.655
11
105.604
21
-169.084
0
LINE
8
BLACK
6
CONTINUOUS
10
105.604
20
-169.084
11
105.746
21
-168.798
0
LINE
8
BLACK
6
CONTINUOUS
10
105.746
20
-168.798
11
105.889
21
-168.655
0
LINE
8
BLACK
6
CONTINUOUS
10
105.889
20
-168.655
11
106.175
21
-168.512
0
LINE
8
BLACK
6
CONTINUOUS
10
108.461
20
-171.226
11
108.604
21
-171.369
0
LINE
8
BLACK
6
CONTINUOUS
10
108.604
20
-171.369
11
108.461
21
-171.512
0
LINE
8
BLACK
6
CONTINUOUS
10
108.461
20
-171.512
11
108.318
21
-171.369
0
LINE
8
BLACK
6
CONTINUOUS
10
108.318
20
-171.369
11
108.461
21
-171.226
0
LINE
8
BLACK
6
CONTINUOUS
10
108.461
20
-171.226
11
108.461
21
-171.512
0
LINE
8
BLACK
6
CONTINUOUS
10
111.461
20
-171.512
11
109.746
21
-171.512
0
LINE
8
BLACK
6
CONTINUOUS
10
110.604
20
-171.512
11
110.604
21
-168.512
0
LINE
8
BLACK
6
CONTINUOUS
10
110.604
20
-168.512
11
110.318
21
-168.941
0
LINE
8
BLACK
6
CONTINUOUS
10
110.318
20
-168.941
11
110.032
21
-169.226
0
LINE
8
BLACK
6
CONTINUOUS
10
110.032
20
-169.226
11
109.746
21
-169.369
0
LINE
8
BLACK
6
CONTINUOUS
10
113.318
20
-168.512
11
113.604
21
-168.512
0
LINE
8
BLACK
6
CONTINUOUS
10
113.604
20
-168.512
11
113.889
21
-168.655
0
LINE
8
BLACK
6
CONTINUOUS
10
113.889
20
-168.655
11
114.032
21
-168.798
0
LINE
8
BLACK
6
CONTINUOUS
10
114.032
20
-168.798
11
114.175
21
-169.084
0
LINE
8
BLACK
6
CONTINUOUS
10
114.175
20
-169.084
11
114.318
21
-169.655
0
LINE
8
BLACK
6
CONTINUOUS
10
114.318
20
-169.655
11
114.318
21
-170.369
0
LINE
8
BLACK
6
CONTINUOUS
10
114.318
20
-170.369
11
114.175
21
-170.941
0
LINE
8
BLACK
6
CONTINUOUS
10
114.175
20
-170.941
11
114.032
21
-171.226
0
LINE
8
BLACK
6
CONTINUOUS
10
114.032
20
-171.226
11
113.889
21
-171.369
0
LINE
8
BLACK
6
CONTINUOUS
10
113.889
20
-171.369
11
113.604
21
-171.512
0
LINE
8
BLACK
6
CONTINUOUS
10
113.604
20
-171.512
11
113.318
21
-171.512
0
LINE
8
BLACK
6
CONTINUOUS
10
113.318
20
-171.512
11
113.032
21
-171.369
0
LINE
8
BLACK
6
CONTINUOUS
10
113.032
20
-171.369
11
112.889
21
-171.226
0
LINE
8
BLACK
6
CONTINUOUS
10
112.889
20
-171.226
11
112.746
21
-170.941
0
LINE
8
BLACK
6
CONTINUOUS
10
112.746
20
-170.941
11
112.604
21
-170.369
0
LINE
8
BLACK
6
CONTINUOUS
10
112.604
20
-170.369
11
112.604
21
-169.655
0
LINE
8
BLACK
6
CONTINUOUS
10
112.604
20
-169.655
11
112.746
21
-169.084
0
LINE
8
BLACK
6
CONTINUOUS
10
112.746
20
-169.084
11
112.889
21
-168.798
0
LINE
8
BLACK
6
CONTINUOUS
10
112.889
20
-168.798
11
113.032
21
-168.655
0
LINE
8
BLACK
6
CONTINUOUS
10
113.032
20
-168.655
11
113.318
21
-168.512
0
LINE
8
BLACK
6
CONTINUOUS
10
116.889
20
-168.512
11
116.318
21
-168.512
0
LINE
8
BLACK
6
CONTINUOUS
10
116.318
20
-168.512
11
116.032
21
-168.655
0
LINE
8
BLACK
6
CONTINUOUS
10
116.032
20
-168.655
11
115.889
21
-168.798
0
LINE
8
BLACK
6
CONTINUOUS
10
115.889
20
-168.798
11
115.604
21
-169.226
0
LINE
8
BLACK
6
CONTINUOUS
10
115.604
20
-169.226
11
115.461
21
-169.798
0
LINE
8
BLACK
6
CONTINUOUS
10
115.461
20
-169.798
11
115.461
21
-170.941
0
LINE
8
BLACK
6
CONTINUOUS
10
115.461
20
-170.941
11
115.604
21
-171.226
0
LINE
8
BLACK
6
CONTINUOUS
10
115.604
20
-171.226
11
115.746
21
-171.369
0
LINE
8
BLACK
6
CONTINUOUS
10
115.746
20
-171.369
11
116.032
21
-171.512
0
LINE
8
BLACK
6
CONTINUOUS
10
116.032
20
-171.512
11
116.604
21
-171.512
0
LINE
8
BLACK
6
CONTINUOUS
10
116.604
20
-171.512
11
116.889
21
-171.369
0
LINE
8
BLACK
6
CONTINUOUS
10
116.889
20
-171.369
11
117.032
21
-171.226
0
LINE
8
BLACK
6
CONTINUOUS
10
117.032
20
-171.226
11
117.175
21
-170.941
0
LINE
8
BLACK
6
CONTINUOUS
10
117.175
20
-170.941
11
117.175
21
-170.226
0
LINE
8
BLACK
6
CONTINUOUS
10
117.175
20
-170.226
11
117.032
21
-169.941
0
LINE
8
BLACK
6
CONTINUOUS
10
117.032
20
-169.941
11
116.889
21
-169.798
0
LINE
8
BLACK
6
CONTINUOUS
10
116.889
20
-169.798
11
116.604
21
-169.655
0
LINE
8
BLACK
6
CONTINUOUS
10
116.604
20
-169.655
11
116.032
21
-169.655
0
LINE
8
BLACK
6
CONTINUOUS
10
116.032
20
-169.655
11
115.746
21
-169.798
0
LINE
8
BLACK
6
CONTINUOUS
10
115.746
20
-169.798
11
115.604
21
-169.941
0
LINE
8
BLACK
6
CONTINUOUS
10
115.604
20
-169.941
11
115.461
21
-170.226
0
LINE
8
BLACK
6
CONTINUOUS
10
118.318
20
-168.512
11
118.318
21
-169.084
0
LINE
8
BLACK
6
CONTINUOUS
10
119.461
20
-168.512
11
119.461
21
-169.084
0
LINE
8
BLACK
6
CONTINUOUS
10
123.889
20
-172.655
11
123.746
21
-172.512
0
LINE
8
BLACK
6
CONTINUOUS
10
123.746
20
-172.512
11
123.461
21
-172.084
0
LINE
8
BLACK
6
CONTINUOUS
10
123.461
20
-172.084
11
123.318
21
-171.798
0
LINE
8
BLACK
6
CONTINUOUS
10
123.318
20
-171.798
11
123.175
21
-171.369
0
LINE
8
BLACK
6
CONTINUOUS
10
123.175
20
-171.369
11
123.032
21
-170.655
0
LINE
8
BLACK
6
CONTINUOUS
10
123.032
20
-170.655
11
123.032
21
-170.084
0
LINE
8
BLACK
6
CONTINUOUS
10
123.032
20
-170.084
11
123.175
21
-169.369
0
LINE
8
BLACK
6
CONTINUOUS
10
123.175
20
-169.369
11
123.318
21
-168.941
0
LINE
8
BLACK
6
CONTINUOUS
10
123.318
20
-168.941
11
123.461
21
-168.655
0
LINE
8
BLACK
6
CONTINUOUS
10
123.461
20
-168.655
11
123.746
21
-168.226
0
LINE
8
BLACK
6
CONTINUOUS
10
123.746
20
-168.226
11
123.889
21
-168.084
0
LINE
8
BLACK
6
CONTINUOUS
10
126.318
20
-169.512
11
126.318
21
-171.512
0
LINE
8
BLACK
6
CONTINUOUS
10
125.604
20
-168.369
11
124.889
21
-170.512
0
LINE
8
BLACK
6
CONTINUOUS
10
124.889
20
-170.512
11
126.746
21
-170.512
0
LINE
8
BLACK
6
CONTINUOUS
10
130.175
20
-171.512
11
130.175
21
-168.512
0
LINE
8
BLACK
6
CONTINUOUS
10
131.461
20
-171.512
11
131.461
21
-169.941
0
LINE
8
BLACK
6
CONTINUOUS
10
131.461
20
-169.941
11
131.318
21
-169.655
0
LINE
8
BLACK
6
CONTINUOUS
10
131.318
20
-169.655
11
131.032
21
-169.512
0
LINE
8
BLACK
6
CONTINUOUS
10
131.032
20
-169.512
11
130.604
21
-169.512
0
LINE
8
BLACK
6
CONTINUOUS
10
130.604
20
-169.512
11
130.318
21
-169.655
0
LINE
8
BLACK
6
CONTINUOUS
10
130.318
20
-169.655
11
130.175
21
-169.798
0
LINE
8
BLACK
6
CONTINUOUS
10
133.318
20
-171.512
11
133.032
21
-171.369
0
LINE
8
BLACK
6
CONTINUOUS
10
133.032
20
-171.369
11
132.889
21
-171.226
0
LINE
8
BLACK
6
CONTINUOUS
10
132.889
20
-171.226
11
132.746
21
-170.941
0
LINE
8
BLACK
6
CONTINUOUS
10
132.746
20
-170.941
11
132.746
21
-170.084
0
LINE
8
BLACK
6
CONTINUOUS
10
132.746
20
-170.084
11
132.889
21
-169.798
0
LINE
8
BLACK
6
CONTINUOUS
10
132.889
20
-169.798
11
133.032
21
-169.655
0
LINE
8
BLACK
6
CONTINUOUS
10
133.032
20
-169.655
11
133.318
21
-169.512
0
LINE
8
BLACK
6
CONTINUOUS
10
133.318
20
-169.512
11
133.746
21
-169.512
0
LINE
8
BLACK
6
CONTINUOUS
10
133.746
20
-169.512
11
134.032
21
-169.655
0
LINE
8
BLACK
6
CONTINUOUS
10
134.032
20
-169.655
11
134.175
21
-169.798
0
LINE
8
BLACK
6
CONTINUOUS
10
134.175
20
-169.798
11
134.318
21
-170.084
0
LINE
8
BLACK
6
CONTINUOUS
10
134.318
20
-170.084
11
134.318
21
-170.941
0
LINE
8
BLACK
6
CONTINUOUS
10
134.318
20
-170.941
11
134.175
21
-171.226
0
LINE
8
BLACK
6
CONTINUOUS
10
134.175
20
-171.226
11
134.032
21
-171.369
0
LINE
8
BLACK
6
CONTINUOUS
10
134.032
20
-171.369
11
133.746
21
-171.512
0
LINE
8
BLACK
6
CONTINUOUS
10
133.746
20
-171.512
11
133.318
21
-171.512
0
LINE
8
BLACK
6
CONTINUOUS
10
136.032
20
-171.512
11
135.746
21
-171.369
0
LINE
8
BLACK
6
CONTINUOUS
10
135.746
20
-171.369
11
135.604
21
-171.084
0
LINE
8
BLACK
6
CONTINUOUS
10
135.604
20
-171.084
11
135.604
21
-168.512
0
LINE
8
BLACK
6
CONTINUOUS
10
138.318
20
-171.369
11
138.032
21
-171.512
0
LINE
8
BLACK
6
CONTINUOUS
10
138.032
20
-171.512
11
137.461
21
-171.512
0
LINE
8
BLACK
6
CONTINUOUS
10
137.461
20
-171.512
11
137.175
21
-171.369
0
LINE
8
BLACK
6
CONTINUOUS
10
137.175
20
-171.369
11
137.032
21
-171.084
0
LINE
8
BLACK
6
CONTINUOUS
10
137.032
20
-171.084
11
137.032
21
-169.941
0
LINE
8
BLACK
6
CONTINUOUS
10
137.032
20
-169.941
11
137.175
21
-169.655
0
LINE
8
BLACK
6
CONTINUOUS
10
137.175
20
-169.655
11
137.461
21
-169.512
0
LINE
8
BLACK
6
CONTINUOUS
10
137.461
20
-169.512
11
138.032
21
-169.512
0
LINE
8
BLACK
6
CONTINUOUS
10
138.032
20
-169.512
11
138.318
21
-169.655
0
LINE
8
BLACK
6
CONTINUOUS
10
138.318
20
-169.655
11
138.461
21
-169.941
0
LINE
8
BLACK
6
CONTINUOUS
10
138.461
20
-169.941
11
138.461
21
-170.226
0
LINE
8
BLACK
6
CONTINUOUS
10
138.461
20
-170.226
11
137.032
21
-170.512
0
LINE
8
BLACK
6
CONTINUOUS
10
139.604
20
-171.369
11
139.889
21
-171.512
0
LINE
8
BLACK
6
CONTINUOUS
10
139.889
20
-171.512
11
140.461
21
-171.512
0
LINE
8
BLACK
6
CONTINUOUS
10
140.461
20
-171.512
11
140.746
21
-171.369
0
LINE
8
BLACK
6
CONTINUOUS
10
140.746
20
-171.369
11
140.889
21
-171.084
0
LINE
8
BLACK
6
CONTINUOUS
10
140.889
20
-171.084
11
140.889
21
-170.941
0
LINE
8
BLACK
6
CONTINUOUS
10
140.889
20
-170.941
11
140.746
21
-170.655
0
LINE
8
BLACK
6
CONTINUOUS
10
140.746
20
-170.655
11
140.461
21
-170.512
0
LINE
8
BLACK
6
CONTINUOUS
10
140.461
20
-170.512
11
140.032
21
-170.512
0
LINE
8
BLACK
6
CONTINUOUS
10
140.032
20
-170.512
11
139.746
21
-170.369
0
LINE
8
BLACK
6
CONTINUOUS
10
139.746
20
-170.369
11
139.604
21
-170.084
0
LINE
8
BLACK
6
CONTINUOUS
10
139.604
20
-170.084
11
139.604
21
-169.941
0
LINE
8
BLACK
6
CONTINUOUS
10
139.604
20
-169.941
11
139.746
21
-169.655
0
LINE
8
BLACK
6
CONTINUOUS
10
139.746
20
-169.655
11
140.032
21
-169.512
0
LINE
8
BLACK
6
CONTINUOUS
10
140.032
20
-169.512
11
140.461
21
-169.512
0
LINE
8
BLACK
6
CONTINUOUS
10
140.461
20
-169.512
11
140.746
21
-169.655
0
LINE
8
BLACK
6
CONTINUOUS
10
141.889
20
-172.655
11
142.032
21
-172.512
0
LINE
8
BLACK
6
CONTINUOUS
10
142.032
20
-172.512
11
142.318
21
-172.084
0
LINE
8
BLACK
6
CONTINUOUS
10
142.318
20
-172.084
11
142.461
21
-171.798
0
LINE
8
BLACK
6
CONTINUOUS
10
142.461
20
-171.798
11
142.604
21
-171.369
0
LINE
8
BLACK
6
CONTINUOUS
10
142.604
20
-171.369
11
142.746
21
-170.655
0
LINE
8
BLACK
6
CONTINUOUS
10
142.746
20
-170.655
11
142.746
21
-170.084
0
LINE
8
BLACK
6
CONTINUOUS
10
142.746
20
-170.084
11
142.604
21
-169.369
0
LINE
8
BLACK
6
CONTINUOUS
10
142.604
20
-169.369
11
142.461
21
-168.941
0
LINE
8
BLACK
6
CONTINUOUS
10
142.461
20
-168.941
11
142.318
21
-168.655
0
LINE
8
BLACK
6
CONTINUOUS
10
142.318
20
-168.655
11
142.032
21
-168.226
0
LINE
8
BLACK
6
CONTINUOUS
10
142.032
20
-168.226
11
141.889
21
-168.084
0
LINE
8
BLACK
6
CONTINUOUS
10
75.425
20
-175.755
11
77.025
21
-174.155
0
LINE
8
BLACK
6
CONTINUOUS
10
77.025
20
-174.155
11
75.425
21
-172.555
0
LINE
8
BLACK
6
CONTINUOUS
10
75.425
20
-172.555
11
73.825
21
-174.155
0
LINE
8
BLACK
6
CONTINUOUS
10
73.825
20
-174.155
11
75.425
21
-175.755
0
LINE
8
BLACK
6
CONTINUOUS
10
79.6036
20
-172.512
11
81.4607
21
-172.512
0
LINE
8
BLACK
6
CONTINUOUS
10
81.4607
20
-172.512
11
80.4607
21
-173.655
0
LINE
8
BLACK
6
CONTINUOUS
10
80.4607
20
-173.655
11
80.8893
21
-173.655
0
LINE
8
BLACK
6
CONTINUOUS
10
80.8893
20
-173.655
11
81.175
21
-173.798
0
LINE
8
BLACK
6
CONTINUOUS
10
81.175
20
-173.798
11
81.3179
21
-173.941
0
LINE
8
BLACK
6
CONTINUOUS
10
81.3179
20
-173.941
11
81.4607
21
-174.226
0
LINE
8
BLACK
6
CONTINUOUS
10
81.4607
20
-174.226
11
81.4607
21
-174.941
0
LINE
8
BLACK
6
CONTINUOUS
10
81.4607
20
-174.941
11
81.3179
21
-175.226
0
LINE
8
BLACK
6
CONTINUOUS
10
81.3179
20
-175.226
11
81.175
21
-175.369
0
LINE
8
BLACK
6
CONTINUOUS
10
81.175
20
-175.369
11
80.8893
21
-175.512
0
LINE
8
BLACK
6
CONTINUOUS
10
80.8893
20
-175.512
11
80.0321
21
-175.512
0
LINE
8
BLACK
6
CONTINUOUS
10
80.0321
20
-175.512
11
79.7464
21
-175.369
0
LINE
8
BLACK
6
CONTINUOUS
10
79.7464
20
-175.369
11
79.6036
21
-175.226
0
LINE
8
BLACK
6
CONTINUOUS
10
82.7464
20
-175.226
11
82.8893
21
-175.369
0
LINE
8
BLACK
6
CONTINUOUS
10
82.8893
20
-175.369
11
82.7464
21
-175.512
0
LINE
8
BLACK
6
CONTINUOUS
10
82.7464
20
-175.512
11
82.6036
21
-175.369
0
LINE
8
BLACK
6
CONTINUOUS
10
82.6036
20
-175.369
11
82.7464
21
-175.226
0
LINE
8
BLACK
6
CONTINUOUS
10
82.7464
20
-175.226
11
82.7464
21
-175.512
0
LINE
8
BLACK
6
CONTINUOUS
10
84.0321
20
-172.798
11
84.175
21
-172.655
0
LINE
8
BLACK
6
CONTINUOUS
10
84.175
20
-172.655
11
84.4607
21
-172.512
0
LINE
8
BLACK
6
CONTINUOUS
10
84.4607
20
-172.512
11
85.175
21
-172.512
0
LINE
8
BLACK
6
CONTINUOUS
10
85.175
20
-172.512
11
85.4607
21
-172.655
0
LINE
8
BLACK
6
CONTINUOUS
10
85.4607
20
-172.655
11
85.6036
21
-172.798
0
LINE
8
BLACK
6
CONTINUOUS
10
85.6036
20
-172.798
11
85.7464
21
-173.084
0
LINE
8
BLACK
6
CONTINUOUS
10
85.7464
20
-173.084
11
85.7464
21
-173.369
0
LINE
8
BLACK
6
CONTINUOUS
10
85.7464
20
-173.369
11
85.6036
21
-173.798
0
LINE
8
BLACK
6
CONTINUOUS
10
85.6036
20
-173.798
11
83.8893
21
-175.512
0
LINE
8
BLACK
6
CONTINUOUS
10
83.8893
20
-175.512
11
85.7464
21
-175.512
0
LINE
8
BLACK
6
CONTINUOUS
10
87.6036
20
-172.512
11
87.8893
21
-172.512
0
LINE
8
BLACK
6
CONTINUOUS
10
87.8893
20
-172.512
11
88.175
21
-172.655
0
LINE
8
BLACK
6
CONTINUOUS
10
88.175
20
-172.655
11
88.3179
21
-172.798
0
LINE
8
BLACK
6
CONTINUOUS
10
88.3179
20
-172.798
11
88.4607
21
-173.084
0
LINE
8
BLACK
6
CONTINUOUS
10
88.4607
20
-173.084
11
88.6036
21
-173.655
0
LINE
8
BLACK
6
CONTINUOUS
10
88.6036
20
-173.655
11
88.6036
21
-174.369
0
LINE
8
BLACK
6
CONTINUOUS
10
88.6036
20
-174.369
11
88.4607
21
-174.941
0
LINE
8
BLACK
6
CONTINUOUS
10
88.4607
20
-174.941
11
88.3179
21
-175.226
0
LINE
8
BLACK
6
CONTINUOUS
10
88.3179
20
-175.226
11
88.175
21
-175.369
0
LINE
8
BLACK
6
CONTINUOUS
10
88.175
20
-175.369
11
87.8893
21
-175.512
0
LINE
8
BLACK
6
CONTINUOUS
10
87.8893
20
-175.512
11
87.6036
21
-175.512
0
LINE
8
BLACK
6
CONTINUOUS
10
87.6036
20
-175.512
11
87.3179
21
-175.369
0
LINE
8
BLACK
6
CONTINUOUS
10
87.3179
20
-175.369
11
87.175
21
-175.226
0
LINE
8
BLACK
6
CONTINUOUS
10
87.175
20
-175.226
11
87.0321
21
-174.941
0
LINE
8
BLACK
6
CONTINUOUS
10
87.0321
20
-174.941
11
86.8893
21
-174.369
0
LINE
8
BLACK
6
CONTINUOUS
10
86.8893
20
-174.369
11
86.8893
21
-173.655
0
LINE
8
BLACK
6
CONTINUOUS
10
86.8893
20
-173.655
11
87.0321
21
-173.084
0
LINE
8
BLACK
6
CONTINUOUS
10
87.0321
20
-173.084
11
87.175
21
-172.798
0
LINE
8
BLACK
6
CONTINUOUS
10
87.175
20
-172.798
11
87.3179
21
-172.655
0
LINE
8
BLACK
6
CONTINUOUS
10
87.3179
20
-172.655
11
87.6036
21
-172.512
0
LINE
8
BLACK
6
CONTINUOUS
10
89.8893
20
-175.512
11
89.8893
21
-173.512
0
LINE
8
BLACK
6
CONTINUOUS
10
89.8893
20
-173.798
11
90.0321
21
-173.655
0
LINE
8
BLACK
6
CONTINUOUS
10
90.0321
20
-173.655
11
90.3179
21
-173.512
0
LINE
8
BLACK
6
CONTINUOUS
10
90.3179
20
-173.512
11
90.7464
21
-173.512
0
LINE
8
BLACK
6
CONTINUOUS
10
90.7464
20
-173.512
11
91.0321
21
-173.655
0
LINE
8
BLACK
6
CONTINUOUS
10
91.0321
20
-173.655
11
91.175
21
-173.941
0
LINE
8
BLACK
6
CONTINUOUS
10
91.175
20
-173.941
11
91.175
21
-175.512
0
LINE
8
BLACK
6
CONTINUOUS
10
91.175
20
-173.941
11
91.3179
21
-173.655
0
LINE
8
BLACK
6
CONTINUOUS
10
91.3179
20
-173.655
11
91.6036
21
-173.512
0
LINE
8
BLACK
6
CONTINUOUS
10
91.6036
20
-173.512
11
92.0321
21
-173.512
0
LINE
8
BLACK
6
CONTINUOUS
10
92.0321
20
-173.512
11
92.3179
21
-173.655
0
LINE
8
BLACK
6
CONTINUOUS
10
92.3179
20
-173.655
11
92.4607
21
-173.941
0
LINE
8
BLACK
6
CONTINUOUS
10
92.4607
20
-173.941
11
92.4607
21
-175.512
0
LINE
8
BLACK
6
CONTINUOUS
10
93.8893
20
-175.512
11
93.8893
21
-173.512
0
LINE
8
BLACK
6
CONTINUOUS
10
93.8893
20
-173.798
11
94.0321
21
-173.655
0
LINE
8
BLACK
6
CONTINUOUS
10
94.0321
20
-173.655
11
94.3179
21
-173.512
0
LINE
8
BLACK
6
CONTINUOUS
10
94.3179
20
-173.512
11
94.7464
21
-173.512
0
LINE
8
BLACK
6
CONTINUOUS
10
94.7464
20
-173.512
11
95.0321
21
-173.655
0
LINE
8
BLACK
6
CONTINUOUS
10
95.0321
20
-173.655
11
95.175
21
-173.941
0
LINE
8
BLACK
6
CONTINUOUS
10
95.175
20
-173.941
11
95.175
21
-175.512
0
LINE
8
BLACK
6
CONTINUOUS
10
95.175
20
-173.941
11
95.3179
21
-173.655
0
LINE
8
BLACK
6
CONTINUOUS
10
95.3179
20
-173.655
11
95.6036
21
-173.512
0
LINE
8
BLACK
6
CONTINUOUS
10
95.6036
20
-173.512
11
96.0321
21
-173.512
0
LINE
8
BLACK
6
CONTINUOUS
10
96.0321
20
-173.512
11
96.3179
21
-173.655
0
LINE
8
BLACK
6
CONTINUOUS
10
96.3179
20
-173.655
11
96.4607
21
-173.941
0
LINE
8
BLACK
6
CONTINUOUS
10
96.4607
20
-173.941
11
96.4607
21
-175.512
0
LINE
8
BLACK
6
CONTINUOUS
10
102.318
20
-172.369
11
99.7464
21
-176.226
0
LINE
8
BLACK
6
CONTINUOUS
10
106.175
20
-172.512
11
106.461
21
-172.512
0
LINE
8
BLACK
6
CONTINUOUS
10
106.461
20
-172.512
11
106.746
21
-172.655
0
LINE
8
BLACK
6
CONTINUOUS
10
106.746
20
-172.655
11
106.889
21
-172.798
0
LINE
8
BLACK
6
CONTINUOUS
10
106.889
20
-172.798
11
107.032
21
-173.084
0
LINE
8
BLACK
6
CONTINUOUS
10
107.032
20
-173.084
11
107.175
21
-173.655
0
LINE
8
BLACK
6
CONTINUOUS
10
107.175
20
-173.655
11
107.175
21
-174.369
0
LINE
8
BLACK
6
CONTINUOUS
10
107.175
20
-174.369
11
107.032
21
-174.941
0
LINE
8
BLACK
6
CONTINUOUS
10
107.032
20
-174.941
11
106.889
21
-175.226
0
LINE
8
BLACK
6
CONTINUOUS
10
106.889
20
-175.226
11
106.746
21
-175.369
0
LINE
8
BLACK
6
CONTINUOUS
10
106.746
20
-175.369
11
106.461
21
-175.512
0
LINE
8
BLACK
6
CONTINUOUS
10
106.461
20
-175.512
11
106.175
21
-175.512
0
LINE
8
BLACK
6
CONTINUOUS
10
106.175
20
-175.512
11
105.889
21
-175.369
0
LINE
8
BLACK
6
CONTINUOUS
10
105.889
20
-175.369
11
105.746
21
-175.226
0
LINE
8
BLACK
6
CONTINUOUS
10
105.746
20
-175.226
11
105.604
21
-174.941
0
LINE
8
BLACK
6
CONTINUOUS
10
105.604
20
-174.941
11
105.461
21
-174.369
0
LINE
8
BLACK
6
CONTINUOUS
10
105.461
20
-174.369
11
105.461
21
-173.655
0
LINE
8
BLACK
6
CONTINUOUS
10
105.461
20
-173.655
11
105.604
21
-173.084
0
LINE
8
BLACK
6
CONTINUOUS
10
105.604
20
-173.084
11
105.746
21
-172.798
0
LINE
8
BLACK
6
CONTINUOUS
10
105.746
20
-172.798
11
105.889
21
-172.655
0
LINE
8
BLACK
6
CONTINUOUS
10
105.889
20
-172.655
11
106.175
21
-172.512
0
LINE
8
BLACK
6
CONTINUOUS
10
108.461
20
-175.226
11
108.604
21
-175.369
0
LINE
8
BLACK
6
CONTINUOUS
10
108.604
20
-175.369
11
108.461
21
-175.512
0
LINE
8
BLACK
6
CONTINUOUS
10
108.461
20
-175.512
11
108.318
21
-175.369
0
LINE
8
BLACK
6
CONTINUOUS
10
108.318
20
-175.369
11
108.461
21
-175.226
0
LINE
8
BLACK
6
CONTINUOUS
10
108.461
20
-175.226
11
108.461
21
-175.512
0
LINE
8
BLACK
6
CONTINUOUS
10
111.461
20
-175.512
11
109.746
21
-175.512
0
LINE
8
BLACK
6
CONTINUOUS
10
110.604
20
-175.512
11
110.604
21
-172.512
0
LINE
8
BLACK
6
CONTINUOUS
10
110.604
20
-172.512
11
110.318
21
-172.941
0
LINE
8
BLACK
6
CONTINUOUS
10
110.318
20
-172.941
11
110.032
21
-173.226
0
LINE
8
BLACK
6
CONTINUOUS
10
110.032
20
-173.226
11
109.746
21
-173.369
0
LINE
8
BLACK
6
CONTINUOUS
10
112.604
20
-172.798
11
112.746
21
-172.655
0
LINE
8
BLACK
6
CONTINUOUS
10
112.746
20
-172.655
11
113.032
21
-172.512
0
LINE
8
BLACK
6
CONTINUOUS
10
113.032
20
-172.512
11
113.746
21
-172.512
0
LINE
8
BLACK
6
CONTINUOUS
10
113.746
20
-172.512
11
114.032
21
-172.655
0
LINE
8
BLACK
6
CONTINUOUS
10
114.032
20
-172.655
11
114.175
21
-172.798
0
LINE
8
BLACK
6
CONTINUOUS
10
114.175
20
-172.798
11
114.318
21
-173.084
0
LINE
8
BLACK
6
CONTINUOUS
10
114.318
20
-173.084
11
114.318
21
-173.369
0
LINE
8
BLACK
6
CONTINUOUS
10
114.318
20
-173.369
11
114.175
21
-173.798
0
LINE
8
BLACK
6
CONTINUOUS
10
114.175
20
-173.798
11
112.461
21
-175.512
0
LINE
8
BLACK
6
CONTINUOUS
10
112.461
20
-175.512
11
114.318
21
-175.512
0
LINE
8
BLACK
6
CONTINUOUS
10
116.889
20
-172.512
11
116.318
21
-172.512
0
LINE
8
BLACK
6
CONTINUOUS
10
116.318
20
-172.512
11
116.032
21
-172.655
0
LINE
8
BLACK
6
CONTINUOUS
10
116.032
20
-172.655
11
115.889
21
-172.798
0
LINE
8
BLACK
6
CONTINUOUS
10
115.889
20
-172.798
11
115.604
21
-173.226
0
LINE
8
BLACK
6
CONTINUOUS
10
115.604
20
-173.226
11
115.461
21
-173.798
0
LINE
8
BLACK
6
CONTINUOUS
10
115.461
20
-173.798
11
115.461
21
-174.941
0
LINE
8
BLACK
6
CONTINUOUS
10
115.461
20
-174.941
11
115.604
21
-175.226
0
LINE
8
BLACK
6
CONTINUOUS
10
115.604
20
-175.226
11
115.746
21
-175.369
0
LINE
8
BLACK
6
CONTINUOUS
10
115.746
20
-175.369
11
116.032
21
-175.512
0
LINE
8
BLACK
6
CONTINUOUS
10
116.032
20
-175.512
11
116.604
21
-175.512
0
LINE
8
BLACK
6
CONTINUOUS
10
116.604
20
-175.512
11
116.889
21
-175.369
0
LINE
8
BLACK
6
CONTINUOUS
10
116.889
20
-175.369
11
117.032
21
-175.226
0
LINE
8
BLACK
6
CONTINUOUS
10
117.032
20
-175.226
11
117.175
21
-174.941
0
LINE
8
BLACK
6
CONTINUOUS
10
117.175
20
-174.941
11
117.175
21
-174.226
0
LINE
8
BLACK
6
CONTINUOUS
10
117.175
20
-174.226
11
117.032
21
-173.941
0
LINE
8
BLACK
6
CONTINUOUS
10
117.032
20
-173.941
11
116.889
21
-173.798
0
LINE
8
BLACK
6
CONTINUOUS
10
116.889
20
-173.798
11
116.604
21
-173.655
0
LINE
8
BLACK
6
CONTINUOUS
10
116.604
20
-173.655
11
116.032
21
-173.655
0
LINE
8
BLACK
6
CONTINUOUS
10
116.032
20
-173.655
11
115.746
21
-173.798
0
LINE
8
BLACK
6
CONTINUOUS
10
115.746
20
-173.798
11
115.604
21
-173.941
0
LINE
8
BLACK
6
CONTINUOUS
10
115.604
20
-173.941
11
115.461
21
-174.226
0
LINE
8
BLACK
6
CONTINUOUS
10
118.318
20
-172.512
11
118.318
21
-173.084
0
LINE
8
BLACK
6
CONTINUOUS
10
119.461
20
-172.512
11
119.461
21
-173.084
0
LINE
8
BLACK
6
CONTINUOUS
10
123.889
20
-176.655
11
123.746
21
-176.512
0
LINE
8
BLACK
6
CONTINUOUS
10
123.746
20
-176.512
11
123.461
21
-176.084
0
LINE
8
BLACK
6
CONTINUOUS
10
123.461
20
-176.084
11
123.318
21
-175.798
0
LINE
8
BLACK
6
CONTINUOUS
10
123.318
20
-175.798
11
123.175
21
-175.369
0
LINE
8
BLACK
6
CONTINUOUS
10
123.175
20
-175.369
11
123.032
21
-174.655
0
LINE
8
BLACK
6
CONTINUOUS
10
123.032
20
-174.655
11
123.032
21
-174.084
0
LINE
8
BLACK
6
CONTINUOUS
10
123.032
20
-174.084
11
123.175
21
-173.369
0
LINE
8
BLACK
6
CONTINUOUS
10
123.175
20
-173.369
11
123.318
21
-172.941
0
LINE
8
BLACK
6
CONTINUOUS
10
123.318
20
-172.941
11
123.461
21
-172.655
0
LINE
8
BLACK
6
CONTINUOUS
10
123.461
20
-172.655
11
123.746
21
-172.226
0
LINE
8
BLACK
6
CONTINUOUS
10
123.746
20
-172.226
11
123.889
21
-172.084
0
LINE
8
BLACK
6
CONTINUOUS
10
126.318
20
-173.512
11
126.318
21
-175.512
0
LINE
8
BLACK
6
CONTINUOUS
10
125.604
20
-172.369
11
124.889
21
-174.512
0
LINE
8
BLACK
6
CONTINUOUS
10
124.889
20
-174.512
11
126.746
21
-174.512
0
LINE
8
BLACK
6
CONTINUOUS
10
130.175
20
-175.512
11
130.175
21
-172.512
0
LINE
8
BLACK
6
CONTINUOUS
10
131.461
20
-175.512
11
131.461
21
-173.941
0
LINE
8
BLACK
6
CONTINUOUS
10
131.461
20
-173.941
11
131.318
21
-173.655
0
LINE
8
BLACK
6
CONTINUOUS
10
131.318
20
-173.655
11
131.032
21
-173.512
0
LINE
8
BLACK
6
CONTINUOUS
10
131.032
20
-173.512
11
130.604
21
-173.512
0
LINE
8
BLACK
6
CONTINUOUS
10
130.604
20
-173.512
11
130.318
21
-173.655
0
LINE
8
BLACK
6
CONTINUOUS
10
130.318
20
-173.655
11
130.175
21
-173.798
0
LINE
8
BLACK
6
CONTINUOUS
10
133.318
20
-175.512
11
133.032
21
-175.369
0
LINE
8
BLACK
6
CONTINUOUS
10
133.032
20
-175.369
11
132.889
21
-175.226
0
LINE
8
BLACK
6
CONTINUOUS
10
132.889
20
-175.226
11
132.746
21
-174.941
0
LINE
8
BLACK
6
CONTINUOUS
10
132.746
20
-174.941
11
132.746
21
-174.084
0
LINE
8
BLACK
6
CONTINUOUS
10
132.746
20
-174.084
11
132.889
21
-173.798
0
LINE
8
BLACK
6
CONTINUOUS
10
132.889
20
-173.798
11
133.032
21
-173.655
0
LINE
8
BLACK
6
CONTINUOUS
10
133.032
20
-173.655
11
133.318
21
-173.512
0
LINE
8
BLACK
6
CONTINUOUS
10
133.318
20
-173.512
11
133.746
21
-173.512
0
LINE
8
BLACK
6
CONTINUOUS
10
133.746
20
-173.512
11
134.032
21
-173.655
0
LINE
8
BLACK
6
CONTINUOUS
10
134.032
20
-173.655
11
134.175
21
-173.798
0
LINE
8
BLACK
6
CONTINUOUS
10
134.175
20
-173.798
11
134.318
21
-174.084
0
LINE
8
BLACK
6
CONTINUOUS
10
134.318
20
-174.084
11
134.318
21
-174.941
0
LINE
8
BLACK
6
CONTINUOUS
10
134.318
20
-174.941
11
134.175
21
-175.226
0
LINE
8
BLACK
6
CONTINUOUS
10
134.175
20
-175.226
11
134.032
21
-175.369
0
LINE
8
BLACK
6
CONTINUOUS
10
134.032
20
-175.369
11
133.746
21
-175.512
0
LINE
8
BLACK
6
CONTINUOUS
10
133.746
20
-175.512
11
133.318
21
-175.512
0
LINE
8
BLACK
6
CONTINUOUS
10
136.032
20
-175.512
11
135.746
21
-175.369
0
LINE
8
BLACK
6
CONTINUOUS
10
135.746
20
-175.369
11
135.604
21
-175.084
0
LINE
8
BLACK
6
CONTINUOUS
10
135.604
20
-175.084
11
135.604
21
-172.512
0
LINE
8
BLACK
6
CONTINUOUS
10
138.318
20
-175.369
11
138.032
21
-175.512
0
LINE
8
BLACK
6
CONTINUOUS
10
138.032
20
-175.512
11
137.461
21
-175.512
0
LINE
8
BLACK
6
CONTINUOUS
10
137.461
20
-175.512
11
137.175
21
-175.369
0
LINE
8
BLACK
6
CONTINUOUS
10
137.175
20
-175.369
11
137.032
21
-175.084
0
LINE
8
BLACK
6
CONTINUOUS
10
137.032
20
-175.084
11
137.032
21
-173.941
0
LINE
8
BLACK
6
CONTINUOUS
10
137.032
20
-173.941
11
137.175
21
-173.655
0
LINE
8
BLACK
6
CONTINUOUS
10
137.175
20
-173.655
11
137.461
21
-173.512
0
LINE
8
BLACK
6
CONTINUOUS
10
137.461
20
-173.512
11
138.032
21
-173.512
0
LINE
8
BLACK
6
CONTINUOUS
10
138.032
20
-173.512
11
138.318
21
-173.655
0
LINE
8
BLACK
6
CONTINUOUS
10
138.318
20
-173.655
11
138.461
21
-173.941
0
LINE
8
BLACK
6
CONTINUOUS
10
138.461
20
-173.941
11
138.461
21
-174.226
0
LINE
8
BLACK
6
CONTINUOUS
10
138.461
20
-174.226
11
137.032
21
-174.512
0
LINE
8
BLACK
6
CONTINUOUS
10
139.604
20
-175.369
11
139.889
21
-175.512
0
LINE
8
BLACK
6
CONTINUOUS
10
139.889
20
-175.512
11
140.461
21
-175.512
0
LINE
8
BLACK
6
CONTINUOUS
10
140.461
20
-175.512
11
140.746
21
-175.369
0
LINE
8
BLACK
6
CONTINUOUS
10
140.746
20
-175.369
11
140.889
21
-175.084
0
LINE
8
BLACK
6
CONTINUOUS
10
140.889
20
-175.084
11
140.889
21
-174.941
0
LINE
8
BLACK
6
CONTINUOUS
10
140.889
20
-174.941
11
140.746
21
-174.655
0
LINE
8
BLACK
6
CONTINUOUS
10
140.746
20
-174.655
11
140.461
21
-174.512
0
LINE
8
BLACK
6
CONTINUOUS
10
140.461
20
-174.512
11
140.032
21
-174.512
0
LINE
8
BLACK
6
CONTINUOUS
10
140.032
20
-174.512
11
139.746
21
-174.369
0
LINE
8
BLACK
6
CONTINUOUS
10
139.746
20
-174.369
11
139.604
21
-174.084
0
LINE
8
BLACK
6
CONTINUOUS
10
139.604
20
-174.084
11
139.604
21
-173.941
0
LINE
8
BLACK
6
CONTINUOUS
10
139.604
20
-173.941
11
139.746
21
-173.655
0
LINE
8
BLACK
6
CONTINUOUS
10
139.746
20
-173.655
11
140.032
21
-173.512
0
LINE
8
BLACK
6
CONTINUOUS
10
140.032
20
-173.512
11
140.461
21
-173.512
0
LINE
8
BLACK
6
CONTINUOUS
10
140.461
20
-173.512
11
140.746
21
-173.655
0
LINE
8
BLACK
6
CONTINUOUS
10
141.889
20
-176.655
11
142.032
21
-176.512
0
LINE
8
BLACK
6
CONTINUOUS
10
142.032
20
-176.512
11
142.318
21
-176.084
0
LINE
8
BLACK
6
CONTINUOUS
10
142.318
20
-176.084
11
142.461
21
-175.798
0
LINE
8
BLACK
6
CONTINUOUS
10
142.461
20
-175.798
11
142.604
21
-175.369
0
LINE
8
BLACK
6
CONTINUOUS
10
142.604
20
-175.369
11
142.746
21
-174.655
0
LINE
8
BLACK
6
CONTINUOUS
10
142.746
20
-174.655
11
142.746
21
-174.084
0
LINE
8
BLACK
6
CONTINUOUS
10
142.746
20
-174.084
11
142.604
21
-173.369
0
LINE
8
BLACK
6
CONTINUOUS
10
142.604
20
-173.369
11
142.461
21
-172.941
0
LINE
8
BLACK
6
CONTINUOUS
10
142.461
20
-172.941
11
142.318
21
-172.655
0
LINE
8
BLACK
6
CONTINUOUS
10
142.318
20
-172.655
11
142.032
21
-172.226
0
LINE
8
BLACK
6
CONTINUOUS
10
142.032
20
-172.226
11
141.889
21
-172.084
  0
ENDSEC
  0
EOF
