%TF.GenerationSoftware,KiCad,Pcbnew,(5.0.0)*%
%TF.CreationDate,2020-02-27T17:20:47+00:00*%
%TF.ProjectId,Blast Furnace PCB,426C617374204675726E616365205043,rev?*%
%TF.SameCoordinates,Original*%
%TF.FileFunction,Soldermask,Top*%
%TF.FilePolarity,Negative*%
%FSLAX46Y46*%
G04 Gerber Fmt 4.6, Leading zero omitted, Abs format (unit mm)*
G04 Created by KiCad (PCBNEW (5.0.0)) date 02/27/20 17:20:47*
%MOMM*%
%LPD*%
G01*
G04 APERTURE LIST*
%ADD10C,0.150000*%
%ADD11C,1.924000*%
%ADD12C,6.000000*%
%ADD13C,5.800000*%
%ADD14O,2.000000X2.000000*%
%ADD15R,2.000000X2.000000*%
%ADD16C,3.400000*%
%ADD17R,3.400000X3.400000*%
%ADD18R,2.400000X2.100000*%
%ADD19O,2.400000X2.100000*%
%ADD20C,1.650000*%
%ADD21R,0.850000X1.850000*%
G04 APERTURE END LIST*
D10*
X112500000Y-164500000D02*
G75*
G02X110500000Y-162500000I0J2000000D01*
G01*
X110500000Y-106500000D02*
G75*
G02X112500000Y-104500000I2000000J0D01*
G01*
X192500000Y-104500000D02*
G75*
G02X194500000Y-106500000I0J-2000000D01*
G01*
X194500000Y-162500000D02*
G75*
G02X192500000Y-164500000I-2000000J0D01*
G01*
X110500000Y-106500000D02*
X110500000Y-162500000D01*
X192500000Y-104500000D02*
X112500000Y-104500000D01*
X194500000Y-162500000D02*
X194500000Y-106500000D01*
X112498438Y-164500000D02*
X192500000Y-164500000D01*
D11*
X184850000Y-147050000D03*
X184850000Y-149550000D03*
X184850000Y-152050000D03*
X184850000Y-154550000D03*
D12*
X190000000Y-144500000D03*
X115000000Y-144500000D03*
D13*
X115000000Y-129000000D03*
X190000000Y-129000000D03*
D11*
X184400000Y-116500000D03*
X184400000Y-121500000D03*
X184400000Y-119000000D03*
D14*
X169010000Y-107960000D03*
X169010000Y-123200000D03*
X133450000Y-107960000D03*
X166470000Y-123200000D03*
X135990000Y-107960000D03*
X163930000Y-123200000D03*
X138530000Y-107960000D03*
X161390000Y-123200000D03*
X141070000Y-107960000D03*
X158850000Y-123200000D03*
X143610000Y-107960000D03*
X156310000Y-123200000D03*
X146150000Y-107960000D03*
X153770000Y-123200000D03*
X148690000Y-107960000D03*
X151230000Y-123200000D03*
X151230000Y-107960000D03*
X148690000Y-123200000D03*
X153770000Y-107960000D03*
X146150000Y-123200000D03*
X156310000Y-107960000D03*
X143610000Y-123200000D03*
X158850000Y-107960000D03*
X141070000Y-123200000D03*
X161390000Y-107960000D03*
X138530000Y-123200000D03*
X163930000Y-107960000D03*
X135990000Y-123200000D03*
X166470000Y-107960000D03*
D15*
X133450000Y-123200000D03*
D16*
X115400000Y-121540000D03*
D17*
X115400000Y-116460000D03*
D13*
X190000000Y-160000000D03*
X115000000Y-160000000D03*
D12*
X190000000Y-109000000D03*
X115000000Y-109000000D03*
D18*
X190100000Y-120250000D03*
D19*
X190100000Y-117750000D03*
D10*
G36*
X129027346Y-134826589D02*
X129059380Y-134831341D01*
X129090794Y-134839210D01*
X129121286Y-134850120D01*
X129150561Y-134863966D01*
X129178338Y-134880615D01*
X129204350Y-134899907D01*
X129228345Y-134921655D01*
X129250093Y-134945650D01*
X129269385Y-134971662D01*
X129286034Y-134999439D01*
X129299880Y-135028714D01*
X129310790Y-135059206D01*
X129318659Y-135090620D01*
X129323411Y-135122654D01*
X129325000Y-135155000D01*
X129325000Y-136645000D01*
X129323411Y-136677346D01*
X129318659Y-136709380D01*
X129310790Y-136740794D01*
X129299880Y-136771286D01*
X129286034Y-136800561D01*
X129269385Y-136828338D01*
X129250093Y-136854350D01*
X129228345Y-136878345D01*
X129204350Y-136900093D01*
X129178338Y-136919385D01*
X129150561Y-136936034D01*
X129121286Y-136949880D01*
X129090794Y-136960790D01*
X129059380Y-136968659D01*
X129027346Y-136973411D01*
X128995000Y-136975000D01*
X128005000Y-136975000D01*
X127972654Y-136973411D01*
X127940620Y-136968659D01*
X127909206Y-136960790D01*
X127878714Y-136949880D01*
X127849439Y-136936034D01*
X127821662Y-136919385D01*
X127795650Y-136900093D01*
X127771655Y-136878345D01*
X127749907Y-136854350D01*
X127730615Y-136828338D01*
X127713966Y-136800561D01*
X127700120Y-136771286D01*
X127689210Y-136740794D01*
X127681341Y-136709380D01*
X127676589Y-136677346D01*
X127675000Y-136645000D01*
X127675000Y-135155000D01*
X127676589Y-135122654D01*
X127681341Y-135090620D01*
X127689210Y-135059206D01*
X127700120Y-135028714D01*
X127713966Y-134999439D01*
X127730615Y-134971662D01*
X127749907Y-134945650D01*
X127771655Y-134921655D01*
X127795650Y-134899907D01*
X127821662Y-134880615D01*
X127849439Y-134863966D01*
X127878714Y-134850120D01*
X127909206Y-134839210D01*
X127940620Y-134831341D01*
X127972654Y-134826589D01*
X128005000Y-134825000D01*
X128995000Y-134825000D01*
X129027346Y-134826589D01*
X129027346Y-134826589D01*
G37*
D20*
X128500000Y-135900000D03*
D10*
G36*
X126227346Y-134826589D02*
X126259380Y-134831341D01*
X126290794Y-134839210D01*
X126321286Y-134850120D01*
X126350561Y-134863966D01*
X126378338Y-134880615D01*
X126404350Y-134899907D01*
X126428345Y-134921655D01*
X126450093Y-134945650D01*
X126469385Y-134971662D01*
X126486034Y-134999439D01*
X126499880Y-135028714D01*
X126510790Y-135059206D01*
X126518659Y-135090620D01*
X126523411Y-135122654D01*
X126525000Y-135155000D01*
X126525000Y-136645000D01*
X126523411Y-136677346D01*
X126518659Y-136709380D01*
X126510790Y-136740794D01*
X126499880Y-136771286D01*
X126486034Y-136800561D01*
X126469385Y-136828338D01*
X126450093Y-136854350D01*
X126428345Y-136878345D01*
X126404350Y-136900093D01*
X126378338Y-136919385D01*
X126350561Y-136936034D01*
X126321286Y-136949880D01*
X126290794Y-136960790D01*
X126259380Y-136968659D01*
X126227346Y-136973411D01*
X126195000Y-136975000D01*
X125205000Y-136975000D01*
X125172654Y-136973411D01*
X125140620Y-136968659D01*
X125109206Y-136960790D01*
X125078714Y-136949880D01*
X125049439Y-136936034D01*
X125021662Y-136919385D01*
X124995650Y-136900093D01*
X124971655Y-136878345D01*
X124949907Y-136854350D01*
X124930615Y-136828338D01*
X124913966Y-136800561D01*
X124900120Y-136771286D01*
X124889210Y-136740794D01*
X124881341Y-136709380D01*
X124876589Y-136677346D01*
X124875000Y-136645000D01*
X124875000Y-135155000D01*
X124876589Y-135122654D01*
X124881341Y-135090620D01*
X124889210Y-135059206D01*
X124900120Y-135028714D01*
X124913966Y-134999439D01*
X124930615Y-134971662D01*
X124949907Y-134945650D01*
X124971655Y-134921655D01*
X124995650Y-134899907D01*
X125021662Y-134880615D01*
X125049439Y-134863966D01*
X125078714Y-134850120D01*
X125109206Y-134839210D01*
X125140620Y-134831341D01*
X125172654Y-134826589D01*
X125205000Y-134825000D01*
X126195000Y-134825000D01*
X126227346Y-134826589D01*
X126227346Y-134826589D01*
G37*
D20*
X125700000Y-135900000D03*
D10*
G36*
X123227346Y-131226589D02*
X123259380Y-131231341D01*
X123290794Y-131239210D01*
X123321286Y-131250120D01*
X123350561Y-131263966D01*
X123378338Y-131280615D01*
X123404350Y-131299907D01*
X123428345Y-131321655D01*
X123450093Y-131345650D01*
X123469385Y-131371662D01*
X123486034Y-131399439D01*
X123499880Y-131428714D01*
X123510790Y-131459206D01*
X123518659Y-131490620D01*
X123523411Y-131522654D01*
X123525000Y-131555000D01*
X123525000Y-133045000D01*
X123523411Y-133077346D01*
X123518659Y-133109380D01*
X123510790Y-133140794D01*
X123499880Y-133171286D01*
X123486034Y-133200561D01*
X123469385Y-133228338D01*
X123450093Y-133254350D01*
X123428345Y-133278345D01*
X123404350Y-133300093D01*
X123378338Y-133319385D01*
X123350561Y-133336034D01*
X123321286Y-133349880D01*
X123290794Y-133360790D01*
X123259380Y-133368659D01*
X123227346Y-133373411D01*
X123195000Y-133375000D01*
X122205000Y-133375000D01*
X122172654Y-133373411D01*
X122140620Y-133368659D01*
X122109206Y-133360790D01*
X122078714Y-133349880D01*
X122049439Y-133336034D01*
X122021662Y-133319385D01*
X121995650Y-133300093D01*
X121971655Y-133278345D01*
X121949907Y-133254350D01*
X121930615Y-133228338D01*
X121913966Y-133200561D01*
X121900120Y-133171286D01*
X121889210Y-133140794D01*
X121881341Y-133109380D01*
X121876589Y-133077346D01*
X121875000Y-133045000D01*
X121875000Y-131555000D01*
X121876589Y-131522654D01*
X121881341Y-131490620D01*
X121889210Y-131459206D01*
X121900120Y-131428714D01*
X121913966Y-131399439D01*
X121930615Y-131371662D01*
X121949907Y-131345650D01*
X121971655Y-131321655D01*
X121995650Y-131299907D01*
X122021662Y-131280615D01*
X122049439Y-131263966D01*
X122078714Y-131250120D01*
X122109206Y-131239210D01*
X122140620Y-131231341D01*
X122172654Y-131226589D01*
X122205000Y-131225000D01*
X123195000Y-131225000D01*
X123227346Y-131226589D01*
X123227346Y-131226589D01*
G37*
D20*
X122700000Y-132300000D03*
D10*
G36*
X126027346Y-131226589D02*
X126059380Y-131231341D01*
X126090794Y-131239210D01*
X126121286Y-131250120D01*
X126150561Y-131263966D01*
X126178338Y-131280615D01*
X126204350Y-131299907D01*
X126228345Y-131321655D01*
X126250093Y-131345650D01*
X126269385Y-131371662D01*
X126286034Y-131399439D01*
X126299880Y-131428714D01*
X126310790Y-131459206D01*
X126318659Y-131490620D01*
X126323411Y-131522654D01*
X126325000Y-131555000D01*
X126325000Y-133045000D01*
X126323411Y-133077346D01*
X126318659Y-133109380D01*
X126310790Y-133140794D01*
X126299880Y-133171286D01*
X126286034Y-133200561D01*
X126269385Y-133228338D01*
X126250093Y-133254350D01*
X126228345Y-133278345D01*
X126204350Y-133300093D01*
X126178338Y-133319385D01*
X126150561Y-133336034D01*
X126121286Y-133349880D01*
X126090794Y-133360790D01*
X126059380Y-133368659D01*
X126027346Y-133373411D01*
X125995000Y-133375000D01*
X125005000Y-133375000D01*
X124972654Y-133373411D01*
X124940620Y-133368659D01*
X124909206Y-133360790D01*
X124878714Y-133349880D01*
X124849439Y-133336034D01*
X124821662Y-133319385D01*
X124795650Y-133300093D01*
X124771655Y-133278345D01*
X124749907Y-133254350D01*
X124730615Y-133228338D01*
X124713966Y-133200561D01*
X124700120Y-133171286D01*
X124689210Y-133140794D01*
X124681341Y-133109380D01*
X124676589Y-133077346D01*
X124675000Y-133045000D01*
X124675000Y-131555000D01*
X124676589Y-131522654D01*
X124681341Y-131490620D01*
X124689210Y-131459206D01*
X124700120Y-131428714D01*
X124713966Y-131399439D01*
X124730615Y-131371662D01*
X124749907Y-131345650D01*
X124771655Y-131321655D01*
X124795650Y-131299907D01*
X124821662Y-131280615D01*
X124849439Y-131263966D01*
X124878714Y-131250120D01*
X124909206Y-131239210D01*
X124940620Y-131231341D01*
X124972654Y-131226589D01*
X125005000Y-131225000D01*
X125995000Y-131225000D01*
X126027346Y-131226589D01*
X126027346Y-131226589D01*
G37*
D20*
X125500000Y-132300000D03*
D10*
G36*
X129427346Y-127626589D02*
X129459380Y-127631341D01*
X129490794Y-127639210D01*
X129521286Y-127650120D01*
X129550561Y-127663966D01*
X129578338Y-127680615D01*
X129604350Y-127699907D01*
X129628345Y-127721655D01*
X129650093Y-127745650D01*
X129669385Y-127771662D01*
X129686034Y-127799439D01*
X129699880Y-127828714D01*
X129710790Y-127859206D01*
X129718659Y-127890620D01*
X129723411Y-127922654D01*
X129725000Y-127955000D01*
X129725000Y-129445000D01*
X129723411Y-129477346D01*
X129718659Y-129509380D01*
X129710790Y-129540794D01*
X129699880Y-129571286D01*
X129686034Y-129600561D01*
X129669385Y-129628338D01*
X129650093Y-129654350D01*
X129628345Y-129678345D01*
X129604350Y-129700093D01*
X129578338Y-129719385D01*
X129550561Y-129736034D01*
X129521286Y-129749880D01*
X129490794Y-129760790D01*
X129459380Y-129768659D01*
X129427346Y-129773411D01*
X129395000Y-129775000D01*
X128405000Y-129775000D01*
X128372654Y-129773411D01*
X128340620Y-129768659D01*
X128309206Y-129760790D01*
X128278714Y-129749880D01*
X128249439Y-129736034D01*
X128221662Y-129719385D01*
X128195650Y-129700093D01*
X128171655Y-129678345D01*
X128149907Y-129654350D01*
X128130615Y-129628338D01*
X128113966Y-129600561D01*
X128100120Y-129571286D01*
X128089210Y-129540794D01*
X128081341Y-129509380D01*
X128076589Y-129477346D01*
X128075000Y-129445000D01*
X128075000Y-127955000D01*
X128076589Y-127922654D01*
X128081341Y-127890620D01*
X128089210Y-127859206D01*
X128100120Y-127828714D01*
X128113966Y-127799439D01*
X128130615Y-127771662D01*
X128149907Y-127745650D01*
X128171655Y-127721655D01*
X128195650Y-127699907D01*
X128221662Y-127680615D01*
X128249439Y-127663966D01*
X128278714Y-127650120D01*
X128309206Y-127639210D01*
X128340620Y-127631341D01*
X128372654Y-127626589D01*
X128405000Y-127625000D01*
X129395000Y-127625000D01*
X129427346Y-127626589D01*
X129427346Y-127626589D01*
G37*
D20*
X128900000Y-128700000D03*
D10*
G36*
X132227346Y-127626589D02*
X132259380Y-127631341D01*
X132290794Y-127639210D01*
X132321286Y-127650120D01*
X132350561Y-127663966D01*
X132378338Y-127680615D01*
X132404350Y-127699907D01*
X132428345Y-127721655D01*
X132450093Y-127745650D01*
X132469385Y-127771662D01*
X132486034Y-127799439D01*
X132499880Y-127828714D01*
X132510790Y-127859206D01*
X132518659Y-127890620D01*
X132523411Y-127922654D01*
X132525000Y-127955000D01*
X132525000Y-129445000D01*
X132523411Y-129477346D01*
X132518659Y-129509380D01*
X132510790Y-129540794D01*
X132499880Y-129571286D01*
X132486034Y-129600561D01*
X132469385Y-129628338D01*
X132450093Y-129654350D01*
X132428345Y-129678345D01*
X132404350Y-129700093D01*
X132378338Y-129719385D01*
X132350561Y-129736034D01*
X132321286Y-129749880D01*
X132290794Y-129760790D01*
X132259380Y-129768659D01*
X132227346Y-129773411D01*
X132195000Y-129775000D01*
X131205000Y-129775000D01*
X131172654Y-129773411D01*
X131140620Y-129768659D01*
X131109206Y-129760790D01*
X131078714Y-129749880D01*
X131049439Y-129736034D01*
X131021662Y-129719385D01*
X130995650Y-129700093D01*
X130971655Y-129678345D01*
X130949907Y-129654350D01*
X130930615Y-129628338D01*
X130913966Y-129600561D01*
X130900120Y-129571286D01*
X130889210Y-129540794D01*
X130881341Y-129509380D01*
X130876589Y-129477346D01*
X130875000Y-129445000D01*
X130875000Y-127955000D01*
X130876589Y-127922654D01*
X130881341Y-127890620D01*
X130889210Y-127859206D01*
X130900120Y-127828714D01*
X130913966Y-127799439D01*
X130930615Y-127771662D01*
X130949907Y-127745650D01*
X130971655Y-127721655D01*
X130995650Y-127699907D01*
X131021662Y-127680615D01*
X131049439Y-127663966D01*
X131078714Y-127650120D01*
X131109206Y-127639210D01*
X131140620Y-127631341D01*
X131172654Y-127626589D01*
X131205000Y-127625000D01*
X132195000Y-127625000D01*
X132227346Y-127626589D01*
X132227346Y-127626589D01*
G37*
D20*
X131700000Y-128700000D03*
D10*
G36*
X123227346Y-127626589D02*
X123259380Y-127631341D01*
X123290794Y-127639210D01*
X123321286Y-127650120D01*
X123350561Y-127663966D01*
X123378338Y-127680615D01*
X123404350Y-127699907D01*
X123428345Y-127721655D01*
X123450093Y-127745650D01*
X123469385Y-127771662D01*
X123486034Y-127799439D01*
X123499880Y-127828714D01*
X123510790Y-127859206D01*
X123518659Y-127890620D01*
X123523411Y-127922654D01*
X123525000Y-127955000D01*
X123525000Y-129445000D01*
X123523411Y-129477346D01*
X123518659Y-129509380D01*
X123510790Y-129540794D01*
X123499880Y-129571286D01*
X123486034Y-129600561D01*
X123469385Y-129628338D01*
X123450093Y-129654350D01*
X123428345Y-129678345D01*
X123404350Y-129700093D01*
X123378338Y-129719385D01*
X123350561Y-129736034D01*
X123321286Y-129749880D01*
X123290794Y-129760790D01*
X123259380Y-129768659D01*
X123227346Y-129773411D01*
X123195000Y-129775000D01*
X122205000Y-129775000D01*
X122172654Y-129773411D01*
X122140620Y-129768659D01*
X122109206Y-129760790D01*
X122078714Y-129749880D01*
X122049439Y-129736034D01*
X122021662Y-129719385D01*
X121995650Y-129700093D01*
X121971655Y-129678345D01*
X121949907Y-129654350D01*
X121930615Y-129628338D01*
X121913966Y-129600561D01*
X121900120Y-129571286D01*
X121889210Y-129540794D01*
X121881341Y-129509380D01*
X121876589Y-129477346D01*
X121875000Y-129445000D01*
X121875000Y-127955000D01*
X121876589Y-127922654D01*
X121881341Y-127890620D01*
X121889210Y-127859206D01*
X121900120Y-127828714D01*
X121913966Y-127799439D01*
X121930615Y-127771662D01*
X121949907Y-127745650D01*
X121971655Y-127721655D01*
X121995650Y-127699907D01*
X122021662Y-127680615D01*
X122049439Y-127663966D01*
X122078714Y-127650120D01*
X122109206Y-127639210D01*
X122140620Y-127631341D01*
X122172654Y-127626589D01*
X122205000Y-127625000D01*
X123195000Y-127625000D01*
X123227346Y-127626589D01*
X123227346Y-127626589D01*
G37*
D20*
X122700000Y-128700000D03*
D10*
G36*
X126027346Y-127626589D02*
X126059380Y-127631341D01*
X126090794Y-127639210D01*
X126121286Y-127650120D01*
X126150561Y-127663966D01*
X126178338Y-127680615D01*
X126204350Y-127699907D01*
X126228345Y-127721655D01*
X126250093Y-127745650D01*
X126269385Y-127771662D01*
X126286034Y-127799439D01*
X126299880Y-127828714D01*
X126310790Y-127859206D01*
X126318659Y-127890620D01*
X126323411Y-127922654D01*
X126325000Y-127955000D01*
X126325000Y-129445000D01*
X126323411Y-129477346D01*
X126318659Y-129509380D01*
X126310790Y-129540794D01*
X126299880Y-129571286D01*
X126286034Y-129600561D01*
X126269385Y-129628338D01*
X126250093Y-129654350D01*
X126228345Y-129678345D01*
X126204350Y-129700093D01*
X126178338Y-129719385D01*
X126150561Y-129736034D01*
X126121286Y-129749880D01*
X126090794Y-129760790D01*
X126059380Y-129768659D01*
X126027346Y-129773411D01*
X125995000Y-129775000D01*
X125005000Y-129775000D01*
X124972654Y-129773411D01*
X124940620Y-129768659D01*
X124909206Y-129760790D01*
X124878714Y-129749880D01*
X124849439Y-129736034D01*
X124821662Y-129719385D01*
X124795650Y-129700093D01*
X124771655Y-129678345D01*
X124749907Y-129654350D01*
X124730615Y-129628338D01*
X124713966Y-129600561D01*
X124700120Y-129571286D01*
X124689210Y-129540794D01*
X124681341Y-129509380D01*
X124676589Y-129477346D01*
X124675000Y-129445000D01*
X124675000Y-127955000D01*
X124676589Y-127922654D01*
X124681341Y-127890620D01*
X124689210Y-127859206D01*
X124700120Y-127828714D01*
X124713966Y-127799439D01*
X124730615Y-127771662D01*
X124749907Y-127745650D01*
X124771655Y-127721655D01*
X124795650Y-127699907D01*
X124821662Y-127680615D01*
X124849439Y-127663966D01*
X124878714Y-127650120D01*
X124909206Y-127639210D01*
X124940620Y-127631341D01*
X124972654Y-127626589D01*
X125005000Y-127625000D01*
X125995000Y-127625000D01*
X126027346Y-127626589D01*
X126027346Y-127626589D01*
G37*
D20*
X125500000Y-128700000D03*
D10*
G36*
X132227346Y-131226589D02*
X132259380Y-131231341D01*
X132290794Y-131239210D01*
X132321286Y-131250120D01*
X132350561Y-131263966D01*
X132378338Y-131280615D01*
X132404350Y-131299907D01*
X132428345Y-131321655D01*
X132450093Y-131345650D01*
X132469385Y-131371662D01*
X132486034Y-131399439D01*
X132499880Y-131428714D01*
X132510790Y-131459206D01*
X132518659Y-131490620D01*
X132523411Y-131522654D01*
X132525000Y-131555000D01*
X132525000Y-133045000D01*
X132523411Y-133077346D01*
X132518659Y-133109380D01*
X132510790Y-133140794D01*
X132499880Y-133171286D01*
X132486034Y-133200561D01*
X132469385Y-133228338D01*
X132450093Y-133254350D01*
X132428345Y-133278345D01*
X132404350Y-133300093D01*
X132378338Y-133319385D01*
X132350561Y-133336034D01*
X132321286Y-133349880D01*
X132290794Y-133360790D01*
X132259380Y-133368659D01*
X132227346Y-133373411D01*
X132195000Y-133375000D01*
X131205000Y-133375000D01*
X131172654Y-133373411D01*
X131140620Y-133368659D01*
X131109206Y-133360790D01*
X131078714Y-133349880D01*
X131049439Y-133336034D01*
X131021662Y-133319385D01*
X130995650Y-133300093D01*
X130971655Y-133278345D01*
X130949907Y-133254350D01*
X130930615Y-133228338D01*
X130913966Y-133200561D01*
X130900120Y-133171286D01*
X130889210Y-133140794D01*
X130881341Y-133109380D01*
X130876589Y-133077346D01*
X130875000Y-133045000D01*
X130875000Y-131555000D01*
X130876589Y-131522654D01*
X130881341Y-131490620D01*
X130889210Y-131459206D01*
X130900120Y-131428714D01*
X130913966Y-131399439D01*
X130930615Y-131371662D01*
X130949907Y-131345650D01*
X130971655Y-131321655D01*
X130995650Y-131299907D01*
X131021662Y-131280615D01*
X131049439Y-131263966D01*
X131078714Y-131250120D01*
X131109206Y-131239210D01*
X131140620Y-131231341D01*
X131172654Y-131226589D01*
X131205000Y-131225000D01*
X132195000Y-131225000D01*
X132227346Y-131226589D01*
X132227346Y-131226589D01*
G37*
D20*
X131700000Y-132300000D03*
D10*
G36*
X129427346Y-131226589D02*
X129459380Y-131231341D01*
X129490794Y-131239210D01*
X129521286Y-131250120D01*
X129550561Y-131263966D01*
X129578338Y-131280615D01*
X129604350Y-131299907D01*
X129628345Y-131321655D01*
X129650093Y-131345650D01*
X129669385Y-131371662D01*
X129686034Y-131399439D01*
X129699880Y-131428714D01*
X129710790Y-131459206D01*
X129718659Y-131490620D01*
X129723411Y-131522654D01*
X129725000Y-131555000D01*
X129725000Y-133045000D01*
X129723411Y-133077346D01*
X129718659Y-133109380D01*
X129710790Y-133140794D01*
X129699880Y-133171286D01*
X129686034Y-133200561D01*
X129669385Y-133228338D01*
X129650093Y-133254350D01*
X129628345Y-133278345D01*
X129604350Y-133300093D01*
X129578338Y-133319385D01*
X129550561Y-133336034D01*
X129521286Y-133349880D01*
X129490794Y-133360790D01*
X129459380Y-133368659D01*
X129427346Y-133373411D01*
X129395000Y-133375000D01*
X128405000Y-133375000D01*
X128372654Y-133373411D01*
X128340620Y-133368659D01*
X128309206Y-133360790D01*
X128278714Y-133349880D01*
X128249439Y-133336034D01*
X128221662Y-133319385D01*
X128195650Y-133300093D01*
X128171655Y-133278345D01*
X128149907Y-133254350D01*
X128130615Y-133228338D01*
X128113966Y-133200561D01*
X128100120Y-133171286D01*
X128089210Y-133140794D01*
X128081341Y-133109380D01*
X128076589Y-133077346D01*
X128075000Y-133045000D01*
X128075000Y-131555000D01*
X128076589Y-131522654D01*
X128081341Y-131490620D01*
X128089210Y-131459206D01*
X128100120Y-131428714D01*
X128113966Y-131399439D01*
X128130615Y-131371662D01*
X128149907Y-131345650D01*
X128171655Y-131321655D01*
X128195650Y-131299907D01*
X128221662Y-131280615D01*
X128249439Y-131263966D01*
X128278714Y-131250120D01*
X128309206Y-131239210D01*
X128340620Y-131231341D01*
X128372654Y-131226589D01*
X128405000Y-131225000D01*
X129395000Y-131225000D01*
X129427346Y-131226589D01*
X129427346Y-131226589D01*
G37*
D20*
X128900000Y-132300000D03*
D10*
G36*
X126127346Y-112826589D02*
X126159380Y-112831341D01*
X126190794Y-112839210D01*
X126221286Y-112850120D01*
X126250561Y-112863966D01*
X126278338Y-112880615D01*
X126304350Y-112899907D01*
X126328345Y-112921655D01*
X126350093Y-112945650D01*
X126369385Y-112971662D01*
X126386034Y-112999439D01*
X126399880Y-113028714D01*
X126410790Y-113059206D01*
X126418659Y-113090620D01*
X126423411Y-113122654D01*
X126425000Y-113155000D01*
X126425000Y-114645000D01*
X126423411Y-114677346D01*
X126418659Y-114709380D01*
X126410790Y-114740794D01*
X126399880Y-114771286D01*
X126386034Y-114800561D01*
X126369385Y-114828338D01*
X126350093Y-114854350D01*
X126328345Y-114878345D01*
X126304350Y-114900093D01*
X126278338Y-114919385D01*
X126250561Y-114936034D01*
X126221286Y-114949880D01*
X126190794Y-114960790D01*
X126159380Y-114968659D01*
X126127346Y-114973411D01*
X126095000Y-114975000D01*
X125105000Y-114975000D01*
X125072654Y-114973411D01*
X125040620Y-114968659D01*
X125009206Y-114960790D01*
X124978714Y-114949880D01*
X124949439Y-114936034D01*
X124921662Y-114919385D01*
X124895650Y-114900093D01*
X124871655Y-114878345D01*
X124849907Y-114854350D01*
X124830615Y-114828338D01*
X124813966Y-114800561D01*
X124800120Y-114771286D01*
X124789210Y-114740794D01*
X124781341Y-114709380D01*
X124776589Y-114677346D01*
X124775000Y-114645000D01*
X124775000Y-113155000D01*
X124776589Y-113122654D01*
X124781341Y-113090620D01*
X124789210Y-113059206D01*
X124800120Y-113028714D01*
X124813966Y-112999439D01*
X124830615Y-112971662D01*
X124849907Y-112945650D01*
X124871655Y-112921655D01*
X124895650Y-112899907D01*
X124921662Y-112880615D01*
X124949439Y-112863966D01*
X124978714Y-112850120D01*
X125009206Y-112839210D01*
X125040620Y-112831341D01*
X125072654Y-112826589D01*
X125105000Y-112825000D01*
X126095000Y-112825000D01*
X126127346Y-112826589D01*
X126127346Y-112826589D01*
G37*
D20*
X125600000Y-113900000D03*
D10*
G36*
X123327346Y-112826589D02*
X123359380Y-112831341D01*
X123390794Y-112839210D01*
X123421286Y-112850120D01*
X123450561Y-112863966D01*
X123478338Y-112880615D01*
X123504350Y-112899907D01*
X123528345Y-112921655D01*
X123550093Y-112945650D01*
X123569385Y-112971662D01*
X123586034Y-112999439D01*
X123599880Y-113028714D01*
X123610790Y-113059206D01*
X123618659Y-113090620D01*
X123623411Y-113122654D01*
X123625000Y-113155000D01*
X123625000Y-114645000D01*
X123623411Y-114677346D01*
X123618659Y-114709380D01*
X123610790Y-114740794D01*
X123599880Y-114771286D01*
X123586034Y-114800561D01*
X123569385Y-114828338D01*
X123550093Y-114854350D01*
X123528345Y-114878345D01*
X123504350Y-114900093D01*
X123478338Y-114919385D01*
X123450561Y-114936034D01*
X123421286Y-114949880D01*
X123390794Y-114960790D01*
X123359380Y-114968659D01*
X123327346Y-114973411D01*
X123295000Y-114975000D01*
X122305000Y-114975000D01*
X122272654Y-114973411D01*
X122240620Y-114968659D01*
X122209206Y-114960790D01*
X122178714Y-114949880D01*
X122149439Y-114936034D01*
X122121662Y-114919385D01*
X122095650Y-114900093D01*
X122071655Y-114878345D01*
X122049907Y-114854350D01*
X122030615Y-114828338D01*
X122013966Y-114800561D01*
X122000120Y-114771286D01*
X121989210Y-114740794D01*
X121981341Y-114709380D01*
X121976589Y-114677346D01*
X121975000Y-114645000D01*
X121975000Y-113155000D01*
X121976589Y-113122654D01*
X121981341Y-113090620D01*
X121989210Y-113059206D01*
X122000120Y-113028714D01*
X122013966Y-112999439D01*
X122030615Y-112971662D01*
X122049907Y-112945650D01*
X122071655Y-112921655D01*
X122095650Y-112899907D01*
X122121662Y-112880615D01*
X122149439Y-112863966D01*
X122178714Y-112850120D01*
X122209206Y-112839210D01*
X122240620Y-112831341D01*
X122272654Y-112826589D01*
X122305000Y-112825000D01*
X123295000Y-112825000D01*
X123327346Y-112826589D01*
X123327346Y-112826589D01*
G37*
D20*
X122800000Y-113900000D03*
D10*
G36*
X123327346Y-109126589D02*
X123359380Y-109131341D01*
X123390794Y-109139210D01*
X123421286Y-109150120D01*
X123450561Y-109163966D01*
X123478338Y-109180615D01*
X123504350Y-109199907D01*
X123528345Y-109221655D01*
X123550093Y-109245650D01*
X123569385Y-109271662D01*
X123586034Y-109299439D01*
X123599880Y-109328714D01*
X123610790Y-109359206D01*
X123618659Y-109390620D01*
X123623411Y-109422654D01*
X123625000Y-109455000D01*
X123625000Y-110945000D01*
X123623411Y-110977346D01*
X123618659Y-111009380D01*
X123610790Y-111040794D01*
X123599880Y-111071286D01*
X123586034Y-111100561D01*
X123569385Y-111128338D01*
X123550093Y-111154350D01*
X123528345Y-111178345D01*
X123504350Y-111200093D01*
X123478338Y-111219385D01*
X123450561Y-111236034D01*
X123421286Y-111249880D01*
X123390794Y-111260790D01*
X123359380Y-111268659D01*
X123327346Y-111273411D01*
X123295000Y-111275000D01*
X122305000Y-111275000D01*
X122272654Y-111273411D01*
X122240620Y-111268659D01*
X122209206Y-111260790D01*
X122178714Y-111249880D01*
X122149439Y-111236034D01*
X122121662Y-111219385D01*
X122095650Y-111200093D01*
X122071655Y-111178345D01*
X122049907Y-111154350D01*
X122030615Y-111128338D01*
X122013966Y-111100561D01*
X122000120Y-111071286D01*
X121989210Y-111040794D01*
X121981341Y-111009380D01*
X121976589Y-110977346D01*
X121975000Y-110945000D01*
X121975000Y-109455000D01*
X121976589Y-109422654D01*
X121981341Y-109390620D01*
X121989210Y-109359206D01*
X122000120Y-109328714D01*
X122013966Y-109299439D01*
X122030615Y-109271662D01*
X122049907Y-109245650D01*
X122071655Y-109221655D01*
X122095650Y-109199907D01*
X122121662Y-109180615D01*
X122149439Y-109163966D01*
X122178714Y-109150120D01*
X122209206Y-109139210D01*
X122240620Y-109131341D01*
X122272654Y-109126589D01*
X122305000Y-109125000D01*
X123295000Y-109125000D01*
X123327346Y-109126589D01*
X123327346Y-109126589D01*
G37*
D20*
X122800000Y-110200000D03*
D10*
G36*
X126127346Y-109126589D02*
X126159380Y-109131341D01*
X126190794Y-109139210D01*
X126221286Y-109150120D01*
X126250561Y-109163966D01*
X126278338Y-109180615D01*
X126304350Y-109199907D01*
X126328345Y-109221655D01*
X126350093Y-109245650D01*
X126369385Y-109271662D01*
X126386034Y-109299439D01*
X126399880Y-109328714D01*
X126410790Y-109359206D01*
X126418659Y-109390620D01*
X126423411Y-109422654D01*
X126425000Y-109455000D01*
X126425000Y-110945000D01*
X126423411Y-110977346D01*
X126418659Y-111009380D01*
X126410790Y-111040794D01*
X126399880Y-111071286D01*
X126386034Y-111100561D01*
X126369385Y-111128338D01*
X126350093Y-111154350D01*
X126328345Y-111178345D01*
X126304350Y-111200093D01*
X126278338Y-111219385D01*
X126250561Y-111236034D01*
X126221286Y-111249880D01*
X126190794Y-111260790D01*
X126159380Y-111268659D01*
X126127346Y-111273411D01*
X126095000Y-111275000D01*
X125105000Y-111275000D01*
X125072654Y-111273411D01*
X125040620Y-111268659D01*
X125009206Y-111260790D01*
X124978714Y-111249880D01*
X124949439Y-111236034D01*
X124921662Y-111219385D01*
X124895650Y-111200093D01*
X124871655Y-111178345D01*
X124849907Y-111154350D01*
X124830615Y-111128338D01*
X124813966Y-111100561D01*
X124800120Y-111071286D01*
X124789210Y-111040794D01*
X124781341Y-111009380D01*
X124776589Y-110977346D01*
X124775000Y-110945000D01*
X124775000Y-109455000D01*
X124776589Y-109422654D01*
X124781341Y-109390620D01*
X124789210Y-109359206D01*
X124800120Y-109328714D01*
X124813966Y-109299439D01*
X124830615Y-109271662D01*
X124849907Y-109245650D01*
X124871655Y-109221655D01*
X124895650Y-109199907D01*
X124921662Y-109180615D01*
X124949439Y-109163966D01*
X124978714Y-109150120D01*
X125009206Y-109139210D01*
X125040620Y-109131341D01*
X125072654Y-109126589D01*
X125105000Y-109125000D01*
X126095000Y-109125000D01*
X126127346Y-109126589D01*
X126127346Y-109126589D01*
G37*
D20*
X125600000Y-110200000D03*
D10*
G36*
X135827346Y-116526589D02*
X135859380Y-116531341D01*
X135890794Y-116539210D01*
X135921286Y-116550120D01*
X135950561Y-116563966D01*
X135978338Y-116580615D01*
X136004350Y-116599907D01*
X136028345Y-116621655D01*
X136050093Y-116645650D01*
X136069385Y-116671662D01*
X136086034Y-116699439D01*
X136099880Y-116728714D01*
X136110790Y-116759206D01*
X136118659Y-116790620D01*
X136123411Y-116822654D01*
X136125000Y-116855000D01*
X136125000Y-118345000D01*
X136123411Y-118377346D01*
X136118659Y-118409380D01*
X136110790Y-118440794D01*
X136099880Y-118471286D01*
X136086034Y-118500561D01*
X136069385Y-118528338D01*
X136050093Y-118554350D01*
X136028345Y-118578345D01*
X136004350Y-118600093D01*
X135978338Y-118619385D01*
X135950561Y-118636034D01*
X135921286Y-118649880D01*
X135890794Y-118660790D01*
X135859380Y-118668659D01*
X135827346Y-118673411D01*
X135795000Y-118675000D01*
X134805000Y-118675000D01*
X134772654Y-118673411D01*
X134740620Y-118668659D01*
X134709206Y-118660790D01*
X134678714Y-118649880D01*
X134649439Y-118636034D01*
X134621662Y-118619385D01*
X134595650Y-118600093D01*
X134571655Y-118578345D01*
X134549907Y-118554350D01*
X134530615Y-118528338D01*
X134513966Y-118500561D01*
X134500120Y-118471286D01*
X134489210Y-118440794D01*
X134481341Y-118409380D01*
X134476589Y-118377346D01*
X134475000Y-118345000D01*
X134475000Y-116855000D01*
X134476589Y-116822654D01*
X134481341Y-116790620D01*
X134489210Y-116759206D01*
X134500120Y-116728714D01*
X134513966Y-116699439D01*
X134530615Y-116671662D01*
X134549907Y-116645650D01*
X134571655Y-116621655D01*
X134595650Y-116599907D01*
X134621662Y-116580615D01*
X134649439Y-116563966D01*
X134678714Y-116550120D01*
X134709206Y-116539210D01*
X134740620Y-116531341D01*
X134772654Y-116526589D01*
X134805000Y-116525000D01*
X135795000Y-116525000D01*
X135827346Y-116526589D01*
X135827346Y-116526589D01*
G37*
D20*
X135300000Y-117600000D03*
D10*
G36*
X133027346Y-116526589D02*
X133059380Y-116531341D01*
X133090794Y-116539210D01*
X133121286Y-116550120D01*
X133150561Y-116563966D01*
X133178338Y-116580615D01*
X133204350Y-116599907D01*
X133228345Y-116621655D01*
X133250093Y-116645650D01*
X133269385Y-116671662D01*
X133286034Y-116699439D01*
X133299880Y-116728714D01*
X133310790Y-116759206D01*
X133318659Y-116790620D01*
X133323411Y-116822654D01*
X133325000Y-116855000D01*
X133325000Y-118345000D01*
X133323411Y-118377346D01*
X133318659Y-118409380D01*
X133310790Y-118440794D01*
X133299880Y-118471286D01*
X133286034Y-118500561D01*
X133269385Y-118528338D01*
X133250093Y-118554350D01*
X133228345Y-118578345D01*
X133204350Y-118600093D01*
X133178338Y-118619385D01*
X133150561Y-118636034D01*
X133121286Y-118649880D01*
X133090794Y-118660790D01*
X133059380Y-118668659D01*
X133027346Y-118673411D01*
X132995000Y-118675000D01*
X132005000Y-118675000D01*
X131972654Y-118673411D01*
X131940620Y-118668659D01*
X131909206Y-118660790D01*
X131878714Y-118649880D01*
X131849439Y-118636034D01*
X131821662Y-118619385D01*
X131795650Y-118600093D01*
X131771655Y-118578345D01*
X131749907Y-118554350D01*
X131730615Y-118528338D01*
X131713966Y-118500561D01*
X131700120Y-118471286D01*
X131689210Y-118440794D01*
X131681341Y-118409380D01*
X131676589Y-118377346D01*
X131675000Y-118345000D01*
X131675000Y-116855000D01*
X131676589Y-116822654D01*
X131681341Y-116790620D01*
X131689210Y-116759206D01*
X131700120Y-116728714D01*
X131713966Y-116699439D01*
X131730615Y-116671662D01*
X131749907Y-116645650D01*
X131771655Y-116621655D01*
X131795650Y-116599907D01*
X131821662Y-116580615D01*
X131849439Y-116563966D01*
X131878714Y-116550120D01*
X131909206Y-116539210D01*
X131940620Y-116531341D01*
X131972654Y-116526589D01*
X132005000Y-116525000D01*
X132995000Y-116525000D01*
X133027346Y-116526589D01*
X133027346Y-116526589D01*
G37*
D20*
X132500000Y-117600000D03*
D10*
G36*
X133027346Y-112826589D02*
X133059380Y-112831341D01*
X133090794Y-112839210D01*
X133121286Y-112850120D01*
X133150561Y-112863966D01*
X133178338Y-112880615D01*
X133204350Y-112899907D01*
X133228345Y-112921655D01*
X133250093Y-112945650D01*
X133269385Y-112971662D01*
X133286034Y-112999439D01*
X133299880Y-113028714D01*
X133310790Y-113059206D01*
X133318659Y-113090620D01*
X133323411Y-113122654D01*
X133325000Y-113155000D01*
X133325000Y-114645000D01*
X133323411Y-114677346D01*
X133318659Y-114709380D01*
X133310790Y-114740794D01*
X133299880Y-114771286D01*
X133286034Y-114800561D01*
X133269385Y-114828338D01*
X133250093Y-114854350D01*
X133228345Y-114878345D01*
X133204350Y-114900093D01*
X133178338Y-114919385D01*
X133150561Y-114936034D01*
X133121286Y-114949880D01*
X133090794Y-114960790D01*
X133059380Y-114968659D01*
X133027346Y-114973411D01*
X132995000Y-114975000D01*
X132005000Y-114975000D01*
X131972654Y-114973411D01*
X131940620Y-114968659D01*
X131909206Y-114960790D01*
X131878714Y-114949880D01*
X131849439Y-114936034D01*
X131821662Y-114919385D01*
X131795650Y-114900093D01*
X131771655Y-114878345D01*
X131749907Y-114854350D01*
X131730615Y-114828338D01*
X131713966Y-114800561D01*
X131700120Y-114771286D01*
X131689210Y-114740794D01*
X131681341Y-114709380D01*
X131676589Y-114677346D01*
X131675000Y-114645000D01*
X131675000Y-113155000D01*
X131676589Y-113122654D01*
X131681341Y-113090620D01*
X131689210Y-113059206D01*
X131700120Y-113028714D01*
X131713966Y-112999439D01*
X131730615Y-112971662D01*
X131749907Y-112945650D01*
X131771655Y-112921655D01*
X131795650Y-112899907D01*
X131821662Y-112880615D01*
X131849439Y-112863966D01*
X131878714Y-112850120D01*
X131909206Y-112839210D01*
X131940620Y-112831341D01*
X131972654Y-112826589D01*
X132005000Y-112825000D01*
X132995000Y-112825000D01*
X133027346Y-112826589D01*
X133027346Y-112826589D01*
G37*
D20*
X132500000Y-113900000D03*
D10*
G36*
X135827346Y-112826589D02*
X135859380Y-112831341D01*
X135890794Y-112839210D01*
X135921286Y-112850120D01*
X135950561Y-112863966D01*
X135978338Y-112880615D01*
X136004350Y-112899907D01*
X136028345Y-112921655D01*
X136050093Y-112945650D01*
X136069385Y-112971662D01*
X136086034Y-112999439D01*
X136099880Y-113028714D01*
X136110790Y-113059206D01*
X136118659Y-113090620D01*
X136123411Y-113122654D01*
X136125000Y-113155000D01*
X136125000Y-114645000D01*
X136123411Y-114677346D01*
X136118659Y-114709380D01*
X136110790Y-114740794D01*
X136099880Y-114771286D01*
X136086034Y-114800561D01*
X136069385Y-114828338D01*
X136050093Y-114854350D01*
X136028345Y-114878345D01*
X136004350Y-114900093D01*
X135978338Y-114919385D01*
X135950561Y-114936034D01*
X135921286Y-114949880D01*
X135890794Y-114960790D01*
X135859380Y-114968659D01*
X135827346Y-114973411D01*
X135795000Y-114975000D01*
X134805000Y-114975000D01*
X134772654Y-114973411D01*
X134740620Y-114968659D01*
X134709206Y-114960790D01*
X134678714Y-114949880D01*
X134649439Y-114936034D01*
X134621662Y-114919385D01*
X134595650Y-114900093D01*
X134571655Y-114878345D01*
X134549907Y-114854350D01*
X134530615Y-114828338D01*
X134513966Y-114800561D01*
X134500120Y-114771286D01*
X134489210Y-114740794D01*
X134481341Y-114709380D01*
X134476589Y-114677346D01*
X134475000Y-114645000D01*
X134475000Y-113155000D01*
X134476589Y-113122654D01*
X134481341Y-113090620D01*
X134489210Y-113059206D01*
X134500120Y-113028714D01*
X134513966Y-112999439D01*
X134530615Y-112971662D01*
X134549907Y-112945650D01*
X134571655Y-112921655D01*
X134595650Y-112899907D01*
X134621662Y-112880615D01*
X134649439Y-112863966D01*
X134678714Y-112850120D01*
X134709206Y-112839210D01*
X134740620Y-112831341D01*
X134772654Y-112826589D01*
X134805000Y-112825000D01*
X135795000Y-112825000D01*
X135827346Y-112826589D01*
X135827346Y-112826589D01*
G37*
D20*
X135300000Y-113900000D03*
D21*
X126150000Y-117450000D03*
X125500000Y-117450000D03*
X124850000Y-117450000D03*
X124200000Y-117450000D03*
X123550000Y-117450000D03*
X122900000Y-117450000D03*
X122250000Y-117450000D03*
X122250000Y-123350000D03*
X122900000Y-123350000D03*
X123550000Y-123350000D03*
X124200000Y-123350000D03*
X124850000Y-123350000D03*
X125500000Y-123350000D03*
X126150000Y-123350000D03*
M02*
