%TF.GenerationSoftware,KiCad,Pcbnew,(5.0.0)*%
%TF.CreationDate,2020-02-27T17:20:47+00:00*%
%TF.ProjectId,Blast Furnace PCB,426C617374204675726E616365205043,rev?*%
%TF.SameCoordinates,Original*%
%TF.FileFunction,Soldermask,Bot*%
%TF.FilePolarity,Negative*%
%FSLAX46Y46*%
G04 Gerber Fmt 4.6, Leading zero omitted, Abs format (unit mm)*
G04 Created by KiCad (PCBNEW (5.0.0)) date 02/27/20 17:20:47*
%MOMM*%
%LPD*%
G01*
G04 APERTURE LIST*
%ADD10C,0.150000*%
%ADD11C,1.924000*%
%ADD12C,6.000000*%
%ADD13C,5.800000*%
%ADD14O,2.000000X2.000000*%
%ADD15R,2.000000X2.000000*%
%ADD16C,3.400000*%
%ADD17R,3.400000X3.400000*%
%ADD18R,2.400000X2.100000*%
%ADD19O,2.400000X2.100000*%
G04 APERTURE END LIST*
D10*
X112500000Y-164500000D02*
G75*
G02X110500000Y-162500000I0J2000000D01*
G01*
X110500000Y-106500000D02*
G75*
G02X112500000Y-104500000I2000000J0D01*
G01*
X192500000Y-104500000D02*
G75*
G02X194500000Y-106500000I0J-2000000D01*
G01*
X194500000Y-162500000D02*
G75*
G02X192500000Y-164500000I-2000000J0D01*
G01*
X110500000Y-106500000D02*
X110500000Y-162500000D01*
X192500000Y-104500000D02*
X112500000Y-104500000D01*
X194500000Y-162500000D02*
X194500000Y-106500000D01*
X112498438Y-164500000D02*
X192500000Y-164500000D01*
D11*
X184850000Y-147050000D03*
X184850000Y-149550000D03*
X184850000Y-152050000D03*
X184850000Y-154550000D03*
D12*
X190000000Y-144500000D03*
X115000000Y-144500000D03*
D13*
X115000000Y-129000000D03*
X190000000Y-129000000D03*
D11*
X184400000Y-116500000D03*
X184400000Y-121500000D03*
X184400000Y-119000000D03*
D14*
X169010000Y-107960000D03*
X169010000Y-123200000D03*
X133450000Y-107960000D03*
X166470000Y-123200000D03*
X135990000Y-107960000D03*
X163930000Y-123200000D03*
X138530000Y-107960000D03*
X161390000Y-123200000D03*
X141070000Y-107960000D03*
X158850000Y-123200000D03*
X143610000Y-107960000D03*
X156310000Y-123200000D03*
X146150000Y-107960000D03*
X153770000Y-123200000D03*
X148690000Y-107960000D03*
X151230000Y-123200000D03*
X151230000Y-107960000D03*
X148690000Y-123200000D03*
X153770000Y-107960000D03*
X146150000Y-123200000D03*
X156310000Y-107960000D03*
X143610000Y-123200000D03*
X158850000Y-107960000D03*
X141070000Y-123200000D03*
X161390000Y-107960000D03*
X138530000Y-123200000D03*
X163930000Y-107960000D03*
X135990000Y-123200000D03*
X166470000Y-107960000D03*
D15*
X133450000Y-123200000D03*
D16*
X115400000Y-121540000D03*
D17*
X115400000Y-116460000D03*
D13*
X190000000Y-160000000D03*
X115000000Y-160000000D03*
D12*
X190000000Y-109000000D03*
X115000000Y-109000000D03*
D18*
X190100000Y-120250000D03*
D19*
X190100000Y-117750000D03*
M02*
