M48
;DRILL file {KiCad (5.0.0)} date 02/27/20 17:21:27
;FORMAT={-:-/ absolute / metric / decimal}
FMAT,2
METRIC,TZ
T1C0.400
T2C0.762
T3C0.800
T4C1.000
T5C1.520
T6C2.700
T7C3.200
%
G90
G05
M71
T1
X120.5Y-115.1
X120.5Y-117.6
X122.5Y-119.
X123.9Y-131.
X124.8Y-120.2
X125.7Y-125.1
X126.337Y-121.663
X127.Y-127.9
X127.213Y-130.088
X127.262Y-124.575
X127.4Y-120.
X127.987Y-123.313
X128.Y-127.1
X128.263Y-121.537
X128.65Y-117.45
X129.1Y-119.3
X129.5Y-130.4
X129.625Y-127.1
X130.5Y-116.8
X130.9Y-124.4
X131.Y-125.8
X131.3Y-111.4
X132.4Y-125.925
X133.202Y-129.897
X134.037Y-119.337
X137.725Y-119.4
X137.725Y-121.699
X143.1Y-121.7
X145.3Y-121.7
X150.4Y-125.925
X154.8Y-125.8
X159.8Y-119.65
X162.7Y-111.425
X163.7Y-120.375
X173.Y-127.5
X177.Y-147.
X178.5Y-122.
X181.Y-149.5
T2
X184.4Y-116.5
X184.4Y-119.
X184.4Y-121.5
T3
X184.85Y-147.05
X184.85Y-149.55
X184.85Y-152.05
X184.85Y-154.55
X133.45Y-107.96
X133.45Y-123.2
X135.99Y-107.96
X135.99Y-123.2
X138.53Y-107.96
X138.53Y-123.2
X141.07Y-107.96
X141.07Y-123.2
X143.61Y-107.96
X143.61Y-123.2
X146.15Y-107.96
X146.15Y-123.2
X148.69Y-107.96
X148.69Y-123.2
X151.23Y-107.96
X151.23Y-123.2
X153.77Y-107.96
X153.77Y-123.2
X156.31Y-107.96
X156.31Y-123.2
X158.85Y-107.96
X158.85Y-123.2
X161.39Y-107.96
X161.39Y-123.2
X163.93Y-107.96
X163.93Y-123.2
X166.47Y-107.96
X166.47Y-123.2
X169.01Y-107.96
X169.01Y-123.2
T4
X190.1Y-117.75
X190.1Y-120.25
T5
X115.4Y-116.46
X115.4Y-121.54
T6
X115.Y-129.
X115.Y-160.
X190.Y-129.
X190.Y-160.
T7
X190.Y-109.
X115.Y-109.
X115.Y-144.5
X190.Y-144.5
T0
M30
