%TF.GenerationSoftware,KiCad,Pcbnew,(5.0.0)*%
%TF.CreationDate,2020-02-28T20:01:44+00:00*%
%TF.ProjectId,Blast Furnace PCB,426C617374204675726E616365205043,rev?*%
%TF.SameCoordinates,Original*%
%TF.FileFunction,Copper,L2,Bot,Signal*%
%TF.FilePolarity,Positive*%
%FSLAX46Y46*%
G04 Gerber Fmt 4.6, Leading zero omitted, Abs format (unit mm)*
G04 Created by KiCad (PCBNEW (5.0.0)) date 02/28/20 20:01:44*
%MOMM*%
%LPD*%
G01*
G04 APERTURE LIST*
%ADD10C,0.150000*%
%ADD11C,1.524000*%
%ADD12C,5.600000*%
%ADD13C,5.400000*%
%ADD14O,1.600000X1.600000*%
%ADD15R,1.600000X1.600000*%
%ADD16C,3.000000*%
%ADD17R,3.000000X3.000000*%
%ADD18R,2.000000X1.700000*%
%ADD19O,2.000000X1.700000*%
%ADD20C,0.800000*%
%ADD21C,0.250000*%
%ADD22C,0.300000*%
%ADD23C,0.254000*%
G04 APERTURE END LIST*
D10*
X79100000Y-148600000D02*
G75*
G02X77100000Y-146600000I0J2000000D01*
G01*
X77100000Y-90600000D02*
G75*
G02X79100000Y-88600000I2000000J0D01*
G01*
X159100000Y-88600000D02*
G75*
G02X161100000Y-90600000I0J-2000000D01*
G01*
X161100000Y-146600000D02*
G75*
G02X159100000Y-148600000I-2000000J0D01*
G01*
X77100000Y-90600000D02*
X77100000Y-146600000D01*
X159100000Y-88600000D02*
X79100000Y-88600000D01*
X161100000Y-146600000D02*
X161100000Y-90600000D01*
X79098438Y-148600000D02*
X159100000Y-148600000D01*
D11*
X151450000Y-131150000D03*
X151450000Y-133650000D03*
X151450000Y-136150000D03*
X151450000Y-138650000D03*
D12*
X156600000Y-128600000D03*
X81600000Y-128600000D03*
D13*
X81600000Y-113100000D03*
X156600000Y-113100000D03*
D11*
X151000000Y-100600000D03*
X151000000Y-105600000D03*
X151000000Y-103100000D03*
D14*
X135610000Y-92060000D03*
X135610000Y-107300000D03*
X100050000Y-92060000D03*
X133070000Y-107300000D03*
X102590000Y-92060000D03*
X130530000Y-107300000D03*
X105130000Y-92060000D03*
X127990000Y-107300000D03*
X107670000Y-92060000D03*
X125450000Y-107300000D03*
X110210000Y-92060000D03*
X122910000Y-107300000D03*
X112750000Y-92060000D03*
X120370000Y-107300000D03*
X115290000Y-92060000D03*
X117830000Y-107300000D03*
X117830000Y-92060000D03*
X115290000Y-107300000D03*
X120370000Y-92060000D03*
X112750000Y-107300000D03*
X122910000Y-92060000D03*
X110210000Y-107300000D03*
X125450000Y-92060000D03*
X107670000Y-107300000D03*
X127990000Y-92060000D03*
X105130000Y-107300000D03*
X130530000Y-92060000D03*
X102590000Y-107300000D03*
X133070000Y-92060000D03*
D15*
X100050000Y-107300000D03*
D16*
X82000000Y-105640000D03*
D17*
X82000000Y-100560000D03*
D13*
X156600000Y-144100000D03*
X81600000Y-144100000D03*
D12*
X156600000Y-93100000D03*
X81600000Y-93100000D03*
D18*
X156700000Y-104350000D03*
D19*
X156700000Y-101850000D03*
D20*
X129300000Y-95525000D03*
X87100000Y-99200000D03*
X87100000Y-101700000D03*
X96100000Y-114500000D03*
X99802158Y-113996763D03*
X93600000Y-112000000D03*
X93862347Y-108675000D03*
X95250000Y-101550000D03*
X92300000Y-109200000D03*
X97600000Y-109900000D03*
X95700000Y-103400000D03*
X100637347Y-103437347D03*
X104325000Y-103500000D03*
X89100000Y-103100000D03*
X147600000Y-133600000D03*
X143600000Y-131100000D03*
X97900000Y-95500000D03*
X97100000Y-100900000D03*
X94000000Y-104100000D03*
X91400000Y-104300000D03*
X126400000Y-103750000D03*
X130300000Y-104475000D03*
X111900000Y-105800000D03*
X109700000Y-105800000D03*
X104325000Y-105798639D03*
X94587347Y-107412653D03*
X121400000Y-109900000D03*
X99000000Y-110025000D03*
X97500000Y-108500000D03*
X94862653Y-105637347D03*
X92937347Y-105762653D03*
X117000000Y-110025000D03*
X94600000Y-111200000D03*
X96225000Y-111200000D03*
X139600000Y-111600000D03*
X145100000Y-106100000D03*
X90500000Y-115100000D03*
X93813192Y-114187887D03*
D21*
X87100000Y-99200000D02*
X87100000Y-101700000D01*
X129300000Y-95525000D02*
X131175000Y-95525000D01*
X133070000Y-93630000D02*
X133070000Y-92060000D01*
X131175000Y-95525000D02*
X133070000Y-93630000D01*
X96100000Y-114500000D02*
X99298921Y-114500000D01*
X99298921Y-114500000D02*
X99802158Y-113996763D01*
X93600000Y-112000000D02*
X96800000Y-112000000D01*
X96800000Y-112000000D02*
X98049999Y-110750001D01*
X100000000Y-109951998D02*
X99200000Y-109151998D01*
X97848001Y-107774999D02*
X95625001Y-107774999D01*
X99200000Y-109151998D02*
X99200000Y-109126998D01*
X99200000Y-109126998D02*
X97848001Y-107774999D01*
X100000000Y-110350001D02*
X100000000Y-109951998D01*
X99600000Y-110750001D02*
X100000000Y-110350001D01*
X98049999Y-110750001D02*
X99600000Y-110750001D01*
X95625001Y-107774999D02*
X94300000Y-109100000D01*
X94300000Y-109100000D02*
X94000000Y-109100000D01*
X94000000Y-109100000D02*
X93862347Y-108962347D01*
X93862347Y-108962347D02*
X93862347Y-108675000D01*
X104914454Y-104544454D02*
X107670000Y-107300000D01*
X95250000Y-101550000D02*
X98244454Y-104544454D01*
X98244454Y-104544454D02*
X104914454Y-104544454D01*
X97600000Y-109900000D02*
X97284570Y-110215430D01*
X97284570Y-110215430D02*
X93375560Y-110215430D01*
X93315430Y-110215430D02*
X93375560Y-110215430D01*
X92300000Y-109200000D02*
X93315430Y-110215430D01*
X95487348Y-103187348D02*
X95700000Y-103400000D01*
X89587346Y-103187348D02*
X95487348Y-103187348D01*
X100637347Y-103437347D02*
X104262347Y-103437347D01*
X104262347Y-103437347D02*
X104325000Y-103500000D01*
X89587346Y-103187348D02*
X89187348Y-103187348D01*
X89187348Y-103187348D02*
X89100000Y-103100000D01*
X151400000Y-133600000D02*
X151450000Y-133650000D01*
X147600000Y-133600000D02*
X151400000Y-133600000D01*
X151400000Y-131100000D02*
X151450000Y-131150000D01*
X143600000Y-131100000D02*
X151400000Y-131100000D01*
X97900000Y-95500000D02*
X97100000Y-96300000D01*
X97100000Y-96300000D02*
X97100000Y-100900000D01*
X94000000Y-104100000D02*
X91600000Y-104100000D01*
X91600000Y-104100000D02*
X91400000Y-104300000D01*
D22*
X129950000Y-107300000D02*
X130080000Y-107300000D01*
D21*
X126980000Y-103750000D02*
X130530000Y-107300000D01*
X126400000Y-103750000D02*
X126980000Y-103750000D01*
X111900000Y-105800000D02*
X109700000Y-105800000D01*
X104325000Y-105798639D02*
X102601361Y-105798639D01*
X102601361Y-105798639D02*
X102600000Y-105800000D01*
X102599847Y-105800153D02*
X102601361Y-105798639D01*
X98700153Y-105800153D02*
X102599847Y-105800153D01*
X98700000Y-105800000D02*
X98700153Y-105800153D01*
X94587347Y-107412653D02*
X96200000Y-105800000D01*
X96200000Y-105800000D02*
X98700000Y-105800000D01*
X133070000Y-107245000D02*
X133070000Y-107300000D01*
X130300000Y-104475000D02*
X133070000Y-107245000D01*
X121400000Y-109900000D02*
X117125000Y-109900000D01*
X117125000Y-109900000D02*
X117000000Y-110025000D01*
X99000000Y-110025000D02*
X99000000Y-110000000D01*
X99000000Y-110000000D02*
X97500000Y-108500000D01*
X94862653Y-105637347D02*
X93062653Y-105637347D01*
X93062653Y-105637347D02*
X92937347Y-105762653D01*
X94600000Y-111200000D02*
X96225000Y-111200000D01*
X139600000Y-111600000D02*
X145100000Y-106100000D01*
X90500000Y-115100000D02*
X91412113Y-114187887D01*
X91412113Y-114187887D02*
X93813192Y-114187887D01*
D23*
G36*
X159460027Y-89368803D02*
X159791110Y-89519338D01*
X160066639Y-89756749D01*
X160264456Y-90061944D01*
X160375700Y-90433917D01*
X160390001Y-90626362D01*
X160390000Y-146549420D01*
X160331197Y-146960027D01*
X160180661Y-147291112D01*
X159943251Y-147566639D01*
X159638056Y-147764456D01*
X159266083Y-147875700D01*
X159073652Y-147890000D01*
X79150580Y-147890000D01*
X78739973Y-147831197D01*
X78408888Y-147680661D01*
X78133361Y-147443251D01*
X77935544Y-147138056D01*
X77824300Y-146766083D01*
X77810000Y-146573652D01*
X77810000Y-143436627D01*
X78265000Y-143436627D01*
X78265000Y-144763373D01*
X78772723Y-145989126D01*
X79710874Y-146927277D01*
X80936627Y-147435000D01*
X82263373Y-147435000D01*
X83489126Y-146927277D01*
X84427277Y-145989126D01*
X84935000Y-144763373D01*
X84935000Y-143436627D01*
X153265000Y-143436627D01*
X153265000Y-144763373D01*
X153772723Y-145989126D01*
X154710874Y-146927277D01*
X155936627Y-147435000D01*
X157263373Y-147435000D01*
X158489126Y-146927277D01*
X159427277Y-145989126D01*
X159935000Y-144763373D01*
X159935000Y-143436627D01*
X159427277Y-142210874D01*
X158489126Y-141272723D01*
X157263373Y-140765000D01*
X155936627Y-140765000D01*
X154710874Y-141272723D01*
X153772723Y-142210874D01*
X153265000Y-143436627D01*
X84935000Y-143436627D01*
X84427277Y-142210874D01*
X83489126Y-141272723D01*
X82263373Y-140765000D01*
X80936627Y-140765000D01*
X79710874Y-141272723D01*
X78772723Y-142210874D01*
X78265000Y-143436627D01*
X77810000Y-143436627D01*
X77810000Y-139630213D01*
X150649392Y-139630213D01*
X150718857Y-139872397D01*
X151242302Y-140059144D01*
X151797368Y-140031362D01*
X152181143Y-139872397D01*
X152250608Y-139630213D01*
X151450000Y-138829605D01*
X150649392Y-139630213D01*
X77810000Y-139630213D01*
X77810000Y-138442302D01*
X150040856Y-138442302D01*
X150068638Y-138997368D01*
X150227603Y-139381143D01*
X150469787Y-139450608D01*
X151270395Y-138650000D01*
X151629605Y-138650000D01*
X152430213Y-139450608D01*
X152672397Y-139381143D01*
X152859144Y-138857698D01*
X152831362Y-138302632D01*
X152672397Y-137918857D01*
X152430213Y-137849392D01*
X151629605Y-138650000D01*
X151270395Y-138650000D01*
X150469787Y-137849392D01*
X150227603Y-137918857D01*
X150040856Y-138442302D01*
X77810000Y-138442302D01*
X77810000Y-127916736D01*
X78165000Y-127916736D01*
X78165000Y-129283264D01*
X78687947Y-130545771D01*
X79654229Y-131512053D01*
X80916736Y-132035000D01*
X82283264Y-132035000D01*
X83545771Y-131512053D01*
X84163698Y-130894126D01*
X142565000Y-130894126D01*
X142565000Y-131305874D01*
X142722569Y-131686280D01*
X143013720Y-131977431D01*
X143394126Y-132135000D01*
X143805874Y-132135000D01*
X144186280Y-131977431D01*
X144303711Y-131860000D01*
X150231989Y-131860000D01*
X150265680Y-131941337D01*
X150658663Y-132334320D01*
X150817229Y-132400000D01*
X150658663Y-132465680D01*
X150284343Y-132840000D01*
X148303711Y-132840000D01*
X148186280Y-132722569D01*
X147805874Y-132565000D01*
X147394126Y-132565000D01*
X147013720Y-132722569D01*
X146722569Y-133013720D01*
X146565000Y-133394126D01*
X146565000Y-133805874D01*
X146722569Y-134186280D01*
X147013720Y-134477431D01*
X147394126Y-134635000D01*
X147805874Y-134635000D01*
X148186280Y-134477431D01*
X148303711Y-134360000D01*
X150231989Y-134360000D01*
X150265680Y-134441337D01*
X150658663Y-134834320D01*
X150817229Y-134900000D01*
X150658663Y-134965680D01*
X150265680Y-135358663D01*
X150053000Y-135872119D01*
X150053000Y-136427881D01*
X150265680Y-136941337D01*
X150658663Y-137334320D01*
X150801363Y-137393428D01*
X150718857Y-137427603D01*
X150649392Y-137669787D01*
X151450000Y-138470395D01*
X152250608Y-137669787D01*
X152181143Y-137427603D01*
X152092490Y-137395975D01*
X152241337Y-137334320D01*
X152634320Y-136941337D01*
X152847000Y-136427881D01*
X152847000Y-135872119D01*
X152634320Y-135358663D01*
X152241337Y-134965680D01*
X152082771Y-134900000D01*
X152241337Y-134834320D01*
X152634320Y-134441337D01*
X152847000Y-133927881D01*
X152847000Y-133372119D01*
X152634320Y-132858663D01*
X152241337Y-132465680D01*
X152082771Y-132400000D01*
X152241337Y-132334320D01*
X152634320Y-131941337D01*
X152847000Y-131427881D01*
X152847000Y-130872119D01*
X152634320Y-130358663D01*
X152241337Y-129965680D01*
X151727881Y-129753000D01*
X151172119Y-129753000D01*
X150658663Y-129965680D01*
X150284343Y-130340000D01*
X144303711Y-130340000D01*
X144186280Y-130222569D01*
X143805874Y-130065000D01*
X143394126Y-130065000D01*
X143013720Y-130222569D01*
X142722569Y-130513720D01*
X142565000Y-130894126D01*
X84163698Y-130894126D01*
X84512053Y-130545771D01*
X85035000Y-129283264D01*
X85035000Y-127916736D01*
X153165000Y-127916736D01*
X153165000Y-129283264D01*
X153687947Y-130545771D01*
X154654229Y-131512053D01*
X155916736Y-132035000D01*
X157283264Y-132035000D01*
X158545771Y-131512053D01*
X159512053Y-130545771D01*
X160035000Y-129283264D01*
X160035000Y-127916736D01*
X159512053Y-126654229D01*
X158545771Y-125687947D01*
X157283264Y-125165000D01*
X155916736Y-125165000D01*
X154654229Y-125687947D01*
X153687947Y-126654229D01*
X153165000Y-127916736D01*
X85035000Y-127916736D01*
X84512053Y-126654229D01*
X83545771Y-125687947D01*
X82283264Y-125165000D01*
X80916736Y-125165000D01*
X79654229Y-125687947D01*
X78687947Y-126654229D01*
X78165000Y-127916736D01*
X77810000Y-127916736D01*
X77810000Y-112436627D01*
X78265000Y-112436627D01*
X78265000Y-113763373D01*
X78772723Y-114989126D01*
X79710874Y-115927277D01*
X80936627Y-116435000D01*
X82263373Y-116435000D01*
X83489126Y-115927277D01*
X84427277Y-114989126D01*
X84466627Y-114894126D01*
X89465000Y-114894126D01*
X89465000Y-115305874D01*
X89622569Y-115686280D01*
X89913720Y-115977431D01*
X90294126Y-116135000D01*
X90705874Y-116135000D01*
X91086280Y-115977431D01*
X91377431Y-115686280D01*
X91535000Y-115305874D01*
X91535000Y-115139802D01*
X91726915Y-114947887D01*
X93109481Y-114947887D01*
X93226912Y-115065318D01*
X93607318Y-115222887D01*
X94019066Y-115222887D01*
X94399472Y-115065318D01*
X94690623Y-114774167D01*
X94848192Y-114393761D01*
X94848192Y-113982013D01*
X94690623Y-113601607D01*
X94399472Y-113310456D01*
X94019066Y-113152887D01*
X93607318Y-113152887D01*
X93226912Y-113310456D01*
X93109481Y-113427887D01*
X91486961Y-113427887D01*
X91412113Y-113412999D01*
X91337265Y-113427887D01*
X91337261Y-113427887D01*
X91115576Y-113471983D01*
X90864184Y-113639958D01*
X90821784Y-113703414D01*
X90460198Y-114065000D01*
X90294126Y-114065000D01*
X89913720Y-114222569D01*
X89622569Y-114513720D01*
X89465000Y-114894126D01*
X84466627Y-114894126D01*
X84935000Y-113763373D01*
X84935000Y-112436627D01*
X84427277Y-111210874D01*
X83489126Y-110272723D01*
X82263373Y-109765000D01*
X80936627Y-109765000D01*
X79710874Y-110272723D01*
X78772723Y-111210874D01*
X78265000Y-112436627D01*
X77810000Y-112436627D01*
X77810000Y-108994126D01*
X91265000Y-108994126D01*
X91265000Y-109405874D01*
X91422569Y-109786280D01*
X91713720Y-110077431D01*
X92094126Y-110235000D01*
X92260199Y-110235000D01*
X92725101Y-110699903D01*
X92767501Y-110763359D01*
X93018893Y-110931334D01*
X93240578Y-110975430D01*
X93240583Y-110975430D01*
X93315430Y-110990318D01*
X93390277Y-110975430D01*
X93572744Y-110975430D01*
X93565000Y-110994126D01*
X93565000Y-111405874D01*
X93722569Y-111786280D01*
X94013720Y-112077431D01*
X94394126Y-112235000D01*
X94805874Y-112235000D01*
X95186280Y-112077431D01*
X95303711Y-111960000D01*
X95521289Y-111960000D01*
X95638720Y-112077431D01*
X96019126Y-112235000D01*
X96430874Y-112235000D01*
X96811280Y-112077431D01*
X97102431Y-111786280D01*
X97260000Y-111405874D01*
X97260000Y-111394126D01*
X138565000Y-111394126D01*
X138565000Y-111805874D01*
X138722569Y-112186280D01*
X139013720Y-112477431D01*
X139394126Y-112635000D01*
X139805874Y-112635000D01*
X140186280Y-112477431D01*
X140227084Y-112436627D01*
X153265000Y-112436627D01*
X153265000Y-113763373D01*
X153772723Y-114989126D01*
X154710874Y-115927277D01*
X155936627Y-116435000D01*
X157263373Y-116435000D01*
X158489126Y-115927277D01*
X159427277Y-114989126D01*
X159935000Y-113763373D01*
X159935000Y-112436627D01*
X159427277Y-111210874D01*
X158489126Y-110272723D01*
X157263373Y-109765000D01*
X155936627Y-109765000D01*
X154710874Y-110272723D01*
X153772723Y-111210874D01*
X153265000Y-112436627D01*
X140227084Y-112436627D01*
X140477431Y-112186280D01*
X140635000Y-111805874D01*
X140635000Y-111639801D01*
X145139802Y-107135000D01*
X145305874Y-107135000D01*
X145686280Y-106977431D01*
X145977431Y-106686280D01*
X146135000Y-106305874D01*
X146135000Y-105894126D01*
X145977431Y-105513720D01*
X145686280Y-105222569D01*
X145305874Y-105065000D01*
X144894126Y-105065000D01*
X144513720Y-105222569D01*
X144222569Y-105513720D01*
X144065000Y-105894126D01*
X144065000Y-106060198D01*
X139560199Y-110565000D01*
X139394126Y-110565000D01*
X139013720Y-110722569D01*
X138722569Y-111013720D01*
X138565000Y-111394126D01*
X97260000Y-111394126D01*
X97260000Y-110994126D01*
X97256075Y-110984650D01*
X97284570Y-110990318D01*
X97359417Y-110975430D01*
X97359422Y-110975430D01*
X97562677Y-110935000D01*
X97805874Y-110935000D01*
X98186280Y-110777431D01*
X98237500Y-110726211D01*
X98413720Y-110902431D01*
X98794126Y-111060000D01*
X99205874Y-111060000D01*
X99586280Y-110902431D01*
X99877431Y-110611280D01*
X100035000Y-110230874D01*
X100035000Y-109819126D01*
X115965000Y-109819126D01*
X115965000Y-110230874D01*
X116122569Y-110611280D01*
X116413720Y-110902431D01*
X116794126Y-111060000D01*
X117205874Y-111060000D01*
X117586280Y-110902431D01*
X117828711Y-110660000D01*
X120696289Y-110660000D01*
X120813720Y-110777431D01*
X121194126Y-110935000D01*
X121605874Y-110935000D01*
X121986280Y-110777431D01*
X122277431Y-110486280D01*
X122435000Y-110105874D01*
X122435000Y-109694126D01*
X122277431Y-109313720D01*
X121986280Y-109022569D01*
X121605874Y-108865000D01*
X121194126Y-108865000D01*
X120813720Y-109022569D01*
X120696289Y-109140000D01*
X117568007Y-109140000D01*
X117205874Y-108990000D01*
X116794126Y-108990000D01*
X116413720Y-109147569D01*
X116122569Y-109438720D01*
X115965000Y-109819126D01*
X100035000Y-109819126D01*
X99877431Y-109438720D01*
X99586280Y-109147569D01*
X99205874Y-108990000D01*
X99064802Y-108990000D01*
X98535000Y-108460198D01*
X98535000Y-108294126D01*
X98377431Y-107913720D01*
X98086280Y-107622569D01*
X97705874Y-107465000D01*
X97294126Y-107465000D01*
X96913720Y-107622569D01*
X96622569Y-107913720D01*
X96465000Y-108294126D01*
X96465000Y-108705874D01*
X96622569Y-109086280D01*
X96786289Y-109250000D01*
X96722569Y-109313720D01*
X96663871Y-109455430D01*
X93630232Y-109455430D01*
X93335000Y-109160199D01*
X93335000Y-108994126D01*
X93177431Y-108613720D01*
X92886280Y-108322569D01*
X92505874Y-108165000D01*
X92094126Y-108165000D01*
X91713720Y-108322569D01*
X91422569Y-108613720D01*
X91265000Y-108994126D01*
X77810000Y-108994126D01*
X77810000Y-105215322D01*
X79865000Y-105215322D01*
X79865000Y-106064678D01*
X80190034Y-106849380D01*
X80790620Y-107449966D01*
X81575322Y-107775000D01*
X82424678Y-107775000D01*
X83209380Y-107449966D01*
X83809966Y-106849380D01*
X84135000Y-106064678D01*
X84135000Y-105215322D01*
X83809966Y-104430620D01*
X83209380Y-103830034D01*
X82424678Y-103505000D01*
X81575322Y-103505000D01*
X80790620Y-103830034D01*
X80190034Y-104430620D01*
X79865000Y-105215322D01*
X77810000Y-105215322D01*
X77810000Y-102894126D01*
X88065000Y-102894126D01*
X88065000Y-103305874D01*
X88222569Y-103686280D01*
X88513720Y-103977431D01*
X88894126Y-104135000D01*
X89305874Y-104135000D01*
X89686280Y-103977431D01*
X89716363Y-103947348D01*
X90425797Y-103947348D01*
X90365000Y-104094126D01*
X90365000Y-104505874D01*
X90522569Y-104886280D01*
X90813720Y-105177431D01*
X91194126Y-105335000D01*
X91605874Y-105335000D01*
X91986280Y-105177431D01*
X92277431Y-104886280D01*
X92288317Y-104860000D01*
X92411958Y-104860000D01*
X92351067Y-104885222D01*
X92059916Y-105176373D01*
X91902347Y-105556779D01*
X91902347Y-105968527D01*
X92059916Y-106348933D01*
X92351067Y-106640084D01*
X92731473Y-106797653D01*
X93143221Y-106797653D01*
X93523627Y-106640084D01*
X93766364Y-106397347D01*
X94158942Y-106397347D01*
X94210194Y-106448599D01*
X94001067Y-106535222D01*
X93709916Y-106826373D01*
X93552347Y-107206779D01*
X93552347Y-107618527D01*
X93709916Y-107998933D01*
X94001067Y-108290084D01*
X94381473Y-108447653D01*
X94793221Y-108447653D01*
X95173627Y-108290084D01*
X95464778Y-107998933D01*
X95622347Y-107618527D01*
X95622347Y-107452454D01*
X96514802Y-106560000D01*
X98602560Y-106560000D01*
X98602560Y-108100000D01*
X98651843Y-108347765D01*
X98792191Y-108557809D01*
X99002235Y-108698157D01*
X99250000Y-108747440D01*
X100850000Y-108747440D01*
X101097765Y-108698157D01*
X101307809Y-108557809D01*
X101448157Y-108347765D01*
X101474785Y-108213894D01*
X101555423Y-108334577D01*
X102030091Y-108651740D01*
X102448667Y-108735000D01*
X102731333Y-108735000D01*
X103149909Y-108651740D01*
X103624577Y-108334577D01*
X103860000Y-107982242D01*
X104095423Y-108334577D01*
X104570091Y-108651740D01*
X104988667Y-108735000D01*
X105271333Y-108735000D01*
X105689909Y-108651740D01*
X106164577Y-108334577D01*
X106420947Y-107950892D01*
X106517611Y-108155134D01*
X106932577Y-108531041D01*
X107320961Y-108691904D01*
X107543000Y-108569915D01*
X107543000Y-107427000D01*
X107523000Y-107427000D01*
X107523000Y-107173000D01*
X107543000Y-107173000D01*
X107543000Y-106030085D01*
X107797000Y-106030085D01*
X107797000Y-107173000D01*
X107817000Y-107173000D01*
X107817000Y-107427000D01*
X107797000Y-107427000D01*
X107797000Y-108569915D01*
X108019039Y-108691904D01*
X108407423Y-108531041D01*
X108822389Y-108155134D01*
X108919053Y-107950892D01*
X109175423Y-108334577D01*
X109650091Y-108651740D01*
X110068667Y-108735000D01*
X110351333Y-108735000D01*
X110769909Y-108651740D01*
X111244577Y-108334577D01*
X111480000Y-107982242D01*
X111715423Y-108334577D01*
X112190091Y-108651740D01*
X112608667Y-108735000D01*
X112891333Y-108735000D01*
X113309909Y-108651740D01*
X113784577Y-108334577D01*
X114020000Y-107982242D01*
X114255423Y-108334577D01*
X114730091Y-108651740D01*
X115148667Y-108735000D01*
X115431333Y-108735000D01*
X115849909Y-108651740D01*
X116324577Y-108334577D01*
X116560000Y-107982242D01*
X116795423Y-108334577D01*
X117270091Y-108651740D01*
X117688667Y-108735000D01*
X117971333Y-108735000D01*
X118389909Y-108651740D01*
X118864577Y-108334577D01*
X119100000Y-107982242D01*
X119335423Y-108334577D01*
X119810091Y-108651740D01*
X120228667Y-108735000D01*
X120511333Y-108735000D01*
X120929909Y-108651740D01*
X121404577Y-108334577D01*
X121640000Y-107982242D01*
X121875423Y-108334577D01*
X122350091Y-108651740D01*
X122768667Y-108735000D01*
X123051333Y-108735000D01*
X123469909Y-108651740D01*
X123944577Y-108334577D01*
X124180000Y-107982242D01*
X124415423Y-108334577D01*
X124890091Y-108651740D01*
X125308667Y-108735000D01*
X125591333Y-108735000D01*
X126009909Y-108651740D01*
X126484577Y-108334577D01*
X126720000Y-107982242D01*
X126955423Y-108334577D01*
X127430091Y-108651740D01*
X127848667Y-108735000D01*
X128131333Y-108735000D01*
X128549909Y-108651740D01*
X129024577Y-108334577D01*
X129260000Y-107982242D01*
X129495423Y-108334577D01*
X129970091Y-108651740D01*
X130388667Y-108735000D01*
X130671333Y-108735000D01*
X131089909Y-108651740D01*
X131564577Y-108334577D01*
X131800000Y-107982242D01*
X132035423Y-108334577D01*
X132510091Y-108651740D01*
X132928667Y-108735000D01*
X133211333Y-108735000D01*
X133629909Y-108651740D01*
X134104577Y-108334577D01*
X134340000Y-107982242D01*
X134575423Y-108334577D01*
X135050091Y-108651740D01*
X135468667Y-108735000D01*
X135751333Y-108735000D01*
X136169909Y-108651740D01*
X136644577Y-108334577D01*
X136961740Y-107859909D01*
X137073113Y-107300000D01*
X136961740Y-106740091D01*
X136644577Y-106265423D01*
X136169909Y-105948260D01*
X135751333Y-105865000D01*
X135468667Y-105865000D01*
X135050091Y-105948260D01*
X134575423Y-106265423D01*
X134340000Y-106617758D01*
X134104577Y-106265423D01*
X133629909Y-105948260D01*
X133211333Y-105865000D01*
X132928667Y-105865000D01*
X132791989Y-105892187D01*
X131335000Y-104435199D01*
X131335000Y-104269126D01*
X131177431Y-103888720D01*
X130886280Y-103597569D01*
X130505874Y-103440000D01*
X130094126Y-103440000D01*
X129713720Y-103597569D01*
X129422569Y-103888720D01*
X129265000Y-104269126D01*
X129265000Y-104680874D01*
X129422569Y-105061280D01*
X129713720Y-105352431D01*
X130094126Y-105510000D01*
X130260199Y-105510000D01*
X130615199Y-105865000D01*
X130388667Y-105865000D01*
X130206114Y-105901312D01*
X127570331Y-103265530D01*
X127527929Y-103202071D01*
X127276537Y-103034096D01*
X127115843Y-103002132D01*
X126986280Y-102872569D01*
X126605874Y-102715000D01*
X126194126Y-102715000D01*
X125813720Y-102872569D01*
X125522569Y-103163720D01*
X125365000Y-103544126D01*
X125365000Y-103955874D01*
X125522569Y-104336280D01*
X125813720Y-104627431D01*
X126194126Y-104785000D01*
X126605874Y-104785000D01*
X126842278Y-104687079D01*
X128020199Y-105865000D01*
X127848667Y-105865000D01*
X127430091Y-105948260D01*
X126955423Y-106265423D01*
X126720000Y-106617758D01*
X126484577Y-106265423D01*
X126009909Y-105948260D01*
X125591333Y-105865000D01*
X125308667Y-105865000D01*
X124890091Y-105948260D01*
X124415423Y-106265423D01*
X124180000Y-106617758D01*
X123944577Y-106265423D01*
X123469909Y-105948260D01*
X123051333Y-105865000D01*
X122768667Y-105865000D01*
X122350091Y-105948260D01*
X121875423Y-106265423D01*
X121640000Y-106617758D01*
X121404577Y-106265423D01*
X120929909Y-105948260D01*
X120511333Y-105865000D01*
X120228667Y-105865000D01*
X119810091Y-105948260D01*
X119335423Y-106265423D01*
X119100000Y-106617758D01*
X118864577Y-106265423D01*
X118389909Y-105948260D01*
X117971333Y-105865000D01*
X117688667Y-105865000D01*
X117270091Y-105948260D01*
X116795423Y-106265423D01*
X116560000Y-106617758D01*
X116324577Y-106265423D01*
X115849909Y-105948260D01*
X115431333Y-105865000D01*
X115148667Y-105865000D01*
X114730091Y-105948260D01*
X114255423Y-106265423D01*
X114020000Y-106617758D01*
X113784577Y-106265423D01*
X113309909Y-105948260D01*
X112935000Y-105873686D01*
X112935000Y-105594126D01*
X112777431Y-105213720D01*
X112486280Y-104922569D01*
X112105874Y-104765000D01*
X111694126Y-104765000D01*
X111313720Y-104922569D01*
X111196289Y-105040000D01*
X110403711Y-105040000D01*
X110286280Y-104922569D01*
X109905874Y-104765000D01*
X109494126Y-104765000D01*
X109113720Y-104922569D01*
X108822569Y-105213720D01*
X108665000Y-105594126D01*
X108665000Y-106005874D01*
X108822569Y-106386280D01*
X108985681Y-106549392D01*
X108919053Y-106649108D01*
X108822389Y-106444866D01*
X108407423Y-106068959D01*
X108019039Y-105908096D01*
X107797000Y-106030085D01*
X107543000Y-106030085D01*
X107320961Y-105908096D01*
X106932577Y-106068959D01*
X106517611Y-106444866D01*
X106420947Y-106649108D01*
X106164577Y-106265423D01*
X105689909Y-105948260D01*
X105360000Y-105882637D01*
X105360000Y-105592765D01*
X105202431Y-105212359D01*
X104911280Y-104921208D01*
X104530874Y-104763639D01*
X104119126Y-104763639D01*
X103738720Y-104921208D01*
X103621289Y-105038639D01*
X102676209Y-105038639D01*
X102601361Y-105023751D01*
X102601360Y-105023751D01*
X102552162Y-105033537D01*
X102526513Y-105038639D01*
X102526509Y-105038639D01*
X102518898Y-105040153D01*
X98775621Y-105040153D01*
X98774852Y-105040000D01*
X98774847Y-105040000D01*
X98700000Y-105025112D01*
X98625153Y-105040000D01*
X96274848Y-105040000D01*
X96200000Y-105025112D01*
X96125152Y-105040000D01*
X96125148Y-105040000D01*
X95951605Y-105074520D01*
X95903462Y-105084096D01*
X95786215Y-105162438D01*
X95740084Y-105051067D01*
X95448933Y-104759916D01*
X95068527Y-104602347D01*
X94912197Y-104602347D01*
X95035000Y-104305874D01*
X95035000Y-104198711D01*
X95113720Y-104277431D01*
X95494126Y-104435000D01*
X95905874Y-104435000D01*
X96286280Y-104277431D01*
X96577431Y-103986280D01*
X96735000Y-103605874D01*
X96735000Y-103231473D01*
X99602347Y-103231473D01*
X99602347Y-103643221D01*
X99759916Y-104023627D01*
X100051067Y-104314778D01*
X100431473Y-104472347D01*
X100843221Y-104472347D01*
X101223627Y-104314778D01*
X101341058Y-104197347D01*
X103558636Y-104197347D01*
X103738720Y-104377431D01*
X104119126Y-104535000D01*
X104530874Y-104535000D01*
X104911280Y-104377431D01*
X105202431Y-104086280D01*
X105360000Y-103705874D01*
X105360000Y-103294126D01*
X105202431Y-102913720D01*
X104911280Y-102622569D01*
X104530874Y-102465000D01*
X104119126Y-102465000D01*
X103738720Y-102622569D01*
X103683942Y-102677347D01*
X101341058Y-102677347D01*
X101223627Y-102559916D01*
X100843221Y-102402347D01*
X100431473Y-102402347D01*
X100051067Y-102559916D01*
X99759916Y-102851067D01*
X99602347Y-103231473D01*
X96735000Y-103231473D01*
X96735000Y-103194126D01*
X96577431Y-102813720D01*
X96286280Y-102522569D01*
X95905874Y-102365000D01*
X95494126Y-102365000D01*
X95343604Y-102427348D01*
X89891059Y-102427348D01*
X89686280Y-102222569D01*
X89305874Y-102065000D01*
X88894126Y-102065000D01*
X88513720Y-102222569D01*
X88222569Y-102513720D01*
X88065000Y-102894126D01*
X77810000Y-102894126D01*
X77810000Y-99060000D01*
X79852560Y-99060000D01*
X79852560Y-102060000D01*
X79901843Y-102307765D01*
X80042191Y-102517809D01*
X80252235Y-102658157D01*
X80500000Y-102707440D01*
X83500000Y-102707440D01*
X83747765Y-102658157D01*
X83957809Y-102517809D01*
X84098157Y-102307765D01*
X84147440Y-102060000D01*
X84147440Y-99060000D01*
X84134337Y-98994126D01*
X86065000Y-98994126D01*
X86065000Y-99405874D01*
X86222569Y-99786280D01*
X86340000Y-99903711D01*
X86340001Y-100996288D01*
X86222569Y-101113720D01*
X86065000Y-101494126D01*
X86065000Y-101905874D01*
X86222569Y-102286280D01*
X86513720Y-102577431D01*
X86894126Y-102735000D01*
X87305874Y-102735000D01*
X87686280Y-102577431D01*
X87977431Y-102286280D01*
X88135000Y-101905874D01*
X88135000Y-101494126D01*
X87977431Y-101113720D01*
X87860000Y-100996289D01*
X87860000Y-100694126D01*
X96065000Y-100694126D01*
X96065000Y-101105874D01*
X96222569Y-101486280D01*
X96513720Y-101777431D01*
X96894126Y-101935000D01*
X97305874Y-101935000D01*
X97686280Y-101777431D01*
X97977431Y-101486280D01*
X98135000Y-101105874D01*
X98135000Y-100694126D01*
X97980910Y-100322119D01*
X149603000Y-100322119D01*
X149603000Y-100877881D01*
X149815680Y-101391337D01*
X150208663Y-101784320D01*
X150367229Y-101850000D01*
X150208663Y-101915680D01*
X149815680Y-102308663D01*
X149603000Y-102822119D01*
X149603000Y-103377881D01*
X149815680Y-103891337D01*
X150208663Y-104284320D01*
X150367229Y-104350000D01*
X150208663Y-104415680D01*
X149815680Y-104808663D01*
X149603000Y-105322119D01*
X149603000Y-105877881D01*
X149815680Y-106391337D01*
X150208663Y-106784320D01*
X150722119Y-106997000D01*
X151277881Y-106997000D01*
X151791337Y-106784320D01*
X152184320Y-106391337D01*
X152397000Y-105877881D01*
X152397000Y-105322119D01*
X152184320Y-104808663D01*
X151791337Y-104415680D01*
X151632771Y-104350000D01*
X151791337Y-104284320D01*
X152184320Y-103891337D01*
X152346416Y-103500000D01*
X155052560Y-103500000D01*
X155052560Y-105200000D01*
X155101843Y-105447765D01*
X155242191Y-105657809D01*
X155452235Y-105798157D01*
X155700000Y-105847440D01*
X157700000Y-105847440D01*
X157947765Y-105798157D01*
X158157809Y-105657809D01*
X158298157Y-105447765D01*
X158347440Y-105200000D01*
X158347440Y-103500000D01*
X158298157Y-103252235D01*
X158157809Y-103042191D01*
X157947765Y-102901843D01*
X157876218Y-102887612D01*
X158038664Y-102742045D01*
X158289553Y-102219260D01*
X158291476Y-102206890D01*
X158170155Y-101977000D01*
X156827000Y-101977000D01*
X156827000Y-101997000D01*
X156573000Y-101997000D01*
X156573000Y-101977000D01*
X155229845Y-101977000D01*
X155108524Y-102206890D01*
X155110447Y-102219260D01*
X155361336Y-102742045D01*
X155523782Y-102887612D01*
X155452235Y-102901843D01*
X155242191Y-103042191D01*
X155101843Y-103252235D01*
X155052560Y-103500000D01*
X152346416Y-103500000D01*
X152397000Y-103377881D01*
X152397000Y-102822119D01*
X152184320Y-102308663D01*
X151791337Y-101915680D01*
X151632771Y-101850000D01*
X151791337Y-101784320D01*
X152082547Y-101493110D01*
X155108524Y-101493110D01*
X155229845Y-101723000D01*
X156573000Y-101723000D01*
X156573000Y-100522769D01*
X156827000Y-100522769D01*
X156827000Y-101723000D01*
X158170155Y-101723000D01*
X158291476Y-101493110D01*
X158289553Y-101480740D01*
X158038664Y-100957955D01*
X157606812Y-100570976D01*
X157059742Y-100378716D01*
X156827000Y-100522769D01*
X156573000Y-100522769D01*
X156340258Y-100378716D01*
X155793188Y-100570976D01*
X155361336Y-100957955D01*
X155110447Y-101480740D01*
X155108524Y-101493110D01*
X152082547Y-101493110D01*
X152184320Y-101391337D01*
X152397000Y-100877881D01*
X152397000Y-100322119D01*
X152184320Y-99808663D01*
X151791337Y-99415680D01*
X151277881Y-99203000D01*
X150722119Y-99203000D01*
X150208663Y-99415680D01*
X149815680Y-99808663D01*
X149603000Y-100322119D01*
X97980910Y-100322119D01*
X97977431Y-100313720D01*
X97860000Y-100196289D01*
X97860000Y-96614801D01*
X97939801Y-96535000D01*
X98105874Y-96535000D01*
X98486280Y-96377431D01*
X98777431Y-96086280D01*
X98935000Y-95705874D01*
X98935000Y-95294126D01*
X98777431Y-94913720D01*
X98486280Y-94622569D01*
X98105874Y-94465000D01*
X97694126Y-94465000D01*
X97313720Y-94622569D01*
X97022569Y-94913720D01*
X96865000Y-95294126D01*
X96865000Y-95460199D01*
X96615530Y-95709669D01*
X96552071Y-95752071D01*
X96384096Y-96003464D01*
X96340000Y-96225149D01*
X96340000Y-96225153D01*
X96325112Y-96300000D01*
X96340000Y-96374847D01*
X96340001Y-100196288D01*
X96222569Y-100313720D01*
X96065000Y-100694126D01*
X87860000Y-100694126D01*
X87860000Y-99903711D01*
X87977431Y-99786280D01*
X88135000Y-99405874D01*
X88135000Y-98994126D01*
X87977431Y-98613720D01*
X87686280Y-98322569D01*
X87305874Y-98165000D01*
X86894126Y-98165000D01*
X86513720Y-98322569D01*
X86222569Y-98613720D01*
X86065000Y-98994126D01*
X84134337Y-98994126D01*
X84098157Y-98812235D01*
X83957809Y-98602191D01*
X83747765Y-98461843D01*
X83500000Y-98412560D01*
X80500000Y-98412560D01*
X80252235Y-98461843D01*
X80042191Y-98602191D01*
X79901843Y-98812235D01*
X79852560Y-99060000D01*
X77810000Y-99060000D01*
X77810000Y-92416736D01*
X78165000Y-92416736D01*
X78165000Y-93783264D01*
X78687947Y-95045771D01*
X79654229Y-96012053D01*
X80916736Y-96535000D01*
X82283264Y-96535000D01*
X83545771Y-96012053D01*
X84512053Y-95045771D01*
X85035000Y-93783264D01*
X85035000Y-92416736D01*
X84887236Y-92060000D01*
X98586887Y-92060000D01*
X98698260Y-92619909D01*
X99015423Y-93094577D01*
X99490091Y-93411740D01*
X99908667Y-93495000D01*
X100191333Y-93495000D01*
X100609909Y-93411740D01*
X101084577Y-93094577D01*
X101340947Y-92710892D01*
X101437611Y-92915134D01*
X101852577Y-93291041D01*
X102240961Y-93451904D01*
X102463000Y-93329915D01*
X102463000Y-92187000D01*
X102443000Y-92187000D01*
X102443000Y-91933000D01*
X102463000Y-91933000D01*
X102463000Y-90790085D01*
X102717000Y-90790085D01*
X102717000Y-91933000D01*
X102737000Y-91933000D01*
X102737000Y-92187000D01*
X102717000Y-92187000D01*
X102717000Y-93329915D01*
X102939039Y-93451904D01*
X103327423Y-93291041D01*
X103742389Y-92915134D01*
X103839053Y-92710892D01*
X104095423Y-93094577D01*
X104570091Y-93411740D01*
X104988667Y-93495000D01*
X105271333Y-93495000D01*
X105689909Y-93411740D01*
X106164577Y-93094577D01*
X106400000Y-92742242D01*
X106635423Y-93094577D01*
X107110091Y-93411740D01*
X107528667Y-93495000D01*
X107811333Y-93495000D01*
X108229909Y-93411740D01*
X108704577Y-93094577D01*
X108940000Y-92742242D01*
X109175423Y-93094577D01*
X109650091Y-93411740D01*
X110068667Y-93495000D01*
X110351333Y-93495000D01*
X110769909Y-93411740D01*
X111244577Y-93094577D01*
X111480000Y-92742242D01*
X111715423Y-93094577D01*
X112190091Y-93411740D01*
X112608667Y-93495000D01*
X112891333Y-93495000D01*
X113309909Y-93411740D01*
X113784577Y-93094577D01*
X114020000Y-92742242D01*
X114255423Y-93094577D01*
X114730091Y-93411740D01*
X115148667Y-93495000D01*
X115431333Y-93495000D01*
X115849909Y-93411740D01*
X116324577Y-93094577D01*
X116560000Y-92742242D01*
X116795423Y-93094577D01*
X117270091Y-93411740D01*
X117688667Y-93495000D01*
X117971333Y-93495000D01*
X118389909Y-93411740D01*
X118864577Y-93094577D01*
X119100000Y-92742242D01*
X119335423Y-93094577D01*
X119810091Y-93411740D01*
X120228667Y-93495000D01*
X120511333Y-93495000D01*
X120929909Y-93411740D01*
X121404577Y-93094577D01*
X121640000Y-92742242D01*
X121875423Y-93094577D01*
X122350091Y-93411740D01*
X122768667Y-93495000D01*
X123051333Y-93495000D01*
X123469909Y-93411740D01*
X123944577Y-93094577D01*
X124180000Y-92742242D01*
X124415423Y-93094577D01*
X124890091Y-93411740D01*
X125308667Y-93495000D01*
X125591333Y-93495000D01*
X126009909Y-93411740D01*
X126484577Y-93094577D01*
X126720000Y-92742242D01*
X126955423Y-93094577D01*
X127430091Y-93411740D01*
X127848667Y-93495000D01*
X128131333Y-93495000D01*
X128549909Y-93411740D01*
X129024577Y-93094577D01*
X129260000Y-92742242D01*
X129495423Y-93094577D01*
X129970091Y-93411740D01*
X130388667Y-93495000D01*
X130671333Y-93495000D01*
X131089909Y-93411740D01*
X131564577Y-93094577D01*
X131800000Y-92742242D01*
X132035423Y-93094577D01*
X132310000Y-93278044D01*
X132310000Y-93315198D01*
X130860199Y-94765000D01*
X130003711Y-94765000D01*
X129886280Y-94647569D01*
X129505874Y-94490000D01*
X129094126Y-94490000D01*
X128713720Y-94647569D01*
X128422569Y-94938720D01*
X128265000Y-95319126D01*
X128265000Y-95730874D01*
X128422569Y-96111280D01*
X128713720Y-96402431D01*
X129094126Y-96560000D01*
X129505874Y-96560000D01*
X129886280Y-96402431D01*
X130003711Y-96285000D01*
X131100153Y-96285000D01*
X131175000Y-96299888D01*
X131249847Y-96285000D01*
X131249852Y-96285000D01*
X131471537Y-96240904D01*
X131722929Y-96072929D01*
X131765331Y-96009470D01*
X133554473Y-94220329D01*
X133617929Y-94177929D01*
X133660924Y-94113582D01*
X133785904Y-93926538D01*
X133795480Y-93878395D01*
X133830000Y-93704852D01*
X133830000Y-93704848D01*
X133844888Y-93630000D01*
X133830000Y-93555152D01*
X133830000Y-93278043D01*
X134104577Y-93094577D01*
X134340000Y-92742242D01*
X134575423Y-93094577D01*
X135050091Y-93411740D01*
X135468667Y-93495000D01*
X135751333Y-93495000D01*
X136169909Y-93411740D01*
X136644577Y-93094577D01*
X136961740Y-92619909D01*
X137002153Y-92416736D01*
X153165000Y-92416736D01*
X153165000Y-93783264D01*
X153687947Y-95045771D01*
X154654229Y-96012053D01*
X155916736Y-96535000D01*
X157283264Y-96535000D01*
X158545771Y-96012053D01*
X159512053Y-95045771D01*
X160035000Y-93783264D01*
X160035000Y-92416736D01*
X159512053Y-91154229D01*
X158545771Y-90187947D01*
X157283264Y-89665000D01*
X155916736Y-89665000D01*
X154654229Y-90187947D01*
X153687947Y-91154229D01*
X153165000Y-92416736D01*
X137002153Y-92416736D01*
X137073113Y-92060000D01*
X136961740Y-91500091D01*
X136644577Y-91025423D01*
X136169909Y-90708260D01*
X135751333Y-90625000D01*
X135468667Y-90625000D01*
X135050091Y-90708260D01*
X134575423Y-91025423D01*
X134340000Y-91377758D01*
X134104577Y-91025423D01*
X133629909Y-90708260D01*
X133211333Y-90625000D01*
X132928667Y-90625000D01*
X132510091Y-90708260D01*
X132035423Y-91025423D01*
X131800000Y-91377758D01*
X131564577Y-91025423D01*
X131089909Y-90708260D01*
X130671333Y-90625000D01*
X130388667Y-90625000D01*
X129970091Y-90708260D01*
X129495423Y-91025423D01*
X129260000Y-91377758D01*
X129024577Y-91025423D01*
X128549909Y-90708260D01*
X128131333Y-90625000D01*
X127848667Y-90625000D01*
X127430091Y-90708260D01*
X126955423Y-91025423D01*
X126720000Y-91377758D01*
X126484577Y-91025423D01*
X126009909Y-90708260D01*
X125591333Y-90625000D01*
X125308667Y-90625000D01*
X124890091Y-90708260D01*
X124415423Y-91025423D01*
X124180000Y-91377758D01*
X123944577Y-91025423D01*
X123469909Y-90708260D01*
X123051333Y-90625000D01*
X122768667Y-90625000D01*
X122350091Y-90708260D01*
X121875423Y-91025423D01*
X121640000Y-91377758D01*
X121404577Y-91025423D01*
X120929909Y-90708260D01*
X120511333Y-90625000D01*
X120228667Y-90625000D01*
X119810091Y-90708260D01*
X119335423Y-91025423D01*
X119100000Y-91377758D01*
X118864577Y-91025423D01*
X118389909Y-90708260D01*
X117971333Y-90625000D01*
X117688667Y-90625000D01*
X117270091Y-90708260D01*
X116795423Y-91025423D01*
X116560000Y-91377758D01*
X116324577Y-91025423D01*
X115849909Y-90708260D01*
X115431333Y-90625000D01*
X115148667Y-90625000D01*
X114730091Y-90708260D01*
X114255423Y-91025423D01*
X114020000Y-91377758D01*
X113784577Y-91025423D01*
X113309909Y-90708260D01*
X112891333Y-90625000D01*
X112608667Y-90625000D01*
X112190091Y-90708260D01*
X111715423Y-91025423D01*
X111480000Y-91377758D01*
X111244577Y-91025423D01*
X110769909Y-90708260D01*
X110351333Y-90625000D01*
X110068667Y-90625000D01*
X109650091Y-90708260D01*
X109175423Y-91025423D01*
X108940000Y-91377758D01*
X108704577Y-91025423D01*
X108229909Y-90708260D01*
X107811333Y-90625000D01*
X107528667Y-90625000D01*
X107110091Y-90708260D01*
X106635423Y-91025423D01*
X106400000Y-91377758D01*
X106164577Y-91025423D01*
X105689909Y-90708260D01*
X105271333Y-90625000D01*
X104988667Y-90625000D01*
X104570091Y-90708260D01*
X104095423Y-91025423D01*
X103839053Y-91409108D01*
X103742389Y-91204866D01*
X103327423Y-90828959D01*
X102939039Y-90668096D01*
X102717000Y-90790085D01*
X102463000Y-90790085D01*
X102240961Y-90668096D01*
X101852577Y-90828959D01*
X101437611Y-91204866D01*
X101340947Y-91409108D01*
X101084577Y-91025423D01*
X100609909Y-90708260D01*
X100191333Y-90625000D01*
X99908667Y-90625000D01*
X99490091Y-90708260D01*
X99015423Y-91025423D01*
X98698260Y-91500091D01*
X98586887Y-92060000D01*
X84887236Y-92060000D01*
X84512053Y-91154229D01*
X83545771Y-90187947D01*
X82283264Y-89665000D01*
X80916736Y-89665000D01*
X79654229Y-90187947D01*
X78687947Y-91154229D01*
X78165000Y-92416736D01*
X77810000Y-92416736D01*
X77810000Y-90650580D01*
X77868803Y-90239973D01*
X78019338Y-89908890D01*
X78256749Y-89633361D01*
X78561944Y-89435544D01*
X78933917Y-89324300D01*
X79126348Y-89310000D01*
X159049420Y-89310000D01*
X159460027Y-89368803D01*
X159460027Y-89368803D01*
G37*
X159460027Y-89368803D02*
X159791110Y-89519338D01*
X160066639Y-89756749D01*
X160264456Y-90061944D01*
X160375700Y-90433917D01*
X160390001Y-90626362D01*
X160390000Y-146549420D01*
X160331197Y-146960027D01*
X160180661Y-147291112D01*
X159943251Y-147566639D01*
X159638056Y-147764456D01*
X159266083Y-147875700D01*
X159073652Y-147890000D01*
X79150580Y-147890000D01*
X78739973Y-147831197D01*
X78408888Y-147680661D01*
X78133361Y-147443251D01*
X77935544Y-147138056D01*
X77824300Y-146766083D01*
X77810000Y-146573652D01*
X77810000Y-143436627D01*
X78265000Y-143436627D01*
X78265000Y-144763373D01*
X78772723Y-145989126D01*
X79710874Y-146927277D01*
X80936627Y-147435000D01*
X82263373Y-147435000D01*
X83489126Y-146927277D01*
X84427277Y-145989126D01*
X84935000Y-144763373D01*
X84935000Y-143436627D01*
X153265000Y-143436627D01*
X153265000Y-144763373D01*
X153772723Y-145989126D01*
X154710874Y-146927277D01*
X155936627Y-147435000D01*
X157263373Y-147435000D01*
X158489126Y-146927277D01*
X159427277Y-145989126D01*
X159935000Y-144763373D01*
X159935000Y-143436627D01*
X159427277Y-142210874D01*
X158489126Y-141272723D01*
X157263373Y-140765000D01*
X155936627Y-140765000D01*
X154710874Y-141272723D01*
X153772723Y-142210874D01*
X153265000Y-143436627D01*
X84935000Y-143436627D01*
X84427277Y-142210874D01*
X83489126Y-141272723D01*
X82263373Y-140765000D01*
X80936627Y-140765000D01*
X79710874Y-141272723D01*
X78772723Y-142210874D01*
X78265000Y-143436627D01*
X77810000Y-143436627D01*
X77810000Y-139630213D01*
X150649392Y-139630213D01*
X150718857Y-139872397D01*
X151242302Y-140059144D01*
X151797368Y-140031362D01*
X152181143Y-139872397D01*
X152250608Y-139630213D01*
X151450000Y-138829605D01*
X150649392Y-139630213D01*
X77810000Y-139630213D01*
X77810000Y-138442302D01*
X150040856Y-138442302D01*
X150068638Y-138997368D01*
X150227603Y-139381143D01*
X150469787Y-139450608D01*
X151270395Y-138650000D01*
X151629605Y-138650000D01*
X152430213Y-139450608D01*
X152672397Y-139381143D01*
X152859144Y-138857698D01*
X152831362Y-138302632D01*
X152672397Y-137918857D01*
X152430213Y-137849392D01*
X151629605Y-138650000D01*
X151270395Y-138650000D01*
X150469787Y-137849392D01*
X150227603Y-137918857D01*
X150040856Y-138442302D01*
X77810000Y-138442302D01*
X77810000Y-127916736D01*
X78165000Y-127916736D01*
X78165000Y-129283264D01*
X78687947Y-130545771D01*
X79654229Y-131512053D01*
X80916736Y-132035000D01*
X82283264Y-132035000D01*
X83545771Y-131512053D01*
X84163698Y-130894126D01*
X142565000Y-130894126D01*
X142565000Y-131305874D01*
X142722569Y-131686280D01*
X143013720Y-131977431D01*
X143394126Y-132135000D01*
X143805874Y-132135000D01*
X144186280Y-131977431D01*
X144303711Y-131860000D01*
X150231989Y-131860000D01*
X150265680Y-131941337D01*
X150658663Y-132334320D01*
X150817229Y-132400000D01*
X150658663Y-132465680D01*
X150284343Y-132840000D01*
X148303711Y-132840000D01*
X148186280Y-132722569D01*
X147805874Y-132565000D01*
X147394126Y-132565000D01*
X147013720Y-132722569D01*
X146722569Y-133013720D01*
X146565000Y-133394126D01*
X146565000Y-133805874D01*
X146722569Y-134186280D01*
X147013720Y-134477431D01*
X147394126Y-134635000D01*
X147805874Y-134635000D01*
X148186280Y-134477431D01*
X148303711Y-134360000D01*
X150231989Y-134360000D01*
X150265680Y-134441337D01*
X150658663Y-134834320D01*
X150817229Y-134900000D01*
X150658663Y-134965680D01*
X150265680Y-135358663D01*
X150053000Y-135872119D01*
X150053000Y-136427881D01*
X150265680Y-136941337D01*
X150658663Y-137334320D01*
X150801363Y-137393428D01*
X150718857Y-137427603D01*
X150649392Y-137669787D01*
X151450000Y-138470395D01*
X152250608Y-137669787D01*
X152181143Y-137427603D01*
X152092490Y-137395975D01*
X152241337Y-137334320D01*
X152634320Y-136941337D01*
X152847000Y-136427881D01*
X152847000Y-135872119D01*
X152634320Y-135358663D01*
X152241337Y-134965680D01*
X152082771Y-134900000D01*
X152241337Y-134834320D01*
X152634320Y-134441337D01*
X152847000Y-133927881D01*
X152847000Y-133372119D01*
X152634320Y-132858663D01*
X152241337Y-132465680D01*
X152082771Y-132400000D01*
X152241337Y-132334320D01*
X152634320Y-131941337D01*
X152847000Y-131427881D01*
X152847000Y-130872119D01*
X152634320Y-130358663D01*
X152241337Y-129965680D01*
X151727881Y-129753000D01*
X151172119Y-129753000D01*
X150658663Y-129965680D01*
X150284343Y-130340000D01*
X144303711Y-130340000D01*
X144186280Y-130222569D01*
X143805874Y-130065000D01*
X143394126Y-130065000D01*
X143013720Y-130222569D01*
X142722569Y-130513720D01*
X142565000Y-130894126D01*
X84163698Y-130894126D01*
X84512053Y-130545771D01*
X85035000Y-129283264D01*
X85035000Y-127916736D01*
X153165000Y-127916736D01*
X153165000Y-129283264D01*
X153687947Y-130545771D01*
X154654229Y-131512053D01*
X155916736Y-132035000D01*
X157283264Y-132035000D01*
X158545771Y-131512053D01*
X159512053Y-130545771D01*
X160035000Y-129283264D01*
X160035000Y-127916736D01*
X159512053Y-126654229D01*
X158545771Y-125687947D01*
X157283264Y-125165000D01*
X155916736Y-125165000D01*
X154654229Y-125687947D01*
X153687947Y-126654229D01*
X153165000Y-127916736D01*
X85035000Y-127916736D01*
X84512053Y-126654229D01*
X83545771Y-125687947D01*
X82283264Y-125165000D01*
X80916736Y-125165000D01*
X79654229Y-125687947D01*
X78687947Y-126654229D01*
X78165000Y-127916736D01*
X77810000Y-127916736D01*
X77810000Y-112436627D01*
X78265000Y-112436627D01*
X78265000Y-113763373D01*
X78772723Y-114989126D01*
X79710874Y-115927277D01*
X80936627Y-116435000D01*
X82263373Y-116435000D01*
X83489126Y-115927277D01*
X84427277Y-114989126D01*
X84466627Y-114894126D01*
X89465000Y-114894126D01*
X89465000Y-115305874D01*
X89622569Y-115686280D01*
X89913720Y-115977431D01*
X90294126Y-116135000D01*
X90705874Y-116135000D01*
X91086280Y-115977431D01*
X91377431Y-115686280D01*
X91535000Y-115305874D01*
X91535000Y-115139802D01*
X91726915Y-114947887D01*
X93109481Y-114947887D01*
X93226912Y-115065318D01*
X93607318Y-115222887D01*
X94019066Y-115222887D01*
X94399472Y-115065318D01*
X94690623Y-114774167D01*
X94848192Y-114393761D01*
X94848192Y-113982013D01*
X94690623Y-113601607D01*
X94399472Y-113310456D01*
X94019066Y-113152887D01*
X93607318Y-113152887D01*
X93226912Y-113310456D01*
X93109481Y-113427887D01*
X91486961Y-113427887D01*
X91412113Y-113412999D01*
X91337265Y-113427887D01*
X91337261Y-113427887D01*
X91115576Y-113471983D01*
X90864184Y-113639958D01*
X90821784Y-113703414D01*
X90460198Y-114065000D01*
X90294126Y-114065000D01*
X89913720Y-114222569D01*
X89622569Y-114513720D01*
X89465000Y-114894126D01*
X84466627Y-114894126D01*
X84935000Y-113763373D01*
X84935000Y-112436627D01*
X84427277Y-111210874D01*
X83489126Y-110272723D01*
X82263373Y-109765000D01*
X80936627Y-109765000D01*
X79710874Y-110272723D01*
X78772723Y-111210874D01*
X78265000Y-112436627D01*
X77810000Y-112436627D01*
X77810000Y-108994126D01*
X91265000Y-108994126D01*
X91265000Y-109405874D01*
X91422569Y-109786280D01*
X91713720Y-110077431D01*
X92094126Y-110235000D01*
X92260199Y-110235000D01*
X92725101Y-110699903D01*
X92767501Y-110763359D01*
X93018893Y-110931334D01*
X93240578Y-110975430D01*
X93240583Y-110975430D01*
X93315430Y-110990318D01*
X93390277Y-110975430D01*
X93572744Y-110975430D01*
X93565000Y-110994126D01*
X93565000Y-111405874D01*
X93722569Y-111786280D01*
X94013720Y-112077431D01*
X94394126Y-112235000D01*
X94805874Y-112235000D01*
X95186280Y-112077431D01*
X95303711Y-111960000D01*
X95521289Y-111960000D01*
X95638720Y-112077431D01*
X96019126Y-112235000D01*
X96430874Y-112235000D01*
X96811280Y-112077431D01*
X97102431Y-111786280D01*
X97260000Y-111405874D01*
X97260000Y-111394126D01*
X138565000Y-111394126D01*
X138565000Y-111805874D01*
X138722569Y-112186280D01*
X139013720Y-112477431D01*
X139394126Y-112635000D01*
X139805874Y-112635000D01*
X140186280Y-112477431D01*
X140227084Y-112436627D01*
X153265000Y-112436627D01*
X153265000Y-113763373D01*
X153772723Y-114989126D01*
X154710874Y-115927277D01*
X155936627Y-116435000D01*
X157263373Y-116435000D01*
X158489126Y-115927277D01*
X159427277Y-114989126D01*
X159935000Y-113763373D01*
X159935000Y-112436627D01*
X159427277Y-111210874D01*
X158489126Y-110272723D01*
X157263373Y-109765000D01*
X155936627Y-109765000D01*
X154710874Y-110272723D01*
X153772723Y-111210874D01*
X153265000Y-112436627D01*
X140227084Y-112436627D01*
X140477431Y-112186280D01*
X140635000Y-111805874D01*
X140635000Y-111639801D01*
X145139802Y-107135000D01*
X145305874Y-107135000D01*
X145686280Y-106977431D01*
X145977431Y-106686280D01*
X146135000Y-106305874D01*
X146135000Y-105894126D01*
X145977431Y-105513720D01*
X145686280Y-105222569D01*
X145305874Y-105065000D01*
X144894126Y-105065000D01*
X144513720Y-105222569D01*
X144222569Y-105513720D01*
X144065000Y-105894126D01*
X144065000Y-106060198D01*
X139560199Y-110565000D01*
X139394126Y-110565000D01*
X139013720Y-110722569D01*
X138722569Y-111013720D01*
X138565000Y-111394126D01*
X97260000Y-111394126D01*
X97260000Y-110994126D01*
X97256075Y-110984650D01*
X97284570Y-110990318D01*
X97359417Y-110975430D01*
X97359422Y-110975430D01*
X97562677Y-110935000D01*
X97805874Y-110935000D01*
X98186280Y-110777431D01*
X98237500Y-110726211D01*
X98413720Y-110902431D01*
X98794126Y-111060000D01*
X99205874Y-111060000D01*
X99586280Y-110902431D01*
X99877431Y-110611280D01*
X100035000Y-110230874D01*
X100035000Y-109819126D01*
X115965000Y-109819126D01*
X115965000Y-110230874D01*
X116122569Y-110611280D01*
X116413720Y-110902431D01*
X116794126Y-111060000D01*
X117205874Y-111060000D01*
X117586280Y-110902431D01*
X117828711Y-110660000D01*
X120696289Y-110660000D01*
X120813720Y-110777431D01*
X121194126Y-110935000D01*
X121605874Y-110935000D01*
X121986280Y-110777431D01*
X122277431Y-110486280D01*
X122435000Y-110105874D01*
X122435000Y-109694126D01*
X122277431Y-109313720D01*
X121986280Y-109022569D01*
X121605874Y-108865000D01*
X121194126Y-108865000D01*
X120813720Y-109022569D01*
X120696289Y-109140000D01*
X117568007Y-109140000D01*
X117205874Y-108990000D01*
X116794126Y-108990000D01*
X116413720Y-109147569D01*
X116122569Y-109438720D01*
X115965000Y-109819126D01*
X100035000Y-109819126D01*
X99877431Y-109438720D01*
X99586280Y-109147569D01*
X99205874Y-108990000D01*
X99064802Y-108990000D01*
X98535000Y-108460198D01*
X98535000Y-108294126D01*
X98377431Y-107913720D01*
X98086280Y-107622569D01*
X97705874Y-107465000D01*
X97294126Y-107465000D01*
X96913720Y-107622569D01*
X96622569Y-107913720D01*
X96465000Y-108294126D01*
X96465000Y-108705874D01*
X96622569Y-109086280D01*
X96786289Y-109250000D01*
X96722569Y-109313720D01*
X96663871Y-109455430D01*
X93630232Y-109455430D01*
X93335000Y-109160199D01*
X93335000Y-108994126D01*
X93177431Y-108613720D01*
X92886280Y-108322569D01*
X92505874Y-108165000D01*
X92094126Y-108165000D01*
X91713720Y-108322569D01*
X91422569Y-108613720D01*
X91265000Y-108994126D01*
X77810000Y-108994126D01*
X77810000Y-105215322D01*
X79865000Y-105215322D01*
X79865000Y-106064678D01*
X80190034Y-106849380D01*
X80790620Y-107449966D01*
X81575322Y-107775000D01*
X82424678Y-107775000D01*
X83209380Y-107449966D01*
X83809966Y-106849380D01*
X84135000Y-106064678D01*
X84135000Y-105215322D01*
X83809966Y-104430620D01*
X83209380Y-103830034D01*
X82424678Y-103505000D01*
X81575322Y-103505000D01*
X80790620Y-103830034D01*
X80190034Y-104430620D01*
X79865000Y-105215322D01*
X77810000Y-105215322D01*
X77810000Y-102894126D01*
X88065000Y-102894126D01*
X88065000Y-103305874D01*
X88222569Y-103686280D01*
X88513720Y-103977431D01*
X88894126Y-104135000D01*
X89305874Y-104135000D01*
X89686280Y-103977431D01*
X89716363Y-103947348D01*
X90425797Y-103947348D01*
X90365000Y-104094126D01*
X90365000Y-104505874D01*
X90522569Y-104886280D01*
X90813720Y-105177431D01*
X91194126Y-105335000D01*
X91605874Y-105335000D01*
X91986280Y-105177431D01*
X92277431Y-104886280D01*
X92288317Y-104860000D01*
X92411958Y-104860000D01*
X92351067Y-104885222D01*
X92059916Y-105176373D01*
X91902347Y-105556779D01*
X91902347Y-105968527D01*
X92059916Y-106348933D01*
X92351067Y-106640084D01*
X92731473Y-106797653D01*
X93143221Y-106797653D01*
X93523627Y-106640084D01*
X93766364Y-106397347D01*
X94158942Y-106397347D01*
X94210194Y-106448599D01*
X94001067Y-106535222D01*
X93709916Y-106826373D01*
X93552347Y-107206779D01*
X93552347Y-107618527D01*
X93709916Y-107998933D01*
X94001067Y-108290084D01*
X94381473Y-108447653D01*
X94793221Y-108447653D01*
X95173627Y-108290084D01*
X95464778Y-107998933D01*
X95622347Y-107618527D01*
X95622347Y-107452454D01*
X96514802Y-106560000D01*
X98602560Y-106560000D01*
X98602560Y-108100000D01*
X98651843Y-108347765D01*
X98792191Y-108557809D01*
X99002235Y-108698157D01*
X99250000Y-108747440D01*
X100850000Y-108747440D01*
X101097765Y-108698157D01*
X101307809Y-108557809D01*
X101448157Y-108347765D01*
X101474785Y-108213894D01*
X101555423Y-108334577D01*
X102030091Y-108651740D01*
X102448667Y-108735000D01*
X102731333Y-108735000D01*
X103149909Y-108651740D01*
X103624577Y-108334577D01*
X103860000Y-107982242D01*
X104095423Y-108334577D01*
X104570091Y-108651740D01*
X104988667Y-108735000D01*
X105271333Y-108735000D01*
X105689909Y-108651740D01*
X106164577Y-108334577D01*
X106420947Y-107950892D01*
X106517611Y-108155134D01*
X106932577Y-108531041D01*
X107320961Y-108691904D01*
X107543000Y-108569915D01*
X107543000Y-107427000D01*
X107523000Y-107427000D01*
X107523000Y-107173000D01*
X107543000Y-107173000D01*
X107543000Y-106030085D01*
X107797000Y-106030085D01*
X107797000Y-107173000D01*
X107817000Y-107173000D01*
X107817000Y-107427000D01*
X107797000Y-107427000D01*
X107797000Y-108569915D01*
X108019039Y-108691904D01*
X108407423Y-108531041D01*
X108822389Y-108155134D01*
X108919053Y-107950892D01*
X109175423Y-108334577D01*
X109650091Y-108651740D01*
X110068667Y-108735000D01*
X110351333Y-108735000D01*
X110769909Y-108651740D01*
X111244577Y-108334577D01*
X111480000Y-107982242D01*
X111715423Y-108334577D01*
X112190091Y-108651740D01*
X112608667Y-108735000D01*
X112891333Y-108735000D01*
X113309909Y-108651740D01*
X113784577Y-108334577D01*
X114020000Y-107982242D01*
X114255423Y-108334577D01*
X114730091Y-108651740D01*
X115148667Y-108735000D01*
X115431333Y-108735000D01*
X115849909Y-108651740D01*
X116324577Y-108334577D01*
X116560000Y-107982242D01*
X116795423Y-108334577D01*
X117270091Y-108651740D01*
X117688667Y-108735000D01*
X117971333Y-108735000D01*
X118389909Y-108651740D01*
X118864577Y-108334577D01*
X119100000Y-107982242D01*
X119335423Y-108334577D01*
X119810091Y-108651740D01*
X120228667Y-108735000D01*
X120511333Y-108735000D01*
X120929909Y-108651740D01*
X121404577Y-108334577D01*
X121640000Y-107982242D01*
X121875423Y-108334577D01*
X122350091Y-108651740D01*
X122768667Y-108735000D01*
X123051333Y-108735000D01*
X123469909Y-108651740D01*
X123944577Y-108334577D01*
X124180000Y-107982242D01*
X124415423Y-108334577D01*
X124890091Y-108651740D01*
X125308667Y-108735000D01*
X125591333Y-108735000D01*
X126009909Y-108651740D01*
X126484577Y-108334577D01*
X126720000Y-107982242D01*
X126955423Y-108334577D01*
X127430091Y-108651740D01*
X127848667Y-108735000D01*
X128131333Y-108735000D01*
X128549909Y-108651740D01*
X129024577Y-108334577D01*
X129260000Y-107982242D01*
X129495423Y-108334577D01*
X129970091Y-108651740D01*
X130388667Y-108735000D01*
X130671333Y-108735000D01*
X131089909Y-108651740D01*
X131564577Y-108334577D01*
X131800000Y-107982242D01*
X132035423Y-108334577D01*
X132510091Y-108651740D01*
X132928667Y-108735000D01*
X133211333Y-108735000D01*
X133629909Y-108651740D01*
X134104577Y-108334577D01*
X134340000Y-107982242D01*
X134575423Y-108334577D01*
X135050091Y-108651740D01*
X135468667Y-108735000D01*
X135751333Y-108735000D01*
X136169909Y-108651740D01*
X136644577Y-108334577D01*
X136961740Y-107859909D01*
X137073113Y-107300000D01*
X136961740Y-106740091D01*
X136644577Y-106265423D01*
X136169909Y-105948260D01*
X135751333Y-105865000D01*
X135468667Y-105865000D01*
X135050091Y-105948260D01*
X134575423Y-106265423D01*
X134340000Y-106617758D01*
X134104577Y-106265423D01*
X133629909Y-105948260D01*
X133211333Y-105865000D01*
X132928667Y-105865000D01*
X132791989Y-105892187D01*
X131335000Y-104435199D01*
X131335000Y-104269126D01*
X131177431Y-103888720D01*
X130886280Y-103597569D01*
X130505874Y-103440000D01*
X130094126Y-103440000D01*
X129713720Y-103597569D01*
X129422569Y-103888720D01*
X129265000Y-104269126D01*
X129265000Y-104680874D01*
X129422569Y-105061280D01*
X129713720Y-105352431D01*
X130094126Y-105510000D01*
X130260199Y-105510000D01*
X130615199Y-105865000D01*
X130388667Y-105865000D01*
X130206114Y-105901312D01*
X127570331Y-103265530D01*
X127527929Y-103202071D01*
X127276537Y-103034096D01*
X127115843Y-103002132D01*
X126986280Y-102872569D01*
X126605874Y-102715000D01*
X126194126Y-102715000D01*
X125813720Y-102872569D01*
X125522569Y-103163720D01*
X125365000Y-103544126D01*
X125365000Y-103955874D01*
X125522569Y-104336280D01*
X125813720Y-104627431D01*
X126194126Y-104785000D01*
X126605874Y-104785000D01*
X126842278Y-104687079D01*
X128020199Y-105865000D01*
X127848667Y-105865000D01*
X127430091Y-105948260D01*
X126955423Y-106265423D01*
X126720000Y-106617758D01*
X126484577Y-106265423D01*
X126009909Y-105948260D01*
X125591333Y-105865000D01*
X125308667Y-105865000D01*
X124890091Y-105948260D01*
X124415423Y-106265423D01*
X124180000Y-106617758D01*
X123944577Y-106265423D01*
X123469909Y-105948260D01*
X123051333Y-105865000D01*
X122768667Y-105865000D01*
X122350091Y-105948260D01*
X121875423Y-106265423D01*
X121640000Y-106617758D01*
X121404577Y-106265423D01*
X120929909Y-105948260D01*
X120511333Y-105865000D01*
X120228667Y-105865000D01*
X119810091Y-105948260D01*
X119335423Y-106265423D01*
X119100000Y-106617758D01*
X118864577Y-106265423D01*
X118389909Y-105948260D01*
X117971333Y-105865000D01*
X117688667Y-105865000D01*
X117270091Y-105948260D01*
X116795423Y-106265423D01*
X116560000Y-106617758D01*
X116324577Y-106265423D01*
X115849909Y-105948260D01*
X115431333Y-105865000D01*
X115148667Y-105865000D01*
X114730091Y-105948260D01*
X114255423Y-106265423D01*
X114020000Y-106617758D01*
X113784577Y-106265423D01*
X113309909Y-105948260D01*
X112935000Y-105873686D01*
X112935000Y-105594126D01*
X112777431Y-105213720D01*
X112486280Y-104922569D01*
X112105874Y-104765000D01*
X111694126Y-104765000D01*
X111313720Y-104922569D01*
X111196289Y-105040000D01*
X110403711Y-105040000D01*
X110286280Y-104922569D01*
X109905874Y-104765000D01*
X109494126Y-104765000D01*
X109113720Y-104922569D01*
X108822569Y-105213720D01*
X108665000Y-105594126D01*
X108665000Y-106005874D01*
X108822569Y-106386280D01*
X108985681Y-106549392D01*
X108919053Y-106649108D01*
X108822389Y-106444866D01*
X108407423Y-106068959D01*
X108019039Y-105908096D01*
X107797000Y-106030085D01*
X107543000Y-106030085D01*
X107320961Y-105908096D01*
X106932577Y-106068959D01*
X106517611Y-106444866D01*
X106420947Y-106649108D01*
X106164577Y-106265423D01*
X105689909Y-105948260D01*
X105360000Y-105882637D01*
X105360000Y-105592765D01*
X105202431Y-105212359D01*
X104911280Y-104921208D01*
X104530874Y-104763639D01*
X104119126Y-104763639D01*
X103738720Y-104921208D01*
X103621289Y-105038639D01*
X102676209Y-105038639D01*
X102601361Y-105023751D01*
X102601360Y-105023751D01*
X102552162Y-105033537D01*
X102526513Y-105038639D01*
X102526509Y-105038639D01*
X102518898Y-105040153D01*
X98775621Y-105040153D01*
X98774852Y-105040000D01*
X98774847Y-105040000D01*
X98700000Y-105025112D01*
X98625153Y-105040000D01*
X96274848Y-105040000D01*
X96200000Y-105025112D01*
X96125152Y-105040000D01*
X96125148Y-105040000D01*
X95951605Y-105074520D01*
X95903462Y-105084096D01*
X95786215Y-105162438D01*
X95740084Y-105051067D01*
X95448933Y-104759916D01*
X95068527Y-104602347D01*
X94912197Y-104602347D01*
X95035000Y-104305874D01*
X95035000Y-104198711D01*
X95113720Y-104277431D01*
X95494126Y-104435000D01*
X95905874Y-104435000D01*
X96286280Y-104277431D01*
X96577431Y-103986280D01*
X96735000Y-103605874D01*
X96735000Y-103231473D01*
X99602347Y-103231473D01*
X99602347Y-103643221D01*
X99759916Y-104023627D01*
X100051067Y-104314778D01*
X100431473Y-104472347D01*
X100843221Y-104472347D01*
X101223627Y-104314778D01*
X101341058Y-104197347D01*
X103558636Y-104197347D01*
X103738720Y-104377431D01*
X104119126Y-104535000D01*
X104530874Y-104535000D01*
X104911280Y-104377431D01*
X105202431Y-104086280D01*
X105360000Y-103705874D01*
X105360000Y-103294126D01*
X105202431Y-102913720D01*
X104911280Y-102622569D01*
X104530874Y-102465000D01*
X104119126Y-102465000D01*
X103738720Y-102622569D01*
X103683942Y-102677347D01*
X101341058Y-102677347D01*
X101223627Y-102559916D01*
X100843221Y-102402347D01*
X100431473Y-102402347D01*
X100051067Y-102559916D01*
X99759916Y-102851067D01*
X99602347Y-103231473D01*
X96735000Y-103231473D01*
X96735000Y-103194126D01*
X96577431Y-102813720D01*
X96286280Y-102522569D01*
X95905874Y-102365000D01*
X95494126Y-102365000D01*
X95343604Y-102427348D01*
X89891059Y-102427348D01*
X89686280Y-102222569D01*
X89305874Y-102065000D01*
X88894126Y-102065000D01*
X88513720Y-102222569D01*
X88222569Y-102513720D01*
X88065000Y-102894126D01*
X77810000Y-102894126D01*
X77810000Y-99060000D01*
X79852560Y-99060000D01*
X79852560Y-102060000D01*
X79901843Y-102307765D01*
X80042191Y-102517809D01*
X80252235Y-102658157D01*
X80500000Y-102707440D01*
X83500000Y-102707440D01*
X83747765Y-102658157D01*
X83957809Y-102517809D01*
X84098157Y-102307765D01*
X84147440Y-102060000D01*
X84147440Y-99060000D01*
X84134337Y-98994126D01*
X86065000Y-98994126D01*
X86065000Y-99405874D01*
X86222569Y-99786280D01*
X86340000Y-99903711D01*
X86340001Y-100996288D01*
X86222569Y-101113720D01*
X86065000Y-101494126D01*
X86065000Y-101905874D01*
X86222569Y-102286280D01*
X86513720Y-102577431D01*
X86894126Y-102735000D01*
X87305874Y-102735000D01*
X87686280Y-102577431D01*
X87977431Y-102286280D01*
X88135000Y-101905874D01*
X88135000Y-101494126D01*
X87977431Y-101113720D01*
X87860000Y-100996289D01*
X87860000Y-100694126D01*
X96065000Y-100694126D01*
X96065000Y-101105874D01*
X96222569Y-101486280D01*
X96513720Y-101777431D01*
X96894126Y-101935000D01*
X97305874Y-101935000D01*
X97686280Y-101777431D01*
X97977431Y-101486280D01*
X98135000Y-101105874D01*
X98135000Y-100694126D01*
X97980910Y-100322119D01*
X149603000Y-100322119D01*
X149603000Y-100877881D01*
X149815680Y-101391337D01*
X150208663Y-101784320D01*
X150367229Y-101850000D01*
X150208663Y-101915680D01*
X149815680Y-102308663D01*
X149603000Y-102822119D01*
X149603000Y-103377881D01*
X149815680Y-103891337D01*
X150208663Y-104284320D01*
X150367229Y-104350000D01*
X150208663Y-104415680D01*
X149815680Y-104808663D01*
X149603000Y-105322119D01*
X149603000Y-105877881D01*
X149815680Y-106391337D01*
X150208663Y-106784320D01*
X150722119Y-106997000D01*
X151277881Y-106997000D01*
X151791337Y-106784320D01*
X152184320Y-106391337D01*
X152397000Y-105877881D01*
X152397000Y-105322119D01*
X152184320Y-104808663D01*
X151791337Y-104415680D01*
X151632771Y-104350000D01*
X151791337Y-104284320D01*
X152184320Y-103891337D01*
X152346416Y-103500000D01*
X155052560Y-103500000D01*
X155052560Y-105200000D01*
X155101843Y-105447765D01*
X155242191Y-105657809D01*
X155452235Y-105798157D01*
X155700000Y-105847440D01*
X157700000Y-105847440D01*
X157947765Y-105798157D01*
X158157809Y-105657809D01*
X158298157Y-105447765D01*
X158347440Y-105200000D01*
X158347440Y-103500000D01*
X158298157Y-103252235D01*
X158157809Y-103042191D01*
X157947765Y-102901843D01*
X157876218Y-102887612D01*
X158038664Y-102742045D01*
X158289553Y-102219260D01*
X158291476Y-102206890D01*
X158170155Y-101977000D01*
X156827000Y-101977000D01*
X156827000Y-101997000D01*
X156573000Y-101997000D01*
X156573000Y-101977000D01*
X155229845Y-101977000D01*
X155108524Y-102206890D01*
X155110447Y-102219260D01*
X155361336Y-102742045D01*
X155523782Y-102887612D01*
X155452235Y-102901843D01*
X155242191Y-103042191D01*
X155101843Y-103252235D01*
X155052560Y-103500000D01*
X152346416Y-103500000D01*
X152397000Y-103377881D01*
X152397000Y-102822119D01*
X152184320Y-102308663D01*
X151791337Y-101915680D01*
X151632771Y-101850000D01*
X151791337Y-101784320D01*
X152082547Y-101493110D01*
X155108524Y-101493110D01*
X155229845Y-101723000D01*
X156573000Y-101723000D01*
X156573000Y-100522769D01*
X156827000Y-100522769D01*
X156827000Y-101723000D01*
X158170155Y-101723000D01*
X158291476Y-101493110D01*
X158289553Y-101480740D01*
X158038664Y-100957955D01*
X157606812Y-100570976D01*
X157059742Y-100378716D01*
X156827000Y-100522769D01*
X156573000Y-100522769D01*
X156340258Y-100378716D01*
X155793188Y-100570976D01*
X155361336Y-100957955D01*
X155110447Y-101480740D01*
X155108524Y-101493110D01*
X152082547Y-101493110D01*
X152184320Y-101391337D01*
X152397000Y-100877881D01*
X152397000Y-100322119D01*
X152184320Y-99808663D01*
X151791337Y-99415680D01*
X151277881Y-99203000D01*
X150722119Y-99203000D01*
X150208663Y-99415680D01*
X149815680Y-99808663D01*
X149603000Y-100322119D01*
X97980910Y-100322119D01*
X97977431Y-100313720D01*
X97860000Y-100196289D01*
X97860000Y-96614801D01*
X97939801Y-96535000D01*
X98105874Y-96535000D01*
X98486280Y-96377431D01*
X98777431Y-96086280D01*
X98935000Y-95705874D01*
X98935000Y-95294126D01*
X98777431Y-94913720D01*
X98486280Y-94622569D01*
X98105874Y-94465000D01*
X97694126Y-94465000D01*
X97313720Y-94622569D01*
X97022569Y-94913720D01*
X96865000Y-95294126D01*
X96865000Y-95460199D01*
X96615530Y-95709669D01*
X96552071Y-95752071D01*
X96384096Y-96003464D01*
X96340000Y-96225149D01*
X96340000Y-96225153D01*
X96325112Y-96300000D01*
X96340000Y-96374847D01*
X96340001Y-100196288D01*
X96222569Y-100313720D01*
X96065000Y-100694126D01*
X87860000Y-100694126D01*
X87860000Y-99903711D01*
X87977431Y-99786280D01*
X88135000Y-99405874D01*
X88135000Y-98994126D01*
X87977431Y-98613720D01*
X87686280Y-98322569D01*
X87305874Y-98165000D01*
X86894126Y-98165000D01*
X86513720Y-98322569D01*
X86222569Y-98613720D01*
X86065000Y-98994126D01*
X84134337Y-98994126D01*
X84098157Y-98812235D01*
X83957809Y-98602191D01*
X83747765Y-98461843D01*
X83500000Y-98412560D01*
X80500000Y-98412560D01*
X80252235Y-98461843D01*
X80042191Y-98602191D01*
X79901843Y-98812235D01*
X79852560Y-99060000D01*
X77810000Y-99060000D01*
X77810000Y-92416736D01*
X78165000Y-92416736D01*
X78165000Y-93783264D01*
X78687947Y-95045771D01*
X79654229Y-96012053D01*
X80916736Y-96535000D01*
X82283264Y-96535000D01*
X83545771Y-96012053D01*
X84512053Y-95045771D01*
X85035000Y-93783264D01*
X85035000Y-92416736D01*
X84887236Y-92060000D01*
X98586887Y-92060000D01*
X98698260Y-92619909D01*
X99015423Y-93094577D01*
X99490091Y-93411740D01*
X99908667Y-93495000D01*
X100191333Y-93495000D01*
X100609909Y-93411740D01*
X101084577Y-93094577D01*
X101340947Y-92710892D01*
X101437611Y-92915134D01*
X101852577Y-93291041D01*
X102240961Y-93451904D01*
X102463000Y-93329915D01*
X102463000Y-92187000D01*
X102443000Y-92187000D01*
X102443000Y-91933000D01*
X102463000Y-91933000D01*
X102463000Y-90790085D01*
X102717000Y-90790085D01*
X102717000Y-91933000D01*
X102737000Y-91933000D01*
X102737000Y-92187000D01*
X102717000Y-92187000D01*
X102717000Y-93329915D01*
X102939039Y-93451904D01*
X103327423Y-93291041D01*
X103742389Y-92915134D01*
X103839053Y-92710892D01*
X104095423Y-93094577D01*
X104570091Y-93411740D01*
X104988667Y-93495000D01*
X105271333Y-93495000D01*
X105689909Y-93411740D01*
X106164577Y-93094577D01*
X106400000Y-92742242D01*
X106635423Y-93094577D01*
X107110091Y-93411740D01*
X107528667Y-93495000D01*
X107811333Y-93495000D01*
X108229909Y-93411740D01*
X108704577Y-93094577D01*
X108940000Y-92742242D01*
X109175423Y-93094577D01*
X109650091Y-93411740D01*
X110068667Y-93495000D01*
X110351333Y-93495000D01*
X110769909Y-93411740D01*
X111244577Y-93094577D01*
X111480000Y-92742242D01*
X111715423Y-93094577D01*
X112190091Y-93411740D01*
X112608667Y-93495000D01*
X112891333Y-93495000D01*
X113309909Y-93411740D01*
X113784577Y-93094577D01*
X114020000Y-92742242D01*
X114255423Y-93094577D01*
X114730091Y-93411740D01*
X115148667Y-93495000D01*
X115431333Y-93495000D01*
X115849909Y-93411740D01*
X116324577Y-93094577D01*
X116560000Y-92742242D01*
X116795423Y-93094577D01*
X117270091Y-93411740D01*
X117688667Y-93495000D01*
X117971333Y-93495000D01*
X118389909Y-93411740D01*
X118864577Y-93094577D01*
X119100000Y-92742242D01*
X119335423Y-93094577D01*
X119810091Y-93411740D01*
X120228667Y-93495000D01*
X120511333Y-93495000D01*
X120929909Y-93411740D01*
X121404577Y-93094577D01*
X121640000Y-92742242D01*
X121875423Y-93094577D01*
X122350091Y-93411740D01*
X122768667Y-93495000D01*
X123051333Y-93495000D01*
X123469909Y-93411740D01*
X123944577Y-93094577D01*
X124180000Y-92742242D01*
X124415423Y-93094577D01*
X124890091Y-93411740D01*
X125308667Y-93495000D01*
X125591333Y-93495000D01*
X126009909Y-93411740D01*
X126484577Y-93094577D01*
X126720000Y-92742242D01*
X126955423Y-93094577D01*
X127430091Y-93411740D01*
X127848667Y-93495000D01*
X128131333Y-93495000D01*
X128549909Y-93411740D01*
X129024577Y-93094577D01*
X129260000Y-92742242D01*
X129495423Y-93094577D01*
X129970091Y-93411740D01*
X130388667Y-93495000D01*
X130671333Y-93495000D01*
X131089909Y-93411740D01*
X131564577Y-93094577D01*
X131800000Y-92742242D01*
X132035423Y-93094577D01*
X132310000Y-93278044D01*
X132310000Y-93315198D01*
X130860199Y-94765000D01*
X130003711Y-94765000D01*
X129886280Y-94647569D01*
X129505874Y-94490000D01*
X129094126Y-94490000D01*
X128713720Y-94647569D01*
X128422569Y-94938720D01*
X128265000Y-95319126D01*
X128265000Y-95730874D01*
X128422569Y-96111280D01*
X128713720Y-96402431D01*
X129094126Y-96560000D01*
X129505874Y-96560000D01*
X129886280Y-96402431D01*
X130003711Y-96285000D01*
X131100153Y-96285000D01*
X131175000Y-96299888D01*
X131249847Y-96285000D01*
X131249852Y-96285000D01*
X131471537Y-96240904D01*
X131722929Y-96072929D01*
X131765331Y-96009470D01*
X133554473Y-94220329D01*
X133617929Y-94177929D01*
X133660924Y-94113582D01*
X133785904Y-93926538D01*
X133795480Y-93878395D01*
X133830000Y-93704852D01*
X133830000Y-93704848D01*
X133844888Y-93630000D01*
X133830000Y-93555152D01*
X133830000Y-93278043D01*
X134104577Y-93094577D01*
X134340000Y-92742242D01*
X134575423Y-93094577D01*
X135050091Y-93411740D01*
X135468667Y-93495000D01*
X135751333Y-93495000D01*
X136169909Y-93411740D01*
X136644577Y-93094577D01*
X136961740Y-92619909D01*
X137002153Y-92416736D01*
X153165000Y-92416736D01*
X153165000Y-93783264D01*
X153687947Y-95045771D01*
X154654229Y-96012053D01*
X155916736Y-96535000D01*
X157283264Y-96535000D01*
X158545771Y-96012053D01*
X159512053Y-95045771D01*
X160035000Y-93783264D01*
X160035000Y-92416736D01*
X159512053Y-91154229D01*
X158545771Y-90187947D01*
X157283264Y-89665000D01*
X155916736Y-89665000D01*
X154654229Y-90187947D01*
X153687947Y-91154229D01*
X153165000Y-92416736D01*
X137002153Y-92416736D01*
X137073113Y-92060000D01*
X136961740Y-91500091D01*
X136644577Y-91025423D01*
X136169909Y-90708260D01*
X135751333Y-90625000D01*
X135468667Y-90625000D01*
X135050091Y-90708260D01*
X134575423Y-91025423D01*
X134340000Y-91377758D01*
X134104577Y-91025423D01*
X133629909Y-90708260D01*
X133211333Y-90625000D01*
X132928667Y-90625000D01*
X132510091Y-90708260D01*
X132035423Y-91025423D01*
X131800000Y-91377758D01*
X131564577Y-91025423D01*
X131089909Y-90708260D01*
X130671333Y-90625000D01*
X130388667Y-90625000D01*
X129970091Y-90708260D01*
X129495423Y-91025423D01*
X129260000Y-91377758D01*
X129024577Y-91025423D01*
X128549909Y-90708260D01*
X128131333Y-90625000D01*
X127848667Y-90625000D01*
X127430091Y-90708260D01*
X126955423Y-91025423D01*
X126720000Y-91377758D01*
X126484577Y-91025423D01*
X126009909Y-90708260D01*
X125591333Y-90625000D01*
X125308667Y-90625000D01*
X124890091Y-90708260D01*
X124415423Y-91025423D01*
X124180000Y-91377758D01*
X123944577Y-91025423D01*
X123469909Y-90708260D01*
X123051333Y-90625000D01*
X122768667Y-90625000D01*
X122350091Y-90708260D01*
X121875423Y-91025423D01*
X121640000Y-91377758D01*
X121404577Y-91025423D01*
X120929909Y-90708260D01*
X120511333Y-90625000D01*
X120228667Y-90625000D01*
X119810091Y-90708260D01*
X119335423Y-91025423D01*
X119100000Y-91377758D01*
X118864577Y-91025423D01*
X118389909Y-90708260D01*
X117971333Y-90625000D01*
X117688667Y-90625000D01*
X117270091Y-90708260D01*
X116795423Y-91025423D01*
X116560000Y-91377758D01*
X116324577Y-91025423D01*
X115849909Y-90708260D01*
X115431333Y-90625000D01*
X115148667Y-90625000D01*
X114730091Y-90708260D01*
X114255423Y-91025423D01*
X114020000Y-91377758D01*
X113784577Y-91025423D01*
X113309909Y-90708260D01*
X112891333Y-90625000D01*
X112608667Y-90625000D01*
X112190091Y-90708260D01*
X111715423Y-91025423D01*
X111480000Y-91377758D01*
X111244577Y-91025423D01*
X110769909Y-90708260D01*
X110351333Y-90625000D01*
X110068667Y-90625000D01*
X109650091Y-90708260D01*
X109175423Y-91025423D01*
X108940000Y-91377758D01*
X108704577Y-91025423D01*
X108229909Y-90708260D01*
X107811333Y-90625000D01*
X107528667Y-90625000D01*
X107110091Y-90708260D01*
X106635423Y-91025423D01*
X106400000Y-91377758D01*
X106164577Y-91025423D01*
X105689909Y-90708260D01*
X105271333Y-90625000D01*
X104988667Y-90625000D01*
X104570091Y-90708260D01*
X104095423Y-91025423D01*
X103839053Y-91409108D01*
X103742389Y-91204866D01*
X103327423Y-90828959D01*
X102939039Y-90668096D01*
X102717000Y-90790085D01*
X102463000Y-90790085D01*
X102240961Y-90668096D01*
X101852577Y-90828959D01*
X101437611Y-91204866D01*
X101340947Y-91409108D01*
X101084577Y-91025423D01*
X100609909Y-90708260D01*
X100191333Y-90625000D01*
X99908667Y-90625000D01*
X99490091Y-90708260D01*
X99015423Y-91025423D01*
X98698260Y-91500091D01*
X98586887Y-92060000D01*
X84887236Y-92060000D01*
X84512053Y-91154229D01*
X83545771Y-90187947D01*
X82283264Y-89665000D01*
X80916736Y-89665000D01*
X79654229Y-90187947D01*
X78687947Y-91154229D01*
X78165000Y-92416736D01*
X77810000Y-92416736D01*
X77810000Y-90650580D01*
X77868803Y-90239973D01*
X78019338Y-89908890D01*
X78256749Y-89633361D01*
X78561944Y-89435544D01*
X78933917Y-89324300D01*
X79126348Y-89310000D01*
X159049420Y-89310000D01*
X159460027Y-89368803D01*
M02*
