%TF.GenerationSoftware,KiCad,Pcbnew,(5.0.0)*%
%TF.CreationDate,2020-02-28T20:01:44+00:00*%
%TF.ProjectId,Blast Furnace PCB,426C617374204675726E616365205043,rev?*%
%TF.SameCoordinates,Original*%
%TF.FileFunction,Copper,L1,Top,Signal*%
%TF.FilePolarity,Positive*%
%FSLAX46Y46*%
G04 Gerber Fmt 4.6, Leading zero omitted, Abs format (unit mm)*
G04 Created by KiCad (PCBNEW (5.0.0)) date 02/28/20 20:01:44*
%MOMM*%
%LPD*%
G01*
G04 APERTURE LIST*
%ADD10C,0.150000*%
%ADD11C,1.524000*%
%ADD12C,5.600000*%
%ADD13C,5.400000*%
%ADD14O,1.600000X1.600000*%
%ADD15R,1.600000X1.600000*%
%ADD16C,3.000000*%
%ADD17R,3.000000X3.000000*%
%ADD18R,2.000000X1.700000*%
%ADD19O,2.000000X1.700000*%
%ADD20C,1.250000*%
%ADD21R,0.450000X1.450000*%
%ADD22C,0.800000*%
%ADD23C,0.250000*%
%ADD24C,0.254000*%
G04 APERTURE END LIST*
D10*
X79100000Y-148600000D02*
G75*
G02X77100000Y-146600000I0J2000000D01*
G01*
X77100000Y-90600000D02*
G75*
G02X79100000Y-88600000I2000000J0D01*
G01*
X159100000Y-88600000D02*
G75*
G02X161100000Y-90600000I0J-2000000D01*
G01*
X161100000Y-146600000D02*
G75*
G02X159100000Y-148600000I-2000000J0D01*
G01*
X77100000Y-90600000D02*
X77100000Y-146600000D01*
X159100000Y-88600000D02*
X79100000Y-88600000D01*
X161100000Y-146600000D02*
X161100000Y-90600000D01*
X79098438Y-148600000D02*
X159100000Y-148600000D01*
D11*
X151450000Y-131150000D03*
X151450000Y-133650000D03*
X151450000Y-136150000D03*
X151450000Y-138650000D03*
D12*
X156600000Y-128600000D03*
X81600000Y-128600000D03*
D13*
X81600000Y-113100000D03*
X156600000Y-113100000D03*
D11*
X151000000Y-100600000D03*
X151000000Y-105600000D03*
X151000000Y-103100000D03*
D14*
X135610000Y-92060000D03*
X135610000Y-107300000D03*
X100050000Y-92060000D03*
X133070000Y-107300000D03*
X102590000Y-92060000D03*
X130530000Y-107300000D03*
X105130000Y-92060000D03*
X127990000Y-107300000D03*
X107670000Y-92060000D03*
X125450000Y-107300000D03*
X110210000Y-92060000D03*
X122910000Y-107300000D03*
X112750000Y-92060000D03*
X120370000Y-107300000D03*
X115290000Y-92060000D03*
X117830000Y-107300000D03*
X117830000Y-92060000D03*
X115290000Y-107300000D03*
X120370000Y-92060000D03*
X112750000Y-107300000D03*
X122910000Y-92060000D03*
X110210000Y-107300000D03*
X125450000Y-92060000D03*
X107670000Y-107300000D03*
X127990000Y-92060000D03*
X105130000Y-107300000D03*
X130530000Y-92060000D03*
X102590000Y-107300000D03*
X133070000Y-92060000D03*
D15*
X100050000Y-107300000D03*
D16*
X82000000Y-105640000D03*
D17*
X82000000Y-100560000D03*
D13*
X156600000Y-144100000D03*
X81600000Y-144100000D03*
D12*
X156600000Y-93100000D03*
X81600000Y-93100000D03*
D18*
X156700000Y-104350000D03*
D19*
X156700000Y-101850000D03*
D10*
G36*
X95499504Y-119126204D02*
X95523773Y-119129804D01*
X95547571Y-119135765D01*
X95570671Y-119144030D01*
X95592849Y-119154520D01*
X95613893Y-119167133D01*
X95633598Y-119181747D01*
X95651777Y-119198223D01*
X95668253Y-119216402D01*
X95682867Y-119236107D01*
X95695480Y-119257151D01*
X95705970Y-119279329D01*
X95714235Y-119302429D01*
X95720196Y-119326227D01*
X95723796Y-119350496D01*
X95725000Y-119375000D01*
X95725000Y-120625000D01*
X95723796Y-120649504D01*
X95720196Y-120673773D01*
X95714235Y-120697571D01*
X95705970Y-120720671D01*
X95695480Y-120742849D01*
X95682867Y-120763893D01*
X95668253Y-120783598D01*
X95651777Y-120801777D01*
X95633598Y-120818253D01*
X95613893Y-120832867D01*
X95592849Y-120845480D01*
X95570671Y-120855970D01*
X95547571Y-120864235D01*
X95523773Y-120870196D01*
X95499504Y-120873796D01*
X95475000Y-120875000D01*
X94725000Y-120875000D01*
X94700496Y-120873796D01*
X94676227Y-120870196D01*
X94652429Y-120864235D01*
X94629329Y-120855970D01*
X94607151Y-120845480D01*
X94586107Y-120832867D01*
X94566402Y-120818253D01*
X94548223Y-120801777D01*
X94531747Y-120783598D01*
X94517133Y-120763893D01*
X94504520Y-120742849D01*
X94494030Y-120720671D01*
X94485765Y-120697571D01*
X94479804Y-120673773D01*
X94476204Y-120649504D01*
X94475000Y-120625000D01*
X94475000Y-119375000D01*
X94476204Y-119350496D01*
X94479804Y-119326227D01*
X94485765Y-119302429D01*
X94494030Y-119279329D01*
X94504520Y-119257151D01*
X94517133Y-119236107D01*
X94531747Y-119216402D01*
X94548223Y-119198223D01*
X94566402Y-119181747D01*
X94586107Y-119167133D01*
X94607151Y-119154520D01*
X94629329Y-119144030D01*
X94652429Y-119135765D01*
X94676227Y-119129804D01*
X94700496Y-119126204D01*
X94725000Y-119125000D01*
X95475000Y-119125000D01*
X95499504Y-119126204D01*
X95499504Y-119126204D01*
G37*
D20*
X95100000Y-120000000D03*
D10*
G36*
X92699504Y-119126204D02*
X92723773Y-119129804D01*
X92747571Y-119135765D01*
X92770671Y-119144030D01*
X92792849Y-119154520D01*
X92813893Y-119167133D01*
X92833598Y-119181747D01*
X92851777Y-119198223D01*
X92868253Y-119216402D01*
X92882867Y-119236107D01*
X92895480Y-119257151D01*
X92905970Y-119279329D01*
X92914235Y-119302429D01*
X92920196Y-119326227D01*
X92923796Y-119350496D01*
X92925000Y-119375000D01*
X92925000Y-120625000D01*
X92923796Y-120649504D01*
X92920196Y-120673773D01*
X92914235Y-120697571D01*
X92905970Y-120720671D01*
X92895480Y-120742849D01*
X92882867Y-120763893D01*
X92868253Y-120783598D01*
X92851777Y-120801777D01*
X92833598Y-120818253D01*
X92813893Y-120832867D01*
X92792849Y-120845480D01*
X92770671Y-120855970D01*
X92747571Y-120864235D01*
X92723773Y-120870196D01*
X92699504Y-120873796D01*
X92675000Y-120875000D01*
X91925000Y-120875000D01*
X91900496Y-120873796D01*
X91876227Y-120870196D01*
X91852429Y-120864235D01*
X91829329Y-120855970D01*
X91807151Y-120845480D01*
X91786107Y-120832867D01*
X91766402Y-120818253D01*
X91748223Y-120801777D01*
X91731747Y-120783598D01*
X91717133Y-120763893D01*
X91704520Y-120742849D01*
X91694030Y-120720671D01*
X91685765Y-120697571D01*
X91679804Y-120673773D01*
X91676204Y-120649504D01*
X91675000Y-120625000D01*
X91675000Y-119375000D01*
X91676204Y-119350496D01*
X91679804Y-119326227D01*
X91685765Y-119302429D01*
X91694030Y-119279329D01*
X91704520Y-119257151D01*
X91717133Y-119236107D01*
X91731747Y-119216402D01*
X91748223Y-119198223D01*
X91766402Y-119181747D01*
X91786107Y-119167133D01*
X91807151Y-119154520D01*
X91829329Y-119144030D01*
X91852429Y-119135765D01*
X91876227Y-119129804D01*
X91900496Y-119126204D01*
X91925000Y-119125000D01*
X92675000Y-119125000D01*
X92699504Y-119126204D01*
X92699504Y-119126204D01*
G37*
D20*
X92300000Y-120000000D03*
D10*
G36*
X89699504Y-115526204D02*
X89723773Y-115529804D01*
X89747571Y-115535765D01*
X89770671Y-115544030D01*
X89792849Y-115554520D01*
X89813893Y-115567133D01*
X89833598Y-115581747D01*
X89851777Y-115598223D01*
X89868253Y-115616402D01*
X89882867Y-115636107D01*
X89895480Y-115657151D01*
X89905970Y-115679329D01*
X89914235Y-115702429D01*
X89920196Y-115726227D01*
X89923796Y-115750496D01*
X89925000Y-115775000D01*
X89925000Y-117025000D01*
X89923796Y-117049504D01*
X89920196Y-117073773D01*
X89914235Y-117097571D01*
X89905970Y-117120671D01*
X89895480Y-117142849D01*
X89882867Y-117163893D01*
X89868253Y-117183598D01*
X89851777Y-117201777D01*
X89833598Y-117218253D01*
X89813893Y-117232867D01*
X89792849Y-117245480D01*
X89770671Y-117255970D01*
X89747571Y-117264235D01*
X89723773Y-117270196D01*
X89699504Y-117273796D01*
X89675000Y-117275000D01*
X88925000Y-117275000D01*
X88900496Y-117273796D01*
X88876227Y-117270196D01*
X88852429Y-117264235D01*
X88829329Y-117255970D01*
X88807151Y-117245480D01*
X88786107Y-117232867D01*
X88766402Y-117218253D01*
X88748223Y-117201777D01*
X88731747Y-117183598D01*
X88717133Y-117163893D01*
X88704520Y-117142849D01*
X88694030Y-117120671D01*
X88685765Y-117097571D01*
X88679804Y-117073773D01*
X88676204Y-117049504D01*
X88675000Y-117025000D01*
X88675000Y-115775000D01*
X88676204Y-115750496D01*
X88679804Y-115726227D01*
X88685765Y-115702429D01*
X88694030Y-115679329D01*
X88704520Y-115657151D01*
X88717133Y-115636107D01*
X88731747Y-115616402D01*
X88748223Y-115598223D01*
X88766402Y-115581747D01*
X88786107Y-115567133D01*
X88807151Y-115554520D01*
X88829329Y-115544030D01*
X88852429Y-115535765D01*
X88876227Y-115529804D01*
X88900496Y-115526204D01*
X88925000Y-115525000D01*
X89675000Y-115525000D01*
X89699504Y-115526204D01*
X89699504Y-115526204D01*
G37*
D20*
X89300000Y-116400000D03*
D10*
G36*
X92499504Y-115526204D02*
X92523773Y-115529804D01*
X92547571Y-115535765D01*
X92570671Y-115544030D01*
X92592849Y-115554520D01*
X92613893Y-115567133D01*
X92633598Y-115581747D01*
X92651777Y-115598223D01*
X92668253Y-115616402D01*
X92682867Y-115636107D01*
X92695480Y-115657151D01*
X92705970Y-115679329D01*
X92714235Y-115702429D01*
X92720196Y-115726227D01*
X92723796Y-115750496D01*
X92725000Y-115775000D01*
X92725000Y-117025000D01*
X92723796Y-117049504D01*
X92720196Y-117073773D01*
X92714235Y-117097571D01*
X92705970Y-117120671D01*
X92695480Y-117142849D01*
X92682867Y-117163893D01*
X92668253Y-117183598D01*
X92651777Y-117201777D01*
X92633598Y-117218253D01*
X92613893Y-117232867D01*
X92592849Y-117245480D01*
X92570671Y-117255970D01*
X92547571Y-117264235D01*
X92523773Y-117270196D01*
X92499504Y-117273796D01*
X92475000Y-117275000D01*
X91725000Y-117275000D01*
X91700496Y-117273796D01*
X91676227Y-117270196D01*
X91652429Y-117264235D01*
X91629329Y-117255970D01*
X91607151Y-117245480D01*
X91586107Y-117232867D01*
X91566402Y-117218253D01*
X91548223Y-117201777D01*
X91531747Y-117183598D01*
X91517133Y-117163893D01*
X91504520Y-117142849D01*
X91494030Y-117120671D01*
X91485765Y-117097571D01*
X91479804Y-117073773D01*
X91476204Y-117049504D01*
X91475000Y-117025000D01*
X91475000Y-115775000D01*
X91476204Y-115750496D01*
X91479804Y-115726227D01*
X91485765Y-115702429D01*
X91494030Y-115679329D01*
X91504520Y-115657151D01*
X91517133Y-115636107D01*
X91531747Y-115616402D01*
X91548223Y-115598223D01*
X91566402Y-115581747D01*
X91586107Y-115567133D01*
X91607151Y-115554520D01*
X91629329Y-115544030D01*
X91652429Y-115535765D01*
X91676227Y-115529804D01*
X91700496Y-115526204D01*
X91725000Y-115525000D01*
X92475000Y-115525000D01*
X92499504Y-115526204D01*
X92499504Y-115526204D01*
G37*
D20*
X92100000Y-116400000D03*
D10*
G36*
X95899504Y-111926204D02*
X95923773Y-111929804D01*
X95947571Y-111935765D01*
X95970671Y-111944030D01*
X95992849Y-111954520D01*
X96013893Y-111967133D01*
X96033598Y-111981747D01*
X96051777Y-111998223D01*
X96068253Y-112016402D01*
X96082867Y-112036107D01*
X96095480Y-112057151D01*
X96105970Y-112079329D01*
X96114235Y-112102429D01*
X96120196Y-112126227D01*
X96123796Y-112150496D01*
X96125000Y-112175000D01*
X96125000Y-113425000D01*
X96123796Y-113449504D01*
X96120196Y-113473773D01*
X96114235Y-113497571D01*
X96105970Y-113520671D01*
X96095480Y-113542849D01*
X96082867Y-113563893D01*
X96068253Y-113583598D01*
X96051777Y-113601777D01*
X96033598Y-113618253D01*
X96013893Y-113632867D01*
X95992849Y-113645480D01*
X95970671Y-113655970D01*
X95947571Y-113664235D01*
X95923773Y-113670196D01*
X95899504Y-113673796D01*
X95875000Y-113675000D01*
X95125000Y-113675000D01*
X95100496Y-113673796D01*
X95076227Y-113670196D01*
X95052429Y-113664235D01*
X95029329Y-113655970D01*
X95007151Y-113645480D01*
X94986107Y-113632867D01*
X94966402Y-113618253D01*
X94948223Y-113601777D01*
X94931747Y-113583598D01*
X94917133Y-113563893D01*
X94904520Y-113542849D01*
X94894030Y-113520671D01*
X94885765Y-113497571D01*
X94879804Y-113473773D01*
X94876204Y-113449504D01*
X94875000Y-113425000D01*
X94875000Y-112175000D01*
X94876204Y-112150496D01*
X94879804Y-112126227D01*
X94885765Y-112102429D01*
X94894030Y-112079329D01*
X94904520Y-112057151D01*
X94917133Y-112036107D01*
X94931747Y-112016402D01*
X94948223Y-111998223D01*
X94966402Y-111981747D01*
X94986107Y-111967133D01*
X95007151Y-111954520D01*
X95029329Y-111944030D01*
X95052429Y-111935765D01*
X95076227Y-111929804D01*
X95100496Y-111926204D01*
X95125000Y-111925000D01*
X95875000Y-111925000D01*
X95899504Y-111926204D01*
X95899504Y-111926204D01*
G37*
D20*
X95500000Y-112800000D03*
D10*
G36*
X98699504Y-111926204D02*
X98723773Y-111929804D01*
X98747571Y-111935765D01*
X98770671Y-111944030D01*
X98792849Y-111954520D01*
X98813893Y-111967133D01*
X98833598Y-111981747D01*
X98851777Y-111998223D01*
X98868253Y-112016402D01*
X98882867Y-112036107D01*
X98895480Y-112057151D01*
X98905970Y-112079329D01*
X98914235Y-112102429D01*
X98920196Y-112126227D01*
X98923796Y-112150496D01*
X98925000Y-112175000D01*
X98925000Y-113425000D01*
X98923796Y-113449504D01*
X98920196Y-113473773D01*
X98914235Y-113497571D01*
X98905970Y-113520671D01*
X98895480Y-113542849D01*
X98882867Y-113563893D01*
X98868253Y-113583598D01*
X98851777Y-113601777D01*
X98833598Y-113618253D01*
X98813893Y-113632867D01*
X98792849Y-113645480D01*
X98770671Y-113655970D01*
X98747571Y-113664235D01*
X98723773Y-113670196D01*
X98699504Y-113673796D01*
X98675000Y-113675000D01*
X97925000Y-113675000D01*
X97900496Y-113673796D01*
X97876227Y-113670196D01*
X97852429Y-113664235D01*
X97829329Y-113655970D01*
X97807151Y-113645480D01*
X97786107Y-113632867D01*
X97766402Y-113618253D01*
X97748223Y-113601777D01*
X97731747Y-113583598D01*
X97717133Y-113563893D01*
X97704520Y-113542849D01*
X97694030Y-113520671D01*
X97685765Y-113497571D01*
X97679804Y-113473773D01*
X97676204Y-113449504D01*
X97675000Y-113425000D01*
X97675000Y-112175000D01*
X97676204Y-112150496D01*
X97679804Y-112126227D01*
X97685765Y-112102429D01*
X97694030Y-112079329D01*
X97704520Y-112057151D01*
X97717133Y-112036107D01*
X97731747Y-112016402D01*
X97748223Y-111998223D01*
X97766402Y-111981747D01*
X97786107Y-111967133D01*
X97807151Y-111954520D01*
X97829329Y-111944030D01*
X97852429Y-111935765D01*
X97876227Y-111929804D01*
X97900496Y-111926204D01*
X97925000Y-111925000D01*
X98675000Y-111925000D01*
X98699504Y-111926204D01*
X98699504Y-111926204D01*
G37*
D20*
X98300000Y-112800000D03*
D10*
G36*
X89699504Y-111926204D02*
X89723773Y-111929804D01*
X89747571Y-111935765D01*
X89770671Y-111944030D01*
X89792849Y-111954520D01*
X89813893Y-111967133D01*
X89833598Y-111981747D01*
X89851777Y-111998223D01*
X89868253Y-112016402D01*
X89882867Y-112036107D01*
X89895480Y-112057151D01*
X89905970Y-112079329D01*
X89914235Y-112102429D01*
X89920196Y-112126227D01*
X89923796Y-112150496D01*
X89925000Y-112175000D01*
X89925000Y-113425000D01*
X89923796Y-113449504D01*
X89920196Y-113473773D01*
X89914235Y-113497571D01*
X89905970Y-113520671D01*
X89895480Y-113542849D01*
X89882867Y-113563893D01*
X89868253Y-113583598D01*
X89851777Y-113601777D01*
X89833598Y-113618253D01*
X89813893Y-113632867D01*
X89792849Y-113645480D01*
X89770671Y-113655970D01*
X89747571Y-113664235D01*
X89723773Y-113670196D01*
X89699504Y-113673796D01*
X89675000Y-113675000D01*
X88925000Y-113675000D01*
X88900496Y-113673796D01*
X88876227Y-113670196D01*
X88852429Y-113664235D01*
X88829329Y-113655970D01*
X88807151Y-113645480D01*
X88786107Y-113632867D01*
X88766402Y-113618253D01*
X88748223Y-113601777D01*
X88731747Y-113583598D01*
X88717133Y-113563893D01*
X88704520Y-113542849D01*
X88694030Y-113520671D01*
X88685765Y-113497571D01*
X88679804Y-113473773D01*
X88676204Y-113449504D01*
X88675000Y-113425000D01*
X88675000Y-112175000D01*
X88676204Y-112150496D01*
X88679804Y-112126227D01*
X88685765Y-112102429D01*
X88694030Y-112079329D01*
X88704520Y-112057151D01*
X88717133Y-112036107D01*
X88731747Y-112016402D01*
X88748223Y-111998223D01*
X88766402Y-111981747D01*
X88786107Y-111967133D01*
X88807151Y-111954520D01*
X88829329Y-111944030D01*
X88852429Y-111935765D01*
X88876227Y-111929804D01*
X88900496Y-111926204D01*
X88925000Y-111925000D01*
X89675000Y-111925000D01*
X89699504Y-111926204D01*
X89699504Y-111926204D01*
G37*
D20*
X89300000Y-112800000D03*
D10*
G36*
X92499504Y-111926204D02*
X92523773Y-111929804D01*
X92547571Y-111935765D01*
X92570671Y-111944030D01*
X92592849Y-111954520D01*
X92613893Y-111967133D01*
X92633598Y-111981747D01*
X92651777Y-111998223D01*
X92668253Y-112016402D01*
X92682867Y-112036107D01*
X92695480Y-112057151D01*
X92705970Y-112079329D01*
X92714235Y-112102429D01*
X92720196Y-112126227D01*
X92723796Y-112150496D01*
X92725000Y-112175000D01*
X92725000Y-113425000D01*
X92723796Y-113449504D01*
X92720196Y-113473773D01*
X92714235Y-113497571D01*
X92705970Y-113520671D01*
X92695480Y-113542849D01*
X92682867Y-113563893D01*
X92668253Y-113583598D01*
X92651777Y-113601777D01*
X92633598Y-113618253D01*
X92613893Y-113632867D01*
X92592849Y-113645480D01*
X92570671Y-113655970D01*
X92547571Y-113664235D01*
X92523773Y-113670196D01*
X92499504Y-113673796D01*
X92475000Y-113675000D01*
X91725000Y-113675000D01*
X91700496Y-113673796D01*
X91676227Y-113670196D01*
X91652429Y-113664235D01*
X91629329Y-113655970D01*
X91607151Y-113645480D01*
X91586107Y-113632867D01*
X91566402Y-113618253D01*
X91548223Y-113601777D01*
X91531747Y-113583598D01*
X91517133Y-113563893D01*
X91504520Y-113542849D01*
X91494030Y-113520671D01*
X91485765Y-113497571D01*
X91479804Y-113473773D01*
X91476204Y-113449504D01*
X91475000Y-113425000D01*
X91475000Y-112175000D01*
X91476204Y-112150496D01*
X91479804Y-112126227D01*
X91485765Y-112102429D01*
X91494030Y-112079329D01*
X91504520Y-112057151D01*
X91517133Y-112036107D01*
X91531747Y-112016402D01*
X91548223Y-111998223D01*
X91566402Y-111981747D01*
X91586107Y-111967133D01*
X91607151Y-111954520D01*
X91629329Y-111944030D01*
X91652429Y-111935765D01*
X91676227Y-111929804D01*
X91700496Y-111926204D01*
X91725000Y-111925000D01*
X92475000Y-111925000D01*
X92499504Y-111926204D01*
X92499504Y-111926204D01*
G37*
D20*
X92100000Y-112800000D03*
D10*
G36*
X98699504Y-115526204D02*
X98723773Y-115529804D01*
X98747571Y-115535765D01*
X98770671Y-115544030D01*
X98792849Y-115554520D01*
X98813893Y-115567133D01*
X98833598Y-115581747D01*
X98851777Y-115598223D01*
X98868253Y-115616402D01*
X98882867Y-115636107D01*
X98895480Y-115657151D01*
X98905970Y-115679329D01*
X98914235Y-115702429D01*
X98920196Y-115726227D01*
X98923796Y-115750496D01*
X98925000Y-115775000D01*
X98925000Y-117025000D01*
X98923796Y-117049504D01*
X98920196Y-117073773D01*
X98914235Y-117097571D01*
X98905970Y-117120671D01*
X98895480Y-117142849D01*
X98882867Y-117163893D01*
X98868253Y-117183598D01*
X98851777Y-117201777D01*
X98833598Y-117218253D01*
X98813893Y-117232867D01*
X98792849Y-117245480D01*
X98770671Y-117255970D01*
X98747571Y-117264235D01*
X98723773Y-117270196D01*
X98699504Y-117273796D01*
X98675000Y-117275000D01*
X97925000Y-117275000D01*
X97900496Y-117273796D01*
X97876227Y-117270196D01*
X97852429Y-117264235D01*
X97829329Y-117255970D01*
X97807151Y-117245480D01*
X97786107Y-117232867D01*
X97766402Y-117218253D01*
X97748223Y-117201777D01*
X97731747Y-117183598D01*
X97717133Y-117163893D01*
X97704520Y-117142849D01*
X97694030Y-117120671D01*
X97685765Y-117097571D01*
X97679804Y-117073773D01*
X97676204Y-117049504D01*
X97675000Y-117025000D01*
X97675000Y-115775000D01*
X97676204Y-115750496D01*
X97679804Y-115726227D01*
X97685765Y-115702429D01*
X97694030Y-115679329D01*
X97704520Y-115657151D01*
X97717133Y-115636107D01*
X97731747Y-115616402D01*
X97748223Y-115598223D01*
X97766402Y-115581747D01*
X97786107Y-115567133D01*
X97807151Y-115554520D01*
X97829329Y-115544030D01*
X97852429Y-115535765D01*
X97876227Y-115529804D01*
X97900496Y-115526204D01*
X97925000Y-115525000D01*
X98675000Y-115525000D01*
X98699504Y-115526204D01*
X98699504Y-115526204D01*
G37*
D20*
X98300000Y-116400000D03*
D10*
G36*
X95899504Y-115526204D02*
X95923773Y-115529804D01*
X95947571Y-115535765D01*
X95970671Y-115544030D01*
X95992849Y-115554520D01*
X96013893Y-115567133D01*
X96033598Y-115581747D01*
X96051777Y-115598223D01*
X96068253Y-115616402D01*
X96082867Y-115636107D01*
X96095480Y-115657151D01*
X96105970Y-115679329D01*
X96114235Y-115702429D01*
X96120196Y-115726227D01*
X96123796Y-115750496D01*
X96125000Y-115775000D01*
X96125000Y-117025000D01*
X96123796Y-117049504D01*
X96120196Y-117073773D01*
X96114235Y-117097571D01*
X96105970Y-117120671D01*
X96095480Y-117142849D01*
X96082867Y-117163893D01*
X96068253Y-117183598D01*
X96051777Y-117201777D01*
X96033598Y-117218253D01*
X96013893Y-117232867D01*
X95992849Y-117245480D01*
X95970671Y-117255970D01*
X95947571Y-117264235D01*
X95923773Y-117270196D01*
X95899504Y-117273796D01*
X95875000Y-117275000D01*
X95125000Y-117275000D01*
X95100496Y-117273796D01*
X95076227Y-117270196D01*
X95052429Y-117264235D01*
X95029329Y-117255970D01*
X95007151Y-117245480D01*
X94986107Y-117232867D01*
X94966402Y-117218253D01*
X94948223Y-117201777D01*
X94931747Y-117183598D01*
X94917133Y-117163893D01*
X94904520Y-117142849D01*
X94894030Y-117120671D01*
X94885765Y-117097571D01*
X94879804Y-117073773D01*
X94876204Y-117049504D01*
X94875000Y-117025000D01*
X94875000Y-115775000D01*
X94876204Y-115750496D01*
X94879804Y-115726227D01*
X94885765Y-115702429D01*
X94894030Y-115679329D01*
X94904520Y-115657151D01*
X94917133Y-115636107D01*
X94931747Y-115616402D01*
X94948223Y-115598223D01*
X94966402Y-115581747D01*
X94986107Y-115567133D01*
X95007151Y-115554520D01*
X95029329Y-115544030D01*
X95052429Y-115535765D01*
X95076227Y-115529804D01*
X95100496Y-115526204D01*
X95125000Y-115525000D01*
X95875000Y-115525000D01*
X95899504Y-115526204D01*
X95899504Y-115526204D01*
G37*
D20*
X95500000Y-116400000D03*
D10*
G36*
X92599504Y-97126204D02*
X92623773Y-97129804D01*
X92647571Y-97135765D01*
X92670671Y-97144030D01*
X92692849Y-97154520D01*
X92713893Y-97167133D01*
X92733598Y-97181747D01*
X92751777Y-97198223D01*
X92768253Y-97216402D01*
X92782867Y-97236107D01*
X92795480Y-97257151D01*
X92805970Y-97279329D01*
X92814235Y-97302429D01*
X92820196Y-97326227D01*
X92823796Y-97350496D01*
X92825000Y-97375000D01*
X92825000Y-98625000D01*
X92823796Y-98649504D01*
X92820196Y-98673773D01*
X92814235Y-98697571D01*
X92805970Y-98720671D01*
X92795480Y-98742849D01*
X92782867Y-98763893D01*
X92768253Y-98783598D01*
X92751777Y-98801777D01*
X92733598Y-98818253D01*
X92713893Y-98832867D01*
X92692849Y-98845480D01*
X92670671Y-98855970D01*
X92647571Y-98864235D01*
X92623773Y-98870196D01*
X92599504Y-98873796D01*
X92575000Y-98875000D01*
X91825000Y-98875000D01*
X91800496Y-98873796D01*
X91776227Y-98870196D01*
X91752429Y-98864235D01*
X91729329Y-98855970D01*
X91707151Y-98845480D01*
X91686107Y-98832867D01*
X91666402Y-98818253D01*
X91648223Y-98801777D01*
X91631747Y-98783598D01*
X91617133Y-98763893D01*
X91604520Y-98742849D01*
X91594030Y-98720671D01*
X91585765Y-98697571D01*
X91579804Y-98673773D01*
X91576204Y-98649504D01*
X91575000Y-98625000D01*
X91575000Y-97375000D01*
X91576204Y-97350496D01*
X91579804Y-97326227D01*
X91585765Y-97302429D01*
X91594030Y-97279329D01*
X91604520Y-97257151D01*
X91617133Y-97236107D01*
X91631747Y-97216402D01*
X91648223Y-97198223D01*
X91666402Y-97181747D01*
X91686107Y-97167133D01*
X91707151Y-97154520D01*
X91729329Y-97144030D01*
X91752429Y-97135765D01*
X91776227Y-97129804D01*
X91800496Y-97126204D01*
X91825000Y-97125000D01*
X92575000Y-97125000D01*
X92599504Y-97126204D01*
X92599504Y-97126204D01*
G37*
D20*
X92200000Y-98000000D03*
D10*
G36*
X89799504Y-97126204D02*
X89823773Y-97129804D01*
X89847571Y-97135765D01*
X89870671Y-97144030D01*
X89892849Y-97154520D01*
X89913893Y-97167133D01*
X89933598Y-97181747D01*
X89951777Y-97198223D01*
X89968253Y-97216402D01*
X89982867Y-97236107D01*
X89995480Y-97257151D01*
X90005970Y-97279329D01*
X90014235Y-97302429D01*
X90020196Y-97326227D01*
X90023796Y-97350496D01*
X90025000Y-97375000D01*
X90025000Y-98625000D01*
X90023796Y-98649504D01*
X90020196Y-98673773D01*
X90014235Y-98697571D01*
X90005970Y-98720671D01*
X89995480Y-98742849D01*
X89982867Y-98763893D01*
X89968253Y-98783598D01*
X89951777Y-98801777D01*
X89933598Y-98818253D01*
X89913893Y-98832867D01*
X89892849Y-98845480D01*
X89870671Y-98855970D01*
X89847571Y-98864235D01*
X89823773Y-98870196D01*
X89799504Y-98873796D01*
X89775000Y-98875000D01*
X89025000Y-98875000D01*
X89000496Y-98873796D01*
X88976227Y-98870196D01*
X88952429Y-98864235D01*
X88929329Y-98855970D01*
X88907151Y-98845480D01*
X88886107Y-98832867D01*
X88866402Y-98818253D01*
X88848223Y-98801777D01*
X88831747Y-98783598D01*
X88817133Y-98763893D01*
X88804520Y-98742849D01*
X88794030Y-98720671D01*
X88785765Y-98697571D01*
X88779804Y-98673773D01*
X88776204Y-98649504D01*
X88775000Y-98625000D01*
X88775000Y-97375000D01*
X88776204Y-97350496D01*
X88779804Y-97326227D01*
X88785765Y-97302429D01*
X88794030Y-97279329D01*
X88804520Y-97257151D01*
X88817133Y-97236107D01*
X88831747Y-97216402D01*
X88848223Y-97198223D01*
X88866402Y-97181747D01*
X88886107Y-97167133D01*
X88907151Y-97154520D01*
X88929329Y-97144030D01*
X88952429Y-97135765D01*
X88976227Y-97129804D01*
X89000496Y-97126204D01*
X89025000Y-97125000D01*
X89775000Y-97125000D01*
X89799504Y-97126204D01*
X89799504Y-97126204D01*
G37*
D20*
X89400000Y-98000000D03*
D10*
G36*
X89799504Y-93426204D02*
X89823773Y-93429804D01*
X89847571Y-93435765D01*
X89870671Y-93444030D01*
X89892849Y-93454520D01*
X89913893Y-93467133D01*
X89933598Y-93481747D01*
X89951777Y-93498223D01*
X89968253Y-93516402D01*
X89982867Y-93536107D01*
X89995480Y-93557151D01*
X90005970Y-93579329D01*
X90014235Y-93602429D01*
X90020196Y-93626227D01*
X90023796Y-93650496D01*
X90025000Y-93675000D01*
X90025000Y-94925000D01*
X90023796Y-94949504D01*
X90020196Y-94973773D01*
X90014235Y-94997571D01*
X90005970Y-95020671D01*
X89995480Y-95042849D01*
X89982867Y-95063893D01*
X89968253Y-95083598D01*
X89951777Y-95101777D01*
X89933598Y-95118253D01*
X89913893Y-95132867D01*
X89892849Y-95145480D01*
X89870671Y-95155970D01*
X89847571Y-95164235D01*
X89823773Y-95170196D01*
X89799504Y-95173796D01*
X89775000Y-95175000D01*
X89025000Y-95175000D01*
X89000496Y-95173796D01*
X88976227Y-95170196D01*
X88952429Y-95164235D01*
X88929329Y-95155970D01*
X88907151Y-95145480D01*
X88886107Y-95132867D01*
X88866402Y-95118253D01*
X88848223Y-95101777D01*
X88831747Y-95083598D01*
X88817133Y-95063893D01*
X88804520Y-95042849D01*
X88794030Y-95020671D01*
X88785765Y-94997571D01*
X88779804Y-94973773D01*
X88776204Y-94949504D01*
X88775000Y-94925000D01*
X88775000Y-93675000D01*
X88776204Y-93650496D01*
X88779804Y-93626227D01*
X88785765Y-93602429D01*
X88794030Y-93579329D01*
X88804520Y-93557151D01*
X88817133Y-93536107D01*
X88831747Y-93516402D01*
X88848223Y-93498223D01*
X88866402Y-93481747D01*
X88886107Y-93467133D01*
X88907151Y-93454520D01*
X88929329Y-93444030D01*
X88952429Y-93435765D01*
X88976227Y-93429804D01*
X89000496Y-93426204D01*
X89025000Y-93425000D01*
X89775000Y-93425000D01*
X89799504Y-93426204D01*
X89799504Y-93426204D01*
G37*
D20*
X89400000Y-94300000D03*
D10*
G36*
X92599504Y-93426204D02*
X92623773Y-93429804D01*
X92647571Y-93435765D01*
X92670671Y-93444030D01*
X92692849Y-93454520D01*
X92713893Y-93467133D01*
X92733598Y-93481747D01*
X92751777Y-93498223D01*
X92768253Y-93516402D01*
X92782867Y-93536107D01*
X92795480Y-93557151D01*
X92805970Y-93579329D01*
X92814235Y-93602429D01*
X92820196Y-93626227D01*
X92823796Y-93650496D01*
X92825000Y-93675000D01*
X92825000Y-94925000D01*
X92823796Y-94949504D01*
X92820196Y-94973773D01*
X92814235Y-94997571D01*
X92805970Y-95020671D01*
X92795480Y-95042849D01*
X92782867Y-95063893D01*
X92768253Y-95083598D01*
X92751777Y-95101777D01*
X92733598Y-95118253D01*
X92713893Y-95132867D01*
X92692849Y-95145480D01*
X92670671Y-95155970D01*
X92647571Y-95164235D01*
X92623773Y-95170196D01*
X92599504Y-95173796D01*
X92575000Y-95175000D01*
X91825000Y-95175000D01*
X91800496Y-95173796D01*
X91776227Y-95170196D01*
X91752429Y-95164235D01*
X91729329Y-95155970D01*
X91707151Y-95145480D01*
X91686107Y-95132867D01*
X91666402Y-95118253D01*
X91648223Y-95101777D01*
X91631747Y-95083598D01*
X91617133Y-95063893D01*
X91604520Y-95042849D01*
X91594030Y-95020671D01*
X91585765Y-94997571D01*
X91579804Y-94973773D01*
X91576204Y-94949504D01*
X91575000Y-94925000D01*
X91575000Y-93675000D01*
X91576204Y-93650496D01*
X91579804Y-93626227D01*
X91585765Y-93602429D01*
X91594030Y-93579329D01*
X91604520Y-93557151D01*
X91617133Y-93536107D01*
X91631747Y-93516402D01*
X91648223Y-93498223D01*
X91666402Y-93481747D01*
X91686107Y-93467133D01*
X91707151Y-93454520D01*
X91729329Y-93444030D01*
X91752429Y-93435765D01*
X91776227Y-93429804D01*
X91800496Y-93426204D01*
X91825000Y-93425000D01*
X92575000Y-93425000D01*
X92599504Y-93426204D01*
X92599504Y-93426204D01*
G37*
D20*
X92200000Y-94300000D03*
D10*
G36*
X102299504Y-100826204D02*
X102323773Y-100829804D01*
X102347571Y-100835765D01*
X102370671Y-100844030D01*
X102392849Y-100854520D01*
X102413893Y-100867133D01*
X102433598Y-100881747D01*
X102451777Y-100898223D01*
X102468253Y-100916402D01*
X102482867Y-100936107D01*
X102495480Y-100957151D01*
X102505970Y-100979329D01*
X102514235Y-101002429D01*
X102520196Y-101026227D01*
X102523796Y-101050496D01*
X102525000Y-101075000D01*
X102525000Y-102325000D01*
X102523796Y-102349504D01*
X102520196Y-102373773D01*
X102514235Y-102397571D01*
X102505970Y-102420671D01*
X102495480Y-102442849D01*
X102482867Y-102463893D01*
X102468253Y-102483598D01*
X102451777Y-102501777D01*
X102433598Y-102518253D01*
X102413893Y-102532867D01*
X102392849Y-102545480D01*
X102370671Y-102555970D01*
X102347571Y-102564235D01*
X102323773Y-102570196D01*
X102299504Y-102573796D01*
X102275000Y-102575000D01*
X101525000Y-102575000D01*
X101500496Y-102573796D01*
X101476227Y-102570196D01*
X101452429Y-102564235D01*
X101429329Y-102555970D01*
X101407151Y-102545480D01*
X101386107Y-102532867D01*
X101366402Y-102518253D01*
X101348223Y-102501777D01*
X101331747Y-102483598D01*
X101317133Y-102463893D01*
X101304520Y-102442849D01*
X101294030Y-102420671D01*
X101285765Y-102397571D01*
X101279804Y-102373773D01*
X101276204Y-102349504D01*
X101275000Y-102325000D01*
X101275000Y-101075000D01*
X101276204Y-101050496D01*
X101279804Y-101026227D01*
X101285765Y-101002429D01*
X101294030Y-100979329D01*
X101304520Y-100957151D01*
X101317133Y-100936107D01*
X101331747Y-100916402D01*
X101348223Y-100898223D01*
X101366402Y-100881747D01*
X101386107Y-100867133D01*
X101407151Y-100854520D01*
X101429329Y-100844030D01*
X101452429Y-100835765D01*
X101476227Y-100829804D01*
X101500496Y-100826204D01*
X101525000Y-100825000D01*
X102275000Y-100825000D01*
X102299504Y-100826204D01*
X102299504Y-100826204D01*
G37*
D20*
X101900000Y-101700000D03*
D10*
G36*
X99499504Y-100826204D02*
X99523773Y-100829804D01*
X99547571Y-100835765D01*
X99570671Y-100844030D01*
X99592849Y-100854520D01*
X99613893Y-100867133D01*
X99633598Y-100881747D01*
X99651777Y-100898223D01*
X99668253Y-100916402D01*
X99682867Y-100936107D01*
X99695480Y-100957151D01*
X99705970Y-100979329D01*
X99714235Y-101002429D01*
X99720196Y-101026227D01*
X99723796Y-101050496D01*
X99725000Y-101075000D01*
X99725000Y-102325000D01*
X99723796Y-102349504D01*
X99720196Y-102373773D01*
X99714235Y-102397571D01*
X99705970Y-102420671D01*
X99695480Y-102442849D01*
X99682867Y-102463893D01*
X99668253Y-102483598D01*
X99651777Y-102501777D01*
X99633598Y-102518253D01*
X99613893Y-102532867D01*
X99592849Y-102545480D01*
X99570671Y-102555970D01*
X99547571Y-102564235D01*
X99523773Y-102570196D01*
X99499504Y-102573796D01*
X99475000Y-102575000D01*
X98725000Y-102575000D01*
X98700496Y-102573796D01*
X98676227Y-102570196D01*
X98652429Y-102564235D01*
X98629329Y-102555970D01*
X98607151Y-102545480D01*
X98586107Y-102532867D01*
X98566402Y-102518253D01*
X98548223Y-102501777D01*
X98531747Y-102483598D01*
X98517133Y-102463893D01*
X98504520Y-102442849D01*
X98494030Y-102420671D01*
X98485765Y-102397571D01*
X98479804Y-102373773D01*
X98476204Y-102349504D01*
X98475000Y-102325000D01*
X98475000Y-101075000D01*
X98476204Y-101050496D01*
X98479804Y-101026227D01*
X98485765Y-101002429D01*
X98494030Y-100979329D01*
X98504520Y-100957151D01*
X98517133Y-100936107D01*
X98531747Y-100916402D01*
X98548223Y-100898223D01*
X98566402Y-100881747D01*
X98586107Y-100867133D01*
X98607151Y-100854520D01*
X98629329Y-100844030D01*
X98652429Y-100835765D01*
X98676227Y-100829804D01*
X98700496Y-100826204D01*
X98725000Y-100825000D01*
X99475000Y-100825000D01*
X99499504Y-100826204D01*
X99499504Y-100826204D01*
G37*
D20*
X99100000Y-101700000D03*
D10*
G36*
X99499504Y-97126204D02*
X99523773Y-97129804D01*
X99547571Y-97135765D01*
X99570671Y-97144030D01*
X99592849Y-97154520D01*
X99613893Y-97167133D01*
X99633598Y-97181747D01*
X99651777Y-97198223D01*
X99668253Y-97216402D01*
X99682867Y-97236107D01*
X99695480Y-97257151D01*
X99705970Y-97279329D01*
X99714235Y-97302429D01*
X99720196Y-97326227D01*
X99723796Y-97350496D01*
X99725000Y-97375000D01*
X99725000Y-98625000D01*
X99723796Y-98649504D01*
X99720196Y-98673773D01*
X99714235Y-98697571D01*
X99705970Y-98720671D01*
X99695480Y-98742849D01*
X99682867Y-98763893D01*
X99668253Y-98783598D01*
X99651777Y-98801777D01*
X99633598Y-98818253D01*
X99613893Y-98832867D01*
X99592849Y-98845480D01*
X99570671Y-98855970D01*
X99547571Y-98864235D01*
X99523773Y-98870196D01*
X99499504Y-98873796D01*
X99475000Y-98875000D01*
X98725000Y-98875000D01*
X98700496Y-98873796D01*
X98676227Y-98870196D01*
X98652429Y-98864235D01*
X98629329Y-98855970D01*
X98607151Y-98845480D01*
X98586107Y-98832867D01*
X98566402Y-98818253D01*
X98548223Y-98801777D01*
X98531747Y-98783598D01*
X98517133Y-98763893D01*
X98504520Y-98742849D01*
X98494030Y-98720671D01*
X98485765Y-98697571D01*
X98479804Y-98673773D01*
X98476204Y-98649504D01*
X98475000Y-98625000D01*
X98475000Y-97375000D01*
X98476204Y-97350496D01*
X98479804Y-97326227D01*
X98485765Y-97302429D01*
X98494030Y-97279329D01*
X98504520Y-97257151D01*
X98517133Y-97236107D01*
X98531747Y-97216402D01*
X98548223Y-97198223D01*
X98566402Y-97181747D01*
X98586107Y-97167133D01*
X98607151Y-97154520D01*
X98629329Y-97144030D01*
X98652429Y-97135765D01*
X98676227Y-97129804D01*
X98700496Y-97126204D01*
X98725000Y-97125000D01*
X99475000Y-97125000D01*
X99499504Y-97126204D01*
X99499504Y-97126204D01*
G37*
D20*
X99100000Y-98000000D03*
D10*
G36*
X102299504Y-97126204D02*
X102323773Y-97129804D01*
X102347571Y-97135765D01*
X102370671Y-97144030D01*
X102392849Y-97154520D01*
X102413893Y-97167133D01*
X102433598Y-97181747D01*
X102451777Y-97198223D01*
X102468253Y-97216402D01*
X102482867Y-97236107D01*
X102495480Y-97257151D01*
X102505970Y-97279329D01*
X102514235Y-97302429D01*
X102520196Y-97326227D01*
X102523796Y-97350496D01*
X102525000Y-97375000D01*
X102525000Y-98625000D01*
X102523796Y-98649504D01*
X102520196Y-98673773D01*
X102514235Y-98697571D01*
X102505970Y-98720671D01*
X102495480Y-98742849D01*
X102482867Y-98763893D01*
X102468253Y-98783598D01*
X102451777Y-98801777D01*
X102433598Y-98818253D01*
X102413893Y-98832867D01*
X102392849Y-98845480D01*
X102370671Y-98855970D01*
X102347571Y-98864235D01*
X102323773Y-98870196D01*
X102299504Y-98873796D01*
X102275000Y-98875000D01*
X101525000Y-98875000D01*
X101500496Y-98873796D01*
X101476227Y-98870196D01*
X101452429Y-98864235D01*
X101429329Y-98855970D01*
X101407151Y-98845480D01*
X101386107Y-98832867D01*
X101366402Y-98818253D01*
X101348223Y-98801777D01*
X101331747Y-98783598D01*
X101317133Y-98763893D01*
X101304520Y-98742849D01*
X101294030Y-98720671D01*
X101285765Y-98697571D01*
X101279804Y-98673773D01*
X101276204Y-98649504D01*
X101275000Y-98625000D01*
X101275000Y-97375000D01*
X101276204Y-97350496D01*
X101279804Y-97326227D01*
X101285765Y-97302429D01*
X101294030Y-97279329D01*
X101304520Y-97257151D01*
X101317133Y-97236107D01*
X101331747Y-97216402D01*
X101348223Y-97198223D01*
X101366402Y-97181747D01*
X101386107Y-97167133D01*
X101407151Y-97154520D01*
X101429329Y-97144030D01*
X101452429Y-97135765D01*
X101476227Y-97129804D01*
X101500496Y-97126204D01*
X101525000Y-97125000D01*
X102275000Y-97125000D01*
X102299504Y-97126204D01*
X102299504Y-97126204D01*
G37*
D20*
X101900000Y-98000000D03*
D21*
X92750000Y-101550000D03*
X92100000Y-101550000D03*
X91450000Y-101550000D03*
X90800000Y-101550000D03*
X90150000Y-101550000D03*
X89500000Y-101550000D03*
X88850000Y-101550000D03*
X88850000Y-107450000D03*
X89500000Y-107450000D03*
X90150000Y-107450000D03*
X90800000Y-107450000D03*
X91450000Y-107450000D03*
X92100000Y-107450000D03*
X92750000Y-107450000D03*
D22*
X129300000Y-95525000D03*
X87100000Y-99200000D03*
X87100000Y-101700000D03*
X96100000Y-114500000D03*
X99802158Y-113996763D03*
X93600000Y-112000000D03*
X93862347Y-108675000D03*
X95250000Y-101550000D03*
X92300000Y-109200000D03*
X97600000Y-109900000D03*
X95700000Y-103400000D03*
X100637347Y-103437347D03*
X104325000Y-103500000D03*
X89100000Y-103100000D03*
X147600000Y-133600000D03*
X143600000Y-131100000D03*
X97900000Y-95500000D03*
X97100000Y-100900000D03*
X94000000Y-104100000D03*
X91400000Y-104300000D03*
X126400000Y-103750000D03*
X130300000Y-104475000D03*
X111900000Y-105800000D03*
X109700000Y-105800000D03*
X104325000Y-105798639D03*
X94587347Y-107412653D03*
X121400000Y-109900000D03*
X99000000Y-110025000D03*
X97500000Y-108500000D03*
X94862653Y-105637347D03*
X92937347Y-105762653D03*
X117000000Y-110025000D03*
X94600000Y-111200000D03*
X96225000Y-111200000D03*
X139600000Y-111600000D03*
X145100000Y-106100000D03*
X90500000Y-115100000D03*
X93813192Y-114187887D03*
D23*
X90150000Y-101550000D02*
X90150000Y-103650000D01*
X88850000Y-104950000D02*
X88850000Y-107450000D01*
X90150000Y-103650000D02*
X88850000Y-104950000D01*
X88850000Y-108425000D02*
X88850000Y-107450000D01*
X88850000Y-111375000D02*
X88850000Y-108425000D01*
X89300000Y-111825000D02*
X88850000Y-111375000D01*
X89300000Y-112800000D02*
X89300000Y-111825000D01*
X89300000Y-112800000D02*
X91100000Y-114600000D01*
X91100000Y-114600000D02*
X93200000Y-114600000D01*
X93200000Y-114600000D02*
X93800000Y-115200000D01*
X93800000Y-118500000D02*
X92300000Y-120000000D01*
X93800000Y-115200000D02*
X93800000Y-118500000D01*
X129300000Y-95525000D02*
X108725000Y-95525000D01*
X108725000Y-95525000D02*
X107000000Y-93800000D01*
X107000000Y-93800000D02*
X96500000Y-93800000D01*
X96500000Y-93800000D02*
X94000000Y-91300000D01*
X94000000Y-91300000D02*
X88100000Y-91300000D01*
X88100000Y-91300000D02*
X87100000Y-92300000D01*
X87100000Y-92300000D02*
X87100000Y-99200000D01*
X87100000Y-103200000D02*
X88850000Y-104950000D01*
X87100000Y-101700000D02*
X87100000Y-103200000D01*
X90600010Y-99200010D02*
X90700010Y-99200010D01*
X89400000Y-98000000D02*
X90600010Y-99200010D01*
X91049990Y-99549990D02*
X91949990Y-99549990D01*
X90700010Y-99200010D02*
X91049990Y-99549990D01*
X92750000Y-100350000D02*
X92750000Y-101550000D01*
X91949990Y-99549990D02*
X92750000Y-100350000D01*
X99802158Y-113996763D02*
X99802158Y-113202158D01*
X99400000Y-112800000D02*
X98300000Y-112800000D01*
X99802158Y-113202158D02*
X99400000Y-112800000D01*
X92100000Y-112800000D02*
X92800000Y-112800000D01*
X92800000Y-112800000D02*
X93600000Y-112000000D01*
X93862347Y-108675000D02*
X93188639Y-108675000D01*
X93188639Y-108675000D02*
X93027009Y-108513370D01*
X93027009Y-107727009D02*
X92750000Y-107450000D01*
X93027009Y-108513370D02*
X93027009Y-107727009D01*
X93500000Y-112800000D02*
X92100000Y-112800000D01*
X93500000Y-112801693D02*
X93500000Y-112800000D01*
X94538193Y-113839886D02*
X93500000Y-112801693D01*
X94538193Y-114238193D02*
X94538193Y-113839886D01*
X96100000Y-114500000D02*
X94800000Y-114500000D01*
X94800000Y-114500000D02*
X94538193Y-114238193D01*
X94550000Y-101550000D02*
X92750000Y-101550000D01*
X95250000Y-101550000D02*
X94550000Y-101550000D01*
X92100000Y-107450000D02*
X92100000Y-109000000D01*
X92100000Y-109000000D02*
X92300000Y-109200000D01*
X108210001Y-109299999D02*
X110210000Y-107300000D01*
X97600000Y-109900000D02*
X98200001Y-109299999D01*
X98200001Y-109299999D02*
X108210001Y-109299999D01*
X95700000Y-103400000D02*
X100600000Y-103400000D01*
X100600000Y-103400000D02*
X100637347Y-103437347D01*
X108500000Y-103500000D02*
X112300000Y-107300000D01*
X104325000Y-103500000D02*
X108500000Y-103500000D01*
X88850000Y-102850000D02*
X88850000Y-101550000D01*
X89100000Y-103100000D02*
X88850000Y-102850000D01*
X115290000Y-106660000D02*
X115290000Y-107300000D01*
X116750000Y-105200000D02*
X115290000Y-106660000D01*
X136300000Y-105200000D02*
X116750000Y-105200000D01*
X142800000Y-111700000D02*
X136300000Y-105200000D01*
X142800000Y-127500000D02*
X142800000Y-111700000D01*
X142800000Y-127500000D02*
X142800000Y-128800000D01*
X142800000Y-128800000D02*
X147600000Y-133600000D01*
X117830000Y-108431370D02*
X117830000Y-107300000D01*
X120098630Y-110700000D02*
X117830000Y-108431370D01*
X139900000Y-110700000D02*
X120098630Y-110700000D01*
X141100000Y-111900000D02*
X139900000Y-110700000D01*
X141100000Y-128300000D02*
X141100000Y-111900000D01*
X141100000Y-128300000D02*
X141100000Y-128600000D01*
X141100000Y-128600000D02*
X143600000Y-131100000D01*
X144400000Y-129100000D02*
X151450000Y-136150000D01*
X144400000Y-106500000D02*
X144400000Y-129100000D01*
X132700000Y-94800000D02*
X144400000Y-106500000D01*
X109050000Y-94800000D02*
X132700000Y-94800000D01*
X107670000Y-92060000D02*
X107670000Y-93420000D01*
X107670000Y-93420000D02*
X109050000Y-94800000D01*
X98700000Y-94700000D02*
X97900000Y-95500000D01*
X97100000Y-100900000D02*
X94000000Y-104000000D01*
X94000000Y-104000000D02*
X94000000Y-104100000D01*
X89500000Y-106200000D02*
X89500000Y-107450000D01*
X91400000Y-104300000D02*
X89500000Y-106200000D01*
X109400000Y-103500000D02*
X110700000Y-104800000D01*
X110700000Y-104800000D02*
X110900000Y-105000000D01*
X110900000Y-105000000D02*
X114800000Y-105000000D01*
X114800000Y-105000000D02*
X116050000Y-103750000D01*
X116050000Y-103750000D02*
X126400000Y-103750000D01*
X108924990Y-103024990D02*
X109400000Y-103500000D01*
X106024990Y-103024990D02*
X108924990Y-103024990D01*
X104600000Y-101600000D02*
X106024990Y-103024990D01*
X104600000Y-98200000D02*
X104600000Y-101600000D01*
X98700000Y-94700000D02*
X101100000Y-94700000D01*
X101100000Y-94700000D02*
X104600000Y-98200000D01*
X132620000Y-107300000D02*
X132620000Y-106845000D01*
X130300000Y-104475000D02*
X116525000Y-104475000D01*
X116525000Y-104475000D02*
X115200000Y-105800000D01*
X115200000Y-105800000D02*
X111900000Y-105800000D01*
X109700000Y-105800000D02*
X104326361Y-105800000D01*
X104326361Y-105800000D02*
X104325000Y-105798639D01*
X94587347Y-109187347D02*
X94587347Y-107412653D01*
X94587347Y-110112653D02*
X94587347Y-109187347D01*
X94200000Y-110500000D02*
X94587347Y-110112653D01*
X92526998Y-110500000D02*
X94200000Y-110500000D01*
X91450000Y-107450000D02*
X91450000Y-109423002D01*
X91450000Y-109423002D02*
X92526998Y-110500000D01*
X100050000Y-90650000D02*
X100050000Y-92060000D01*
X136400000Y-90100000D02*
X100600000Y-90100000D01*
X100600000Y-90100000D02*
X100050000Y-90650000D01*
X151000000Y-100600000D02*
X142600000Y-100600000D01*
X142600000Y-100600000D02*
X137350000Y-95350000D01*
X137350000Y-91050000D02*
X136400000Y-90100000D01*
X137350000Y-95350000D02*
X137350000Y-91050000D01*
X117000000Y-110025000D02*
X99000000Y-110025000D01*
X97500000Y-108500000D02*
X94862653Y-105862653D01*
X94862653Y-105862653D02*
X94862653Y-105637347D01*
X90800000Y-106475000D02*
X90800000Y-107450000D01*
X91512347Y-105762653D02*
X90800000Y-106475000D01*
X92937347Y-105762653D02*
X91512347Y-105762653D01*
X133010000Y-109900000D02*
X135610000Y-107300000D01*
X121400000Y-109900000D02*
X133010000Y-109900000D01*
X96225000Y-111200000D02*
X119400000Y-111200000D01*
X119400000Y-111200000D02*
X120400000Y-112200000D01*
X120400000Y-112200000D02*
X138700000Y-112200000D01*
X90150000Y-108850000D02*
X90150000Y-107450000D01*
X90150000Y-109800000D02*
X90150000Y-108850000D01*
X91550000Y-111200000D02*
X90150000Y-109800000D01*
X94600000Y-111200000D02*
X91550000Y-111200000D01*
X138700000Y-112200000D02*
X139000000Y-112200000D01*
X139000000Y-112200000D02*
X139600000Y-111600000D01*
X145100000Y-106100000D02*
X145100000Y-105350000D01*
X135610000Y-95860000D02*
X135610000Y-92060000D01*
X145100000Y-105350000D02*
X135610000Y-95860000D01*
X154250000Y-104350000D02*
X156700000Y-104350000D01*
X151000000Y-103200000D02*
X153100000Y-103200000D01*
X153100000Y-103200000D02*
X154250000Y-104350000D01*
X101900000Y-101700000D02*
X101900000Y-103200000D01*
X100050000Y-105050000D02*
X100050000Y-107300000D01*
X101900000Y-103200000D02*
X100050000Y-105050000D01*
X102140000Y-107300000D02*
X102939999Y-108099999D01*
X102625000Y-98000000D02*
X103600000Y-98975000D01*
X101900000Y-98000000D02*
X102625000Y-98000000D01*
X103600000Y-105840000D02*
X102140000Y-107300000D01*
X103600000Y-98975000D02*
X103600000Y-105840000D01*
X82000000Y-100600000D02*
X82000000Y-99000000D01*
X92100000Y-101050000D02*
X92100000Y-101550000D01*
X99400000Y-114600000D02*
X97300000Y-114600000D01*
X99800000Y-115000000D02*
X99400000Y-114600000D01*
X99800000Y-118000000D02*
X99800000Y-115000000D01*
X97600000Y-118200000D02*
X99600000Y-118200000D01*
X96600000Y-121900000D02*
X97000000Y-121500000D01*
X91349990Y-117150010D02*
X91349990Y-118150010D01*
X92100000Y-116400000D02*
X91349990Y-117150010D01*
X91349990Y-118150010D02*
X90700000Y-118800000D01*
X97300000Y-114600000D02*
X95500000Y-112800000D01*
X99600000Y-118200000D02*
X99800000Y-118000000D01*
X97000000Y-121500000D02*
X97000000Y-118800000D01*
X90700000Y-118800000D02*
X90700000Y-121500000D01*
X97000000Y-118800000D02*
X97600000Y-118200000D01*
X90700000Y-121500000D02*
X91100000Y-121900000D01*
X91100000Y-121900000D02*
X96600000Y-121900000D01*
X95500000Y-112800000D02*
X95500000Y-107300000D01*
X92100000Y-103900000D02*
X92100000Y-101550000D01*
X95500000Y-107300000D02*
X92100000Y-103900000D01*
X91450000Y-101550000D02*
X92100000Y-101550000D01*
X92100000Y-100400000D02*
X92100000Y-101550000D01*
X91700000Y-100000000D02*
X92100000Y-100400000D01*
X84350000Y-100000000D02*
X91700000Y-100000000D01*
X83790000Y-100560000D02*
X82000000Y-100560000D01*
X84350000Y-100000000D02*
X83790000Y-100560000D01*
X89300000Y-116400000D02*
X89300000Y-116300000D01*
X89300000Y-116300000D02*
X90500000Y-115100000D01*
X95500000Y-115874695D02*
X95500000Y-116400000D01*
X93813192Y-114187887D02*
X95500000Y-115874695D01*
X86200000Y-109840000D02*
X82000000Y-105640000D01*
X89300000Y-116400000D02*
X86200000Y-113300000D01*
X86200000Y-113300000D02*
X86200000Y-109840000D01*
X87189990Y-100450010D02*
X82000000Y-105640000D01*
X90675010Y-100450010D02*
X87189990Y-100450010D01*
X90800000Y-101550000D02*
X90800000Y-100575000D01*
X90800000Y-100575000D02*
X90675010Y-100450010D01*
X95400000Y-98000000D02*
X92200000Y-98000000D01*
X99100000Y-101700000D02*
X95400000Y-98000000D01*
X99100000Y-98000000D02*
X95400000Y-94300000D01*
X95400000Y-94300000D02*
X92200000Y-94300000D01*
D24*
G36*
X159460027Y-89368803D02*
X159791110Y-89519338D01*
X160066639Y-89756749D01*
X160264456Y-90061944D01*
X160375700Y-90433917D01*
X160390001Y-90626362D01*
X160390000Y-146549420D01*
X160331197Y-146960027D01*
X160180661Y-147291112D01*
X159943251Y-147566639D01*
X159638056Y-147764456D01*
X159266083Y-147875700D01*
X159073652Y-147890000D01*
X79150580Y-147890000D01*
X78739973Y-147831197D01*
X78408888Y-147680661D01*
X78133361Y-147443251D01*
X77935544Y-147138056D01*
X77824300Y-146766083D01*
X77810000Y-146573652D01*
X77810000Y-143436627D01*
X78265000Y-143436627D01*
X78265000Y-144763373D01*
X78772723Y-145989126D01*
X79710874Y-146927277D01*
X80936627Y-147435000D01*
X82263373Y-147435000D01*
X83489126Y-146927277D01*
X84427277Y-145989126D01*
X84935000Y-144763373D01*
X84935000Y-143436627D01*
X153265000Y-143436627D01*
X153265000Y-144763373D01*
X153772723Y-145989126D01*
X154710874Y-146927277D01*
X155936627Y-147435000D01*
X157263373Y-147435000D01*
X158489126Y-146927277D01*
X159427277Y-145989126D01*
X159935000Y-144763373D01*
X159935000Y-143436627D01*
X159427277Y-142210874D01*
X158489126Y-141272723D01*
X157263373Y-140765000D01*
X155936627Y-140765000D01*
X154710874Y-141272723D01*
X153772723Y-142210874D01*
X153265000Y-143436627D01*
X84935000Y-143436627D01*
X84427277Y-142210874D01*
X83489126Y-141272723D01*
X82263373Y-140765000D01*
X80936627Y-140765000D01*
X79710874Y-141272723D01*
X78772723Y-142210874D01*
X78265000Y-143436627D01*
X77810000Y-143436627D01*
X77810000Y-139630213D01*
X150649392Y-139630213D01*
X150718857Y-139872397D01*
X151242302Y-140059144D01*
X151797368Y-140031362D01*
X152181143Y-139872397D01*
X152250608Y-139630213D01*
X151450000Y-138829605D01*
X150649392Y-139630213D01*
X77810000Y-139630213D01*
X77810000Y-138442302D01*
X150040856Y-138442302D01*
X150068638Y-138997368D01*
X150227603Y-139381143D01*
X150469787Y-139450608D01*
X151270395Y-138650000D01*
X151629605Y-138650000D01*
X152430213Y-139450608D01*
X152672397Y-139381143D01*
X152859144Y-138857698D01*
X152831362Y-138302632D01*
X152672397Y-137918857D01*
X152430213Y-137849392D01*
X151629605Y-138650000D01*
X151270395Y-138650000D01*
X150469787Y-137849392D01*
X150227603Y-137918857D01*
X150040856Y-138442302D01*
X77810000Y-138442302D01*
X77810000Y-127916736D01*
X78165000Y-127916736D01*
X78165000Y-129283264D01*
X78687947Y-130545771D01*
X79654229Y-131512053D01*
X80916736Y-132035000D01*
X82283264Y-132035000D01*
X83545771Y-131512053D01*
X84512053Y-130545771D01*
X85035000Y-129283264D01*
X85035000Y-127916736D01*
X84512053Y-126654229D01*
X83545771Y-125687947D01*
X82283264Y-125165000D01*
X80916736Y-125165000D01*
X79654229Y-125687947D01*
X78687947Y-126654229D01*
X78165000Y-127916736D01*
X77810000Y-127916736D01*
X77810000Y-112436627D01*
X78265000Y-112436627D01*
X78265000Y-113763373D01*
X78772723Y-114989126D01*
X79710874Y-115927277D01*
X80936627Y-116435000D01*
X82263373Y-116435000D01*
X83489126Y-115927277D01*
X84427277Y-114989126D01*
X84935000Y-113763373D01*
X84935000Y-112436627D01*
X84427277Y-111210874D01*
X83489126Y-110272723D01*
X82263373Y-109765000D01*
X80936627Y-109765000D01*
X79710874Y-110272723D01*
X78772723Y-111210874D01*
X78265000Y-112436627D01*
X77810000Y-112436627D01*
X77810000Y-99060000D01*
X79852560Y-99060000D01*
X79852560Y-102060000D01*
X79901843Y-102307765D01*
X80042191Y-102517809D01*
X80252235Y-102658157D01*
X80500000Y-102707440D01*
X83500000Y-102707440D01*
X83747765Y-102658157D01*
X83957809Y-102517809D01*
X84098157Y-102307765D01*
X84147440Y-102060000D01*
X84147440Y-101235210D01*
X84337929Y-101107929D01*
X84380331Y-101044470D01*
X84664802Y-100760000D01*
X85805198Y-100760000D01*
X82874059Y-103691140D01*
X82424678Y-103505000D01*
X81575322Y-103505000D01*
X80790620Y-103830034D01*
X80190034Y-104430620D01*
X79865000Y-105215322D01*
X79865000Y-106064678D01*
X80190034Y-106849380D01*
X80790620Y-107449966D01*
X81575322Y-107775000D01*
X82424678Y-107775000D01*
X82874059Y-107588860D01*
X85440001Y-110154803D01*
X85440000Y-113225153D01*
X85425112Y-113300000D01*
X85440000Y-113374847D01*
X85440000Y-113374851D01*
X85484096Y-113596536D01*
X85652071Y-113847929D01*
X85715530Y-113890331D01*
X88027560Y-116202362D01*
X88027560Y-117025000D01*
X88095874Y-117368435D01*
X88290414Y-117659586D01*
X88581565Y-117854126D01*
X88925000Y-117922440D01*
X89675000Y-117922440D01*
X90018435Y-117854126D01*
X90309586Y-117659586D01*
X90504126Y-117368435D01*
X90572440Y-117025000D01*
X90572440Y-116135000D01*
X90705874Y-116135000D01*
X90827560Y-116084596D01*
X90827560Y-116585043D01*
X90802061Y-116602081D01*
X90634086Y-116853474D01*
X90589990Y-117075159D01*
X90589990Y-117075163D01*
X90575102Y-117150010D01*
X90589990Y-117224858D01*
X90589991Y-117835208D01*
X90215530Y-118209669D01*
X90152071Y-118252071D01*
X89984096Y-118503464D01*
X89940000Y-118725149D01*
X89940000Y-118725153D01*
X89925112Y-118800000D01*
X89940000Y-118874847D01*
X89940001Y-121425148D01*
X89925112Y-121500000D01*
X89940001Y-121574851D01*
X89940001Y-121574852D01*
X89984097Y-121796537D01*
X90152072Y-122047929D01*
X90215527Y-122090329D01*
X90509671Y-122384472D01*
X90552071Y-122447929D01*
X90803463Y-122615904D01*
X91025148Y-122660000D01*
X91025152Y-122660000D01*
X91099999Y-122674888D01*
X91174846Y-122660000D01*
X96525153Y-122660000D01*
X96600000Y-122674888D01*
X96674847Y-122660000D01*
X96674852Y-122660000D01*
X96896537Y-122615904D01*
X97147929Y-122447929D01*
X97190331Y-122384471D01*
X97484473Y-122090329D01*
X97547929Y-122047929D01*
X97715904Y-121796537D01*
X97760000Y-121574852D01*
X97760000Y-121574848D01*
X97774888Y-121500001D01*
X97760000Y-121425154D01*
X97760000Y-119114801D01*
X97914802Y-118960000D01*
X99525153Y-118960000D01*
X99600000Y-118974888D01*
X99674847Y-118960000D01*
X99674852Y-118960000D01*
X99896537Y-118915904D01*
X100147929Y-118747929D01*
X100190331Y-118684470D01*
X100284470Y-118590331D01*
X100347929Y-118547929D01*
X100515904Y-118296537D01*
X100560000Y-118074852D01*
X100560000Y-118074848D01*
X100574888Y-118000000D01*
X100560000Y-117925152D01*
X100560000Y-115074846D01*
X100574888Y-114999999D01*
X100560000Y-114925152D01*
X100560000Y-114925148D01*
X100515904Y-114703463D01*
X100347929Y-114452071D01*
X100284472Y-114409671D01*
X99990331Y-114115529D01*
X99947929Y-114052071D01*
X99696537Y-113884096D01*
X99538712Y-113852703D01*
X99560000Y-113801310D01*
X99560000Y-113085750D01*
X99401250Y-112927000D01*
X98427000Y-112927000D01*
X98427000Y-112947000D01*
X98173000Y-112947000D01*
X98173000Y-112927000D01*
X97198750Y-112927000D01*
X97040000Y-113085750D01*
X97040000Y-113265198D01*
X96772440Y-112997638D01*
X96772440Y-112175000D01*
X96757466Y-112099721D01*
X96811280Y-112077431D01*
X96928711Y-111960000D01*
X97040000Y-111960000D01*
X97040000Y-112514250D01*
X97198750Y-112673000D01*
X98173000Y-112673000D01*
X98173000Y-112653000D01*
X98427000Y-112653000D01*
X98427000Y-112673000D01*
X99401250Y-112673000D01*
X99560000Y-112514250D01*
X99560000Y-111960000D01*
X119085199Y-111960000D01*
X119809671Y-112684473D01*
X119852071Y-112747929D01*
X120103463Y-112915904D01*
X120325148Y-112960000D01*
X120325152Y-112960000D01*
X120400000Y-112974888D01*
X120474848Y-112960000D01*
X138925153Y-112960000D01*
X139000000Y-112974888D01*
X139074847Y-112960000D01*
X139074852Y-112960000D01*
X139296537Y-112915904D01*
X139547929Y-112747929D01*
X139590331Y-112684470D01*
X139639801Y-112635000D01*
X139805874Y-112635000D01*
X140186280Y-112477431D01*
X140340001Y-112323710D01*
X140340000Y-128225148D01*
X140340000Y-128525153D01*
X140325112Y-128600000D01*
X140340000Y-128674847D01*
X140340000Y-128674852D01*
X140384096Y-128896537D01*
X140552071Y-129147929D01*
X140615529Y-129190330D01*
X142565000Y-131139802D01*
X142565000Y-131305874D01*
X142722569Y-131686280D01*
X143013720Y-131977431D01*
X143394126Y-132135000D01*
X143805874Y-132135000D01*
X144186280Y-131977431D01*
X144477431Y-131686280D01*
X144516693Y-131591494D01*
X146565000Y-133639802D01*
X146565000Y-133805874D01*
X146722569Y-134186280D01*
X147013720Y-134477431D01*
X147394126Y-134635000D01*
X147805874Y-134635000D01*
X148186280Y-134477431D01*
X148444455Y-134219256D01*
X150065980Y-135840782D01*
X150053000Y-135872119D01*
X150053000Y-136427881D01*
X150265680Y-136941337D01*
X150658663Y-137334320D01*
X150801363Y-137393428D01*
X150718857Y-137427603D01*
X150649392Y-137669787D01*
X151450000Y-138470395D01*
X152250608Y-137669787D01*
X152181143Y-137427603D01*
X152092490Y-137395975D01*
X152241337Y-137334320D01*
X152634320Y-136941337D01*
X152847000Y-136427881D01*
X152847000Y-135872119D01*
X152634320Y-135358663D01*
X152241337Y-134965680D01*
X152082771Y-134900000D01*
X152241337Y-134834320D01*
X152634320Y-134441337D01*
X152847000Y-133927881D01*
X152847000Y-133372119D01*
X152634320Y-132858663D01*
X152241337Y-132465680D01*
X152082771Y-132400000D01*
X152241337Y-132334320D01*
X152634320Y-131941337D01*
X152847000Y-131427881D01*
X152847000Y-130872119D01*
X152634320Y-130358663D01*
X152241337Y-129965680D01*
X151727881Y-129753000D01*
X151172119Y-129753000D01*
X150658663Y-129965680D01*
X150265680Y-130358663D01*
X150053000Y-130872119D01*
X150053000Y-131427881D01*
X150265680Y-131941337D01*
X150658663Y-132334320D01*
X150817229Y-132400000D01*
X150658663Y-132465680D01*
X150265680Y-132858663D01*
X150053000Y-133372119D01*
X150053000Y-133678198D01*
X145160000Y-128785199D01*
X145160000Y-127916736D01*
X153165000Y-127916736D01*
X153165000Y-129283264D01*
X153687947Y-130545771D01*
X154654229Y-131512053D01*
X155916736Y-132035000D01*
X157283264Y-132035000D01*
X158545771Y-131512053D01*
X159512053Y-130545771D01*
X160035000Y-129283264D01*
X160035000Y-127916736D01*
X159512053Y-126654229D01*
X158545771Y-125687947D01*
X157283264Y-125165000D01*
X155916736Y-125165000D01*
X154654229Y-125687947D01*
X153687947Y-126654229D01*
X153165000Y-127916736D01*
X145160000Y-127916736D01*
X145160000Y-112436627D01*
X153265000Y-112436627D01*
X153265000Y-113763373D01*
X153772723Y-114989126D01*
X154710874Y-115927277D01*
X155936627Y-116435000D01*
X157263373Y-116435000D01*
X158489126Y-115927277D01*
X159427277Y-114989126D01*
X159935000Y-113763373D01*
X159935000Y-112436627D01*
X159427277Y-111210874D01*
X158489126Y-110272723D01*
X157263373Y-109765000D01*
X155936627Y-109765000D01*
X154710874Y-110272723D01*
X153772723Y-111210874D01*
X153265000Y-112436627D01*
X145160000Y-112436627D01*
X145160000Y-107135000D01*
X145305874Y-107135000D01*
X145686280Y-106977431D01*
X145977431Y-106686280D01*
X146135000Y-106305874D01*
X146135000Y-105894126D01*
X145977431Y-105513720D01*
X145864738Y-105401027D01*
X145874888Y-105350000D01*
X145860000Y-105275152D01*
X145860000Y-105275148D01*
X145815904Y-105053463D01*
X145815904Y-105053462D01*
X145690329Y-104865527D01*
X145647929Y-104802071D01*
X145584473Y-104759671D01*
X136370000Y-95545199D01*
X136370000Y-93278043D01*
X136590001Y-93131044D01*
X136590000Y-95275153D01*
X136575112Y-95350000D01*
X136590000Y-95424847D01*
X136590000Y-95424851D01*
X136634096Y-95646536D01*
X136802071Y-95897929D01*
X136865530Y-95940331D01*
X142009671Y-101084473D01*
X142052071Y-101147929D01*
X142303463Y-101315904D01*
X142525148Y-101360000D01*
X142525152Y-101360000D01*
X142599999Y-101374888D01*
X142674846Y-101360000D01*
X149802700Y-101360000D01*
X149815680Y-101391337D01*
X150208663Y-101784320D01*
X150367229Y-101850000D01*
X150208663Y-101915680D01*
X149815680Y-102308663D01*
X149603000Y-102822119D01*
X149603000Y-103377881D01*
X149815680Y-103891337D01*
X150208663Y-104284320D01*
X150367229Y-104350000D01*
X150208663Y-104415680D01*
X149815680Y-104808663D01*
X149603000Y-105322119D01*
X149603000Y-105877881D01*
X149815680Y-106391337D01*
X150208663Y-106784320D01*
X150722119Y-106997000D01*
X151277881Y-106997000D01*
X151791337Y-106784320D01*
X152184320Y-106391337D01*
X152397000Y-105877881D01*
X152397000Y-105322119D01*
X152184320Y-104808663D01*
X151791337Y-104415680D01*
X151632771Y-104350000D01*
X151791337Y-104284320D01*
X152115657Y-103960000D01*
X152785199Y-103960000D01*
X153659671Y-104834473D01*
X153702071Y-104897929D01*
X153953463Y-105065904D01*
X154175148Y-105110000D01*
X154175152Y-105110000D01*
X154250000Y-105124888D01*
X154324848Y-105110000D01*
X155052560Y-105110000D01*
X155052560Y-105200000D01*
X155101843Y-105447765D01*
X155242191Y-105657809D01*
X155452235Y-105798157D01*
X155700000Y-105847440D01*
X157700000Y-105847440D01*
X157947765Y-105798157D01*
X158157809Y-105657809D01*
X158298157Y-105447765D01*
X158347440Y-105200000D01*
X158347440Y-103500000D01*
X158298157Y-103252235D01*
X158157809Y-103042191D01*
X157947765Y-102901843D01*
X157876218Y-102887612D01*
X158038664Y-102742045D01*
X158289553Y-102219260D01*
X158291476Y-102206890D01*
X158170155Y-101977000D01*
X156827000Y-101977000D01*
X156827000Y-101997000D01*
X156573000Y-101997000D01*
X156573000Y-101977000D01*
X155229845Y-101977000D01*
X155108524Y-102206890D01*
X155110447Y-102219260D01*
X155361336Y-102742045D01*
X155523782Y-102887612D01*
X155452235Y-102901843D01*
X155242191Y-103042191D01*
X155101843Y-103252235D01*
X155052560Y-103500000D01*
X155052560Y-103590000D01*
X154564802Y-103590000D01*
X153690331Y-102715530D01*
X153647929Y-102652071D01*
X153396537Y-102484096D01*
X153174852Y-102440000D01*
X153174847Y-102440000D01*
X153100000Y-102425112D01*
X153025153Y-102440000D01*
X152238721Y-102440000D01*
X152184320Y-102308663D01*
X151791337Y-101915680D01*
X151632771Y-101850000D01*
X151791337Y-101784320D01*
X152082547Y-101493110D01*
X155108524Y-101493110D01*
X155229845Y-101723000D01*
X156573000Y-101723000D01*
X156573000Y-100522769D01*
X156827000Y-100522769D01*
X156827000Y-101723000D01*
X158170155Y-101723000D01*
X158291476Y-101493110D01*
X158289553Y-101480740D01*
X158038664Y-100957955D01*
X157606812Y-100570976D01*
X157059742Y-100378716D01*
X156827000Y-100522769D01*
X156573000Y-100522769D01*
X156340258Y-100378716D01*
X155793188Y-100570976D01*
X155361336Y-100957955D01*
X155110447Y-101480740D01*
X155108524Y-101493110D01*
X152082547Y-101493110D01*
X152184320Y-101391337D01*
X152397000Y-100877881D01*
X152397000Y-100322119D01*
X152184320Y-99808663D01*
X151791337Y-99415680D01*
X151277881Y-99203000D01*
X150722119Y-99203000D01*
X150208663Y-99415680D01*
X149815680Y-99808663D01*
X149802700Y-99840000D01*
X142914802Y-99840000D01*
X138110000Y-95035199D01*
X138110000Y-92416736D01*
X153165000Y-92416736D01*
X153165000Y-93783264D01*
X153687947Y-95045771D01*
X154654229Y-96012053D01*
X155916736Y-96535000D01*
X157283264Y-96535000D01*
X158545771Y-96012053D01*
X159512053Y-95045771D01*
X160035000Y-93783264D01*
X160035000Y-92416736D01*
X159512053Y-91154229D01*
X158545771Y-90187947D01*
X157283264Y-89665000D01*
X155916736Y-89665000D01*
X154654229Y-90187947D01*
X153687947Y-91154229D01*
X153165000Y-92416736D01*
X138110000Y-92416736D01*
X138110000Y-91124847D01*
X138124888Y-91050000D01*
X138110000Y-90975153D01*
X138110000Y-90975148D01*
X138065904Y-90753463D01*
X137897929Y-90502071D01*
X137834473Y-90459671D01*
X136990331Y-89615530D01*
X136947929Y-89552071D01*
X136696537Y-89384096D01*
X136474852Y-89340000D01*
X136474847Y-89340000D01*
X136400000Y-89325112D01*
X136325153Y-89340000D01*
X100674846Y-89340000D01*
X100599999Y-89325112D01*
X100525152Y-89340000D01*
X100525148Y-89340000D01*
X100303463Y-89384096D01*
X100299503Y-89386742D01*
X100115526Y-89509671D01*
X100115524Y-89509673D01*
X100052071Y-89552071D01*
X100009672Y-89615525D01*
X99565529Y-90059670D01*
X99502071Y-90102071D01*
X99334096Y-90353464D01*
X99290000Y-90575149D01*
X99290000Y-90575153D01*
X99275112Y-90650000D01*
X99290000Y-90724847D01*
X99290000Y-90841956D01*
X99015423Y-91025423D01*
X98698260Y-91500091D01*
X98586887Y-92060000D01*
X98698260Y-92619909D01*
X98978956Y-93040000D01*
X96814802Y-93040000D01*
X94590331Y-90815530D01*
X94547929Y-90752071D01*
X94296537Y-90584096D01*
X94074852Y-90540000D01*
X94074847Y-90540000D01*
X94000000Y-90525112D01*
X93925153Y-90540000D01*
X88174848Y-90540000D01*
X88100000Y-90525112D01*
X88025152Y-90540000D01*
X88025148Y-90540000D01*
X87803463Y-90584096D01*
X87552071Y-90752071D01*
X87509671Y-90815527D01*
X86615530Y-91709669D01*
X86552071Y-91752071D01*
X86384096Y-92003464D01*
X86340000Y-92225149D01*
X86340000Y-92225153D01*
X86325112Y-92300000D01*
X86340000Y-92374847D01*
X86340001Y-98496288D01*
X86222569Y-98613720D01*
X86065000Y-98994126D01*
X86065000Y-99240000D01*
X84424848Y-99240000D01*
X84350000Y-99225112D01*
X84275152Y-99240000D01*
X84275148Y-99240000D01*
X84147440Y-99265403D01*
X84147440Y-99060000D01*
X84098157Y-98812235D01*
X83957809Y-98602191D01*
X83747765Y-98461843D01*
X83500000Y-98412560D01*
X82488797Y-98412560D01*
X82296537Y-98284096D01*
X82000000Y-98225111D01*
X81703464Y-98284096D01*
X81511204Y-98412560D01*
X80500000Y-98412560D01*
X80252235Y-98461843D01*
X80042191Y-98602191D01*
X79901843Y-98812235D01*
X79852560Y-99060000D01*
X77810000Y-99060000D01*
X77810000Y-92416736D01*
X78165000Y-92416736D01*
X78165000Y-93783264D01*
X78687947Y-95045771D01*
X79654229Y-96012053D01*
X80916736Y-96535000D01*
X82283264Y-96535000D01*
X83545771Y-96012053D01*
X84512053Y-95045771D01*
X85035000Y-93783264D01*
X85035000Y-92416736D01*
X84512053Y-91154229D01*
X83545771Y-90187947D01*
X82283264Y-89665000D01*
X80916736Y-89665000D01*
X79654229Y-90187947D01*
X78687947Y-91154229D01*
X78165000Y-92416736D01*
X77810000Y-92416736D01*
X77810000Y-90650580D01*
X77868803Y-90239973D01*
X78019338Y-89908890D01*
X78256749Y-89633361D01*
X78561944Y-89435544D01*
X78933917Y-89324300D01*
X79126348Y-89310000D01*
X159049420Y-89310000D01*
X159460027Y-89368803D01*
X159460027Y-89368803D01*
G37*
X159460027Y-89368803D02*
X159791110Y-89519338D01*
X160066639Y-89756749D01*
X160264456Y-90061944D01*
X160375700Y-90433917D01*
X160390001Y-90626362D01*
X160390000Y-146549420D01*
X160331197Y-146960027D01*
X160180661Y-147291112D01*
X159943251Y-147566639D01*
X159638056Y-147764456D01*
X159266083Y-147875700D01*
X159073652Y-147890000D01*
X79150580Y-147890000D01*
X78739973Y-147831197D01*
X78408888Y-147680661D01*
X78133361Y-147443251D01*
X77935544Y-147138056D01*
X77824300Y-146766083D01*
X77810000Y-146573652D01*
X77810000Y-143436627D01*
X78265000Y-143436627D01*
X78265000Y-144763373D01*
X78772723Y-145989126D01*
X79710874Y-146927277D01*
X80936627Y-147435000D01*
X82263373Y-147435000D01*
X83489126Y-146927277D01*
X84427277Y-145989126D01*
X84935000Y-144763373D01*
X84935000Y-143436627D01*
X153265000Y-143436627D01*
X153265000Y-144763373D01*
X153772723Y-145989126D01*
X154710874Y-146927277D01*
X155936627Y-147435000D01*
X157263373Y-147435000D01*
X158489126Y-146927277D01*
X159427277Y-145989126D01*
X159935000Y-144763373D01*
X159935000Y-143436627D01*
X159427277Y-142210874D01*
X158489126Y-141272723D01*
X157263373Y-140765000D01*
X155936627Y-140765000D01*
X154710874Y-141272723D01*
X153772723Y-142210874D01*
X153265000Y-143436627D01*
X84935000Y-143436627D01*
X84427277Y-142210874D01*
X83489126Y-141272723D01*
X82263373Y-140765000D01*
X80936627Y-140765000D01*
X79710874Y-141272723D01*
X78772723Y-142210874D01*
X78265000Y-143436627D01*
X77810000Y-143436627D01*
X77810000Y-139630213D01*
X150649392Y-139630213D01*
X150718857Y-139872397D01*
X151242302Y-140059144D01*
X151797368Y-140031362D01*
X152181143Y-139872397D01*
X152250608Y-139630213D01*
X151450000Y-138829605D01*
X150649392Y-139630213D01*
X77810000Y-139630213D01*
X77810000Y-138442302D01*
X150040856Y-138442302D01*
X150068638Y-138997368D01*
X150227603Y-139381143D01*
X150469787Y-139450608D01*
X151270395Y-138650000D01*
X151629605Y-138650000D01*
X152430213Y-139450608D01*
X152672397Y-139381143D01*
X152859144Y-138857698D01*
X152831362Y-138302632D01*
X152672397Y-137918857D01*
X152430213Y-137849392D01*
X151629605Y-138650000D01*
X151270395Y-138650000D01*
X150469787Y-137849392D01*
X150227603Y-137918857D01*
X150040856Y-138442302D01*
X77810000Y-138442302D01*
X77810000Y-127916736D01*
X78165000Y-127916736D01*
X78165000Y-129283264D01*
X78687947Y-130545771D01*
X79654229Y-131512053D01*
X80916736Y-132035000D01*
X82283264Y-132035000D01*
X83545771Y-131512053D01*
X84512053Y-130545771D01*
X85035000Y-129283264D01*
X85035000Y-127916736D01*
X84512053Y-126654229D01*
X83545771Y-125687947D01*
X82283264Y-125165000D01*
X80916736Y-125165000D01*
X79654229Y-125687947D01*
X78687947Y-126654229D01*
X78165000Y-127916736D01*
X77810000Y-127916736D01*
X77810000Y-112436627D01*
X78265000Y-112436627D01*
X78265000Y-113763373D01*
X78772723Y-114989126D01*
X79710874Y-115927277D01*
X80936627Y-116435000D01*
X82263373Y-116435000D01*
X83489126Y-115927277D01*
X84427277Y-114989126D01*
X84935000Y-113763373D01*
X84935000Y-112436627D01*
X84427277Y-111210874D01*
X83489126Y-110272723D01*
X82263373Y-109765000D01*
X80936627Y-109765000D01*
X79710874Y-110272723D01*
X78772723Y-111210874D01*
X78265000Y-112436627D01*
X77810000Y-112436627D01*
X77810000Y-99060000D01*
X79852560Y-99060000D01*
X79852560Y-102060000D01*
X79901843Y-102307765D01*
X80042191Y-102517809D01*
X80252235Y-102658157D01*
X80500000Y-102707440D01*
X83500000Y-102707440D01*
X83747765Y-102658157D01*
X83957809Y-102517809D01*
X84098157Y-102307765D01*
X84147440Y-102060000D01*
X84147440Y-101235210D01*
X84337929Y-101107929D01*
X84380331Y-101044470D01*
X84664802Y-100760000D01*
X85805198Y-100760000D01*
X82874059Y-103691140D01*
X82424678Y-103505000D01*
X81575322Y-103505000D01*
X80790620Y-103830034D01*
X80190034Y-104430620D01*
X79865000Y-105215322D01*
X79865000Y-106064678D01*
X80190034Y-106849380D01*
X80790620Y-107449966D01*
X81575322Y-107775000D01*
X82424678Y-107775000D01*
X82874059Y-107588860D01*
X85440001Y-110154803D01*
X85440000Y-113225153D01*
X85425112Y-113300000D01*
X85440000Y-113374847D01*
X85440000Y-113374851D01*
X85484096Y-113596536D01*
X85652071Y-113847929D01*
X85715530Y-113890331D01*
X88027560Y-116202362D01*
X88027560Y-117025000D01*
X88095874Y-117368435D01*
X88290414Y-117659586D01*
X88581565Y-117854126D01*
X88925000Y-117922440D01*
X89675000Y-117922440D01*
X90018435Y-117854126D01*
X90309586Y-117659586D01*
X90504126Y-117368435D01*
X90572440Y-117025000D01*
X90572440Y-116135000D01*
X90705874Y-116135000D01*
X90827560Y-116084596D01*
X90827560Y-116585043D01*
X90802061Y-116602081D01*
X90634086Y-116853474D01*
X90589990Y-117075159D01*
X90589990Y-117075163D01*
X90575102Y-117150010D01*
X90589990Y-117224858D01*
X90589991Y-117835208D01*
X90215530Y-118209669D01*
X90152071Y-118252071D01*
X89984096Y-118503464D01*
X89940000Y-118725149D01*
X89940000Y-118725153D01*
X89925112Y-118800000D01*
X89940000Y-118874847D01*
X89940001Y-121425148D01*
X89925112Y-121500000D01*
X89940001Y-121574851D01*
X89940001Y-121574852D01*
X89984097Y-121796537D01*
X90152072Y-122047929D01*
X90215527Y-122090329D01*
X90509671Y-122384472D01*
X90552071Y-122447929D01*
X90803463Y-122615904D01*
X91025148Y-122660000D01*
X91025152Y-122660000D01*
X91099999Y-122674888D01*
X91174846Y-122660000D01*
X96525153Y-122660000D01*
X96600000Y-122674888D01*
X96674847Y-122660000D01*
X96674852Y-122660000D01*
X96896537Y-122615904D01*
X97147929Y-122447929D01*
X97190331Y-122384471D01*
X97484473Y-122090329D01*
X97547929Y-122047929D01*
X97715904Y-121796537D01*
X97760000Y-121574852D01*
X97760000Y-121574848D01*
X97774888Y-121500001D01*
X97760000Y-121425154D01*
X97760000Y-119114801D01*
X97914802Y-118960000D01*
X99525153Y-118960000D01*
X99600000Y-118974888D01*
X99674847Y-118960000D01*
X99674852Y-118960000D01*
X99896537Y-118915904D01*
X100147929Y-118747929D01*
X100190331Y-118684470D01*
X100284470Y-118590331D01*
X100347929Y-118547929D01*
X100515904Y-118296537D01*
X100560000Y-118074852D01*
X100560000Y-118074848D01*
X100574888Y-118000000D01*
X100560000Y-117925152D01*
X100560000Y-115074846D01*
X100574888Y-114999999D01*
X100560000Y-114925152D01*
X100560000Y-114925148D01*
X100515904Y-114703463D01*
X100347929Y-114452071D01*
X100284472Y-114409671D01*
X99990331Y-114115529D01*
X99947929Y-114052071D01*
X99696537Y-113884096D01*
X99538712Y-113852703D01*
X99560000Y-113801310D01*
X99560000Y-113085750D01*
X99401250Y-112927000D01*
X98427000Y-112927000D01*
X98427000Y-112947000D01*
X98173000Y-112947000D01*
X98173000Y-112927000D01*
X97198750Y-112927000D01*
X97040000Y-113085750D01*
X97040000Y-113265198D01*
X96772440Y-112997638D01*
X96772440Y-112175000D01*
X96757466Y-112099721D01*
X96811280Y-112077431D01*
X96928711Y-111960000D01*
X97040000Y-111960000D01*
X97040000Y-112514250D01*
X97198750Y-112673000D01*
X98173000Y-112673000D01*
X98173000Y-112653000D01*
X98427000Y-112653000D01*
X98427000Y-112673000D01*
X99401250Y-112673000D01*
X99560000Y-112514250D01*
X99560000Y-111960000D01*
X119085199Y-111960000D01*
X119809671Y-112684473D01*
X119852071Y-112747929D01*
X120103463Y-112915904D01*
X120325148Y-112960000D01*
X120325152Y-112960000D01*
X120400000Y-112974888D01*
X120474848Y-112960000D01*
X138925153Y-112960000D01*
X139000000Y-112974888D01*
X139074847Y-112960000D01*
X139074852Y-112960000D01*
X139296537Y-112915904D01*
X139547929Y-112747929D01*
X139590331Y-112684470D01*
X139639801Y-112635000D01*
X139805874Y-112635000D01*
X140186280Y-112477431D01*
X140340001Y-112323710D01*
X140340000Y-128225148D01*
X140340000Y-128525153D01*
X140325112Y-128600000D01*
X140340000Y-128674847D01*
X140340000Y-128674852D01*
X140384096Y-128896537D01*
X140552071Y-129147929D01*
X140615529Y-129190330D01*
X142565000Y-131139802D01*
X142565000Y-131305874D01*
X142722569Y-131686280D01*
X143013720Y-131977431D01*
X143394126Y-132135000D01*
X143805874Y-132135000D01*
X144186280Y-131977431D01*
X144477431Y-131686280D01*
X144516693Y-131591494D01*
X146565000Y-133639802D01*
X146565000Y-133805874D01*
X146722569Y-134186280D01*
X147013720Y-134477431D01*
X147394126Y-134635000D01*
X147805874Y-134635000D01*
X148186280Y-134477431D01*
X148444455Y-134219256D01*
X150065980Y-135840782D01*
X150053000Y-135872119D01*
X150053000Y-136427881D01*
X150265680Y-136941337D01*
X150658663Y-137334320D01*
X150801363Y-137393428D01*
X150718857Y-137427603D01*
X150649392Y-137669787D01*
X151450000Y-138470395D01*
X152250608Y-137669787D01*
X152181143Y-137427603D01*
X152092490Y-137395975D01*
X152241337Y-137334320D01*
X152634320Y-136941337D01*
X152847000Y-136427881D01*
X152847000Y-135872119D01*
X152634320Y-135358663D01*
X152241337Y-134965680D01*
X152082771Y-134900000D01*
X152241337Y-134834320D01*
X152634320Y-134441337D01*
X152847000Y-133927881D01*
X152847000Y-133372119D01*
X152634320Y-132858663D01*
X152241337Y-132465680D01*
X152082771Y-132400000D01*
X152241337Y-132334320D01*
X152634320Y-131941337D01*
X152847000Y-131427881D01*
X152847000Y-130872119D01*
X152634320Y-130358663D01*
X152241337Y-129965680D01*
X151727881Y-129753000D01*
X151172119Y-129753000D01*
X150658663Y-129965680D01*
X150265680Y-130358663D01*
X150053000Y-130872119D01*
X150053000Y-131427881D01*
X150265680Y-131941337D01*
X150658663Y-132334320D01*
X150817229Y-132400000D01*
X150658663Y-132465680D01*
X150265680Y-132858663D01*
X150053000Y-133372119D01*
X150053000Y-133678198D01*
X145160000Y-128785199D01*
X145160000Y-127916736D01*
X153165000Y-127916736D01*
X153165000Y-129283264D01*
X153687947Y-130545771D01*
X154654229Y-131512053D01*
X155916736Y-132035000D01*
X157283264Y-132035000D01*
X158545771Y-131512053D01*
X159512053Y-130545771D01*
X160035000Y-129283264D01*
X160035000Y-127916736D01*
X159512053Y-126654229D01*
X158545771Y-125687947D01*
X157283264Y-125165000D01*
X155916736Y-125165000D01*
X154654229Y-125687947D01*
X153687947Y-126654229D01*
X153165000Y-127916736D01*
X145160000Y-127916736D01*
X145160000Y-112436627D01*
X153265000Y-112436627D01*
X153265000Y-113763373D01*
X153772723Y-114989126D01*
X154710874Y-115927277D01*
X155936627Y-116435000D01*
X157263373Y-116435000D01*
X158489126Y-115927277D01*
X159427277Y-114989126D01*
X159935000Y-113763373D01*
X159935000Y-112436627D01*
X159427277Y-111210874D01*
X158489126Y-110272723D01*
X157263373Y-109765000D01*
X155936627Y-109765000D01*
X154710874Y-110272723D01*
X153772723Y-111210874D01*
X153265000Y-112436627D01*
X145160000Y-112436627D01*
X145160000Y-107135000D01*
X145305874Y-107135000D01*
X145686280Y-106977431D01*
X145977431Y-106686280D01*
X146135000Y-106305874D01*
X146135000Y-105894126D01*
X145977431Y-105513720D01*
X145864738Y-105401027D01*
X145874888Y-105350000D01*
X145860000Y-105275152D01*
X145860000Y-105275148D01*
X145815904Y-105053463D01*
X145815904Y-105053462D01*
X145690329Y-104865527D01*
X145647929Y-104802071D01*
X145584473Y-104759671D01*
X136370000Y-95545199D01*
X136370000Y-93278043D01*
X136590001Y-93131044D01*
X136590000Y-95275153D01*
X136575112Y-95350000D01*
X136590000Y-95424847D01*
X136590000Y-95424851D01*
X136634096Y-95646536D01*
X136802071Y-95897929D01*
X136865530Y-95940331D01*
X142009671Y-101084473D01*
X142052071Y-101147929D01*
X142303463Y-101315904D01*
X142525148Y-101360000D01*
X142525152Y-101360000D01*
X142599999Y-101374888D01*
X142674846Y-101360000D01*
X149802700Y-101360000D01*
X149815680Y-101391337D01*
X150208663Y-101784320D01*
X150367229Y-101850000D01*
X150208663Y-101915680D01*
X149815680Y-102308663D01*
X149603000Y-102822119D01*
X149603000Y-103377881D01*
X149815680Y-103891337D01*
X150208663Y-104284320D01*
X150367229Y-104350000D01*
X150208663Y-104415680D01*
X149815680Y-104808663D01*
X149603000Y-105322119D01*
X149603000Y-105877881D01*
X149815680Y-106391337D01*
X150208663Y-106784320D01*
X150722119Y-106997000D01*
X151277881Y-106997000D01*
X151791337Y-106784320D01*
X152184320Y-106391337D01*
X152397000Y-105877881D01*
X152397000Y-105322119D01*
X152184320Y-104808663D01*
X151791337Y-104415680D01*
X151632771Y-104350000D01*
X151791337Y-104284320D01*
X152115657Y-103960000D01*
X152785199Y-103960000D01*
X153659671Y-104834473D01*
X153702071Y-104897929D01*
X153953463Y-105065904D01*
X154175148Y-105110000D01*
X154175152Y-105110000D01*
X154250000Y-105124888D01*
X154324848Y-105110000D01*
X155052560Y-105110000D01*
X155052560Y-105200000D01*
X155101843Y-105447765D01*
X155242191Y-105657809D01*
X155452235Y-105798157D01*
X155700000Y-105847440D01*
X157700000Y-105847440D01*
X157947765Y-105798157D01*
X158157809Y-105657809D01*
X158298157Y-105447765D01*
X158347440Y-105200000D01*
X158347440Y-103500000D01*
X158298157Y-103252235D01*
X158157809Y-103042191D01*
X157947765Y-102901843D01*
X157876218Y-102887612D01*
X158038664Y-102742045D01*
X158289553Y-102219260D01*
X158291476Y-102206890D01*
X158170155Y-101977000D01*
X156827000Y-101977000D01*
X156827000Y-101997000D01*
X156573000Y-101997000D01*
X156573000Y-101977000D01*
X155229845Y-101977000D01*
X155108524Y-102206890D01*
X155110447Y-102219260D01*
X155361336Y-102742045D01*
X155523782Y-102887612D01*
X155452235Y-102901843D01*
X155242191Y-103042191D01*
X155101843Y-103252235D01*
X155052560Y-103500000D01*
X155052560Y-103590000D01*
X154564802Y-103590000D01*
X153690331Y-102715530D01*
X153647929Y-102652071D01*
X153396537Y-102484096D01*
X153174852Y-102440000D01*
X153174847Y-102440000D01*
X153100000Y-102425112D01*
X153025153Y-102440000D01*
X152238721Y-102440000D01*
X152184320Y-102308663D01*
X151791337Y-101915680D01*
X151632771Y-101850000D01*
X151791337Y-101784320D01*
X152082547Y-101493110D01*
X155108524Y-101493110D01*
X155229845Y-101723000D01*
X156573000Y-101723000D01*
X156573000Y-100522769D01*
X156827000Y-100522769D01*
X156827000Y-101723000D01*
X158170155Y-101723000D01*
X158291476Y-101493110D01*
X158289553Y-101480740D01*
X158038664Y-100957955D01*
X157606812Y-100570976D01*
X157059742Y-100378716D01*
X156827000Y-100522769D01*
X156573000Y-100522769D01*
X156340258Y-100378716D01*
X155793188Y-100570976D01*
X155361336Y-100957955D01*
X155110447Y-101480740D01*
X155108524Y-101493110D01*
X152082547Y-101493110D01*
X152184320Y-101391337D01*
X152397000Y-100877881D01*
X152397000Y-100322119D01*
X152184320Y-99808663D01*
X151791337Y-99415680D01*
X151277881Y-99203000D01*
X150722119Y-99203000D01*
X150208663Y-99415680D01*
X149815680Y-99808663D01*
X149802700Y-99840000D01*
X142914802Y-99840000D01*
X138110000Y-95035199D01*
X138110000Y-92416736D01*
X153165000Y-92416736D01*
X153165000Y-93783264D01*
X153687947Y-95045771D01*
X154654229Y-96012053D01*
X155916736Y-96535000D01*
X157283264Y-96535000D01*
X158545771Y-96012053D01*
X159512053Y-95045771D01*
X160035000Y-93783264D01*
X160035000Y-92416736D01*
X159512053Y-91154229D01*
X158545771Y-90187947D01*
X157283264Y-89665000D01*
X155916736Y-89665000D01*
X154654229Y-90187947D01*
X153687947Y-91154229D01*
X153165000Y-92416736D01*
X138110000Y-92416736D01*
X138110000Y-91124847D01*
X138124888Y-91050000D01*
X138110000Y-90975153D01*
X138110000Y-90975148D01*
X138065904Y-90753463D01*
X137897929Y-90502071D01*
X137834473Y-90459671D01*
X136990331Y-89615530D01*
X136947929Y-89552071D01*
X136696537Y-89384096D01*
X136474852Y-89340000D01*
X136474847Y-89340000D01*
X136400000Y-89325112D01*
X136325153Y-89340000D01*
X100674846Y-89340000D01*
X100599999Y-89325112D01*
X100525152Y-89340000D01*
X100525148Y-89340000D01*
X100303463Y-89384096D01*
X100299503Y-89386742D01*
X100115526Y-89509671D01*
X100115524Y-89509673D01*
X100052071Y-89552071D01*
X100009672Y-89615525D01*
X99565529Y-90059670D01*
X99502071Y-90102071D01*
X99334096Y-90353464D01*
X99290000Y-90575149D01*
X99290000Y-90575153D01*
X99275112Y-90650000D01*
X99290000Y-90724847D01*
X99290000Y-90841956D01*
X99015423Y-91025423D01*
X98698260Y-91500091D01*
X98586887Y-92060000D01*
X98698260Y-92619909D01*
X98978956Y-93040000D01*
X96814802Y-93040000D01*
X94590331Y-90815530D01*
X94547929Y-90752071D01*
X94296537Y-90584096D01*
X94074852Y-90540000D01*
X94074847Y-90540000D01*
X94000000Y-90525112D01*
X93925153Y-90540000D01*
X88174848Y-90540000D01*
X88100000Y-90525112D01*
X88025152Y-90540000D01*
X88025148Y-90540000D01*
X87803463Y-90584096D01*
X87552071Y-90752071D01*
X87509671Y-90815527D01*
X86615530Y-91709669D01*
X86552071Y-91752071D01*
X86384096Y-92003464D01*
X86340000Y-92225149D01*
X86340000Y-92225153D01*
X86325112Y-92300000D01*
X86340000Y-92374847D01*
X86340001Y-98496288D01*
X86222569Y-98613720D01*
X86065000Y-98994126D01*
X86065000Y-99240000D01*
X84424848Y-99240000D01*
X84350000Y-99225112D01*
X84275152Y-99240000D01*
X84275148Y-99240000D01*
X84147440Y-99265403D01*
X84147440Y-99060000D01*
X84098157Y-98812235D01*
X83957809Y-98602191D01*
X83747765Y-98461843D01*
X83500000Y-98412560D01*
X82488797Y-98412560D01*
X82296537Y-98284096D01*
X82000000Y-98225111D01*
X81703464Y-98284096D01*
X81511204Y-98412560D01*
X80500000Y-98412560D01*
X80252235Y-98461843D01*
X80042191Y-98602191D01*
X79901843Y-98812235D01*
X79852560Y-99060000D01*
X77810000Y-99060000D01*
X77810000Y-92416736D01*
X78165000Y-92416736D01*
X78165000Y-93783264D01*
X78687947Y-95045771D01*
X79654229Y-96012053D01*
X80916736Y-96535000D01*
X82283264Y-96535000D01*
X83545771Y-96012053D01*
X84512053Y-95045771D01*
X85035000Y-93783264D01*
X85035000Y-92416736D01*
X84512053Y-91154229D01*
X83545771Y-90187947D01*
X82283264Y-89665000D01*
X80916736Y-89665000D01*
X79654229Y-90187947D01*
X78687947Y-91154229D01*
X78165000Y-92416736D01*
X77810000Y-92416736D01*
X77810000Y-90650580D01*
X77868803Y-90239973D01*
X78019338Y-89908890D01*
X78256749Y-89633361D01*
X78561944Y-89435544D01*
X78933917Y-89324300D01*
X79126348Y-89310000D01*
X159049420Y-89310000D01*
X159460027Y-89368803D01*
G36*
X95125000Y-114322440D02*
X95875000Y-114322440D01*
X95935586Y-114310389D01*
X96709673Y-115084476D01*
X96752071Y-115147929D01*
X96815524Y-115190327D01*
X96815526Y-115190329D01*
X96864253Y-115222887D01*
X97003463Y-115315904D01*
X97068900Y-115328920D01*
X97040000Y-115398690D01*
X97040000Y-116114250D01*
X97198750Y-116273000D01*
X98173000Y-116273000D01*
X98173000Y-116253000D01*
X98427000Y-116253000D01*
X98427000Y-116273000D01*
X98447000Y-116273000D01*
X98447000Y-116527000D01*
X98427000Y-116527000D01*
X98427000Y-116547000D01*
X98173000Y-116547000D01*
X98173000Y-116527000D01*
X97198750Y-116527000D01*
X97040000Y-116685750D01*
X97040000Y-117401310D01*
X97123969Y-117604030D01*
X97052071Y-117652071D01*
X97009671Y-117715527D01*
X96515528Y-118209671D01*
X96452072Y-118252071D01*
X96409672Y-118315527D01*
X96409671Y-118315528D01*
X96284097Y-118503463D01*
X96237209Y-118739183D01*
X96084698Y-118586673D01*
X95851309Y-118490000D01*
X95385750Y-118490000D01*
X95227000Y-118648750D01*
X95227000Y-119873000D01*
X95247000Y-119873000D01*
X95247000Y-120127000D01*
X95227000Y-120127000D01*
X95227000Y-120147000D01*
X94973000Y-120147000D01*
X94973000Y-120127000D01*
X93998750Y-120127000D01*
X93840000Y-120285750D01*
X93840000Y-121001310D01*
X93897447Y-121140000D01*
X93389490Y-121140000D01*
X93504126Y-120968435D01*
X93572440Y-120625000D01*
X93572440Y-119802362D01*
X93840000Y-119534802D01*
X93840000Y-119714250D01*
X93998750Y-119873000D01*
X94973000Y-119873000D01*
X94973000Y-118648750D01*
X94814250Y-118490000D01*
X94572899Y-118490000D01*
X94560000Y-118425154D01*
X94560000Y-117706082D01*
X94781565Y-117854126D01*
X95125000Y-117922440D01*
X95875000Y-117922440D01*
X96218435Y-117854126D01*
X96509586Y-117659586D01*
X96704126Y-117368435D01*
X96772440Y-117025000D01*
X96772440Y-115775000D01*
X96704126Y-115431565D01*
X96509586Y-115140414D01*
X96218435Y-114945874D01*
X95875000Y-114877560D01*
X95577667Y-114877560D01*
X94997107Y-114297000D01*
X95125000Y-114322440D01*
X95125000Y-114322440D01*
G37*
X95125000Y-114322440D02*
X95875000Y-114322440D01*
X95935586Y-114310389D01*
X96709673Y-115084476D01*
X96752071Y-115147929D01*
X96815524Y-115190327D01*
X96815526Y-115190329D01*
X96864253Y-115222887D01*
X97003463Y-115315904D01*
X97068900Y-115328920D01*
X97040000Y-115398690D01*
X97040000Y-116114250D01*
X97198750Y-116273000D01*
X98173000Y-116273000D01*
X98173000Y-116253000D01*
X98427000Y-116253000D01*
X98427000Y-116273000D01*
X98447000Y-116273000D01*
X98447000Y-116527000D01*
X98427000Y-116527000D01*
X98427000Y-116547000D01*
X98173000Y-116547000D01*
X98173000Y-116527000D01*
X97198750Y-116527000D01*
X97040000Y-116685750D01*
X97040000Y-117401310D01*
X97123969Y-117604030D01*
X97052071Y-117652071D01*
X97009671Y-117715527D01*
X96515528Y-118209671D01*
X96452072Y-118252071D01*
X96409672Y-118315527D01*
X96409671Y-118315528D01*
X96284097Y-118503463D01*
X96237209Y-118739183D01*
X96084698Y-118586673D01*
X95851309Y-118490000D01*
X95385750Y-118490000D01*
X95227000Y-118648750D01*
X95227000Y-119873000D01*
X95247000Y-119873000D01*
X95247000Y-120127000D01*
X95227000Y-120127000D01*
X95227000Y-120147000D01*
X94973000Y-120147000D01*
X94973000Y-120127000D01*
X93998750Y-120127000D01*
X93840000Y-120285750D01*
X93840000Y-121001310D01*
X93897447Y-121140000D01*
X93389490Y-121140000D01*
X93504126Y-120968435D01*
X93572440Y-120625000D01*
X93572440Y-119802362D01*
X93840000Y-119534802D01*
X93840000Y-119714250D01*
X93998750Y-119873000D01*
X94973000Y-119873000D01*
X94973000Y-118648750D01*
X94814250Y-118490000D01*
X94572899Y-118490000D01*
X94560000Y-118425154D01*
X94560000Y-117706082D01*
X94781565Y-117854126D01*
X95125000Y-117922440D01*
X95875000Y-117922440D01*
X96218435Y-117854126D01*
X96509586Y-117659586D01*
X96704126Y-117368435D01*
X96772440Y-117025000D01*
X96772440Y-115775000D01*
X96704126Y-115431565D01*
X96509586Y-115140414D01*
X96218435Y-114945874D01*
X95875000Y-114877560D01*
X95577667Y-114877560D01*
X94997107Y-114297000D01*
X95125000Y-114322440D01*
G36*
X89665530Y-110390331D02*
X90908504Y-111633306D01*
X90840000Y-111798690D01*
X90840000Y-112514250D01*
X90998750Y-112673000D01*
X91973000Y-112673000D01*
X91973000Y-112653000D01*
X92227000Y-112653000D01*
X92227000Y-112673000D01*
X93201250Y-112673000D01*
X93360000Y-112514250D01*
X93360000Y-111960000D01*
X93896289Y-111960000D01*
X94013720Y-112077431D01*
X94229213Y-112166691D01*
X94227560Y-112175000D01*
X94227560Y-113239248D01*
X94019066Y-113152887D01*
X93607318Y-113152887D01*
X93360000Y-113255329D01*
X93360000Y-113085750D01*
X93201250Y-112927000D01*
X92227000Y-112927000D01*
X92227000Y-112947000D01*
X91973000Y-112947000D01*
X91973000Y-112927000D01*
X90998750Y-112927000D01*
X90840000Y-113085750D01*
X90840000Y-113265198D01*
X90572440Y-112997638D01*
X90572440Y-112175000D01*
X90504126Y-111831565D01*
X90309586Y-111540414D01*
X90018435Y-111345874D01*
X89874813Y-111317306D01*
X89847929Y-111277071D01*
X89784470Y-111234669D01*
X89610000Y-111060199D01*
X89610000Y-110353227D01*
X89665530Y-110390331D01*
X89665530Y-110390331D01*
G37*
X89665530Y-110390331D02*
X90908504Y-111633306D01*
X90840000Y-111798690D01*
X90840000Y-112514250D01*
X90998750Y-112673000D01*
X91973000Y-112673000D01*
X91973000Y-112653000D01*
X92227000Y-112653000D01*
X92227000Y-112673000D01*
X93201250Y-112673000D01*
X93360000Y-112514250D01*
X93360000Y-111960000D01*
X93896289Y-111960000D01*
X94013720Y-112077431D01*
X94229213Y-112166691D01*
X94227560Y-112175000D01*
X94227560Y-113239248D01*
X94019066Y-113152887D01*
X93607318Y-113152887D01*
X93360000Y-113255329D01*
X93360000Y-113085750D01*
X93201250Y-112927000D01*
X92227000Y-112927000D01*
X92227000Y-112947000D01*
X91973000Y-112947000D01*
X91973000Y-112927000D01*
X90998750Y-112927000D01*
X90840000Y-113085750D01*
X90840000Y-113265198D01*
X90572440Y-112997638D01*
X90572440Y-112175000D01*
X90504126Y-111831565D01*
X90309586Y-111540414D01*
X90018435Y-111345874D01*
X89874813Y-111317306D01*
X89847929Y-111277071D01*
X89784470Y-111234669D01*
X89610000Y-111060199D01*
X89610000Y-110353227D01*
X89665530Y-110390331D01*
G36*
X93709916Y-107998933D02*
X93827348Y-108116365D01*
X93827347Y-109262198D01*
X93827348Y-109262202D01*
X93827347Y-109740000D01*
X93196601Y-109740000D01*
X93335000Y-109405874D01*
X93335000Y-108994126D01*
X93235679Y-108754343D01*
X93334699Y-108713327D01*
X93513327Y-108534698D01*
X93610000Y-108301309D01*
X93610000Y-107757714D01*
X93709916Y-107998933D01*
X93709916Y-107998933D01*
G37*
X93709916Y-107998933D02*
X93827348Y-108116365D01*
X93827347Y-109262198D01*
X93827348Y-109262202D01*
X93827347Y-109740000D01*
X93196601Y-109740000D01*
X93335000Y-109405874D01*
X93335000Y-108994126D01*
X93235679Y-108754343D01*
X93334699Y-108713327D01*
X93513327Y-108534698D01*
X93610000Y-108301309D01*
X93610000Y-107757714D01*
X93709916Y-107998933D01*
G36*
X107797000Y-107173000D02*
X107817000Y-107173000D01*
X107817000Y-107427000D01*
X107797000Y-107427000D01*
X107797000Y-107447000D01*
X107543000Y-107447000D01*
X107543000Y-107427000D01*
X107523000Y-107427000D01*
X107523000Y-107173000D01*
X107543000Y-107173000D01*
X107543000Y-107153000D01*
X107797000Y-107153000D01*
X107797000Y-107173000D01*
X107797000Y-107173000D01*
G37*
X107797000Y-107173000D02*
X107817000Y-107173000D01*
X107817000Y-107427000D01*
X107797000Y-107427000D01*
X107797000Y-107447000D01*
X107543000Y-107447000D01*
X107543000Y-107427000D01*
X107523000Y-107427000D01*
X107523000Y-107173000D01*
X107543000Y-107173000D01*
X107543000Y-107153000D01*
X107797000Y-107153000D01*
X107797000Y-107173000D01*
G36*
X96430744Y-100105545D02*
X96222569Y-100313720D01*
X96065000Y-100694126D01*
X96065000Y-100860198D01*
X93860199Y-103065000D01*
X93794126Y-103065000D01*
X93413720Y-103222569D01*
X93122569Y-103513720D01*
X93024729Y-103749928D01*
X92860000Y-103585199D01*
X92860000Y-102910000D01*
X92877002Y-102910000D01*
X92877002Y-102765752D01*
X93021250Y-102910000D01*
X93101310Y-102910000D01*
X93334699Y-102813327D01*
X93513327Y-102634698D01*
X93610000Y-102401309D01*
X93610000Y-101835750D01*
X93451250Y-101677000D01*
X92972440Y-101677000D01*
X92972440Y-101423000D01*
X93451250Y-101423000D01*
X93610000Y-101264250D01*
X93610000Y-100698691D01*
X93513327Y-100465302D01*
X93334699Y-100286673D01*
X93101310Y-100190000D01*
X93021250Y-100190000D01*
X92877002Y-100334248D01*
X92877002Y-100190000D01*
X92833117Y-100190000D01*
X92815904Y-100103463D01*
X92647929Y-99852071D01*
X92584473Y-99809671D01*
X92297241Y-99522440D01*
X92575000Y-99522440D01*
X92918435Y-99454126D01*
X93209586Y-99259586D01*
X93404126Y-98968435D01*
X93445587Y-98760000D01*
X95085199Y-98760000D01*
X96430744Y-100105545D01*
X96430744Y-100105545D01*
G37*
X96430744Y-100105545D02*
X96222569Y-100313720D01*
X96065000Y-100694126D01*
X96065000Y-100860198D01*
X93860199Y-103065000D01*
X93794126Y-103065000D01*
X93413720Y-103222569D01*
X93122569Y-103513720D01*
X93024729Y-103749928D01*
X92860000Y-103585199D01*
X92860000Y-102910000D01*
X92877002Y-102910000D01*
X92877002Y-102765752D01*
X93021250Y-102910000D01*
X93101310Y-102910000D01*
X93334699Y-102813327D01*
X93513327Y-102634698D01*
X93610000Y-102401309D01*
X93610000Y-101835750D01*
X93451250Y-101677000D01*
X92972440Y-101677000D01*
X92972440Y-101423000D01*
X93451250Y-101423000D01*
X93610000Y-101264250D01*
X93610000Y-100698691D01*
X93513327Y-100465302D01*
X93334699Y-100286673D01*
X93101310Y-100190000D01*
X93021250Y-100190000D01*
X92877002Y-100334248D01*
X92877002Y-100190000D01*
X92833117Y-100190000D01*
X92815904Y-100103463D01*
X92647929Y-99852071D01*
X92584473Y-99809671D01*
X92297241Y-99522440D01*
X92575000Y-99522440D01*
X92918435Y-99454126D01*
X93209586Y-99259586D01*
X93404126Y-98968435D01*
X93445587Y-98760000D01*
X95085199Y-98760000D01*
X96430744Y-100105545D01*
G36*
X95165198Y-93540000D02*
X93445587Y-93540000D01*
X93404126Y-93331565D01*
X93209586Y-93040414D01*
X92918435Y-92845874D01*
X92575000Y-92777560D01*
X91825000Y-92777560D01*
X91481565Y-92845874D01*
X91190414Y-93040414D01*
X90995874Y-93331565D01*
X90927560Y-93675000D01*
X90927560Y-94925000D01*
X90995874Y-95268435D01*
X91190414Y-95559586D01*
X91481565Y-95754126D01*
X91825000Y-95822440D01*
X92575000Y-95822440D01*
X92918435Y-95754126D01*
X93209586Y-95559586D01*
X93404126Y-95268435D01*
X93445587Y-95060000D01*
X95085199Y-95060000D01*
X97827560Y-97802362D01*
X97827560Y-98625000D01*
X97895874Y-98968435D01*
X98090414Y-99259586D01*
X98381565Y-99454126D01*
X98725000Y-99522440D01*
X99475000Y-99522440D01*
X99818435Y-99454126D01*
X100109586Y-99259586D01*
X100304126Y-98968435D01*
X100372440Y-98625000D01*
X100372440Y-97375000D01*
X100304126Y-97031565D01*
X100109586Y-96740414D01*
X99818435Y-96545874D01*
X99475000Y-96477560D01*
X98725000Y-96477560D01*
X98664413Y-96489612D01*
X98519256Y-96344455D01*
X98777431Y-96086280D01*
X98935000Y-95705874D01*
X98935000Y-95539802D01*
X99014802Y-95460000D01*
X100785199Y-95460000D01*
X101802758Y-96477560D01*
X101525000Y-96477560D01*
X101181565Y-96545874D01*
X100890414Y-96740414D01*
X100695874Y-97031565D01*
X100627560Y-97375000D01*
X100627560Y-98625000D01*
X100695874Y-98968435D01*
X100890414Y-99259586D01*
X101181565Y-99454126D01*
X101525000Y-99522440D01*
X102275000Y-99522440D01*
X102618435Y-99454126D01*
X102840000Y-99306082D01*
X102840000Y-100393918D01*
X102618435Y-100245874D01*
X102275000Y-100177560D01*
X101525000Y-100177560D01*
X101181565Y-100245874D01*
X100890414Y-100440414D01*
X100695874Y-100731565D01*
X100627560Y-101075000D01*
X100627560Y-102325000D01*
X100642945Y-102402347D01*
X100431473Y-102402347D01*
X100350373Y-102435940D01*
X100372440Y-102325000D01*
X100372440Y-101075000D01*
X100304126Y-100731565D01*
X100109586Y-100440414D01*
X99818435Y-100245874D01*
X99475000Y-100177560D01*
X98725000Y-100177560D01*
X98664413Y-100189612D01*
X95990331Y-97515530D01*
X95947929Y-97452071D01*
X95696537Y-97284096D01*
X95474852Y-97240000D01*
X95474847Y-97240000D01*
X95400000Y-97225112D01*
X95325153Y-97240000D01*
X93445587Y-97240000D01*
X93404126Y-97031565D01*
X93209586Y-96740414D01*
X92918435Y-96545874D01*
X92575000Y-96477560D01*
X91825000Y-96477560D01*
X91481565Y-96545874D01*
X91190414Y-96740414D01*
X90995874Y-97031565D01*
X90927560Y-97375000D01*
X90927560Y-98625000D01*
X90995874Y-98968435D01*
X91177327Y-99240000D01*
X90558026Y-99240000D01*
X90563327Y-99234699D01*
X90660000Y-99001310D01*
X90660000Y-98285750D01*
X90501250Y-98127000D01*
X89527000Y-98127000D01*
X89527000Y-98147000D01*
X89273000Y-98147000D01*
X89273000Y-98127000D01*
X88298750Y-98127000D01*
X88140000Y-98285750D01*
X88140000Y-99001310D01*
X88236673Y-99234699D01*
X88241974Y-99240000D01*
X88135000Y-99240000D01*
X88135000Y-98994126D01*
X87977431Y-98613720D01*
X87860000Y-98496289D01*
X87860000Y-96998690D01*
X88140000Y-96998690D01*
X88140000Y-97714250D01*
X88298750Y-97873000D01*
X89273000Y-97873000D01*
X89273000Y-96648750D01*
X89527000Y-96648750D01*
X89527000Y-97873000D01*
X90501250Y-97873000D01*
X90660000Y-97714250D01*
X90660000Y-96998690D01*
X90563327Y-96765301D01*
X90384698Y-96586673D01*
X90151309Y-96490000D01*
X89685750Y-96490000D01*
X89527000Y-96648750D01*
X89273000Y-96648750D01*
X89114250Y-96490000D01*
X88648691Y-96490000D01*
X88415302Y-96586673D01*
X88236673Y-96765301D01*
X88140000Y-96998690D01*
X87860000Y-96998690D01*
X87860000Y-94585750D01*
X88140000Y-94585750D01*
X88140000Y-95301310D01*
X88236673Y-95534699D01*
X88415302Y-95713327D01*
X88648691Y-95810000D01*
X89114250Y-95810000D01*
X89273000Y-95651250D01*
X89273000Y-94427000D01*
X89527000Y-94427000D01*
X89527000Y-95651250D01*
X89685750Y-95810000D01*
X90151309Y-95810000D01*
X90384698Y-95713327D01*
X90563327Y-95534699D01*
X90660000Y-95301310D01*
X90660000Y-94585750D01*
X90501250Y-94427000D01*
X89527000Y-94427000D01*
X89273000Y-94427000D01*
X88298750Y-94427000D01*
X88140000Y-94585750D01*
X87860000Y-94585750D01*
X87860000Y-93298690D01*
X88140000Y-93298690D01*
X88140000Y-94014250D01*
X88298750Y-94173000D01*
X89273000Y-94173000D01*
X89273000Y-92948750D01*
X89527000Y-92948750D01*
X89527000Y-94173000D01*
X90501250Y-94173000D01*
X90660000Y-94014250D01*
X90660000Y-93298690D01*
X90563327Y-93065301D01*
X90384698Y-92886673D01*
X90151309Y-92790000D01*
X89685750Y-92790000D01*
X89527000Y-92948750D01*
X89273000Y-92948750D01*
X89114250Y-92790000D01*
X88648691Y-92790000D01*
X88415302Y-92886673D01*
X88236673Y-93065301D01*
X88140000Y-93298690D01*
X87860000Y-93298690D01*
X87860000Y-92614801D01*
X88414802Y-92060000D01*
X93685199Y-92060000D01*
X95165198Y-93540000D01*
X95165198Y-93540000D01*
G37*
X95165198Y-93540000D02*
X93445587Y-93540000D01*
X93404126Y-93331565D01*
X93209586Y-93040414D01*
X92918435Y-92845874D01*
X92575000Y-92777560D01*
X91825000Y-92777560D01*
X91481565Y-92845874D01*
X91190414Y-93040414D01*
X90995874Y-93331565D01*
X90927560Y-93675000D01*
X90927560Y-94925000D01*
X90995874Y-95268435D01*
X91190414Y-95559586D01*
X91481565Y-95754126D01*
X91825000Y-95822440D01*
X92575000Y-95822440D01*
X92918435Y-95754126D01*
X93209586Y-95559586D01*
X93404126Y-95268435D01*
X93445587Y-95060000D01*
X95085199Y-95060000D01*
X97827560Y-97802362D01*
X97827560Y-98625000D01*
X97895874Y-98968435D01*
X98090414Y-99259586D01*
X98381565Y-99454126D01*
X98725000Y-99522440D01*
X99475000Y-99522440D01*
X99818435Y-99454126D01*
X100109586Y-99259586D01*
X100304126Y-98968435D01*
X100372440Y-98625000D01*
X100372440Y-97375000D01*
X100304126Y-97031565D01*
X100109586Y-96740414D01*
X99818435Y-96545874D01*
X99475000Y-96477560D01*
X98725000Y-96477560D01*
X98664413Y-96489612D01*
X98519256Y-96344455D01*
X98777431Y-96086280D01*
X98935000Y-95705874D01*
X98935000Y-95539802D01*
X99014802Y-95460000D01*
X100785199Y-95460000D01*
X101802758Y-96477560D01*
X101525000Y-96477560D01*
X101181565Y-96545874D01*
X100890414Y-96740414D01*
X100695874Y-97031565D01*
X100627560Y-97375000D01*
X100627560Y-98625000D01*
X100695874Y-98968435D01*
X100890414Y-99259586D01*
X101181565Y-99454126D01*
X101525000Y-99522440D01*
X102275000Y-99522440D01*
X102618435Y-99454126D01*
X102840000Y-99306082D01*
X102840000Y-100393918D01*
X102618435Y-100245874D01*
X102275000Y-100177560D01*
X101525000Y-100177560D01*
X101181565Y-100245874D01*
X100890414Y-100440414D01*
X100695874Y-100731565D01*
X100627560Y-101075000D01*
X100627560Y-102325000D01*
X100642945Y-102402347D01*
X100431473Y-102402347D01*
X100350373Y-102435940D01*
X100372440Y-102325000D01*
X100372440Y-101075000D01*
X100304126Y-100731565D01*
X100109586Y-100440414D01*
X99818435Y-100245874D01*
X99475000Y-100177560D01*
X98725000Y-100177560D01*
X98664413Y-100189612D01*
X95990331Y-97515530D01*
X95947929Y-97452071D01*
X95696537Y-97284096D01*
X95474852Y-97240000D01*
X95474847Y-97240000D01*
X95400000Y-97225112D01*
X95325153Y-97240000D01*
X93445587Y-97240000D01*
X93404126Y-97031565D01*
X93209586Y-96740414D01*
X92918435Y-96545874D01*
X92575000Y-96477560D01*
X91825000Y-96477560D01*
X91481565Y-96545874D01*
X91190414Y-96740414D01*
X90995874Y-97031565D01*
X90927560Y-97375000D01*
X90927560Y-98625000D01*
X90995874Y-98968435D01*
X91177327Y-99240000D01*
X90558026Y-99240000D01*
X90563327Y-99234699D01*
X90660000Y-99001310D01*
X90660000Y-98285750D01*
X90501250Y-98127000D01*
X89527000Y-98127000D01*
X89527000Y-98147000D01*
X89273000Y-98147000D01*
X89273000Y-98127000D01*
X88298750Y-98127000D01*
X88140000Y-98285750D01*
X88140000Y-99001310D01*
X88236673Y-99234699D01*
X88241974Y-99240000D01*
X88135000Y-99240000D01*
X88135000Y-98994126D01*
X87977431Y-98613720D01*
X87860000Y-98496289D01*
X87860000Y-96998690D01*
X88140000Y-96998690D01*
X88140000Y-97714250D01*
X88298750Y-97873000D01*
X89273000Y-97873000D01*
X89273000Y-96648750D01*
X89527000Y-96648750D01*
X89527000Y-97873000D01*
X90501250Y-97873000D01*
X90660000Y-97714250D01*
X90660000Y-96998690D01*
X90563327Y-96765301D01*
X90384698Y-96586673D01*
X90151309Y-96490000D01*
X89685750Y-96490000D01*
X89527000Y-96648750D01*
X89273000Y-96648750D01*
X89114250Y-96490000D01*
X88648691Y-96490000D01*
X88415302Y-96586673D01*
X88236673Y-96765301D01*
X88140000Y-96998690D01*
X87860000Y-96998690D01*
X87860000Y-94585750D01*
X88140000Y-94585750D01*
X88140000Y-95301310D01*
X88236673Y-95534699D01*
X88415302Y-95713327D01*
X88648691Y-95810000D01*
X89114250Y-95810000D01*
X89273000Y-95651250D01*
X89273000Y-94427000D01*
X89527000Y-94427000D01*
X89527000Y-95651250D01*
X89685750Y-95810000D01*
X90151309Y-95810000D01*
X90384698Y-95713327D01*
X90563327Y-95534699D01*
X90660000Y-95301310D01*
X90660000Y-94585750D01*
X90501250Y-94427000D01*
X89527000Y-94427000D01*
X89273000Y-94427000D01*
X88298750Y-94427000D01*
X88140000Y-94585750D01*
X87860000Y-94585750D01*
X87860000Y-93298690D01*
X88140000Y-93298690D01*
X88140000Y-94014250D01*
X88298750Y-94173000D01*
X89273000Y-94173000D01*
X89273000Y-92948750D01*
X89527000Y-92948750D01*
X89527000Y-94173000D01*
X90501250Y-94173000D01*
X90660000Y-94014250D01*
X90660000Y-93298690D01*
X90563327Y-93065301D01*
X90384698Y-92886673D01*
X90151309Y-92790000D01*
X89685750Y-92790000D01*
X89527000Y-92948750D01*
X89273000Y-92948750D01*
X89114250Y-92790000D01*
X88648691Y-92790000D01*
X88415302Y-92886673D01*
X88236673Y-93065301D01*
X88140000Y-93298690D01*
X87860000Y-93298690D01*
X87860000Y-92614801D01*
X88414802Y-92060000D01*
X93685199Y-92060000D01*
X95165198Y-93540000D01*
G36*
X102717000Y-91933000D02*
X102737000Y-91933000D01*
X102737000Y-92187000D01*
X102717000Y-92187000D01*
X102717000Y-92207000D01*
X102463000Y-92207000D01*
X102463000Y-92187000D01*
X102443000Y-92187000D01*
X102443000Y-91933000D01*
X102463000Y-91933000D01*
X102463000Y-91913000D01*
X102717000Y-91913000D01*
X102717000Y-91933000D01*
X102717000Y-91933000D01*
G37*
X102717000Y-91933000D02*
X102737000Y-91933000D01*
X102737000Y-92187000D01*
X102717000Y-92187000D01*
X102717000Y-92207000D01*
X102463000Y-92207000D01*
X102463000Y-92187000D01*
X102443000Y-92187000D01*
X102443000Y-91933000D01*
X102463000Y-91933000D01*
X102463000Y-91913000D01*
X102717000Y-91913000D01*
X102717000Y-91933000D01*
M02*
