%TF.GenerationSoftware,KiCad,Pcbnew,(5.0.0)*%
%TF.CreationDate,2020-02-28T20:01:44+00:00*%
%TF.ProjectId,Blast Furnace PCB,426C617374204675726E616365205043,rev?*%
%TF.SameCoordinates,Original*%
%TF.FileFunction,Legend,Top*%
%TF.FilePolarity,Positive*%
%FSLAX46Y46*%
G04 Gerber Fmt 4.6, Leading zero omitted, Abs format (unit mm)*
G04 Created by KiCad (PCBNEW (5.0.0)) date 02/28/20 20:01:44*
%MOMM*%
%LPD*%
G01*
G04 APERTURE LIST*
%ADD10C,0.150000*%
%ADD11C,0.300000*%
%ADD12C,0.100000*%
%ADD13C,0.120000*%
%ADD14C,0.010000*%
G04 APERTURE END LIST*
D10*
X111935000Y-105695238D02*
X111935000Y-104695238D01*
X113302380Y-105457143D02*
X112302380Y-105457143D01*
X112302380Y-105219047D01*
X112350000Y-105076190D01*
X112445238Y-104980952D01*
X112540476Y-104933333D01*
X112730952Y-104885714D01*
X112873809Y-104885714D01*
X113064285Y-104933333D01*
X113159523Y-104980952D01*
X113254761Y-105076190D01*
X113302380Y-105219047D01*
X113302380Y-105457143D01*
X111935000Y-104695238D02*
X111935000Y-103695238D01*
X113302380Y-103885714D02*
X112826190Y-104219047D01*
X113302380Y-104457143D02*
X112302380Y-104457143D01*
X112302380Y-104076190D01*
X112350000Y-103980952D01*
X112397619Y-103933333D01*
X112492857Y-103885714D01*
X112635714Y-103885714D01*
X112730952Y-103933333D01*
X112778571Y-103980952D01*
X112826190Y-104076190D01*
X112826190Y-104457143D01*
X111935000Y-103695238D02*
X111935000Y-102695238D01*
X113302380Y-103457143D02*
X112302380Y-103457143D01*
X112302380Y-103219047D01*
X112350000Y-103076190D01*
X112445238Y-102980952D01*
X112540476Y-102933333D01*
X112730952Y-102885714D01*
X112873809Y-102885714D01*
X113064285Y-102933333D01*
X113159523Y-102980952D01*
X113254761Y-103076190D01*
X113302380Y-103219047D01*
X113302380Y-103457143D01*
X111935000Y-102695238D02*
X111935000Y-101838095D01*
X112826190Y-102266667D02*
X113302380Y-102266667D01*
X112302380Y-102600000D02*
X112826190Y-102266667D01*
X112302380Y-101933333D01*
X136004761Y-105504761D02*
X136052380Y-105361904D01*
X136052380Y-105123809D01*
X136004761Y-105028571D01*
X135957142Y-104980952D01*
X135861904Y-104933333D01*
X135766666Y-104933333D01*
X135671428Y-104980952D01*
X135623809Y-105028571D01*
X135576190Y-105123809D01*
X135528571Y-105314285D01*
X135480952Y-105409523D01*
X135433333Y-105457142D01*
X135338095Y-105504761D01*
X135242857Y-105504761D01*
X135147619Y-105457142D01*
X135100000Y-105409523D01*
X135052380Y-105314285D01*
X135052380Y-105076190D01*
X135100000Y-104933333D01*
X136052380Y-104504761D02*
X135052380Y-104504761D01*
X135052380Y-104266666D01*
X135100000Y-104123809D01*
X135195238Y-104028571D01*
X135290476Y-103980952D01*
X135480952Y-103933333D01*
X135623809Y-103933333D01*
X135814285Y-103980952D01*
X135909523Y-104028571D01*
X136004761Y-104123809D01*
X136052380Y-104266666D01*
X136052380Y-104504761D01*
X135052380Y-103314285D02*
X135052380Y-103123809D01*
X135100000Y-103028571D01*
X135195238Y-102933333D01*
X135385714Y-102885714D01*
X135719047Y-102885714D01*
X135909523Y-102933333D01*
X136004761Y-103028571D01*
X136052380Y-103123809D01*
X136052380Y-103314285D01*
X136004761Y-103409523D01*
X135909523Y-103504761D01*
X135719047Y-103552380D01*
X135385714Y-103552380D01*
X135195238Y-103504761D01*
X135100000Y-103409523D01*
X135052380Y-103314285D01*
X133504761Y-105504762D02*
X133552380Y-105361905D01*
X133552380Y-105123810D01*
X133504761Y-105028572D01*
X133457142Y-104980953D01*
X133361904Y-104933333D01*
X133266666Y-104933333D01*
X133171428Y-104980953D01*
X133123809Y-105028572D01*
X133076190Y-105123810D01*
X133028571Y-105314286D01*
X132980952Y-105409524D01*
X132933333Y-105457143D01*
X132838095Y-105504762D01*
X132742857Y-105504762D01*
X132647619Y-105457143D01*
X132600000Y-105409524D01*
X132552380Y-105314286D01*
X132552380Y-105076191D01*
X132600000Y-104933333D01*
X133552380Y-104504762D02*
X132552380Y-104504762D01*
X132552380Y-104266667D01*
X132600000Y-104123810D01*
X132695238Y-104028572D01*
X132790476Y-103980953D01*
X132980952Y-103933333D01*
X133123809Y-103933333D01*
X133314285Y-103980953D01*
X133409523Y-104028572D01*
X133504761Y-104123810D01*
X133552380Y-104266667D01*
X133552380Y-104504762D01*
X133552380Y-103504762D02*
X132552380Y-103504762D01*
X129685000Y-105695238D02*
X129685000Y-104695238D01*
X130957142Y-104885714D02*
X131004761Y-104933333D01*
X131052380Y-105076190D01*
X131052380Y-105171428D01*
X131004761Y-105314286D01*
X130909523Y-105409524D01*
X130814285Y-105457143D01*
X130623809Y-105504762D01*
X130480952Y-105504762D01*
X130290476Y-105457143D01*
X130195238Y-105409524D01*
X130100000Y-105314286D01*
X130052380Y-105171428D01*
X130052380Y-105076190D01*
X130100000Y-104933333D01*
X130147619Y-104885714D01*
X129685000Y-104695238D02*
X129685000Y-103742857D01*
X131004761Y-104504762D02*
X131052380Y-104361905D01*
X131052380Y-104123809D01*
X131004761Y-104028571D01*
X130957142Y-103980952D01*
X130861904Y-103933333D01*
X130766666Y-103933333D01*
X130671428Y-103980952D01*
X130623809Y-104028571D01*
X130576190Y-104123809D01*
X130528571Y-104314286D01*
X130480952Y-104409524D01*
X130433333Y-104457143D01*
X130338095Y-104504762D01*
X130242857Y-104504762D01*
X130147619Y-104457143D01*
X130100000Y-104409524D01*
X130052380Y-104314286D01*
X130052380Y-104076190D01*
X130100000Y-103933333D01*
X99552380Y-105266667D02*
X99552380Y-105076190D01*
X99600000Y-104980952D01*
X99695238Y-104885714D01*
X99885714Y-104838095D01*
X100219047Y-104838095D01*
X100409523Y-104885714D01*
X100504761Y-104980952D01*
X100552380Y-105076190D01*
X100552380Y-105266667D01*
X100504761Y-105361905D01*
X100409523Y-105457143D01*
X100219047Y-105504762D01*
X99885714Y-105504762D01*
X99695238Y-105457143D01*
X99600000Y-105361905D01*
X99552380Y-105266667D01*
X100552380Y-104409524D02*
X99552380Y-104409524D01*
X100552380Y-103838095D02*
X99980952Y-104266667D01*
X99552380Y-103838095D02*
X100123809Y-104409524D01*
X102052380Y-105552380D02*
X103052380Y-105314285D01*
X102338095Y-105123809D01*
X103052380Y-104933333D01*
X102052380Y-104695238D01*
X103052380Y-104314285D02*
X102052380Y-104314285D01*
X103052380Y-103742857D01*
X102052380Y-103742857D01*
X107350000Y-104933333D02*
X107302380Y-105028571D01*
X107302380Y-105171429D01*
X107350000Y-105314286D01*
X107445238Y-105409524D01*
X107540476Y-105457143D01*
X107730952Y-105504762D01*
X107873809Y-105504762D01*
X108064285Y-105457143D01*
X108159523Y-105409524D01*
X108254761Y-105314286D01*
X108302380Y-105171429D01*
X108302380Y-105076190D01*
X108254761Y-104933333D01*
X108207142Y-104885714D01*
X107873809Y-104885714D01*
X107873809Y-105076190D01*
X108302380Y-104457143D02*
X107302380Y-104457143D01*
X108302380Y-103885714D01*
X107302380Y-103885714D01*
X108302380Y-103409524D02*
X107302380Y-103409524D01*
X107302380Y-103171429D01*
X107350000Y-103028571D01*
X107445238Y-102933333D01*
X107540476Y-102885714D01*
X107730952Y-102838095D01*
X107873809Y-102838095D01*
X108064285Y-102885714D01*
X108159523Y-102933333D01*
X108254761Y-103028571D01*
X108302380Y-103171429D01*
X108302380Y-103409524D01*
X109435000Y-105695238D02*
X109435000Y-104838095D01*
X110278571Y-105123810D02*
X110278571Y-105457143D01*
X110802380Y-105457143D02*
X109802380Y-105457143D01*
X109802380Y-104980952D01*
X109435000Y-104838095D02*
X109435000Y-103980952D01*
X110516666Y-104647619D02*
X110516666Y-104171429D01*
X110802380Y-104742857D02*
X109802380Y-104409524D01*
X110802380Y-104076191D01*
X109435000Y-103980952D02*
X109435000Y-102933333D01*
X109802380Y-103742857D02*
X110611904Y-103742857D01*
X110707142Y-103695238D01*
X110754761Y-103647619D01*
X110802380Y-103552381D01*
X110802380Y-103361905D01*
X110754761Y-103266667D01*
X110707142Y-103219048D01*
X110611904Y-103171429D01*
X109802380Y-103171429D01*
X109435000Y-102933333D02*
X109435000Y-102123810D01*
X110802380Y-102219048D02*
X110802380Y-102695238D01*
X109802380Y-102695238D01*
X109435000Y-102123810D02*
X109435000Y-101361905D01*
X109802380Y-102028572D02*
X109802380Y-101457143D01*
X110802380Y-101742857D02*
X109802380Y-101742857D01*
X99552380Y-95945238D02*
X100552380Y-95611904D01*
X99552380Y-95278571D01*
X100552380Y-94945238D02*
X99552380Y-94945238D01*
X100552380Y-94469047D02*
X99552380Y-94469047D01*
X100552380Y-93897619D01*
X99552380Y-93897619D01*
X107302380Y-94754762D02*
X107302380Y-95230952D01*
X107778571Y-95278571D01*
X107730952Y-95230952D01*
X107683333Y-95135714D01*
X107683333Y-94897619D01*
X107730952Y-94802381D01*
X107778571Y-94754762D01*
X107873809Y-94707143D01*
X108111904Y-94707143D01*
X108207142Y-94754762D01*
X108254761Y-94802381D01*
X108302380Y-94897619D01*
X108302380Y-95135714D01*
X108254761Y-95230952D01*
X108207142Y-95278571D01*
X107302380Y-94421428D02*
X108302380Y-94088095D01*
X107302380Y-93754762D01*
X136254761Y-96421429D02*
X136302380Y-96278572D01*
X136302380Y-96040476D01*
X136254761Y-95945238D01*
X136207142Y-95897619D01*
X136111904Y-95850000D01*
X136016666Y-95850000D01*
X135921428Y-95897619D01*
X135873809Y-95945238D01*
X135826190Y-96040476D01*
X135778571Y-96230953D01*
X135730952Y-96326191D01*
X135683333Y-96373810D01*
X135588095Y-96421429D01*
X135492857Y-96421429D01*
X135397619Y-96373810D01*
X135350000Y-96326191D01*
X135302380Y-96230953D01*
X135302380Y-95992857D01*
X135350000Y-95850000D01*
X136207142Y-94850000D02*
X136254761Y-94897619D01*
X136302380Y-95040476D01*
X136302380Y-95135715D01*
X136254761Y-95278572D01*
X136159523Y-95373810D01*
X136064285Y-95421429D01*
X135873809Y-95469048D01*
X135730952Y-95469048D01*
X135540476Y-95421429D01*
X135445238Y-95373810D01*
X135350000Y-95278572D01*
X135302380Y-95135715D01*
X135302380Y-95040476D01*
X135350000Y-94897619D01*
X135397619Y-94850000D01*
X136302380Y-94421429D02*
X135302380Y-94421429D01*
X136302380Y-93850000D02*
X135730952Y-94278572D01*
X135302380Y-93850000D02*
X135873809Y-94421429D01*
X132552380Y-96754762D02*
X132552380Y-96135714D01*
X132933333Y-96469048D01*
X132933333Y-96326191D01*
X132980952Y-96230952D01*
X133028571Y-96183333D01*
X133123809Y-96135714D01*
X133361904Y-96135714D01*
X133457142Y-96183333D01*
X133504761Y-96230952D01*
X133552380Y-96326191D01*
X133552380Y-96611905D01*
X133504761Y-96707143D01*
X133457142Y-96754762D01*
X133457142Y-95707143D02*
X133504761Y-95659524D01*
X133552380Y-95707143D01*
X133504761Y-95754762D01*
X133457142Y-95707143D01*
X133552380Y-95707143D01*
X132552380Y-95326191D02*
X132552380Y-94707143D01*
X132933333Y-95040476D01*
X132933333Y-94897619D01*
X132980952Y-94802381D01*
X133028571Y-94754762D01*
X133123809Y-94707143D01*
X133361904Y-94707143D01*
X133457142Y-94754762D01*
X133504761Y-94802381D01*
X133552380Y-94897619D01*
X133552380Y-95183333D01*
X133504761Y-95278572D01*
X133457142Y-95326191D01*
X132552380Y-94421429D02*
X133552380Y-94088095D01*
X132552380Y-93754762D01*
X118254761Y-105504762D02*
X118302380Y-105361905D01*
X118302380Y-105123809D01*
X118254761Y-105028571D01*
X118207142Y-104980952D01*
X118111904Y-104933333D01*
X118016666Y-104933333D01*
X117921428Y-104980952D01*
X117873809Y-105028571D01*
X117826190Y-105123809D01*
X117778571Y-105314286D01*
X117730952Y-105409524D01*
X117683333Y-105457143D01*
X117588095Y-105504762D01*
X117492857Y-105504762D01*
X117397619Y-105457143D01*
X117350000Y-105409524D01*
X117302380Y-105314286D01*
X117302380Y-105076190D01*
X117350000Y-104933333D01*
X118207142Y-103933333D02*
X118254761Y-103980952D01*
X118302380Y-104123809D01*
X118302380Y-104219047D01*
X118254761Y-104361905D01*
X118159523Y-104457143D01*
X118064285Y-104504762D01*
X117873809Y-104552381D01*
X117730952Y-104552381D01*
X117540476Y-104504762D01*
X117445238Y-104457143D01*
X117350000Y-104361905D01*
X117302380Y-104219047D01*
X117302380Y-104123809D01*
X117350000Y-103980952D01*
X117397619Y-103933333D01*
X118302380Y-103028571D02*
X118302380Y-103504762D01*
X117302380Y-103504762D01*
X115754761Y-105504761D02*
X115802380Y-105361904D01*
X115802380Y-105123809D01*
X115754761Y-105028571D01*
X115707142Y-104980952D01*
X115611904Y-104933333D01*
X115516666Y-104933333D01*
X115421428Y-104980952D01*
X115373809Y-105028571D01*
X115326190Y-105123809D01*
X115278571Y-105314285D01*
X115230952Y-105409523D01*
X115183333Y-105457142D01*
X115088095Y-105504761D01*
X114992857Y-105504761D01*
X114897619Y-105457142D01*
X114850000Y-105409523D01*
X114802380Y-105314285D01*
X114802380Y-105076190D01*
X114850000Y-104933333D01*
X115802380Y-104504761D02*
X114802380Y-104504761D01*
X114802380Y-104266666D01*
X114850000Y-104123809D01*
X114945238Y-104028571D01*
X115040476Y-103980952D01*
X115230952Y-103933333D01*
X115373809Y-103933333D01*
X115564285Y-103980952D01*
X115659523Y-104028571D01*
X115754761Y-104123809D01*
X115802380Y-104266666D01*
X115802380Y-104504761D01*
X115516666Y-103552380D02*
X115516666Y-103076190D01*
X115802380Y-103647618D02*
X114802380Y-103314285D01*
X115802380Y-102980952D01*
X147302380Y-131504761D02*
X147445237Y-131552380D01*
X147683333Y-131552380D01*
X147778571Y-131504761D01*
X147826190Y-131457142D01*
X147873809Y-131361904D01*
X147873809Y-131266666D01*
X147826190Y-131171428D01*
X147778571Y-131123809D01*
X147683333Y-131076190D01*
X147492857Y-131028571D01*
X147397618Y-130980952D01*
X147349999Y-130933333D01*
X147302380Y-130838095D01*
X147302380Y-130742857D01*
X147349999Y-130647619D01*
X147397618Y-130600000D01*
X147492857Y-130552380D01*
X147730952Y-130552380D01*
X147873809Y-130600000D01*
X148873809Y-131457142D02*
X148826190Y-131504761D01*
X148683333Y-131552380D01*
X148588095Y-131552380D01*
X148445237Y-131504761D01*
X148349999Y-131409523D01*
X148302380Y-131314285D01*
X148254761Y-131123809D01*
X148254761Y-130980952D01*
X148302380Y-130790476D01*
X148349999Y-130695238D01*
X148445237Y-130600000D01*
X148588095Y-130552380D01*
X148683333Y-130552380D01*
X148826190Y-130600000D01*
X148873809Y-130647619D01*
X149778571Y-131552380D02*
X149302380Y-131552380D01*
X149302380Y-130552380D01*
X147254762Y-134254761D02*
X147397619Y-134302380D01*
X147635714Y-134302380D01*
X147730952Y-134254761D01*
X147778571Y-134207142D01*
X147826190Y-134111904D01*
X147826190Y-134016666D01*
X147778571Y-133921428D01*
X147730952Y-133873809D01*
X147635714Y-133826190D01*
X147445238Y-133778571D01*
X147350000Y-133730952D01*
X147302381Y-133683333D01*
X147254762Y-133588095D01*
X147254762Y-133492857D01*
X147302381Y-133397619D01*
X147350000Y-133350000D01*
X147445238Y-133302380D01*
X147683333Y-133302380D01*
X147826190Y-133350000D01*
X148254762Y-134302380D02*
X148254762Y-133302380D01*
X148492857Y-133302380D01*
X148635714Y-133350000D01*
X148730952Y-133445238D01*
X148778571Y-133540476D01*
X148826190Y-133730952D01*
X148826190Y-133873809D01*
X148778571Y-134064285D01*
X148730952Y-134159523D01*
X148635714Y-134254761D01*
X148492857Y-134302380D01*
X148254762Y-134302380D01*
X149207143Y-134016666D02*
X149683333Y-134016666D01*
X149111905Y-134302380D02*
X149445238Y-133302380D01*
X149778571Y-134302380D01*
X148778571Y-135552380D02*
X148302381Y-135552380D01*
X148254762Y-136028571D01*
X148302381Y-135980952D01*
X148397619Y-135933333D01*
X148635714Y-135933333D01*
X148730952Y-135980952D01*
X148778571Y-136028571D01*
X148826190Y-136123809D01*
X148826190Y-136361904D01*
X148778571Y-136457142D01*
X148730952Y-136504761D01*
X148635714Y-136552380D01*
X148397619Y-136552380D01*
X148302381Y-136504761D01*
X148254762Y-136457142D01*
X149111905Y-135552380D02*
X149445238Y-136552380D01*
X149778571Y-135552380D01*
X147588095Y-138100000D02*
X147492857Y-138052380D01*
X147350000Y-138052380D01*
X147207142Y-138100000D01*
X147111904Y-138195238D01*
X147064285Y-138290476D01*
X147016666Y-138480952D01*
X147016666Y-138623809D01*
X147064285Y-138814285D01*
X147111904Y-138909523D01*
X147207142Y-139004761D01*
X147350000Y-139052380D01*
X147445238Y-139052380D01*
X147588095Y-139004761D01*
X147635714Y-138957142D01*
X147635714Y-138623809D01*
X147445238Y-138623809D01*
X148064285Y-139052380D02*
X148064285Y-138052380D01*
X148635714Y-139052380D01*
X148635714Y-138052380D01*
X149111904Y-139052380D02*
X149111904Y-138052380D01*
X149350000Y-138052380D01*
X149492857Y-138100000D01*
X149588095Y-138195238D01*
X149635714Y-138290476D01*
X149683333Y-138480952D01*
X149683333Y-138623809D01*
X149635714Y-138814285D01*
X149588095Y-138909523D01*
X149492857Y-139004761D01*
X149350000Y-139052380D01*
X149111904Y-139052380D01*
X84230952Y-97397619D02*
X83611904Y-97397619D01*
X83945238Y-97016666D01*
X83802380Y-97016666D01*
X83707142Y-96969047D01*
X83659523Y-96921428D01*
X83611904Y-96826190D01*
X83611904Y-96588095D01*
X83659523Y-96492857D01*
X83707142Y-96445238D01*
X83802380Y-96397619D01*
X84088095Y-96397619D01*
X84183333Y-96445238D01*
X84230952Y-96492857D01*
X83183333Y-96492857D02*
X83135714Y-96445238D01*
X83183333Y-96397619D01*
X83230952Y-96445238D01*
X83183333Y-96492857D01*
X83183333Y-96397619D01*
X82754761Y-97302380D02*
X82707142Y-97350000D01*
X82611904Y-97397619D01*
X82373809Y-97397619D01*
X82278571Y-97350000D01*
X82230952Y-97302380D01*
X82183333Y-97207142D01*
X82183333Y-97111904D01*
X82230952Y-96969047D01*
X82802380Y-96397619D01*
X82183333Y-96397619D01*
X81754761Y-96397619D02*
X81754761Y-97064285D01*
X81754761Y-96969047D02*
X81707142Y-97016666D01*
X81611904Y-97064285D01*
X81469047Y-97064285D01*
X81373809Y-97016666D01*
X81326190Y-96921428D01*
X81326190Y-96397619D01*
X81326190Y-96921428D02*
X81278571Y-97016666D01*
X81183333Y-97064285D01*
X81040476Y-97064285D01*
X80945238Y-97016666D01*
X80897619Y-96921428D01*
X80897619Y-96397619D01*
X80421428Y-96397619D02*
X80421428Y-97064285D01*
X80421428Y-96969047D02*
X80373809Y-97016666D01*
X80278571Y-97064285D01*
X80135714Y-97064285D01*
X80040476Y-97016666D01*
X79992857Y-96921428D01*
X79992857Y-96397619D01*
X79992857Y-96921428D02*
X79945238Y-97016666D01*
X79850000Y-97064285D01*
X79707142Y-97064285D01*
X79611904Y-97016666D01*
X79564285Y-96921428D01*
X79564285Y-96397619D01*
X159230952Y-97397619D02*
X158611904Y-97397619D01*
X158945238Y-97016666D01*
X158802380Y-97016666D01*
X158707142Y-96969047D01*
X158659523Y-96921428D01*
X158611904Y-96826190D01*
X158611904Y-96588095D01*
X158659523Y-96492857D01*
X158707142Y-96445238D01*
X158802380Y-96397619D01*
X159088095Y-96397619D01*
X159183333Y-96445238D01*
X159230952Y-96492857D01*
X158183333Y-96492857D02*
X158135714Y-96445238D01*
X158183333Y-96397619D01*
X158230952Y-96445238D01*
X158183333Y-96492857D01*
X158183333Y-96397619D01*
X157754761Y-97302380D02*
X157707142Y-97350000D01*
X157611904Y-97397619D01*
X157373809Y-97397619D01*
X157278571Y-97350000D01*
X157230952Y-97302380D01*
X157183333Y-97207142D01*
X157183333Y-97111904D01*
X157230952Y-96969047D01*
X157802380Y-96397619D01*
X157183333Y-96397619D01*
X156754761Y-96397619D02*
X156754761Y-97064285D01*
X156754761Y-96969047D02*
X156707142Y-97016666D01*
X156611904Y-97064285D01*
X156469047Y-97064285D01*
X156373809Y-97016666D01*
X156326190Y-96921428D01*
X156326190Y-96397619D01*
X156326190Y-96921428D02*
X156278571Y-97016666D01*
X156183333Y-97064285D01*
X156040476Y-97064285D01*
X155945238Y-97016666D01*
X155897619Y-96921428D01*
X155897619Y-96397619D01*
X155421428Y-96397619D02*
X155421428Y-97064285D01*
X155421428Y-96969047D02*
X155373809Y-97016666D01*
X155278571Y-97064285D01*
X155135714Y-97064285D01*
X155040476Y-97016666D01*
X154992857Y-96921428D01*
X154992857Y-96397619D01*
X154992857Y-96921428D02*
X154945238Y-97016666D01*
X154850000Y-97064285D01*
X154707142Y-97064285D01*
X154611904Y-97016666D01*
X154564285Y-96921428D01*
X154564285Y-96397619D01*
X154016666Y-116647619D02*
X154064285Y-116600000D01*
X154159523Y-116552380D01*
X154397619Y-116552380D01*
X154492857Y-116600000D01*
X154540476Y-116647619D01*
X154588095Y-116742857D01*
X154588095Y-116838095D01*
X154540476Y-116980952D01*
X153969047Y-117552380D01*
X154588095Y-117552380D01*
X155016666Y-117457142D02*
X155064285Y-117504761D01*
X155016666Y-117552380D01*
X154969047Y-117504761D01*
X155016666Y-117457142D01*
X155016666Y-117552380D01*
X155397619Y-116552380D02*
X156064285Y-116552380D01*
X155635714Y-117552380D01*
X156445238Y-117552380D02*
X156445238Y-116885714D01*
X156445238Y-116980952D02*
X156492857Y-116933333D01*
X156588095Y-116885714D01*
X156730952Y-116885714D01*
X156826190Y-116933333D01*
X156873809Y-117028571D01*
X156873809Y-117552380D01*
X156873809Y-117028571D02*
X156921428Y-116933333D01*
X157016666Y-116885714D01*
X157159523Y-116885714D01*
X157254761Y-116933333D01*
X157302380Y-117028571D01*
X157302380Y-117552380D01*
X157778571Y-117552380D02*
X157778571Y-116885714D01*
X157778571Y-116980952D02*
X157826190Y-116933333D01*
X157921428Y-116885714D01*
X158064285Y-116885714D01*
X158159523Y-116933333D01*
X158207142Y-117028571D01*
X158207142Y-117552380D01*
X158207142Y-117028571D02*
X158254761Y-116933333D01*
X158350000Y-116885714D01*
X158492857Y-116885714D01*
X158588095Y-116933333D01*
X158635714Y-117028571D01*
X158635714Y-117552380D01*
X79516666Y-116647619D02*
X79564285Y-116600000D01*
X79659523Y-116552380D01*
X79897619Y-116552380D01*
X79992857Y-116600000D01*
X80040476Y-116647619D01*
X80088095Y-116742857D01*
X80088095Y-116838095D01*
X80040476Y-116980952D01*
X79469047Y-117552380D01*
X80088095Y-117552380D01*
X80516666Y-117457142D02*
X80564285Y-117504761D01*
X80516666Y-117552380D01*
X80469047Y-117504761D01*
X80516666Y-117457142D01*
X80516666Y-117552380D01*
X80897619Y-116552380D02*
X81564285Y-116552380D01*
X81135714Y-117552380D01*
X81945238Y-117552380D02*
X81945238Y-116885714D01*
X81945238Y-116980952D02*
X81992857Y-116933333D01*
X82088095Y-116885714D01*
X82230952Y-116885714D01*
X82326190Y-116933333D01*
X82373809Y-117028571D01*
X82373809Y-117552380D01*
X82373809Y-117028571D02*
X82421428Y-116933333D01*
X82516666Y-116885714D01*
X82659523Y-116885714D01*
X82754761Y-116933333D01*
X82802380Y-117028571D01*
X82802380Y-117552380D01*
X83278571Y-117552380D02*
X83278571Y-116885714D01*
X83278571Y-116980952D02*
X83326190Y-116933333D01*
X83421428Y-116885714D01*
X83564285Y-116885714D01*
X83659523Y-116933333D01*
X83707142Y-117028571D01*
X83707142Y-117552380D01*
X83707142Y-117028571D02*
X83754761Y-116933333D01*
X83850000Y-116885714D01*
X83992857Y-116885714D01*
X84088095Y-116933333D01*
X84135714Y-117028571D01*
X84135714Y-117552380D01*
X154016666Y-139897619D02*
X154064285Y-139850000D01*
X154159523Y-139802380D01*
X154397619Y-139802380D01*
X154492857Y-139850000D01*
X154540476Y-139897619D01*
X154588095Y-139992857D01*
X154588095Y-140088095D01*
X154540476Y-140230952D01*
X153969047Y-140802380D01*
X154588095Y-140802380D01*
X155016666Y-140707142D02*
X155064285Y-140754761D01*
X155016666Y-140802380D01*
X154969047Y-140754761D01*
X155016666Y-140707142D01*
X155016666Y-140802380D01*
X155397619Y-139802380D02*
X156064285Y-139802380D01*
X155635714Y-140802380D01*
X156445238Y-140802380D02*
X156445238Y-140135714D01*
X156445238Y-140230952D02*
X156492857Y-140183333D01*
X156588095Y-140135714D01*
X156730952Y-140135714D01*
X156826190Y-140183333D01*
X156873809Y-140278571D01*
X156873809Y-140802380D01*
X156873809Y-140278571D02*
X156921428Y-140183333D01*
X157016666Y-140135714D01*
X157159523Y-140135714D01*
X157254761Y-140183333D01*
X157302380Y-140278571D01*
X157302380Y-140802380D01*
X157778571Y-140802380D02*
X157778571Y-140135714D01*
X157778571Y-140230952D02*
X157826190Y-140183333D01*
X157921428Y-140135714D01*
X158064285Y-140135714D01*
X158159523Y-140183333D01*
X158207142Y-140278571D01*
X158207142Y-140802380D01*
X158207142Y-140278571D02*
X158254761Y-140183333D01*
X158350000Y-140135714D01*
X158492857Y-140135714D01*
X158588095Y-140183333D01*
X158635714Y-140278571D01*
X158635714Y-140802380D01*
X79516666Y-139897619D02*
X79564285Y-139850000D01*
X79659523Y-139802380D01*
X79897619Y-139802380D01*
X79992857Y-139850000D01*
X80040476Y-139897619D01*
X80088095Y-139992857D01*
X80088095Y-140088095D01*
X80040476Y-140230952D01*
X79469047Y-140802380D01*
X80088095Y-140802380D01*
X80516666Y-140707142D02*
X80564285Y-140754761D01*
X80516666Y-140802380D01*
X80469047Y-140754761D01*
X80516666Y-140707142D01*
X80516666Y-140802380D01*
X80897619Y-139802380D02*
X81564285Y-139802380D01*
X81135714Y-140802380D01*
X81945238Y-140802380D02*
X81945238Y-140135714D01*
X81945238Y-140230952D02*
X81992857Y-140183333D01*
X82088095Y-140135714D01*
X82230952Y-140135714D01*
X82326190Y-140183333D01*
X82373809Y-140278571D01*
X82373809Y-140802380D01*
X82373809Y-140278571D02*
X82421428Y-140183333D01*
X82516666Y-140135714D01*
X82659523Y-140135714D01*
X82754761Y-140183333D01*
X82802380Y-140278571D01*
X82802380Y-140802380D01*
X83278571Y-140802380D02*
X83278571Y-140135714D01*
X83278571Y-140230952D02*
X83326190Y-140183333D01*
X83421428Y-140135714D01*
X83564285Y-140135714D01*
X83659523Y-140183333D01*
X83707142Y-140278571D01*
X83707142Y-140802380D01*
X83707142Y-140278571D02*
X83754761Y-140183333D01*
X83850000Y-140135714D01*
X83992857Y-140135714D01*
X84088095Y-140183333D01*
X84135714Y-140278571D01*
X84135714Y-140802380D01*
X79469047Y-124302380D02*
X80088095Y-124302380D01*
X79754761Y-124683333D01*
X79897619Y-124683333D01*
X79992857Y-124730952D01*
X80040476Y-124778571D01*
X80088095Y-124873809D01*
X80088095Y-125111904D01*
X80040476Y-125207142D01*
X79992857Y-125254761D01*
X79897619Y-125302380D01*
X79611904Y-125302380D01*
X79516666Y-125254761D01*
X79469047Y-125207142D01*
X80516666Y-125207142D02*
X80564285Y-125254761D01*
X80516666Y-125302380D01*
X80469047Y-125254761D01*
X80516666Y-125207142D01*
X80516666Y-125302380D01*
X80945238Y-124397619D02*
X80992857Y-124350000D01*
X81088095Y-124302380D01*
X81326190Y-124302380D01*
X81421428Y-124350000D01*
X81469047Y-124397619D01*
X81516666Y-124492857D01*
X81516666Y-124588095D01*
X81469047Y-124730952D01*
X80897619Y-125302380D01*
X81516666Y-125302380D01*
X81945238Y-125302380D02*
X81945238Y-124635714D01*
X81945238Y-124730952D02*
X81992857Y-124683333D01*
X82088095Y-124635714D01*
X82230952Y-124635714D01*
X82326190Y-124683333D01*
X82373809Y-124778571D01*
X82373809Y-125302380D01*
X82373809Y-124778571D02*
X82421428Y-124683333D01*
X82516666Y-124635714D01*
X82659523Y-124635714D01*
X82754761Y-124683333D01*
X82802380Y-124778571D01*
X82802380Y-125302380D01*
X83278571Y-125302380D02*
X83278571Y-124635714D01*
X83278571Y-124730952D02*
X83326190Y-124683333D01*
X83421428Y-124635714D01*
X83564285Y-124635714D01*
X83659523Y-124683333D01*
X83707142Y-124778571D01*
X83707142Y-125302380D01*
X83707142Y-124778571D02*
X83754761Y-124683333D01*
X83850000Y-124635714D01*
X83992857Y-124635714D01*
X84088095Y-124683333D01*
X84135714Y-124778571D01*
X84135714Y-125302380D01*
X153969047Y-124302380D02*
X154588095Y-124302380D01*
X154254761Y-124683333D01*
X154397619Y-124683333D01*
X154492857Y-124730952D01*
X154540476Y-124778571D01*
X154588095Y-124873809D01*
X154588095Y-125111904D01*
X154540476Y-125207142D01*
X154492857Y-125254761D01*
X154397619Y-125302380D01*
X154111904Y-125302380D01*
X154016666Y-125254761D01*
X153969047Y-125207142D01*
X155016666Y-125207142D02*
X155064285Y-125254761D01*
X155016666Y-125302380D01*
X154969047Y-125254761D01*
X155016666Y-125207142D01*
X155016666Y-125302380D01*
X155445238Y-124397619D02*
X155492857Y-124350000D01*
X155588095Y-124302380D01*
X155826190Y-124302380D01*
X155921428Y-124350000D01*
X155969047Y-124397619D01*
X156016666Y-124492857D01*
X156016666Y-124588095D01*
X155969047Y-124730952D01*
X155397619Y-125302380D01*
X156016666Y-125302380D01*
X156445238Y-125302380D02*
X156445238Y-124635714D01*
X156445238Y-124730952D02*
X156492857Y-124683333D01*
X156588095Y-124635714D01*
X156730952Y-124635714D01*
X156826190Y-124683333D01*
X156873809Y-124778571D01*
X156873809Y-125302380D01*
X156873809Y-124778571D02*
X156921428Y-124683333D01*
X157016666Y-124635714D01*
X157159523Y-124635714D01*
X157254761Y-124683333D01*
X157302380Y-124778571D01*
X157302380Y-125302380D01*
X157778571Y-125302380D02*
X157778571Y-124635714D01*
X157778571Y-124730952D02*
X157826190Y-124683333D01*
X157921428Y-124635714D01*
X158064285Y-124635714D01*
X158159523Y-124683333D01*
X158207142Y-124778571D01*
X158207142Y-125302380D01*
X158207142Y-124778571D02*
X158254761Y-124683333D01*
X158350000Y-124635714D01*
X158492857Y-124635714D01*
X158588095Y-124683333D01*
X158635714Y-124778571D01*
X158635714Y-125302380D01*
X157852380Y-108647619D02*
X157519047Y-107647619D01*
X157185714Y-108647619D01*
X156852380Y-108028571D02*
X156090476Y-108028571D01*
X156471428Y-107647619D02*
X156471428Y-108409523D01*
X157661904Y-98700000D02*
X157757142Y-98747619D01*
X157900000Y-98747619D01*
X158042857Y-98700000D01*
X158138095Y-98604761D01*
X158185714Y-98509523D01*
X158233333Y-98319047D01*
X158233333Y-98176190D01*
X158185714Y-97985714D01*
X158138095Y-97890476D01*
X158042857Y-97795238D01*
X157900000Y-97747619D01*
X157804761Y-97747619D01*
X157661904Y-97795238D01*
X157614285Y-97842857D01*
X157614285Y-98176190D01*
X157804761Y-98176190D01*
X157185714Y-97747619D02*
X157185714Y-98747619D01*
X156614285Y-97747619D01*
X156614285Y-98747619D01*
X156138095Y-97747619D02*
X156138095Y-98747619D01*
X155900000Y-98747619D01*
X155757142Y-98700000D01*
X155661904Y-98604761D01*
X155614285Y-98509523D01*
X155566666Y-98319047D01*
X155566666Y-98176190D01*
X155614285Y-97985714D01*
X155661904Y-97890476D01*
X155757142Y-97795238D01*
X155900000Y-97747619D01*
X156138095Y-97747619D01*
X93633333Y-122257142D02*
X93585714Y-122304761D01*
X93442857Y-122352380D01*
X93347619Y-122352380D01*
X93204761Y-122304761D01*
X93109523Y-122209523D01*
X93061904Y-122114285D01*
X93014285Y-121923809D01*
X93014285Y-121780952D01*
X93061904Y-121590476D01*
X93109523Y-121495238D01*
X93204761Y-121400000D01*
X93347619Y-121352380D01*
X93442857Y-121352380D01*
X93585714Y-121400000D01*
X93633333Y-121447619D01*
X94538095Y-121352380D02*
X94061904Y-121352380D01*
X94014285Y-121828571D01*
X94061904Y-121780952D01*
X94157142Y-121733333D01*
X94395238Y-121733333D01*
X94490476Y-121780952D01*
X94538095Y-121828571D01*
X94585714Y-121923809D01*
X94585714Y-122161904D01*
X94538095Y-122257142D01*
X94490476Y-122304761D01*
X94395238Y-122352380D01*
X94157142Y-122352380D01*
X94061904Y-122304761D01*
X94014285Y-122257142D01*
X97033333Y-118657142D02*
X96985714Y-118704761D01*
X96842857Y-118752380D01*
X96747619Y-118752380D01*
X96604761Y-118704761D01*
X96509523Y-118609523D01*
X96461904Y-118514285D01*
X96414285Y-118323809D01*
X96414285Y-118180952D01*
X96461904Y-117990476D01*
X96509523Y-117895238D01*
X96604761Y-117800000D01*
X96747619Y-117752380D01*
X96842857Y-117752380D01*
X96985714Y-117800000D01*
X97033333Y-117847619D01*
X97890476Y-118085714D02*
X97890476Y-118752380D01*
X97652380Y-117704761D02*
X97414285Y-118419047D01*
X98033333Y-118419047D01*
X90733333Y-118657142D02*
X90685714Y-118704761D01*
X90542857Y-118752380D01*
X90447619Y-118752380D01*
X90304761Y-118704761D01*
X90209523Y-118609523D01*
X90161904Y-118514285D01*
X90114285Y-118323809D01*
X90114285Y-118180952D01*
X90161904Y-117990476D01*
X90209523Y-117895238D01*
X90304761Y-117800000D01*
X90447619Y-117752380D01*
X90542857Y-117752380D01*
X90685714Y-117800000D01*
X90733333Y-117847619D01*
X91685714Y-118752380D02*
X91114285Y-118752380D01*
X91400000Y-118752380D02*
X91400000Y-117752380D01*
X91304761Y-117895238D01*
X91209523Y-117990476D01*
X91114285Y-118038095D01*
X96733333Y-114957142D02*
X96685714Y-115004761D01*
X96542857Y-115052380D01*
X96447619Y-115052380D01*
X96304761Y-115004761D01*
X96209523Y-114909523D01*
X96161904Y-114814285D01*
X96114285Y-114623809D01*
X96114285Y-114480952D01*
X96161904Y-114290476D01*
X96209523Y-114195238D01*
X96304761Y-114100000D01*
X96447619Y-114052380D01*
X96542857Y-114052380D01*
X96685714Y-114100000D01*
X96733333Y-114147619D01*
X97114285Y-114147619D02*
X97161904Y-114100000D01*
X97257142Y-114052380D01*
X97495238Y-114052380D01*
X97590476Y-114100000D01*
X97638095Y-114147619D01*
X97685714Y-114242857D01*
X97685714Y-114338095D01*
X97638095Y-114480952D01*
X97066666Y-115052380D01*
X97685714Y-115052380D01*
X90633333Y-114957142D02*
X90585714Y-115004761D01*
X90442857Y-115052380D01*
X90347619Y-115052380D01*
X90204761Y-115004761D01*
X90109523Y-114909523D01*
X90061904Y-114814285D01*
X90014285Y-114623809D01*
X90014285Y-114480952D01*
X90061904Y-114290476D01*
X90109523Y-114195238D01*
X90204761Y-114100000D01*
X90347619Y-114052380D01*
X90442857Y-114052380D01*
X90585714Y-114100000D01*
X90633333Y-114147619D01*
X90966666Y-114052380D02*
X91585714Y-114052380D01*
X91252380Y-114433333D01*
X91395238Y-114433333D01*
X91490476Y-114480952D01*
X91538095Y-114528571D01*
X91585714Y-114623809D01*
X91585714Y-114861904D01*
X91538095Y-114957142D01*
X91490476Y-115004761D01*
X91395238Y-115052380D01*
X91109523Y-115052380D01*
X91014285Y-115004761D01*
X90966666Y-114957142D01*
X86847619Y-98949524D02*
X87847619Y-98949524D01*
X86847619Y-99520953D02*
X87419047Y-99092381D01*
X87847619Y-99520953D02*
X87276190Y-98949524D01*
X87847619Y-100568572D02*
X87847619Y-101140001D01*
X86847619Y-100854286D02*
X87847619Y-100854286D01*
X87228571Y-101473334D02*
X87228571Y-102235239D01*
X86942857Y-103282858D02*
X86895238Y-103235239D01*
X86847619Y-103092381D01*
X86847619Y-102997143D01*
X86895238Y-102854286D01*
X86990476Y-102759048D01*
X87085714Y-102711429D01*
X87276190Y-102663810D01*
X87419047Y-102663810D01*
X87609523Y-102711429D01*
X87704761Y-102759048D01*
X87800000Y-102854286D01*
X87847619Y-102997143D01*
X87847619Y-103092381D01*
X87800000Y-103235239D01*
X87752380Y-103282858D01*
X86847619Y-103854286D02*
X86895238Y-103759048D01*
X86942857Y-103711429D01*
X87038095Y-103663810D01*
X87323809Y-103663810D01*
X87419047Y-103711429D01*
X87466666Y-103759048D01*
X87514285Y-103854286D01*
X87514285Y-103997143D01*
X87466666Y-104092381D01*
X87419047Y-104140001D01*
X87323809Y-104187620D01*
X87038095Y-104187620D01*
X86942857Y-104140001D01*
X86895238Y-104092381D01*
X86847619Y-103997143D01*
X86847619Y-103854286D01*
X87514285Y-105044762D02*
X86847619Y-105044762D01*
X87514285Y-104616191D02*
X86990476Y-104616191D01*
X86895238Y-104663810D01*
X86847619Y-104759048D01*
X86847619Y-104901905D01*
X86895238Y-104997143D01*
X86942857Y-105044762D01*
X87514285Y-105520953D02*
X86514285Y-105520953D01*
X87466666Y-105520953D02*
X87514285Y-105616191D01*
X87514285Y-105806667D01*
X87466666Y-105901905D01*
X87419047Y-105949524D01*
X87323809Y-105997143D01*
X87038095Y-105997143D01*
X86942857Y-105949524D01*
X86895238Y-105901905D01*
X86847619Y-105806667D01*
X86847619Y-105616191D01*
X86895238Y-105520953D01*
X86847619Y-106568572D02*
X86895238Y-106473334D01*
X86990476Y-106425715D01*
X87847619Y-106425715D01*
X86895238Y-107330477D02*
X86847619Y-107235239D01*
X86847619Y-107044762D01*
X86895238Y-106949524D01*
X86990476Y-106901905D01*
X87371428Y-106901905D01*
X87466666Y-106949524D01*
X87514285Y-107044762D01*
X87514285Y-107235239D01*
X87466666Y-107330477D01*
X87371428Y-107378096D01*
X87276190Y-107378096D01*
X87180952Y-106901905D01*
X79047619Y-95695238D02*
X79047619Y-96266666D01*
X78047619Y-95980952D02*
X79047619Y-95980952D01*
X78428571Y-96600000D02*
X78428571Y-97361904D01*
X79047619Y-108695238D02*
X79047619Y-109266666D01*
X78047619Y-108980952D02*
X79047619Y-108980952D01*
X78428571Y-109600000D02*
X78428571Y-110361904D01*
X78047619Y-109980952D02*
X78809523Y-109980952D01*
X93997619Y-100880952D02*
X94997619Y-100880952D01*
X94283333Y-101214285D01*
X94997619Y-101547619D01*
X93997619Y-101547619D01*
X94283333Y-101976190D02*
X94283333Y-102452380D01*
X93997619Y-101880952D02*
X94997619Y-102214285D01*
X93997619Y-102547619D01*
X94997619Y-102785714D02*
X93997619Y-103452380D01*
X94997619Y-103452380D02*
X93997619Y-102785714D01*
X94997619Y-103738095D02*
X94997619Y-104357142D01*
X94616666Y-104023809D01*
X94616666Y-104166666D01*
X94569047Y-104261904D01*
X94521428Y-104309523D01*
X94426190Y-104357142D01*
X94188095Y-104357142D01*
X94092857Y-104309523D01*
X94045238Y-104261904D01*
X93997619Y-104166666D01*
X93997619Y-103880952D01*
X94045238Y-103785714D01*
X94092857Y-103738095D01*
X93997619Y-105309523D02*
X93997619Y-104738095D01*
X93997619Y-105023809D02*
X94997619Y-105023809D01*
X94854761Y-104928571D01*
X94759523Y-104833333D01*
X94711904Y-104738095D01*
X94569047Y-105880952D02*
X94616666Y-105785714D01*
X94664285Y-105738095D01*
X94759523Y-105690476D01*
X94807142Y-105690476D01*
X94902380Y-105738095D01*
X94950000Y-105785714D01*
X94997619Y-105880952D01*
X94997619Y-106071428D01*
X94950000Y-106166666D01*
X94902380Y-106214285D01*
X94807142Y-106261904D01*
X94759523Y-106261904D01*
X94664285Y-106214285D01*
X94616666Y-106166666D01*
X94569047Y-106071428D01*
X94569047Y-105880952D01*
X94521428Y-105785714D01*
X94473809Y-105738095D01*
X94378571Y-105690476D01*
X94188095Y-105690476D01*
X94092857Y-105738095D01*
X94045238Y-105785714D01*
X93997619Y-105880952D01*
X93997619Y-106071428D01*
X94045238Y-106166666D01*
X94092857Y-106214285D01*
X94188095Y-106261904D01*
X94378571Y-106261904D01*
X94473809Y-106214285D01*
X94521428Y-106166666D01*
X94569047Y-106071428D01*
X94997619Y-107166666D02*
X94997619Y-106690476D01*
X94521428Y-106642857D01*
X94569047Y-106690476D01*
X94616666Y-106785714D01*
X94616666Y-107023809D01*
X94569047Y-107119047D01*
X94521428Y-107166666D01*
X94426190Y-107214285D01*
X94188095Y-107214285D01*
X94092857Y-107166666D01*
X94045238Y-107119047D01*
X93997619Y-107023809D01*
X93997619Y-106785714D01*
X94045238Y-106690476D01*
X94092857Y-106642857D01*
X94997619Y-108071428D02*
X94997619Y-107880952D01*
X94950000Y-107785714D01*
X94902380Y-107738095D01*
X94759523Y-107642857D01*
X94569047Y-107595238D01*
X94188095Y-107595238D01*
X94092857Y-107642857D01*
X94045238Y-107690476D01*
X93997619Y-107785714D01*
X93997619Y-107976190D01*
X94045238Y-108071428D01*
X94092857Y-108119047D01*
X94188095Y-108166666D01*
X94426190Y-108166666D01*
X94521428Y-108119047D01*
X94569047Y-108071428D01*
X94616666Y-107976190D01*
X94616666Y-107785714D01*
X94569047Y-107690476D01*
X94521428Y-107642857D01*
X94426190Y-107595238D01*
X91295238Y-96747619D02*
X91104761Y-96747619D01*
X91009523Y-96700000D01*
X90914285Y-96604761D01*
X90866666Y-96414285D01*
X90866666Y-96080952D01*
X90914285Y-95890476D01*
X91009523Y-95795238D01*
X91104761Y-95747619D01*
X91295238Y-95747619D01*
X91390476Y-95795238D01*
X91485714Y-95890476D01*
X91533333Y-96080952D01*
X91533333Y-96414285D01*
X91485714Y-96604761D01*
X91390476Y-96700000D01*
X91295238Y-96747619D01*
X90438095Y-95747619D02*
X90438095Y-96747619D01*
X89866666Y-95747619D02*
X90295238Y-96319047D01*
X89866666Y-96747619D02*
X90438095Y-96176190D01*
X92580952Y-92947619D02*
X92342857Y-91947619D01*
X92152380Y-92661904D01*
X91961904Y-91947619D01*
X91723809Y-92947619D01*
X91390476Y-92233333D02*
X90914285Y-92233333D01*
X91485714Y-91947619D02*
X91152380Y-92947619D01*
X90819047Y-91947619D01*
X89914285Y-91947619D02*
X90247619Y-92423809D01*
X90485714Y-91947619D02*
X90485714Y-92947619D01*
X90104761Y-92947619D01*
X90009523Y-92900000D01*
X89961904Y-92852380D01*
X89914285Y-92757142D01*
X89914285Y-92614285D01*
X89961904Y-92519047D01*
X90009523Y-92471428D01*
X90104761Y-92423809D01*
X90485714Y-92423809D01*
X89485714Y-91947619D02*
X89485714Y-92947619D01*
X88914285Y-91947619D01*
X88914285Y-92947619D01*
X153352380Y-105533334D02*
X153352380Y-104866667D01*
X154352380Y-105295239D01*
X153971428Y-104485715D02*
X153971428Y-103723810D01*
X154352380Y-102723810D02*
X154352380Y-103295239D01*
X154352380Y-103009524D02*
X153352380Y-103009524D01*
X153495238Y-103104762D01*
X153590476Y-103200001D01*
X153638095Y-103295239D01*
X153447619Y-102342858D02*
X153400000Y-102295239D01*
X153352380Y-102200001D01*
X153352380Y-101961905D01*
X153400000Y-101866667D01*
X153447619Y-101819048D01*
X153542857Y-101771429D01*
X153638095Y-101771429D01*
X153780952Y-101819048D01*
X154352380Y-102390477D01*
X154352380Y-101771429D01*
X153352380Y-101485715D02*
X154352380Y-101152381D01*
X153352380Y-100819048D01*
X147752380Y-105819047D02*
X147752380Y-105628571D01*
X147800000Y-105533333D01*
X147895238Y-105438095D01*
X148085714Y-105390476D01*
X148419047Y-105390476D01*
X148609523Y-105438095D01*
X148704761Y-105533333D01*
X148752380Y-105628571D01*
X148752380Y-105819047D01*
X148704761Y-105914285D01*
X148609523Y-106009523D01*
X148419047Y-106057142D01*
X148085714Y-106057142D01*
X147895238Y-106009523D01*
X147800000Y-105914285D01*
X147752380Y-105819047D01*
X148228571Y-104628571D02*
X148228571Y-104961904D01*
X148752380Y-104961904D02*
X147752380Y-104961904D01*
X147752380Y-104485714D01*
X148228571Y-103771428D02*
X148228571Y-104104761D01*
X148752380Y-104104761D02*
X147752380Y-104104761D01*
X147752380Y-103628571D01*
X148371428Y-103247619D02*
X148371428Y-102485714D01*
X148561904Y-102676190D02*
X148371428Y-102485714D01*
X148180952Y-102676190D01*
X148180952Y-103057142D02*
X148371428Y-103247619D01*
X148561904Y-103057142D01*
X147752380Y-101819047D02*
X147752380Y-101628571D01*
X147800000Y-101533333D01*
X147895238Y-101438095D01*
X148085714Y-101390476D01*
X148419047Y-101390476D01*
X148609523Y-101438095D01*
X148704761Y-101533333D01*
X148752380Y-101628571D01*
X148752380Y-101819047D01*
X148704761Y-101914285D01*
X148609523Y-102009523D01*
X148419047Y-102057142D01*
X148085714Y-102057142D01*
X147895238Y-102009523D01*
X147800000Y-101914285D01*
X147752380Y-101819047D01*
X148752380Y-100961904D02*
X147752380Y-100961904D01*
X148752380Y-100390476D01*
X147752380Y-100390476D01*
X127771428Y-98945238D02*
X127628571Y-98897619D01*
X127390476Y-98897619D01*
X127295238Y-98945238D01*
X127247619Y-98992857D01*
X127200000Y-99088095D01*
X127200000Y-99183333D01*
X127247619Y-99278571D01*
X127295238Y-99326190D01*
X127390476Y-99373809D01*
X127580952Y-99421428D01*
X127676190Y-99469047D01*
X127723809Y-99516666D01*
X127771428Y-99611904D01*
X127771428Y-99707142D01*
X127723809Y-99802380D01*
X127676190Y-99850000D01*
X127580952Y-99897619D01*
X127342857Y-99897619D01*
X127200000Y-99850000D01*
X126914285Y-99897619D02*
X126342857Y-99897619D01*
X126628571Y-98897619D02*
X126628571Y-99897619D01*
X126009523Y-98897619D02*
X126009523Y-99897619D01*
X125676190Y-99183333D01*
X125342857Y-99897619D01*
X125342857Y-98897619D01*
X124961904Y-99897619D02*
X124342857Y-99897619D01*
X124676190Y-99516666D01*
X124533333Y-99516666D01*
X124438095Y-99469047D01*
X124390476Y-99421428D01*
X124342857Y-99326190D01*
X124342857Y-99088095D01*
X124390476Y-98992857D01*
X124438095Y-98945238D01*
X124533333Y-98897619D01*
X124819047Y-98897619D01*
X124914285Y-98945238D01*
X124961904Y-98992857D01*
X123961904Y-99802380D02*
X123914285Y-99850000D01*
X123819047Y-99897619D01*
X123580952Y-99897619D01*
X123485714Y-99850000D01*
X123438095Y-99802380D01*
X123390476Y-99707142D01*
X123390476Y-99611904D01*
X123438095Y-99469047D01*
X124009523Y-98897619D01*
X123390476Y-98897619D01*
X122200000Y-98897619D02*
X122200000Y-99897619D01*
X121628571Y-98897619D01*
X121628571Y-99897619D01*
X120723809Y-99564285D02*
X120723809Y-98897619D01*
X121152380Y-99564285D02*
X121152380Y-99040476D01*
X121104761Y-98945238D01*
X121009523Y-98897619D01*
X120866666Y-98897619D01*
X120771428Y-98945238D01*
X120723809Y-98992857D01*
X119819047Y-98945238D02*
X119914285Y-98897619D01*
X120104761Y-98897619D01*
X120200000Y-98945238D01*
X120247619Y-98992857D01*
X120295238Y-99088095D01*
X120295238Y-99373809D01*
X120247619Y-99469047D01*
X120200000Y-99516666D01*
X120104761Y-99564285D01*
X119914285Y-99564285D01*
X119819047Y-99516666D01*
X119247619Y-98897619D02*
X119342857Y-98945238D01*
X119390476Y-99040476D01*
X119390476Y-99897619D01*
X118485714Y-98945238D02*
X118580952Y-98897619D01*
X118771428Y-98897619D01*
X118866666Y-98945238D01*
X118914285Y-99040476D01*
X118914285Y-99421428D01*
X118866666Y-99516666D01*
X118771428Y-99564285D01*
X118580952Y-99564285D01*
X118485714Y-99516666D01*
X118438095Y-99421428D01*
X118438095Y-99326190D01*
X118914285Y-99230952D01*
X117866666Y-98897619D02*
X117961904Y-98945238D01*
X118009523Y-98992857D01*
X118057142Y-99088095D01*
X118057142Y-99373809D01*
X118009523Y-99469047D01*
X117961904Y-99516666D01*
X117866666Y-99564285D01*
X117723809Y-99564285D01*
X117628571Y-99516666D01*
X117580952Y-99469047D01*
X117533333Y-99373809D01*
X117533333Y-99088095D01*
X117580952Y-98992857D01*
X117628571Y-98945238D01*
X117723809Y-98897619D01*
X117866666Y-98897619D01*
X117104761Y-99278571D02*
X116342857Y-99278571D01*
X115533333Y-99421428D02*
X115866666Y-99421428D01*
X115866666Y-98897619D02*
X115866666Y-99897619D01*
X115390476Y-99897619D01*
X115104761Y-99897619D02*
X114485714Y-99897619D01*
X114819047Y-99516666D01*
X114676190Y-99516666D01*
X114580952Y-99469047D01*
X114533333Y-99421428D01*
X114485714Y-99326190D01*
X114485714Y-99088095D01*
X114533333Y-98992857D01*
X114580952Y-98945238D01*
X114676190Y-98897619D01*
X114961904Y-98897619D01*
X115057142Y-98945238D01*
X115104761Y-98992857D01*
X113866666Y-99897619D02*
X113771428Y-99897619D01*
X113676190Y-99850000D01*
X113628571Y-99802380D01*
X113580952Y-99707142D01*
X113533333Y-99516666D01*
X113533333Y-99278571D01*
X113580952Y-99088095D01*
X113628571Y-98992857D01*
X113676190Y-98945238D01*
X113771428Y-98897619D01*
X113866666Y-98897619D01*
X113961904Y-98945238D01*
X114009523Y-98992857D01*
X114057142Y-99088095D01*
X114104761Y-99278571D01*
X114104761Y-99516666D01*
X114057142Y-99707142D01*
X114009523Y-99802380D01*
X113961904Y-99850000D01*
X113866666Y-99897619D01*
X113200000Y-99897619D02*
X112580952Y-99897619D01*
X112914285Y-99516666D01*
X112771428Y-99516666D01*
X112676190Y-99469047D01*
X112628571Y-99421428D01*
X112580952Y-99326190D01*
X112580952Y-99088095D01*
X112628571Y-98992857D01*
X112676190Y-98945238D01*
X112771428Y-98897619D01*
X113057142Y-98897619D01*
X113152380Y-98945238D01*
X113200000Y-98992857D01*
X112152380Y-98897619D02*
X112152380Y-99897619D01*
X111580952Y-98897619D02*
X112009523Y-99469047D01*
X111580952Y-99897619D02*
X112152380Y-99326190D01*
X111009523Y-99469047D02*
X111104761Y-99516666D01*
X111152380Y-99564285D01*
X111200000Y-99659523D01*
X111200000Y-99707142D01*
X111152380Y-99802380D01*
X111104761Y-99850000D01*
X111009523Y-99897619D01*
X110819047Y-99897619D01*
X110723809Y-99850000D01*
X110676190Y-99802380D01*
X110628571Y-99707142D01*
X110628571Y-99659523D01*
X110676190Y-99564285D01*
X110723809Y-99516666D01*
X110819047Y-99469047D01*
X111009523Y-99469047D01*
X111104761Y-99421428D01*
X111152380Y-99373809D01*
X111200000Y-99278571D01*
X111200000Y-99088095D01*
X111152380Y-98992857D01*
X111104761Y-98945238D01*
X111009523Y-98897619D01*
X110819047Y-98897619D01*
X110723809Y-98945238D01*
X110676190Y-98992857D01*
X110628571Y-99088095D01*
X110628571Y-99278571D01*
X110676190Y-99373809D01*
X110723809Y-99421428D01*
X110819047Y-99469047D01*
X128247619Y-137552380D02*
X127676190Y-137552380D01*
X127961904Y-137552380D02*
X127961904Y-136552380D01*
X127866666Y-136695238D01*
X127771428Y-136790476D01*
X127676190Y-136838095D01*
X129104761Y-136552380D02*
X128914285Y-136552380D01*
X128819047Y-136600000D01*
X128771428Y-136647619D01*
X128676190Y-136790476D01*
X128628571Y-136980952D01*
X128628571Y-137361904D01*
X128676190Y-137457142D01*
X128723809Y-137504761D01*
X128819047Y-137552380D01*
X129009523Y-137552380D01*
X129104761Y-137504761D01*
X129152380Y-137457142D01*
X129200000Y-137361904D01*
X129200000Y-137123809D01*
X129152380Y-137028571D01*
X129104761Y-136980952D01*
X129009523Y-136933333D01*
X128819047Y-136933333D01*
X128723809Y-136980952D01*
X128676190Y-137028571D01*
X128628571Y-137123809D01*
X129533333Y-137552380D02*
X130057142Y-136885714D01*
X129533333Y-136885714D02*
X130057142Y-137552380D01*
X130390476Y-136647619D02*
X130438095Y-136600000D01*
X130533333Y-136552380D01*
X130771428Y-136552380D01*
X130866666Y-136600000D01*
X130914285Y-136647619D01*
X130961904Y-136742857D01*
X130961904Y-136838095D01*
X130914285Y-136980952D01*
X130342857Y-137552380D01*
X130961904Y-137552380D01*
X132152380Y-137552380D02*
X132152380Y-136552380D01*
X132580952Y-136647619D02*
X132628571Y-136600000D01*
X132723809Y-136552380D01*
X132961904Y-136552380D01*
X133057142Y-136600000D01*
X133104761Y-136647619D01*
X133152380Y-136742857D01*
X133152380Y-136838095D01*
X133104761Y-136980952D01*
X132533333Y-137552380D01*
X133152380Y-137552380D01*
X134152380Y-137457142D02*
X134104761Y-137504761D01*
X133961904Y-137552380D01*
X133866666Y-137552380D01*
X133723809Y-137504761D01*
X133628571Y-137409523D01*
X133580952Y-137314285D01*
X133533333Y-137123809D01*
X133533333Y-136980952D01*
X133580952Y-136790476D01*
X133628571Y-136695238D01*
X133723809Y-136600000D01*
X133866666Y-136552380D01*
X133961904Y-136552380D01*
X134104761Y-136600000D01*
X134152380Y-136647619D01*
X135819047Y-137552380D02*
X135342857Y-137552380D01*
X135342857Y-136552380D01*
X136723809Y-137457142D02*
X136676190Y-137504761D01*
X136533333Y-137552380D01*
X136438095Y-137552380D01*
X136295238Y-137504761D01*
X136200000Y-137409523D01*
X136152380Y-137314285D01*
X136104761Y-137123809D01*
X136104761Y-136980952D01*
X136152380Y-136790476D01*
X136200000Y-136695238D01*
X136295238Y-136600000D01*
X136438095Y-136552380D01*
X136533333Y-136552380D01*
X136676190Y-136600000D01*
X136723809Y-136647619D01*
X137152380Y-137552380D02*
X137152380Y-136552380D01*
X137390476Y-136552380D01*
X137533333Y-136600000D01*
X137628571Y-136695238D01*
X137676190Y-136790476D01*
X137723809Y-136980952D01*
X137723809Y-137123809D01*
X137676190Y-137314285D01*
X137628571Y-137409523D01*
X137533333Y-137504761D01*
X137390476Y-137552380D01*
X137152380Y-137552380D01*
D11*
X113171428Y-81821429D02*
X113028571Y-81750001D01*
X112957142Y-81678572D01*
X112885714Y-81535715D01*
X112885714Y-81464286D01*
X112957142Y-81321429D01*
X113028571Y-81250001D01*
X113171428Y-81178572D01*
X113457142Y-81178572D01*
X113600000Y-81250001D01*
X113671428Y-81321429D01*
X113742857Y-81464286D01*
X113742857Y-81535715D01*
X113671428Y-81678572D01*
X113600000Y-81750001D01*
X113457142Y-81821429D01*
X113171428Y-81821429D01*
X113028571Y-81892858D01*
X112957142Y-81964286D01*
X112885714Y-82107143D01*
X112885714Y-82392858D01*
X112957142Y-82535715D01*
X113028571Y-82607143D01*
X113171428Y-82678572D01*
X113457142Y-82678572D01*
X113600000Y-82607143D01*
X113671428Y-82535715D01*
X113742857Y-82392858D01*
X113742857Y-82107143D01*
X113671428Y-81964286D01*
X113600000Y-81892858D01*
X113457142Y-81821429D01*
X115028571Y-81678572D02*
X115028571Y-82678572D01*
X114671428Y-81107143D02*
X114314285Y-82178572D01*
X115242857Y-82178572D01*
X115814285Y-82535715D02*
X115885714Y-82607143D01*
X115814285Y-82678572D01*
X115742857Y-82607143D01*
X115814285Y-82535715D01*
X115814285Y-82678572D01*
X116814285Y-81178572D02*
X116957142Y-81178572D01*
X117100000Y-81250001D01*
X117171428Y-81321429D01*
X117242857Y-81464286D01*
X117314285Y-81750001D01*
X117314285Y-82107143D01*
X117242857Y-82392858D01*
X117171428Y-82535715D01*
X117100000Y-82607143D01*
X116957142Y-82678572D01*
X116814285Y-82678572D01*
X116671428Y-82607143D01*
X116600000Y-82535715D01*
X116528571Y-82392858D01*
X116457142Y-82107143D01*
X116457142Y-81750001D01*
X116528571Y-81464286D01*
X116600000Y-81321429D01*
X116671428Y-81250001D01*
X116814285Y-81178572D01*
X118242857Y-81178572D02*
X118385714Y-81178572D01*
X118528571Y-81250001D01*
X118600000Y-81321429D01*
X118671428Y-81464286D01*
X118742857Y-81750001D01*
X118742857Y-82107143D01*
X118671428Y-82392858D01*
X118600000Y-82535715D01*
X118528571Y-82607143D01*
X118385714Y-82678572D01*
X118242857Y-82678572D01*
X118100000Y-82607143D01*
X118028571Y-82535715D01*
X117957142Y-82392858D01*
X117885714Y-82107143D01*
X117885714Y-81750001D01*
X117957142Y-81464286D01*
X118028571Y-81321429D01*
X118100000Y-81250001D01*
X118242857Y-81178572D01*
X119671428Y-81178572D02*
X119814285Y-81178572D01*
X119957142Y-81250001D01*
X120028571Y-81321429D01*
X120100000Y-81464286D01*
X120171428Y-81750001D01*
X120171428Y-82107143D01*
X120100000Y-82392858D01*
X120028571Y-82535715D01*
X119957142Y-82607143D01*
X119814285Y-82678572D01*
X119671428Y-82678572D01*
X119528571Y-82607143D01*
X119457142Y-82535715D01*
X119385714Y-82392858D01*
X119314285Y-82107143D01*
X119314285Y-81750001D01*
X119385714Y-81464286D01*
X119457142Y-81321429D01*
X119528571Y-81250001D01*
X119671428Y-81178572D01*
X121957142Y-82678572D02*
X121957142Y-81678572D01*
X121957142Y-81821429D02*
X122028571Y-81750001D01*
X122171428Y-81678572D01*
X122385714Y-81678572D01*
X122528571Y-81750001D01*
X122600000Y-81892858D01*
X122600000Y-82678572D01*
X122600000Y-81892858D02*
X122671428Y-81750001D01*
X122814285Y-81678572D01*
X123028571Y-81678572D01*
X123171428Y-81750001D01*
X123242857Y-81892858D01*
X123242857Y-82678572D01*
X123957142Y-82678572D02*
X123957142Y-81678572D01*
X123957142Y-81821429D02*
X124028571Y-81750001D01*
X124171428Y-81678572D01*
X124385714Y-81678572D01*
X124528571Y-81750001D01*
X124600000Y-81892858D01*
X124600000Y-82678572D01*
X124600000Y-81892858D02*
X124671428Y-81750001D01*
X124814285Y-81678572D01*
X125028571Y-81678572D01*
X125171428Y-81750001D01*
X125242857Y-81892858D01*
X125242857Y-82678572D01*
X161100000Y-84100001D02*
X77100000Y-84100001D01*
X161100000Y-90350000D02*
X161100000Y-83513580D01*
X77100000Y-90350000D02*
X77100000Y-83513580D01*
X77100000Y-84100001D02*
X78226504Y-83513580D01*
X77100000Y-84100001D02*
X78226504Y-84686422D01*
X161100000Y-84100001D02*
X159973496Y-83513580D01*
X161100000Y-84100001D02*
X159973496Y-84686422D01*
X170032707Y-113032687D02*
X170032707Y-112746972D01*
X169961279Y-112604115D01*
X169889850Y-112532687D01*
X169675564Y-112389829D01*
X169389850Y-112318401D01*
X168818421Y-112318401D01*
X168675564Y-112389829D01*
X168604136Y-112461258D01*
X168532707Y-112604115D01*
X168532707Y-112889829D01*
X168604136Y-113032687D01*
X168675564Y-113104115D01*
X168818421Y-113175544D01*
X169175564Y-113175544D01*
X169318421Y-113104115D01*
X169389850Y-113032687D01*
X169461279Y-112889829D01*
X169461279Y-112604115D01*
X169389850Y-112461258D01*
X169318421Y-112389829D01*
X169175564Y-112318401D01*
X170032707Y-114104115D02*
X170032707Y-114246972D01*
X169961279Y-114389829D01*
X169889850Y-114461258D01*
X169746993Y-114532687D01*
X169461279Y-114604115D01*
X169104136Y-114604115D01*
X168818421Y-114532687D01*
X168675564Y-114461258D01*
X168604136Y-114389829D01*
X168532707Y-114246972D01*
X168532707Y-114104115D01*
X168604136Y-113961258D01*
X168675564Y-113889829D01*
X168818421Y-113818401D01*
X169104136Y-113746972D01*
X169461279Y-113746972D01*
X169746993Y-113818401D01*
X169889850Y-113889829D01*
X169961279Y-113961258D01*
X170032707Y-114104115D01*
X168675564Y-115246972D02*
X168604136Y-115318401D01*
X168532707Y-115246972D01*
X168604136Y-115175544D01*
X168675564Y-115246972D01*
X168532707Y-115246972D01*
X170032707Y-116246972D02*
X170032707Y-116389829D01*
X169961279Y-116532687D01*
X169889850Y-116604115D01*
X169746993Y-116675544D01*
X169461279Y-116746972D01*
X169104136Y-116746972D01*
X168818421Y-116675544D01*
X168675564Y-116604115D01*
X168604136Y-116532687D01*
X168532707Y-116389829D01*
X168532707Y-116246972D01*
X168604136Y-116104115D01*
X168675564Y-116032687D01*
X168818421Y-115961258D01*
X169104136Y-115889829D01*
X169461279Y-115889829D01*
X169746993Y-115961258D01*
X169889850Y-116032687D01*
X169961279Y-116104115D01*
X170032707Y-116246972D01*
X170032707Y-117675544D02*
X170032707Y-117818401D01*
X169961279Y-117961258D01*
X169889850Y-118032687D01*
X169746993Y-118104115D01*
X169461279Y-118175544D01*
X169104136Y-118175544D01*
X168818421Y-118104115D01*
X168675564Y-118032687D01*
X168604136Y-117961258D01*
X168532707Y-117818401D01*
X168532707Y-117675544D01*
X168604136Y-117532687D01*
X168675564Y-117461258D01*
X168818421Y-117389829D01*
X169104136Y-117318401D01*
X169461279Y-117318401D01*
X169746993Y-117389829D01*
X169889850Y-117461258D01*
X169961279Y-117532687D01*
X170032707Y-117675544D01*
X170032707Y-119104115D02*
X170032707Y-119246972D01*
X169961279Y-119389829D01*
X169889850Y-119461258D01*
X169746993Y-119532687D01*
X169461279Y-119604115D01*
X169104136Y-119604115D01*
X168818421Y-119532687D01*
X168675564Y-119461258D01*
X168604136Y-119389829D01*
X168532707Y-119246972D01*
X168532707Y-119104115D01*
X168604136Y-118961258D01*
X168675564Y-118889829D01*
X168818421Y-118818401D01*
X169104136Y-118746972D01*
X169461279Y-118746972D01*
X169746993Y-118818401D01*
X169889850Y-118889829D01*
X169961279Y-118961258D01*
X170032707Y-119104115D01*
X168532707Y-121389829D02*
X169532707Y-121389829D01*
X169389850Y-121389829D02*
X169461279Y-121461258D01*
X169532707Y-121604115D01*
X169532707Y-121818401D01*
X169461279Y-121961258D01*
X169318421Y-122032687D01*
X168532707Y-122032687D01*
X169318421Y-122032687D02*
X169461279Y-122104115D01*
X169532707Y-122246972D01*
X169532707Y-122461258D01*
X169461279Y-122604115D01*
X169318421Y-122675544D01*
X168532707Y-122675544D01*
X168532707Y-123389829D02*
X169532707Y-123389829D01*
X169389850Y-123389829D02*
X169461279Y-123461258D01*
X169532707Y-123604115D01*
X169532707Y-123818401D01*
X169461279Y-123961258D01*
X169318421Y-124032687D01*
X168532707Y-124032687D01*
X169318421Y-124032687D02*
X169461279Y-124104115D01*
X169532707Y-124246972D01*
X169532707Y-124461258D01*
X169461279Y-124604115D01*
X169318421Y-124675544D01*
X168532707Y-124675544D01*
X167111279Y-88532687D02*
X167111279Y-148532687D01*
X155361279Y-88532687D02*
X167697700Y-88532687D01*
X155361279Y-148532687D02*
X167697700Y-148532687D01*
X167111279Y-148532687D02*
X166524858Y-147406183D01*
X167111279Y-148532687D02*
X167697700Y-147406183D01*
X167111279Y-88532687D02*
X166524858Y-89659191D01*
X167111279Y-88532687D02*
X167697700Y-89659191D01*
D12*
X93814285Y-143933928D02*
X93921428Y-143969642D01*
X93957142Y-144005357D01*
X93992857Y-144076785D01*
X93992857Y-144183928D01*
X93957142Y-144255357D01*
X93921428Y-144291071D01*
X93850000Y-144326785D01*
X93564285Y-144326785D01*
X93564285Y-143576785D01*
X93814285Y-143576785D01*
X93885714Y-143612500D01*
X93921428Y-143648214D01*
X93957142Y-143719642D01*
X93957142Y-143791071D01*
X93921428Y-143862500D01*
X93885714Y-143898214D01*
X93814285Y-143933928D01*
X93564285Y-143933928D01*
X94421428Y-144326785D02*
X94350000Y-144291071D01*
X94314285Y-144219642D01*
X94314285Y-143576785D01*
X95028571Y-144326785D02*
X95028571Y-143933928D01*
X94992857Y-143862500D01*
X94921428Y-143826785D01*
X94778571Y-143826785D01*
X94707142Y-143862500D01*
X95028571Y-144291071D02*
X94957142Y-144326785D01*
X94778571Y-144326785D01*
X94707142Y-144291071D01*
X94671428Y-144219642D01*
X94671428Y-144148214D01*
X94707142Y-144076785D01*
X94778571Y-144041071D01*
X94957142Y-144041071D01*
X95028571Y-144005357D01*
X95350000Y-144291071D02*
X95421428Y-144326785D01*
X95564285Y-144326785D01*
X95635714Y-144291071D01*
X95671428Y-144219642D01*
X95671428Y-144183928D01*
X95635714Y-144112500D01*
X95564285Y-144076785D01*
X95457142Y-144076785D01*
X95385714Y-144041071D01*
X95350000Y-143969642D01*
X95350000Y-143933928D01*
X95385714Y-143862500D01*
X95457142Y-143826785D01*
X95564285Y-143826785D01*
X95635714Y-143862500D01*
X95885714Y-143826785D02*
X96171428Y-143826785D01*
X95992857Y-143576785D02*
X95992857Y-144219642D01*
X96028571Y-144291071D01*
X96100000Y-144326785D01*
X96171428Y-144326785D01*
X97242857Y-143933928D02*
X96992857Y-143933928D01*
X96992857Y-144326785D02*
X96992857Y-143576785D01*
X97350000Y-143576785D01*
X97957142Y-143826785D02*
X97957142Y-144326785D01*
X97635714Y-143826785D02*
X97635714Y-144219642D01*
X97671428Y-144291071D01*
X97742857Y-144326785D01*
X97850000Y-144326785D01*
X97921428Y-144291071D01*
X97957142Y-144255357D01*
X98314285Y-144326785D02*
X98314285Y-143826785D01*
X98314285Y-143969642D02*
X98350000Y-143898214D01*
X98385714Y-143862500D01*
X98457142Y-143826785D01*
X98528571Y-143826785D01*
X98778571Y-143826785D02*
X98778571Y-144326785D01*
X98778571Y-143898214D02*
X98814285Y-143862500D01*
X98885714Y-143826785D01*
X98992857Y-143826785D01*
X99064285Y-143862500D01*
X99100000Y-143933928D01*
X99100000Y-144326785D01*
X99778571Y-144326785D02*
X99778571Y-143933928D01*
X99742857Y-143862500D01*
X99671428Y-143826785D01*
X99528571Y-143826785D01*
X99457142Y-143862500D01*
X99778571Y-144291071D02*
X99707142Y-144326785D01*
X99528571Y-144326785D01*
X99457142Y-144291071D01*
X99421428Y-144219642D01*
X99421428Y-144148214D01*
X99457142Y-144076785D01*
X99528571Y-144041071D01*
X99707142Y-144041071D01*
X99778571Y-144005357D01*
X100457142Y-144291071D02*
X100385714Y-144326785D01*
X100242857Y-144326785D01*
X100171428Y-144291071D01*
X100135714Y-144255357D01*
X100100000Y-144183928D01*
X100100000Y-143969642D01*
X100135714Y-143898214D01*
X100171428Y-143862500D01*
X100242857Y-143826785D01*
X100385714Y-143826785D01*
X100457142Y-143862500D01*
X101064285Y-144291071D02*
X100992857Y-144326785D01*
X100850000Y-144326785D01*
X100778571Y-144291071D01*
X100742857Y-144219642D01*
X100742857Y-143933928D01*
X100778571Y-143862500D01*
X100850000Y-143826785D01*
X100992857Y-143826785D01*
X101064285Y-143862500D01*
X101100000Y-143933928D01*
X101100000Y-144005357D01*
X100742857Y-144076785D01*
X88600000Y-144801785D02*
X89028571Y-144801785D01*
X88814285Y-145551785D02*
X88814285Y-144801785D01*
X89564285Y-145516071D02*
X89492857Y-145551785D01*
X89350000Y-145551785D01*
X89278571Y-145516071D01*
X89242857Y-145444642D01*
X89242857Y-145158928D01*
X89278571Y-145087500D01*
X89350000Y-145051785D01*
X89492857Y-145051785D01*
X89564285Y-145087500D01*
X89600000Y-145158928D01*
X89600000Y-145230357D01*
X89242857Y-145301785D01*
X89921428Y-145551785D02*
X89921428Y-145051785D01*
X89921428Y-145123214D02*
X89957142Y-145087500D01*
X90028571Y-145051785D01*
X90135714Y-145051785D01*
X90207142Y-145087500D01*
X90242857Y-145158928D01*
X90242857Y-145551785D01*
X90242857Y-145158928D02*
X90278571Y-145087500D01*
X90350000Y-145051785D01*
X90457142Y-145051785D01*
X90528571Y-145087500D01*
X90564285Y-145158928D01*
X90564285Y-145551785D01*
X90921428Y-145051785D02*
X90921428Y-145801785D01*
X90921428Y-145087500D02*
X90992857Y-145051785D01*
X91135714Y-145051785D01*
X91207142Y-145087500D01*
X91242857Y-145123214D01*
X91278571Y-145194642D01*
X91278571Y-145408928D01*
X91242857Y-145480357D01*
X91207142Y-145516071D01*
X91135714Y-145551785D01*
X90992857Y-145551785D01*
X90921428Y-145516071D01*
X91885714Y-145516071D02*
X91814285Y-145551785D01*
X91671428Y-145551785D01*
X91600000Y-145516071D01*
X91564285Y-145444642D01*
X91564285Y-145158928D01*
X91600000Y-145087500D01*
X91671428Y-145051785D01*
X91814285Y-145051785D01*
X91885714Y-145087500D01*
X91921428Y-145158928D01*
X91921428Y-145230357D01*
X91564285Y-145301785D01*
X92242857Y-145551785D02*
X92242857Y-145051785D01*
X92242857Y-145194642D02*
X92278571Y-145123214D01*
X92314285Y-145087500D01*
X92385714Y-145051785D01*
X92457142Y-145051785D01*
X93028571Y-145551785D02*
X93028571Y-145158928D01*
X92992857Y-145087500D01*
X92921428Y-145051785D01*
X92778571Y-145051785D01*
X92707142Y-145087500D01*
X93028571Y-145516071D02*
X92957142Y-145551785D01*
X92778571Y-145551785D01*
X92707142Y-145516071D01*
X92671428Y-145444642D01*
X92671428Y-145373214D01*
X92707142Y-145301785D01*
X92778571Y-145266071D01*
X92957142Y-145266071D01*
X93028571Y-145230357D01*
X93278571Y-145051785D02*
X93564285Y-145051785D01*
X93385714Y-144801785D02*
X93385714Y-145444642D01*
X93421428Y-145516071D01*
X93492857Y-145551785D01*
X93564285Y-145551785D01*
X94135714Y-145051785D02*
X94135714Y-145551785D01*
X93814285Y-145051785D02*
X93814285Y-145444642D01*
X93850000Y-145516071D01*
X93921428Y-145551785D01*
X94028571Y-145551785D01*
X94100000Y-145516071D01*
X94135714Y-145480357D01*
X94492857Y-145551785D02*
X94492857Y-145051785D01*
X94492857Y-145194642D02*
X94528571Y-145123214D01*
X94564285Y-145087500D01*
X94635714Y-145051785D01*
X94707142Y-145051785D01*
X95242857Y-145516071D02*
X95171428Y-145551785D01*
X95028571Y-145551785D01*
X94957142Y-145516071D01*
X94921428Y-145444642D01*
X94921428Y-145158928D01*
X94957142Y-145087500D01*
X95028571Y-145051785D01*
X95171428Y-145051785D01*
X95242857Y-145087500D01*
X95278571Y-145158928D01*
X95278571Y-145230357D01*
X94921428Y-145301785D01*
X96135714Y-145516071D02*
X96242857Y-145551785D01*
X96421428Y-145551785D01*
X96492857Y-145516071D01*
X96528571Y-145480357D01*
X96564285Y-145408928D01*
X96564285Y-145337500D01*
X96528571Y-145266071D01*
X96492857Y-145230357D01*
X96421428Y-145194642D01*
X96278571Y-145158928D01*
X96207142Y-145123214D01*
X96171428Y-145087500D01*
X96135714Y-145016071D01*
X96135714Y-144944642D01*
X96171428Y-144873214D01*
X96207142Y-144837500D01*
X96278571Y-144801785D01*
X96457142Y-144801785D01*
X96564285Y-144837500D01*
X97171428Y-145516071D02*
X97100000Y-145551785D01*
X96957142Y-145551785D01*
X96885714Y-145516071D01*
X96850000Y-145444642D01*
X96850000Y-145158928D01*
X96885714Y-145087500D01*
X96957142Y-145051785D01*
X97100000Y-145051785D01*
X97171428Y-145087500D01*
X97207142Y-145158928D01*
X97207142Y-145230357D01*
X96850000Y-145301785D01*
X97528571Y-145051785D02*
X97528571Y-145551785D01*
X97528571Y-145123214D02*
X97564285Y-145087500D01*
X97635714Y-145051785D01*
X97742857Y-145051785D01*
X97814285Y-145087500D01*
X97850000Y-145158928D01*
X97850000Y-145551785D01*
X98171428Y-145516071D02*
X98242857Y-145551785D01*
X98385714Y-145551785D01*
X98457142Y-145516071D01*
X98492857Y-145444642D01*
X98492857Y-145408928D01*
X98457142Y-145337500D01*
X98385714Y-145301785D01*
X98278571Y-145301785D01*
X98207142Y-145266071D01*
X98171428Y-145194642D01*
X98171428Y-145158928D01*
X98207142Y-145087500D01*
X98278571Y-145051785D01*
X98385714Y-145051785D01*
X98457142Y-145087500D01*
X98921428Y-145551785D02*
X98850000Y-145516071D01*
X98814285Y-145480357D01*
X98778571Y-145408928D01*
X98778571Y-145194642D01*
X98814285Y-145123214D01*
X98850000Y-145087500D01*
X98921428Y-145051785D01*
X99028571Y-145051785D01*
X99100000Y-145087500D01*
X99135714Y-145123214D01*
X99171428Y-145194642D01*
X99171428Y-145408928D01*
X99135714Y-145480357D01*
X99100000Y-145516071D01*
X99028571Y-145551785D01*
X98921428Y-145551785D01*
X99492857Y-145551785D02*
X99492857Y-145051785D01*
X99492857Y-145194642D02*
X99528571Y-145123214D01*
X99564285Y-145087500D01*
X99635714Y-145051785D01*
X99707142Y-145051785D01*
X100528571Y-145551785D02*
X100528571Y-144801785D01*
X100707142Y-144801785D01*
X100814285Y-144837500D01*
X100885714Y-144908928D01*
X100921428Y-144980357D01*
X100957142Y-145123214D01*
X100957142Y-145230357D01*
X100921428Y-145373214D01*
X100885714Y-145444642D01*
X100814285Y-145516071D01*
X100707142Y-145551785D01*
X100528571Y-145551785D01*
X101278571Y-145551785D02*
X101278571Y-145051785D01*
X101278571Y-144801785D02*
X101242857Y-144837500D01*
X101278571Y-144873214D01*
X101314285Y-144837500D01*
X101278571Y-144801785D01*
X101278571Y-144873214D01*
X101600000Y-145516071D02*
X101671428Y-145551785D01*
X101814285Y-145551785D01*
X101885714Y-145516071D01*
X101921428Y-145444642D01*
X101921428Y-145408928D01*
X101885714Y-145337500D01*
X101814285Y-145301785D01*
X101707142Y-145301785D01*
X101635714Y-145266071D01*
X101600000Y-145194642D01*
X101600000Y-145158928D01*
X101635714Y-145087500D01*
X101707142Y-145051785D01*
X101814285Y-145051785D01*
X101885714Y-145087500D01*
X102242857Y-145051785D02*
X102242857Y-145801785D01*
X102242857Y-145087500D02*
X102314285Y-145051785D01*
X102457142Y-145051785D01*
X102528571Y-145087500D01*
X102564285Y-145123214D01*
X102600000Y-145194642D01*
X102600000Y-145408928D01*
X102564285Y-145480357D01*
X102528571Y-145516071D01*
X102457142Y-145551785D01*
X102314285Y-145551785D01*
X102242857Y-145516071D01*
X103028571Y-145551785D02*
X102957142Y-145516071D01*
X102921428Y-145444642D01*
X102921428Y-144801785D01*
X103635714Y-145551785D02*
X103635714Y-145158928D01*
X103600000Y-145087500D01*
X103528571Y-145051785D01*
X103385714Y-145051785D01*
X103314285Y-145087500D01*
X103635714Y-145516071D02*
X103564285Y-145551785D01*
X103385714Y-145551785D01*
X103314285Y-145516071D01*
X103278571Y-145444642D01*
X103278571Y-145373214D01*
X103314285Y-145301785D01*
X103385714Y-145266071D01*
X103564285Y-145266071D01*
X103635714Y-145230357D01*
X103921428Y-145051785D02*
X104100000Y-145551785D01*
X104278571Y-145051785D02*
X104100000Y-145551785D01*
X104028571Y-145730357D01*
X103992857Y-145766071D01*
X103921428Y-145801785D01*
X105028571Y-144801785D02*
X105278571Y-145551785D01*
X105528571Y-144801785D01*
X105778571Y-145480357D02*
X105814285Y-145516071D01*
X105778571Y-145551785D01*
X105742857Y-145516071D01*
X105778571Y-145480357D01*
X105778571Y-145551785D01*
X106528571Y-145551785D02*
X106100000Y-145551785D01*
X106314285Y-145551785D02*
X106314285Y-144801785D01*
X106242857Y-144908928D01*
X106171428Y-144980357D01*
X106100000Y-145016071D01*
D10*
X149195238Y-92350000D02*
X149290476Y-92397619D01*
X149433333Y-92397619D01*
X149576190Y-92350000D01*
X149671428Y-92254761D01*
X149719047Y-92159523D01*
X149766666Y-91969047D01*
X149766666Y-91826190D01*
X149719047Y-91635714D01*
X149671428Y-91540476D01*
X149576190Y-91445238D01*
X149433333Y-91397619D01*
X149338095Y-91397619D01*
X149195238Y-91445238D01*
X149147619Y-91492857D01*
X149147619Y-91826190D01*
X149338095Y-91826190D01*
X148338095Y-91445238D02*
X148433333Y-91397619D01*
X148623809Y-91397619D01*
X148719047Y-91445238D01*
X148766666Y-91540476D01*
X148766666Y-91921428D01*
X148719047Y-92016666D01*
X148623809Y-92064285D01*
X148433333Y-92064285D01*
X148338095Y-92016666D01*
X148290476Y-91921428D01*
X148290476Y-91826190D01*
X148766666Y-91730952D01*
X147861904Y-91397619D02*
X147861904Y-92064285D01*
X147861904Y-91873809D02*
X147814285Y-91969047D01*
X147766666Y-92016666D01*
X147671428Y-92064285D01*
X147576190Y-92064285D01*
X146814285Y-91397619D02*
X146814285Y-91921428D01*
X146861904Y-92016666D01*
X146957142Y-92064285D01*
X147147619Y-92064285D01*
X147242857Y-92016666D01*
X146814285Y-91445238D02*
X146909523Y-91397619D01*
X147147619Y-91397619D01*
X147242857Y-91445238D01*
X147290476Y-91540476D01*
X147290476Y-91635714D01*
X147242857Y-91730952D01*
X147147619Y-91778571D01*
X146909523Y-91778571D01*
X146814285Y-91826190D01*
X145909523Y-91445238D02*
X146004761Y-91397619D01*
X146195238Y-91397619D01*
X146290476Y-91445238D01*
X146338095Y-91492857D01*
X146385714Y-91588095D01*
X146385714Y-91873809D01*
X146338095Y-91969047D01*
X146290476Y-92016666D01*
X146195238Y-92064285D01*
X146004761Y-92064285D01*
X145909523Y-92016666D01*
X145480952Y-91397619D02*
X145480952Y-92064285D01*
X145480952Y-92397619D02*
X145528571Y-92350000D01*
X145480952Y-92302380D01*
X145433333Y-92350000D01*
X145480952Y-92397619D01*
X145480952Y-92302380D01*
X150252380Y-92847619D02*
X150585714Y-93323809D01*
X150823809Y-92847619D02*
X150823809Y-93847619D01*
X150442857Y-93847619D01*
X150347619Y-93800000D01*
X150300000Y-93752380D01*
X150252380Y-93657142D01*
X150252380Y-93514285D01*
X150300000Y-93419047D01*
X150347619Y-93371428D01*
X150442857Y-93323809D01*
X150823809Y-93323809D01*
X149823809Y-92847619D02*
X149823809Y-93514285D01*
X149823809Y-93847619D02*
X149871428Y-93800000D01*
X149823809Y-93752380D01*
X149776190Y-93800000D01*
X149823809Y-93847619D01*
X149823809Y-93752380D01*
X148919047Y-92895238D02*
X149014285Y-92847619D01*
X149204761Y-92847619D01*
X149300000Y-92895238D01*
X149347619Y-92942857D01*
X149395238Y-93038095D01*
X149395238Y-93323809D01*
X149347619Y-93419047D01*
X149300000Y-93466666D01*
X149204761Y-93514285D01*
X149014285Y-93514285D01*
X148919047Y-93466666D01*
X148061904Y-92895238D02*
X148157142Y-92847619D01*
X148347619Y-92847619D01*
X148442857Y-92895238D01*
X148490476Y-92942857D01*
X148538095Y-93038095D01*
X148538095Y-93323809D01*
X148490476Y-93419047D01*
X148442857Y-93466666D01*
X148347619Y-93514285D01*
X148157142Y-93514285D01*
X148061904Y-93466666D01*
X147204761Y-92847619D02*
X147204761Y-93371428D01*
X147252380Y-93466666D01*
X147347619Y-93514285D01*
X147538095Y-93514285D01*
X147633333Y-93466666D01*
X147204761Y-92895238D02*
X147300000Y-92847619D01*
X147538095Y-92847619D01*
X147633333Y-92895238D01*
X147680952Y-92990476D01*
X147680952Y-93085714D01*
X147633333Y-93180952D01*
X147538095Y-93228571D01*
X147300000Y-93228571D01*
X147204761Y-93276190D01*
X146728571Y-92847619D02*
X146728571Y-93514285D01*
X146728571Y-93323809D02*
X146680952Y-93419047D01*
X146633333Y-93466666D01*
X146538095Y-93514285D01*
X146442857Y-93514285D01*
X145680952Y-92847619D02*
X145680952Y-93847619D01*
X145680952Y-92895238D02*
X145776190Y-92847619D01*
X145966666Y-92847619D01*
X146061904Y-92895238D01*
X146109523Y-92942857D01*
X146157142Y-93038095D01*
X146157142Y-93323809D01*
X146109523Y-93419047D01*
X146061904Y-93466666D01*
X145966666Y-93514285D01*
X145776190Y-93514285D01*
X145680952Y-93466666D01*
X145061904Y-92847619D02*
X145157142Y-92895238D01*
X145204761Y-92942857D01*
X145252380Y-93038095D01*
X145252380Y-93323809D01*
X145204761Y-93419047D01*
X145157142Y-93466666D01*
X145061904Y-93514285D01*
X144919047Y-93514285D01*
X144823809Y-93466666D01*
X144776190Y-93419047D01*
X144728571Y-93323809D01*
X144728571Y-93038095D01*
X144776190Y-92942857D01*
X144823809Y-92895238D01*
X144919047Y-92847619D01*
X145061904Y-92847619D01*
X151833333Y-94347619D02*
X151833333Y-95347619D01*
X151595238Y-95347619D01*
X151452380Y-95300000D01*
X151357142Y-95204761D01*
X151309523Y-95109523D01*
X151261904Y-94919047D01*
X151261904Y-94776190D01*
X151309523Y-94585714D01*
X151357142Y-94490476D01*
X151452380Y-94395238D01*
X151595238Y-94347619D01*
X151833333Y-94347619D01*
X150452380Y-94395238D02*
X150547619Y-94347619D01*
X150738095Y-94347619D01*
X150833333Y-94395238D01*
X150880952Y-94490476D01*
X150880952Y-94871428D01*
X150833333Y-94966666D01*
X150738095Y-95014285D01*
X150547619Y-95014285D01*
X150452380Y-94966666D01*
X150404761Y-94871428D01*
X150404761Y-94776190D01*
X150880952Y-94680952D01*
X150023809Y-94395238D02*
X149928571Y-94347619D01*
X149738095Y-94347619D01*
X149642857Y-94395238D01*
X149595238Y-94490476D01*
X149595238Y-94538095D01*
X149642857Y-94633333D01*
X149738095Y-94680952D01*
X149880952Y-94680952D01*
X149976190Y-94728571D01*
X150023809Y-94823809D01*
X150023809Y-94871428D01*
X149976190Y-94966666D01*
X149880952Y-95014285D01*
X149738095Y-95014285D01*
X149642857Y-94966666D01*
X149166666Y-94347619D02*
X149166666Y-95014285D01*
X149166666Y-95347619D02*
X149214285Y-95300000D01*
X149166666Y-95252380D01*
X149119047Y-95300000D01*
X149166666Y-95347619D01*
X149166666Y-95252380D01*
X148261904Y-95014285D02*
X148261904Y-94204761D01*
X148309523Y-94109523D01*
X148357142Y-94061904D01*
X148452380Y-94014285D01*
X148595238Y-94014285D01*
X148690476Y-94061904D01*
X148261904Y-94395238D02*
X148357142Y-94347619D01*
X148547619Y-94347619D01*
X148642857Y-94395238D01*
X148690476Y-94442857D01*
X148738095Y-94538095D01*
X148738095Y-94823809D01*
X148690476Y-94919047D01*
X148642857Y-94966666D01*
X148547619Y-95014285D01*
X148357142Y-95014285D01*
X148261904Y-94966666D01*
X147785714Y-95014285D02*
X147785714Y-94347619D01*
X147785714Y-94919047D02*
X147738095Y-94966666D01*
X147642857Y-95014285D01*
X147500000Y-95014285D01*
X147404761Y-94966666D01*
X147357142Y-94871428D01*
X147357142Y-94347619D01*
X146500000Y-94395238D02*
X146595238Y-94347619D01*
X146785714Y-94347619D01*
X146880952Y-94395238D01*
X146928571Y-94490476D01*
X146928571Y-94871428D01*
X146880952Y-94966666D01*
X146785714Y-95014285D01*
X146595238Y-95014285D01*
X146500000Y-94966666D01*
X146452380Y-94871428D01*
X146452380Y-94776190D01*
X146928571Y-94680952D01*
X145595238Y-94347619D02*
X145595238Y-95347619D01*
X145595238Y-94395238D02*
X145690476Y-94347619D01*
X145880952Y-94347619D01*
X145976190Y-94395238D01*
X146023809Y-94442857D01*
X146071428Y-94538095D01*
X146071428Y-94823809D01*
X146023809Y-94919047D01*
X145976190Y-94966666D01*
X145880952Y-95014285D01*
X145690476Y-95014285D01*
X145595238Y-94966666D01*
X144357142Y-94347619D02*
X144357142Y-95347619D01*
X144357142Y-94966666D02*
X144261904Y-95014285D01*
X144071428Y-95014285D01*
X143976190Y-94966666D01*
X143928571Y-94919047D01*
X143880952Y-94823809D01*
X143880952Y-94538095D01*
X143928571Y-94442857D01*
X143976190Y-94395238D01*
X144071428Y-94347619D01*
X144261904Y-94347619D01*
X144357142Y-94395238D01*
X143547619Y-95014285D02*
X143309523Y-94347619D01*
X143071428Y-95014285D02*
X143309523Y-94347619D01*
X143404761Y-94109523D01*
X143452380Y-94061904D01*
X143547619Y-94014285D01*
X79100000Y-148600000D02*
G75*
G02X77100000Y-146600000I0J2000000D01*
G01*
X77100000Y-90600000D02*
G75*
G02X79100000Y-88600000I2000000J0D01*
G01*
X159100000Y-88600000D02*
G75*
G02X161100000Y-90600000I0J-2000000D01*
G01*
X161100000Y-146600000D02*
G75*
G02X159100000Y-148600000I-2000000J0D01*
G01*
X77100000Y-90600000D02*
X77100000Y-146600000D01*
X159100000Y-88600000D02*
X79100000Y-88600000D01*
X161100000Y-146600000D02*
X161100000Y-90600000D01*
X79098438Y-148600000D02*
X159100000Y-148600000D01*
X152700000Y-145100000D02*
X111200000Y-145100000D01*
X152700000Y-128200000D02*
X111200000Y-128200000D01*
X83100000Y-144100000D02*
G75*
G03X83100000Y-144100000I-1500000J0D01*
G01*
X83100000Y-113100000D02*
G75*
G03X83100000Y-113100000I-1500000J0D01*
G01*
X79100000Y-110600000D02*
X79100000Y-146600000D01*
X158155635Y-113100000D02*
G75*
G03X158155635Y-113100000I-1555635J0D01*
G01*
X158155635Y-144100000D02*
G75*
G03X158155635Y-144100000I-1555635J0D01*
G01*
X150200000Y-139900000D02*
X152700000Y-139900000D01*
X150200000Y-129900000D02*
X150200000Y-139900000D01*
X152700000Y-129900000D02*
X150200000Y-129900000D01*
X111200000Y-128200000D02*
X111200000Y-145100000D01*
X152700000Y-145100000D02*
X152700000Y-128200000D01*
X159100000Y-146600000D02*
X79100000Y-146600000D01*
X159100000Y-110600000D02*
X159100000Y-146600000D01*
X79100000Y-110600000D02*
X159100000Y-110600000D01*
X152750000Y-107250000D02*
X152750000Y-98950000D01*
X149250000Y-107250000D02*
X152750000Y-107250000D01*
X149250000Y-98950000D02*
X149250000Y-107250000D01*
X152750000Y-98950000D02*
X149250000Y-98950000D01*
D13*
X96110000Y-90660000D02*
X96110000Y-108700000D01*
X139550000Y-90660000D02*
X96110000Y-90660000D01*
X139550000Y-108700000D02*
X139550000Y-90660000D01*
X136880000Y-106030000D02*
X136880000Y-108700000D01*
X101320000Y-106030000D02*
X136880000Y-106030000D01*
X101320000Y-106030000D02*
X101320000Y-108700000D01*
X136880000Y-93330000D02*
X136880000Y-90660000D01*
X98780000Y-93330000D02*
X136880000Y-93330000D01*
X98780000Y-93330000D02*
X98780000Y-90660000D01*
X96110000Y-108700000D02*
X98780000Y-108700000D01*
X101320000Y-108700000D02*
X139550000Y-108700000D01*
X98780000Y-106030000D02*
X98780000Y-108700000D01*
X101320000Y-106030000D02*
X98780000Y-106030000D01*
X78190000Y-98020000D02*
X78190000Y-108180000D01*
X85810000Y-98020000D02*
X78190000Y-98020000D01*
X85810000Y-108180000D02*
X85810000Y-98020000D01*
X78190000Y-108180000D02*
X85810000Y-108180000D01*
X79460000Y-108180000D02*
X79460000Y-98020000D01*
X154990000Y-106960000D02*
X159010000Y-106960000D01*
X159010000Y-106960000D02*
X159010000Y-99240000D01*
X159010000Y-99240000D02*
X154990000Y-99240000D01*
X154990000Y-99240000D02*
X154990000Y-106960000D01*
X156700000Y-106960000D02*
X156700000Y-106460000D01*
X156700000Y-106460000D02*
X155490000Y-106460000D01*
X155490000Y-106460000D02*
X155490000Y-99740000D01*
X155490000Y-99740000D02*
X156700000Y-99740000D01*
X156700000Y-99740000D02*
X156700000Y-99240000D01*
X157510000Y-106960000D02*
X157510000Y-105960000D01*
X157510000Y-105960000D02*
X159010000Y-105960000D01*
X157510000Y-99240000D02*
X157510000Y-100240000D01*
X157510000Y-100240000D02*
X159010000Y-100240000D01*
X156810000Y-107260000D02*
X159310000Y-107260000D01*
X159310000Y-107260000D02*
X159310000Y-104760000D01*
X93097936Y-120910000D02*
X94302064Y-120910000D01*
X93097936Y-119090000D02*
X94302064Y-119090000D01*
X90097936Y-115490000D02*
X91302064Y-115490000D01*
X90097936Y-117310000D02*
X91302064Y-117310000D01*
X96297936Y-111890000D02*
X97502064Y-111890000D01*
X96297936Y-113710000D02*
X97502064Y-113710000D01*
X90097936Y-111890000D02*
X91302064Y-111890000D01*
X90097936Y-113710000D02*
X91302064Y-113710000D01*
X96297936Y-117310000D02*
X97502064Y-117310000D01*
X96297936Y-115490000D02*
X97502064Y-115490000D01*
X88515000Y-99135000D02*
X92400000Y-99135000D01*
X88515000Y-96865000D02*
X88515000Y-99135000D01*
X92400000Y-96865000D02*
X88515000Y-96865000D01*
X92400000Y-93165000D02*
X88515000Y-93165000D01*
X88515000Y-93165000D02*
X88515000Y-95435000D01*
X88515000Y-95435000D02*
X92400000Y-95435000D01*
X99897936Y-102610000D02*
X101102064Y-102610000D01*
X99897936Y-100790000D02*
X101102064Y-100790000D01*
X99897936Y-97090000D02*
X101102064Y-97090000D01*
X99897936Y-98910000D02*
X101102064Y-98910000D01*
D10*
X93425000Y-102175000D02*
X93300000Y-102175000D01*
X93425000Y-106825000D02*
X93200000Y-106825000D01*
X88175000Y-106825000D02*
X88400000Y-106825000D01*
X88175000Y-102175000D02*
X88400000Y-102175000D01*
X93425000Y-102175000D02*
X93425000Y-106825000D01*
X88175000Y-102175000D02*
X88175000Y-106825000D01*
X93300000Y-102175000D02*
X93300000Y-100825000D01*
D14*
G36*
X143951987Y-99112631D02*
X143944612Y-99105182D01*
X143934696Y-99093191D01*
X143925438Y-99080815D01*
X143914516Y-99065761D01*
X143899790Y-99045665D01*
X143882535Y-99022256D01*
X143864028Y-98997266D01*
X143845544Y-98972425D01*
X143843092Y-98969140D01*
X143794390Y-98905555D01*
X143748578Y-98849269D01*
X143705162Y-98799820D01*
X143663644Y-98756747D01*
X143623529Y-98719590D01*
X143584321Y-98687886D01*
X143545523Y-98661175D01*
X143506640Y-98638996D01*
X143469484Y-98621833D01*
X143402594Y-98597558D01*
X143331662Y-98577896D01*
X143260294Y-98563827D01*
X143250983Y-98562433D01*
X143229129Y-98559392D01*
X143214244Y-98556949D01*
X143205005Y-98553988D01*
X143200090Y-98549395D01*
X143198175Y-98542054D01*
X143197937Y-98530851D01*
X143198066Y-98517836D01*
X143198066Y-98481933D01*
X143556841Y-98482081D01*
X143915617Y-98482229D01*
X143995652Y-98593149D01*
X144075688Y-98704069D01*
X144068286Y-98750693D01*
X144061904Y-98785654D01*
X144053195Y-98825847D01*
X144042838Y-98868588D01*
X144031508Y-98911193D01*
X144019884Y-98950978D01*
X144010323Y-98980441D01*
X144002128Y-99003469D01*
X143993092Y-99027609D01*
X143983813Y-99051394D01*
X143974890Y-99073358D01*
X143966920Y-99092034D01*
X143960503Y-99105958D01*
X143956235Y-99113662D01*
X143955710Y-99114309D01*
X143951987Y-99112631D01*
X143951987Y-99112631D01*
G37*
X143951987Y-99112631D02*
X143944612Y-99105182D01*
X143934696Y-99093191D01*
X143925438Y-99080815D01*
X143914516Y-99065761D01*
X143899790Y-99045665D01*
X143882535Y-99022256D01*
X143864028Y-98997266D01*
X143845544Y-98972425D01*
X143843092Y-98969140D01*
X143794390Y-98905555D01*
X143748578Y-98849269D01*
X143705162Y-98799820D01*
X143663644Y-98756747D01*
X143623529Y-98719590D01*
X143584321Y-98687886D01*
X143545523Y-98661175D01*
X143506640Y-98638996D01*
X143469484Y-98621833D01*
X143402594Y-98597558D01*
X143331662Y-98577896D01*
X143260294Y-98563827D01*
X143250983Y-98562433D01*
X143229129Y-98559392D01*
X143214244Y-98556949D01*
X143205005Y-98553988D01*
X143200090Y-98549395D01*
X143198175Y-98542054D01*
X143197937Y-98530851D01*
X143198066Y-98517836D01*
X143198066Y-98481933D01*
X143556841Y-98482081D01*
X143915617Y-98482229D01*
X143995652Y-98593149D01*
X144075688Y-98704069D01*
X144068286Y-98750693D01*
X144061904Y-98785654D01*
X144053195Y-98825847D01*
X144042838Y-98868588D01*
X144031508Y-98911193D01*
X144019884Y-98950978D01*
X144010323Y-98980441D01*
X144002128Y-99003469D01*
X143993092Y-99027609D01*
X143983813Y-99051394D01*
X143974890Y-99073358D01*
X143966920Y-99092034D01*
X143960503Y-99105958D01*
X143956235Y-99113662D01*
X143955710Y-99114309D01*
X143951987Y-99112631D01*
G36*
X145254408Y-101160408D02*
X145168036Y-101160148D01*
X145089683Y-101159887D01*
X145018902Y-101159620D01*
X144955247Y-101159340D01*
X144898271Y-101159043D01*
X144847525Y-101158722D01*
X144802563Y-101158372D01*
X144762939Y-101157988D01*
X144728204Y-101157563D01*
X144697912Y-101157091D01*
X144671616Y-101156568D01*
X144648868Y-101155988D01*
X144629222Y-101155344D01*
X144612230Y-101154632D01*
X144597446Y-101153846D01*
X144584421Y-101152979D01*
X144572710Y-101152027D01*
X144569666Y-101151750D01*
X144500836Y-101144739D01*
X144439504Y-101137150D01*
X144384715Y-101128795D01*
X144335510Y-101119485D01*
X144290931Y-101109033D01*
X144250019Y-101097251D01*
X144211819Y-101083950D01*
X144199250Y-101079038D01*
X144134516Y-101048974D01*
X144073008Y-101012386D01*
X144015441Y-100969992D01*
X143962533Y-100922512D01*
X143914998Y-100870666D01*
X143873554Y-100815173D01*
X143838917Y-100756752D01*
X143811803Y-100696123D01*
X143808180Y-100686181D01*
X143797385Y-100653554D01*
X143789206Y-100623498D01*
X143783325Y-100593920D01*
X143779426Y-100562727D01*
X143777191Y-100527828D01*
X143776301Y-100487129D01*
X143776252Y-100475833D01*
X143776643Y-100433697D01*
X143778153Y-100397992D01*
X143781059Y-100366721D01*
X143785638Y-100337892D01*
X143792167Y-100309509D01*
X143800924Y-100279578D01*
X143805463Y-100265672D01*
X143832012Y-100199466D01*
X143866057Y-100136387D01*
X143906952Y-100077246D01*
X143954049Y-100022856D01*
X144006701Y-99974027D01*
X144064262Y-99931571D01*
X144079722Y-99921817D01*
X144111945Y-99903362D01*
X144149239Y-99883982D01*
X144188565Y-99865173D01*
X144226883Y-99848436D01*
X144236246Y-99844633D01*
X144253691Y-99838089D01*
X144275384Y-99830584D01*
X144299792Y-99822582D01*
X144325379Y-99814545D01*
X144350612Y-99806936D01*
X144373957Y-99800217D01*
X144393880Y-99794852D01*
X144408845Y-99791303D01*
X144417279Y-99790033D01*
X144425175Y-99788173D01*
X144427670Y-99786091D01*
X144425740Y-99781995D01*
X144419286Y-99771707D01*
X144408764Y-99755887D01*
X144394628Y-99735191D01*
X144377331Y-99710278D01*
X144357330Y-99681805D01*
X144335077Y-99650430D01*
X144311029Y-99616812D01*
X144303036Y-99605699D01*
X144278461Y-99571519D01*
X144255456Y-99539418D01*
X144234484Y-99510049D01*
X144216009Y-99484066D01*
X144200493Y-99462122D01*
X144188399Y-99444871D01*
X144180192Y-99432967D01*
X144176333Y-99427063D01*
X144176093Y-99426549D01*
X144178773Y-99422201D01*
X144185603Y-99413647D01*
X144193280Y-99404800D01*
X144219902Y-99373915D01*
X144248122Y-99339123D01*
X144276734Y-99302064D01*
X144304530Y-99264379D01*
X144330306Y-99227709D01*
X144352854Y-99193695D01*
X144370967Y-99163977D01*
X144373038Y-99160329D01*
X144379970Y-99148576D01*
X144385358Y-99140520D01*
X144387700Y-99138104D01*
X144390452Y-99141453D01*
X144397799Y-99151173D01*
X144409382Y-99166769D01*
X144424839Y-99187748D01*
X144443809Y-99213617D01*
X144465932Y-99243882D01*
X144490846Y-99278049D01*
X144518192Y-99315625D01*
X144547607Y-99356116D01*
X144578731Y-99399029D01*
X144605139Y-99435492D01*
X144820394Y-99732883D01*
X145100950Y-99731337D01*
X145100864Y-99285494D01*
X145100840Y-99213284D01*
X145100791Y-99149011D01*
X145100709Y-99092143D01*
X145100586Y-99042151D01*
X145100414Y-98998505D01*
X145100187Y-98960674D01*
X145099895Y-98928127D01*
X145099530Y-98900335D01*
X145099086Y-98876766D01*
X145098554Y-98856892D01*
X145097926Y-98840180D01*
X145097195Y-98826102D01*
X145096351Y-98814127D01*
X145095389Y-98803723D01*
X145094299Y-98794362D01*
X145093480Y-98788316D01*
X145086496Y-98747464D01*
X145077926Y-98711200D01*
X145068148Y-98680949D01*
X145060695Y-98663938D01*
X145051509Y-98650435D01*
X145037201Y-98634556D01*
X145019890Y-98618317D01*
X145001691Y-98603735D01*
X144988057Y-98594702D01*
X144957504Y-98579720D01*
X144922780Y-98568335D01*
X144882949Y-98560366D01*
X144837079Y-98555628D01*
X144784235Y-98553939D01*
X144780275Y-98553930D01*
X144717833Y-98553900D01*
X144717833Y-98481933D01*
X145865066Y-98481933D01*
X145865066Y-98552727D01*
X145783575Y-98555044D01*
X145750823Y-98556189D01*
X145724890Y-98557644D01*
X145704128Y-98559567D01*
X145686891Y-98562117D01*
X145671532Y-98565456D01*
X145668886Y-98566140D01*
X145623505Y-98581645D01*
X145584745Y-98602419D01*
X145552580Y-98628490D01*
X145526983Y-98659884D01*
X145507926Y-98696629D01*
X145495385Y-98738749D01*
X145495095Y-98740166D01*
X145493407Y-98748802D01*
X145491846Y-98757595D01*
X145490405Y-98766880D01*
X145489082Y-98776993D01*
X145487871Y-98788272D01*
X145486768Y-98801051D01*
X145485770Y-98815667D01*
X145484871Y-98832456D01*
X145484067Y-98851754D01*
X145483355Y-98873897D01*
X145482730Y-98899221D01*
X145482187Y-98928062D01*
X145481723Y-98960756D01*
X145481332Y-98997640D01*
X145481011Y-99039048D01*
X145480756Y-99085318D01*
X145480561Y-99136784D01*
X145480424Y-99193785D01*
X145480338Y-99256654D01*
X145480302Y-99325729D01*
X145480308Y-99401345D01*
X145480355Y-99483839D01*
X145480437Y-99573546D01*
X145480550Y-99670803D01*
X145480689Y-99775946D01*
X145480805Y-99857766D01*
X145480963Y-99965151D01*
X145481117Y-100064405D01*
X145481270Y-100155865D01*
X145481287Y-100165510D01*
X145102288Y-100165510D01*
X145102264Y-100109951D01*
X145102206Y-100058705D01*
X145102117Y-100012274D01*
X145101997Y-99971160D01*
X145101848Y-99935868D01*
X145101670Y-99906901D01*
X145101464Y-99884761D01*
X145101231Y-99869952D01*
X145100973Y-99862977D01*
X145100903Y-99862511D01*
X145096102Y-99860742D01*
X145084002Y-99859446D01*
X145065755Y-99858600D01*
X145042513Y-99858183D01*
X145015428Y-99858172D01*
X144985655Y-99858545D01*
X144954344Y-99859280D01*
X144922649Y-99860355D01*
X144891722Y-99861747D01*
X144862716Y-99863434D01*
X144836783Y-99865394D01*
X144815075Y-99867606D01*
X144811265Y-99868086D01*
X144728726Y-99881834D01*
X144652828Y-99900580D01*
X144583289Y-99924446D01*
X144519830Y-99953552D01*
X144462170Y-99988022D01*
X144410029Y-100027975D01*
X144382053Y-100053859D01*
X144337909Y-100101959D01*
X144301457Y-100151595D01*
X144271980Y-100204080D01*
X144248762Y-100260726D01*
X144231088Y-100322849D01*
X144228137Y-100336133D01*
X144224424Y-100360170D01*
X144221882Y-100390389D01*
X144220507Y-100424587D01*
X144220300Y-100460562D01*
X144221256Y-100496112D01*
X144223376Y-100529033D01*
X144226657Y-100557122D01*
X144228330Y-100566696D01*
X144245873Y-100635830D01*
X144270077Y-100699768D01*
X144300918Y-100758473D01*
X144338370Y-100811911D01*
X144382407Y-100860044D01*
X144433006Y-100902836D01*
X144486504Y-100938145D01*
X144535184Y-100962377D01*
X144589828Y-100982035D01*
X144649112Y-100996861D01*
X144711716Y-101006594D01*
X144776317Y-101010975D01*
X144841592Y-101009744D01*
X144848659Y-101009262D01*
X144886973Y-101005880D01*
X144929477Y-101001151D01*
X144973269Y-100995460D01*
X145015446Y-100989195D01*
X145053107Y-100982741D01*
X145064967Y-100980453D01*
X145100950Y-100973250D01*
X145102038Y-100420800D01*
X145102155Y-100353025D01*
X145102235Y-100287550D01*
X145102279Y-100224877D01*
X145102288Y-100165510D01*
X145481287Y-100165510D01*
X145481424Y-100239865D01*
X145481583Y-100316744D01*
X145481749Y-100386835D01*
X145481926Y-100450476D01*
X145482116Y-100508003D01*
X145482323Y-100559751D01*
X145482549Y-100606056D01*
X145482797Y-100647255D01*
X145483070Y-100683684D01*
X145483371Y-100715678D01*
X145483704Y-100743574D01*
X145484070Y-100767707D01*
X145484474Y-100788414D01*
X145484917Y-100806031D01*
X145485403Y-100820893D01*
X145485935Y-100833337D01*
X145486516Y-100843699D01*
X145487148Y-100852314D01*
X145487836Y-100859519D01*
X145488580Y-100865650D01*
X145489385Y-100871043D01*
X145489702Y-100872935D01*
X145497548Y-100911117D01*
X145507062Y-100944831D01*
X145517805Y-100972732D01*
X145528972Y-100992957D01*
X145549015Y-101015675D01*
X145575900Y-101036762D01*
X145608031Y-101055273D01*
X145643811Y-101070262D01*
X145674566Y-101079218D01*
X145694902Y-101082859D01*
X145721531Y-101085646D01*
X145755234Y-101087646D01*
X145785691Y-101088672D01*
X145865067Y-101090685D01*
X145865066Y-101126428D01*
X145865066Y-101162171D01*
X145254408Y-101160408D01*
X145254408Y-101160408D01*
G37*
X145254408Y-101160408D02*
X145168036Y-101160148D01*
X145089683Y-101159887D01*
X145018902Y-101159620D01*
X144955247Y-101159340D01*
X144898271Y-101159043D01*
X144847525Y-101158722D01*
X144802563Y-101158372D01*
X144762939Y-101157988D01*
X144728204Y-101157563D01*
X144697912Y-101157091D01*
X144671616Y-101156568D01*
X144648868Y-101155988D01*
X144629222Y-101155344D01*
X144612230Y-101154632D01*
X144597446Y-101153846D01*
X144584421Y-101152979D01*
X144572710Y-101152027D01*
X144569666Y-101151750D01*
X144500836Y-101144739D01*
X144439504Y-101137150D01*
X144384715Y-101128795D01*
X144335510Y-101119485D01*
X144290931Y-101109033D01*
X144250019Y-101097251D01*
X144211819Y-101083950D01*
X144199250Y-101079038D01*
X144134516Y-101048974D01*
X144073008Y-101012386D01*
X144015441Y-100969992D01*
X143962533Y-100922512D01*
X143914998Y-100870666D01*
X143873554Y-100815173D01*
X143838917Y-100756752D01*
X143811803Y-100696123D01*
X143808180Y-100686181D01*
X143797385Y-100653554D01*
X143789206Y-100623498D01*
X143783325Y-100593920D01*
X143779426Y-100562727D01*
X143777191Y-100527828D01*
X143776301Y-100487129D01*
X143776252Y-100475833D01*
X143776643Y-100433697D01*
X143778153Y-100397992D01*
X143781059Y-100366721D01*
X143785638Y-100337892D01*
X143792167Y-100309509D01*
X143800924Y-100279578D01*
X143805463Y-100265672D01*
X143832012Y-100199466D01*
X143866057Y-100136387D01*
X143906952Y-100077246D01*
X143954049Y-100022856D01*
X144006701Y-99974027D01*
X144064262Y-99931571D01*
X144079722Y-99921817D01*
X144111945Y-99903362D01*
X144149239Y-99883982D01*
X144188565Y-99865173D01*
X144226883Y-99848436D01*
X144236246Y-99844633D01*
X144253691Y-99838089D01*
X144275384Y-99830584D01*
X144299792Y-99822582D01*
X144325379Y-99814545D01*
X144350612Y-99806936D01*
X144373957Y-99800217D01*
X144393880Y-99794852D01*
X144408845Y-99791303D01*
X144417279Y-99790033D01*
X144425175Y-99788173D01*
X144427670Y-99786091D01*
X144425740Y-99781995D01*
X144419286Y-99771707D01*
X144408764Y-99755887D01*
X144394628Y-99735191D01*
X144377331Y-99710278D01*
X144357330Y-99681805D01*
X144335077Y-99650430D01*
X144311029Y-99616812D01*
X144303036Y-99605699D01*
X144278461Y-99571519D01*
X144255456Y-99539418D01*
X144234484Y-99510049D01*
X144216009Y-99484066D01*
X144200493Y-99462122D01*
X144188399Y-99444871D01*
X144180192Y-99432967D01*
X144176333Y-99427063D01*
X144176093Y-99426549D01*
X144178773Y-99422201D01*
X144185603Y-99413647D01*
X144193280Y-99404800D01*
X144219902Y-99373915D01*
X144248122Y-99339123D01*
X144276734Y-99302064D01*
X144304530Y-99264379D01*
X144330306Y-99227709D01*
X144352854Y-99193695D01*
X144370967Y-99163977D01*
X144373038Y-99160329D01*
X144379970Y-99148576D01*
X144385358Y-99140520D01*
X144387700Y-99138104D01*
X144390452Y-99141453D01*
X144397799Y-99151173D01*
X144409382Y-99166769D01*
X144424839Y-99187748D01*
X144443809Y-99213617D01*
X144465932Y-99243882D01*
X144490846Y-99278049D01*
X144518192Y-99315625D01*
X144547607Y-99356116D01*
X144578731Y-99399029D01*
X144605139Y-99435492D01*
X144820394Y-99732883D01*
X145100950Y-99731337D01*
X145100864Y-99285494D01*
X145100840Y-99213284D01*
X145100791Y-99149011D01*
X145100709Y-99092143D01*
X145100586Y-99042151D01*
X145100414Y-98998505D01*
X145100187Y-98960674D01*
X145099895Y-98928127D01*
X145099530Y-98900335D01*
X145099086Y-98876766D01*
X145098554Y-98856892D01*
X145097926Y-98840180D01*
X145097195Y-98826102D01*
X145096351Y-98814127D01*
X145095389Y-98803723D01*
X145094299Y-98794362D01*
X145093480Y-98788316D01*
X145086496Y-98747464D01*
X145077926Y-98711200D01*
X145068148Y-98680949D01*
X145060695Y-98663938D01*
X145051509Y-98650435D01*
X145037201Y-98634556D01*
X145019890Y-98618317D01*
X145001691Y-98603735D01*
X144988057Y-98594702D01*
X144957504Y-98579720D01*
X144922780Y-98568335D01*
X144882949Y-98560366D01*
X144837079Y-98555628D01*
X144784235Y-98553939D01*
X144780275Y-98553930D01*
X144717833Y-98553900D01*
X144717833Y-98481933D01*
X145865066Y-98481933D01*
X145865066Y-98552727D01*
X145783575Y-98555044D01*
X145750823Y-98556189D01*
X145724890Y-98557644D01*
X145704128Y-98559567D01*
X145686891Y-98562117D01*
X145671532Y-98565456D01*
X145668886Y-98566140D01*
X145623505Y-98581645D01*
X145584745Y-98602419D01*
X145552580Y-98628490D01*
X145526983Y-98659884D01*
X145507926Y-98696629D01*
X145495385Y-98738749D01*
X145495095Y-98740166D01*
X145493407Y-98748802D01*
X145491846Y-98757595D01*
X145490405Y-98766880D01*
X145489082Y-98776993D01*
X145487871Y-98788272D01*
X145486768Y-98801051D01*
X145485770Y-98815667D01*
X145484871Y-98832456D01*
X145484067Y-98851754D01*
X145483355Y-98873897D01*
X145482730Y-98899221D01*
X145482187Y-98928062D01*
X145481723Y-98960756D01*
X145481332Y-98997640D01*
X145481011Y-99039048D01*
X145480756Y-99085318D01*
X145480561Y-99136784D01*
X145480424Y-99193785D01*
X145480338Y-99256654D01*
X145480302Y-99325729D01*
X145480308Y-99401345D01*
X145480355Y-99483839D01*
X145480437Y-99573546D01*
X145480550Y-99670803D01*
X145480689Y-99775946D01*
X145480805Y-99857766D01*
X145480963Y-99965151D01*
X145481117Y-100064405D01*
X145481270Y-100155865D01*
X145481287Y-100165510D01*
X145102288Y-100165510D01*
X145102264Y-100109951D01*
X145102206Y-100058705D01*
X145102117Y-100012274D01*
X145101997Y-99971160D01*
X145101848Y-99935868D01*
X145101670Y-99906901D01*
X145101464Y-99884761D01*
X145101231Y-99869952D01*
X145100973Y-99862977D01*
X145100903Y-99862511D01*
X145096102Y-99860742D01*
X145084002Y-99859446D01*
X145065755Y-99858600D01*
X145042513Y-99858183D01*
X145015428Y-99858172D01*
X144985655Y-99858545D01*
X144954344Y-99859280D01*
X144922649Y-99860355D01*
X144891722Y-99861747D01*
X144862716Y-99863434D01*
X144836783Y-99865394D01*
X144815075Y-99867606D01*
X144811265Y-99868086D01*
X144728726Y-99881834D01*
X144652828Y-99900580D01*
X144583289Y-99924446D01*
X144519830Y-99953552D01*
X144462170Y-99988022D01*
X144410029Y-100027975D01*
X144382053Y-100053859D01*
X144337909Y-100101959D01*
X144301457Y-100151595D01*
X144271980Y-100204080D01*
X144248762Y-100260726D01*
X144231088Y-100322849D01*
X144228137Y-100336133D01*
X144224424Y-100360170D01*
X144221882Y-100390389D01*
X144220507Y-100424587D01*
X144220300Y-100460562D01*
X144221256Y-100496112D01*
X144223376Y-100529033D01*
X144226657Y-100557122D01*
X144228330Y-100566696D01*
X144245873Y-100635830D01*
X144270077Y-100699768D01*
X144300918Y-100758473D01*
X144338370Y-100811911D01*
X144382407Y-100860044D01*
X144433006Y-100902836D01*
X144486504Y-100938145D01*
X144535184Y-100962377D01*
X144589828Y-100982035D01*
X144649112Y-100996861D01*
X144711716Y-101006594D01*
X144776317Y-101010975D01*
X144841592Y-101009744D01*
X144848659Y-101009262D01*
X144886973Y-101005880D01*
X144929477Y-101001151D01*
X144973269Y-100995460D01*
X145015446Y-100989195D01*
X145053107Y-100982741D01*
X145064967Y-100980453D01*
X145100950Y-100973250D01*
X145102038Y-100420800D01*
X145102155Y-100353025D01*
X145102235Y-100287550D01*
X145102279Y-100224877D01*
X145102288Y-100165510D01*
X145481287Y-100165510D01*
X145481424Y-100239865D01*
X145481583Y-100316744D01*
X145481749Y-100386835D01*
X145481926Y-100450476D01*
X145482116Y-100508003D01*
X145482323Y-100559751D01*
X145482549Y-100606056D01*
X145482797Y-100647255D01*
X145483070Y-100683684D01*
X145483371Y-100715678D01*
X145483704Y-100743574D01*
X145484070Y-100767707D01*
X145484474Y-100788414D01*
X145484917Y-100806031D01*
X145485403Y-100820893D01*
X145485935Y-100833337D01*
X145486516Y-100843699D01*
X145487148Y-100852314D01*
X145487836Y-100859519D01*
X145488580Y-100865650D01*
X145489385Y-100871043D01*
X145489702Y-100872935D01*
X145497548Y-100911117D01*
X145507062Y-100944831D01*
X145517805Y-100972732D01*
X145528972Y-100992957D01*
X145549015Y-101015675D01*
X145575900Y-101036762D01*
X145608031Y-101055273D01*
X145643811Y-101070262D01*
X145674566Y-101079218D01*
X145694902Y-101082859D01*
X145721531Y-101085646D01*
X145755234Y-101087646D01*
X145785691Y-101088672D01*
X145865067Y-101090685D01*
X145865066Y-101126428D01*
X145865066Y-101162171D01*
X145254408Y-101160408D01*
G36*
X142243742Y-99827986D02*
X142232738Y-99827297D01*
X142226937Y-99825691D01*
X142224708Y-99822798D01*
X142224400Y-99819635D01*
X142224061Y-99814291D01*
X142223074Y-99801096D01*
X142221487Y-99780636D01*
X142219347Y-99753496D01*
X142216701Y-99720263D01*
X142213596Y-99681524D01*
X142210079Y-99637865D01*
X142206197Y-99589871D01*
X142201997Y-99538130D01*
X142197527Y-99483228D01*
X142192833Y-99425751D01*
X142190533Y-99397659D01*
X142185758Y-99339339D01*
X142181183Y-99283437D01*
X142176855Y-99230529D01*
X142172821Y-99181186D01*
X142169128Y-99135982D01*
X142165823Y-99095491D01*
X142162953Y-99060286D01*
X142160563Y-99030940D01*
X142158702Y-99008027D01*
X142157416Y-98992121D01*
X142156751Y-98983794D01*
X142156667Y-98982653D01*
X142160567Y-98982090D01*
X142170955Y-98981925D01*
X142185859Y-98982173D01*
X142191571Y-98982354D01*
X142226476Y-98983583D01*
X142236130Y-99011100D01*
X142262706Y-99081651D01*
X142292057Y-99150132D01*
X142323389Y-99214890D01*
X142355910Y-99274272D01*
X142384458Y-99320133D01*
X142434600Y-99388532D01*
X142489333Y-99449880D01*
X142548758Y-99504245D01*
X142612979Y-99551690D01*
X142682100Y-99592284D01*
X142756222Y-99626090D01*
X142835449Y-99653176D01*
X142919883Y-99673607D01*
X142944125Y-99678084D01*
X142966025Y-99680979D01*
X142994579Y-99683423D01*
X143027986Y-99685375D01*
X143064444Y-99686795D01*
X143102149Y-99687640D01*
X143139302Y-99687870D01*
X143174099Y-99687445D01*
X143204738Y-99686322D01*
X143228558Y-99684552D01*
X143317929Y-99671460D01*
X143402955Y-99651101D01*
X143483619Y-99623488D01*
X143559904Y-99588631D01*
X143631790Y-99546541D01*
X143699261Y-99497231D01*
X143762299Y-99440710D01*
X143820885Y-99376992D01*
X143875002Y-99306087D01*
X143912132Y-99249043D01*
X143958125Y-99166876D01*
X143997756Y-99081730D01*
X144031549Y-98992337D01*
X144060026Y-98897426D01*
X144065399Y-98876600D01*
X144086854Y-98775970D01*
X144101968Y-98670961D01*
X144110682Y-98562869D01*
X144112939Y-98452992D01*
X144108680Y-98342623D01*
X144097847Y-98233061D01*
X144095136Y-98213116D01*
X144077789Y-98114127D01*
X144054195Y-98016637D01*
X144024712Y-97921444D01*
X143989698Y-97829345D01*
X143949510Y-97741137D01*
X143904506Y-97657618D01*
X143855043Y-97579584D01*
X143801478Y-97507833D01*
X143754967Y-97454482D01*
X143694584Y-97396197D01*
X143628075Y-97343337D01*
X143556086Y-97296241D01*
X143479263Y-97255253D01*
X143398252Y-97220714D01*
X143313700Y-97192966D01*
X143226251Y-97172351D01*
X143219233Y-97171036D01*
X143198255Y-97168204D01*
X143170636Y-97165994D01*
X143138183Y-97164418D01*
X143102699Y-97163491D01*
X143065991Y-97163227D01*
X143029862Y-97163639D01*
X142996117Y-97164742D01*
X142966563Y-97166548D01*
X142944066Y-97168921D01*
X142846426Y-97186813D01*
X142751107Y-97212803D01*
X142658464Y-97246781D01*
X142582117Y-97281846D01*
X142531317Y-97307445D01*
X142530065Y-97705247D01*
X142529851Y-97787782D01*
X142529770Y-97862327D01*
X142529847Y-97929357D01*
X142530107Y-97989347D01*
X142530575Y-98042774D01*
X142531276Y-98090112D01*
X142532235Y-98131837D01*
X142533476Y-98168425D01*
X142535025Y-98200352D01*
X142536906Y-98228092D01*
X142539144Y-98252121D01*
X142541765Y-98272915D01*
X142544792Y-98290950D01*
X142548252Y-98306700D01*
X142552168Y-98320642D01*
X142556566Y-98333251D01*
X142561470Y-98345002D01*
X142563810Y-98350055D01*
X142583354Y-98381589D01*
X142609704Y-98409371D01*
X142641697Y-98432505D01*
X142678169Y-98450100D01*
X142704883Y-98458430D01*
X142738873Y-98465180D01*
X142777706Y-98470157D01*
X142817872Y-98472974D01*
X142841297Y-98473466D01*
X142880566Y-98473466D01*
X142880566Y-98549666D01*
X141843400Y-98549666D01*
X141843400Y-98473466D01*
X141891025Y-98473393D01*
X141939708Y-98470864D01*
X141982070Y-98463296D01*
X142018745Y-98450479D01*
X142050367Y-98432199D01*
X142073399Y-98412558D01*
X142089528Y-98394147D01*
X142102845Y-98373539D01*
X142113923Y-98349359D01*
X142123333Y-98320231D01*
X142131645Y-98284780D01*
X142136007Y-98261800D01*
X142136865Y-98253788D01*
X142137661Y-98239627D01*
X142138396Y-98219098D01*
X142139073Y-98191982D01*
X142139696Y-98158060D01*
X142140266Y-98117113D01*
X142140788Y-98068924D01*
X142141263Y-98013273D01*
X142141695Y-97949940D01*
X142142086Y-97878709D01*
X142142440Y-97799359D01*
X142142632Y-97748434D01*
X142144364Y-97262584D01*
X142211757Y-97228838D01*
X142314973Y-97180241D01*
X142416210Y-97139026D01*
X142516874Y-97104812D01*
X142618369Y-97077221D01*
X142722101Y-97055874D01*
X142829476Y-97040390D01*
X142941898Y-97030391D01*
X142948300Y-97029990D01*
X142996843Y-97027773D01*
X143050761Y-97026618D01*
X143107032Y-97026521D01*
X143162631Y-97027477D01*
X143214536Y-97029480D01*
X143231933Y-97030469D01*
X143350307Y-97041473D01*
X143464032Y-97059349D01*
X143573031Y-97084062D01*
X143677227Y-97115574D01*
X143776543Y-97153849D01*
X143870903Y-97198850D01*
X143960228Y-97250540D01*
X144044444Y-97308882D01*
X144123472Y-97373839D01*
X144197235Y-97445375D01*
X144265657Y-97523453D01*
X144267930Y-97526273D01*
X144332566Y-97613129D01*
X144389545Y-97703224D01*
X144438762Y-97796325D01*
X144480112Y-97892204D01*
X144513489Y-97990630D01*
X144538790Y-98091371D01*
X144548146Y-98141150D01*
X144560303Y-98233574D01*
X144566572Y-98329193D01*
X144566973Y-98425889D01*
X144561522Y-98521546D01*
X144550238Y-98614044D01*
X144543797Y-98651266D01*
X144519751Y-98755985D01*
X144487634Y-98859573D01*
X144447833Y-98961305D01*
X144400735Y-99060455D01*
X144346726Y-99156298D01*
X144286193Y-99248106D01*
X144219522Y-99335153D01*
X144147100Y-99416715D01*
X144123382Y-99440931D01*
X144045541Y-99513375D01*
X143965018Y-99578052D01*
X143881567Y-99635062D01*
X143794944Y-99684500D01*
X143704904Y-99726465D01*
X143611205Y-99761054D01*
X143513600Y-99788365D01*
X143411847Y-99808494D01*
X143305699Y-99821539D01*
X143194915Y-99827599D01*
X143152789Y-99828089D01*
X143080974Y-99826918D01*
X143015228Y-99823159D01*
X142953484Y-99816569D01*
X142893673Y-99806906D01*
X142833728Y-99793926D01*
X142808600Y-99787580D01*
X142792986Y-99783366D01*
X142776274Y-99778593D01*
X142757714Y-99773016D01*
X142736560Y-99766389D01*
X142712063Y-99758465D01*
X142683475Y-99749000D01*
X142650047Y-99737748D01*
X142611032Y-99724464D01*
X142565682Y-99708901D01*
X142513247Y-99690814D01*
X142501683Y-99686817D01*
X142468687Y-99675740D01*
X142442261Y-99667748D01*
X142421175Y-99662637D01*
X142404197Y-99660201D01*
X142390097Y-99660238D01*
X142377644Y-99662540D01*
X142370322Y-99664974D01*
X142350151Y-99676099D01*
X142333772Y-99692924D01*
X142320875Y-99716027D01*
X142311149Y-99745985D01*
X142304284Y-99783375D01*
X142303565Y-99788975D01*
X142298760Y-99828133D01*
X142261580Y-99828133D01*
X142243742Y-99827986D01*
X142243742Y-99827986D01*
G37*
X142243742Y-99827986D02*
X142232738Y-99827297D01*
X142226937Y-99825691D01*
X142224708Y-99822798D01*
X142224400Y-99819635D01*
X142224061Y-99814291D01*
X142223074Y-99801096D01*
X142221487Y-99780636D01*
X142219347Y-99753496D01*
X142216701Y-99720263D01*
X142213596Y-99681524D01*
X142210079Y-99637865D01*
X142206197Y-99589871D01*
X142201997Y-99538130D01*
X142197527Y-99483228D01*
X142192833Y-99425751D01*
X142190533Y-99397659D01*
X142185758Y-99339339D01*
X142181183Y-99283437D01*
X142176855Y-99230529D01*
X142172821Y-99181186D01*
X142169128Y-99135982D01*
X142165823Y-99095491D01*
X142162953Y-99060286D01*
X142160563Y-99030940D01*
X142158702Y-99008027D01*
X142157416Y-98992121D01*
X142156751Y-98983794D01*
X142156667Y-98982653D01*
X142160567Y-98982090D01*
X142170955Y-98981925D01*
X142185859Y-98982173D01*
X142191571Y-98982354D01*
X142226476Y-98983583D01*
X142236130Y-99011100D01*
X142262706Y-99081651D01*
X142292057Y-99150132D01*
X142323389Y-99214890D01*
X142355910Y-99274272D01*
X142384458Y-99320133D01*
X142434600Y-99388532D01*
X142489333Y-99449880D01*
X142548758Y-99504245D01*
X142612979Y-99551690D01*
X142682100Y-99592284D01*
X142756222Y-99626090D01*
X142835449Y-99653176D01*
X142919883Y-99673607D01*
X142944125Y-99678084D01*
X142966025Y-99680979D01*
X142994579Y-99683423D01*
X143027986Y-99685375D01*
X143064444Y-99686795D01*
X143102149Y-99687640D01*
X143139302Y-99687870D01*
X143174099Y-99687445D01*
X143204738Y-99686322D01*
X143228558Y-99684552D01*
X143317929Y-99671460D01*
X143402955Y-99651101D01*
X143483619Y-99623488D01*
X143559904Y-99588631D01*
X143631790Y-99546541D01*
X143699261Y-99497231D01*
X143762299Y-99440710D01*
X143820885Y-99376992D01*
X143875002Y-99306087D01*
X143912132Y-99249043D01*
X143958125Y-99166876D01*
X143997756Y-99081730D01*
X144031549Y-98992337D01*
X144060026Y-98897426D01*
X144065399Y-98876600D01*
X144086854Y-98775970D01*
X144101968Y-98670961D01*
X144110682Y-98562869D01*
X144112939Y-98452992D01*
X144108680Y-98342623D01*
X144097847Y-98233061D01*
X144095136Y-98213116D01*
X144077789Y-98114127D01*
X144054195Y-98016637D01*
X144024712Y-97921444D01*
X143989698Y-97829345D01*
X143949510Y-97741137D01*
X143904506Y-97657618D01*
X143855043Y-97579584D01*
X143801478Y-97507833D01*
X143754967Y-97454482D01*
X143694584Y-97396197D01*
X143628075Y-97343337D01*
X143556086Y-97296241D01*
X143479263Y-97255253D01*
X143398252Y-97220714D01*
X143313700Y-97192966D01*
X143226251Y-97172351D01*
X143219233Y-97171036D01*
X143198255Y-97168204D01*
X143170636Y-97165994D01*
X143138183Y-97164418D01*
X143102699Y-97163491D01*
X143065991Y-97163227D01*
X143029862Y-97163639D01*
X142996117Y-97164742D01*
X142966563Y-97166548D01*
X142944066Y-97168921D01*
X142846426Y-97186813D01*
X142751107Y-97212803D01*
X142658464Y-97246781D01*
X142582117Y-97281846D01*
X142531317Y-97307445D01*
X142530065Y-97705247D01*
X142529851Y-97787782D01*
X142529770Y-97862327D01*
X142529847Y-97929357D01*
X142530107Y-97989347D01*
X142530575Y-98042774D01*
X142531276Y-98090112D01*
X142532235Y-98131837D01*
X142533476Y-98168425D01*
X142535025Y-98200352D01*
X142536906Y-98228092D01*
X142539144Y-98252121D01*
X142541765Y-98272915D01*
X142544792Y-98290950D01*
X142548252Y-98306700D01*
X142552168Y-98320642D01*
X142556566Y-98333251D01*
X142561470Y-98345002D01*
X142563810Y-98350055D01*
X142583354Y-98381589D01*
X142609704Y-98409371D01*
X142641697Y-98432505D01*
X142678169Y-98450100D01*
X142704883Y-98458430D01*
X142738873Y-98465180D01*
X142777706Y-98470157D01*
X142817872Y-98472974D01*
X142841297Y-98473466D01*
X142880566Y-98473466D01*
X142880566Y-98549666D01*
X141843400Y-98549666D01*
X141843400Y-98473466D01*
X141891025Y-98473393D01*
X141939708Y-98470864D01*
X141982070Y-98463296D01*
X142018745Y-98450479D01*
X142050367Y-98432199D01*
X142073399Y-98412558D01*
X142089528Y-98394147D01*
X142102845Y-98373539D01*
X142113923Y-98349359D01*
X142123333Y-98320231D01*
X142131645Y-98284780D01*
X142136007Y-98261800D01*
X142136865Y-98253788D01*
X142137661Y-98239627D01*
X142138396Y-98219098D01*
X142139073Y-98191982D01*
X142139696Y-98158060D01*
X142140266Y-98117113D01*
X142140788Y-98068924D01*
X142141263Y-98013273D01*
X142141695Y-97949940D01*
X142142086Y-97878709D01*
X142142440Y-97799359D01*
X142142632Y-97748434D01*
X142144364Y-97262584D01*
X142211757Y-97228838D01*
X142314973Y-97180241D01*
X142416210Y-97139026D01*
X142516874Y-97104812D01*
X142618369Y-97077221D01*
X142722101Y-97055874D01*
X142829476Y-97040390D01*
X142941898Y-97030391D01*
X142948300Y-97029990D01*
X142996843Y-97027773D01*
X143050761Y-97026618D01*
X143107032Y-97026521D01*
X143162631Y-97027477D01*
X143214536Y-97029480D01*
X143231933Y-97030469D01*
X143350307Y-97041473D01*
X143464032Y-97059349D01*
X143573031Y-97084062D01*
X143677227Y-97115574D01*
X143776543Y-97153849D01*
X143870903Y-97198850D01*
X143960228Y-97250540D01*
X144044444Y-97308882D01*
X144123472Y-97373839D01*
X144197235Y-97445375D01*
X144265657Y-97523453D01*
X144267930Y-97526273D01*
X144332566Y-97613129D01*
X144389545Y-97703224D01*
X144438762Y-97796325D01*
X144480112Y-97892204D01*
X144513489Y-97990630D01*
X144538790Y-98091371D01*
X144548146Y-98141150D01*
X144560303Y-98233574D01*
X144566572Y-98329193D01*
X144566973Y-98425889D01*
X144561522Y-98521546D01*
X144550238Y-98614044D01*
X144543797Y-98651266D01*
X144519751Y-98755985D01*
X144487634Y-98859573D01*
X144447833Y-98961305D01*
X144400735Y-99060455D01*
X144346726Y-99156298D01*
X144286193Y-99248106D01*
X144219522Y-99335153D01*
X144147100Y-99416715D01*
X144123382Y-99440931D01*
X144045541Y-99513375D01*
X143965018Y-99578052D01*
X143881567Y-99635062D01*
X143794944Y-99684500D01*
X143704904Y-99726465D01*
X143611205Y-99761054D01*
X143513600Y-99788365D01*
X143411847Y-99808494D01*
X143305699Y-99821539D01*
X143194915Y-99827599D01*
X143152789Y-99828089D01*
X143080974Y-99826918D01*
X143015228Y-99823159D01*
X142953484Y-99816569D01*
X142893673Y-99806906D01*
X142833728Y-99793926D01*
X142808600Y-99787580D01*
X142792986Y-99783366D01*
X142776274Y-99778593D01*
X142757714Y-99773016D01*
X142736560Y-99766389D01*
X142712063Y-99758465D01*
X142683475Y-99749000D01*
X142650047Y-99737748D01*
X142611032Y-99724464D01*
X142565682Y-99708901D01*
X142513247Y-99690814D01*
X142501683Y-99686817D01*
X142468687Y-99675740D01*
X142442261Y-99667748D01*
X142421175Y-99662637D01*
X142404197Y-99660201D01*
X142390097Y-99660238D01*
X142377644Y-99662540D01*
X142370322Y-99664974D01*
X142350151Y-99676099D01*
X142333772Y-99692924D01*
X142320875Y-99716027D01*
X142311149Y-99745985D01*
X142304284Y-99783375D01*
X142303565Y-99788975D01*
X142298760Y-99828133D01*
X142261580Y-99828133D01*
X142243742Y-99827986D01*
D10*
X88242857Y-120457142D02*
X88290476Y-120504761D01*
X88242857Y-120552380D01*
X88195238Y-120504761D01*
X88242857Y-120457142D01*
X88242857Y-120552380D01*
X89242857Y-120552380D02*
X88671428Y-120552380D01*
X88957142Y-120552380D02*
X88957142Y-119552380D01*
X88861904Y-119695238D01*
X88766666Y-119790476D01*
X88671428Y-119838095D01*
X90100000Y-119885714D02*
X90100000Y-120552380D01*
X89671428Y-119885714D02*
X89671428Y-120409523D01*
X89719047Y-120504761D01*
X89814285Y-120552380D01*
X89957142Y-120552380D01*
X90052380Y-120504761D01*
X90100000Y-120457142D01*
X90909523Y-120028571D02*
X90576190Y-120028571D01*
X90576190Y-120552380D02*
X90576190Y-119552380D01*
X91052380Y-119552380D01*
X85242857Y-116707142D02*
X85290476Y-116754761D01*
X85242857Y-116802380D01*
X85195238Y-116754761D01*
X85242857Y-116707142D01*
X85242857Y-116802380D01*
X86242857Y-116802380D02*
X85671428Y-116802380D01*
X85957142Y-116802380D02*
X85957142Y-115802380D01*
X85861904Y-115945238D01*
X85766666Y-116040476D01*
X85671428Y-116088095D01*
X87100000Y-116135714D02*
X87100000Y-116802380D01*
X86671428Y-116135714D02*
X86671428Y-116659523D01*
X86719047Y-116754761D01*
X86814285Y-116802380D01*
X86957142Y-116802380D01*
X87052380Y-116754761D01*
X87100000Y-116707142D01*
X87909523Y-116278571D02*
X87576190Y-116278571D01*
X87576190Y-116802380D02*
X87576190Y-115802380D01*
X88052380Y-115802380D01*
X99516666Y-113207142D02*
X99564285Y-113254761D01*
X99516666Y-113302380D01*
X99469047Y-113254761D01*
X99516666Y-113207142D01*
X99516666Y-113302380D01*
X100183333Y-112302380D02*
X100278571Y-112302380D01*
X100373809Y-112350000D01*
X100421428Y-112397619D01*
X100469047Y-112492857D01*
X100516666Y-112683333D01*
X100516666Y-112921428D01*
X100469047Y-113111904D01*
X100421428Y-113207142D01*
X100373809Y-113254761D01*
X100278571Y-113302380D01*
X100183333Y-113302380D01*
X100088095Y-113254761D01*
X100040476Y-113207142D01*
X99992857Y-113111904D01*
X99945238Y-112921428D01*
X99945238Y-112683333D01*
X99992857Y-112492857D01*
X100040476Y-112397619D01*
X100088095Y-112350000D01*
X100183333Y-112302380D01*
X101469047Y-113302380D02*
X100897619Y-113302380D01*
X101183333Y-113302380D02*
X101183333Y-112302380D01*
X101088095Y-112445238D01*
X100992857Y-112540476D01*
X100897619Y-112588095D01*
X102326190Y-112635714D02*
X102326190Y-113302380D01*
X101897619Y-112635714D02*
X101897619Y-113159523D01*
X101945238Y-113254761D01*
X102040476Y-113302380D01*
X102183333Y-113302380D01*
X102278571Y-113254761D01*
X102326190Y-113207142D01*
X103135714Y-112778571D02*
X102802380Y-112778571D01*
X102802380Y-113302380D02*
X102802380Y-112302380D01*
X103278571Y-112302380D01*
X85242857Y-113207142D02*
X85290476Y-113254761D01*
X85242857Y-113302380D01*
X85195238Y-113254761D01*
X85242857Y-113207142D01*
X85242857Y-113302380D01*
X86242857Y-113302380D02*
X85671428Y-113302380D01*
X85957142Y-113302380D02*
X85957142Y-112302380D01*
X85861904Y-112445238D01*
X85766666Y-112540476D01*
X85671428Y-112588095D01*
X87100000Y-112635714D02*
X87100000Y-113302380D01*
X86671428Y-112635714D02*
X86671428Y-113159523D01*
X86719047Y-113254761D01*
X86814285Y-113302380D01*
X86957142Y-113302380D01*
X87052380Y-113254761D01*
X87100000Y-113207142D01*
X87909523Y-112778571D02*
X87576190Y-112778571D01*
X87576190Y-113302380D02*
X87576190Y-112302380D01*
X88052380Y-112302380D01*
X99516666Y-116707142D02*
X99564285Y-116754761D01*
X99516666Y-116802380D01*
X99469047Y-116754761D01*
X99516666Y-116707142D01*
X99516666Y-116802380D01*
X100183333Y-115802380D02*
X100278571Y-115802380D01*
X100373809Y-115850000D01*
X100421428Y-115897619D01*
X100469047Y-115992857D01*
X100516666Y-116183333D01*
X100516666Y-116421428D01*
X100469047Y-116611904D01*
X100421428Y-116707142D01*
X100373809Y-116754761D01*
X100278571Y-116802380D01*
X100183333Y-116802380D01*
X100088095Y-116754761D01*
X100040476Y-116707142D01*
X99992857Y-116611904D01*
X99945238Y-116421428D01*
X99945238Y-116183333D01*
X99992857Y-115992857D01*
X100040476Y-115897619D01*
X100088095Y-115850000D01*
X100183333Y-115802380D01*
X101469047Y-116802380D02*
X100897619Y-116802380D01*
X101183333Y-116802380D02*
X101183333Y-115802380D01*
X101088095Y-115945238D01*
X100992857Y-116040476D01*
X100897619Y-116088095D01*
X102326190Y-116135714D02*
X102326190Y-116802380D01*
X101897619Y-116135714D02*
X101897619Y-116659523D01*
X101945238Y-116754761D01*
X102040476Y-116802380D01*
X102183333Y-116802380D01*
X102278571Y-116754761D01*
X102326190Y-116707142D01*
X103135714Y-116278571D02*
X102802380Y-116278571D01*
X102802380Y-116802380D02*
X102802380Y-115802380D01*
X103278571Y-115802380D01*
X98933333Y-100332380D02*
X98600000Y-99856190D01*
X98361904Y-100332380D02*
X98361904Y-99332380D01*
X98742857Y-99332380D01*
X98838095Y-99380000D01*
X98885714Y-99427619D01*
X98933333Y-99522857D01*
X98933333Y-99665714D01*
X98885714Y-99760952D01*
X98838095Y-99808571D01*
X98742857Y-99856190D01*
X98361904Y-99856190D01*
X99885714Y-100332380D02*
X99314285Y-100332380D01*
X99600000Y-100332380D02*
X99600000Y-99332380D01*
X99504761Y-99475238D01*
X99409523Y-99570476D01*
X99314285Y-99618095D01*
X103064285Y-101302380D02*
X103683333Y-101302380D01*
X103350000Y-101683333D01*
X103492857Y-101683333D01*
X103588095Y-101730952D01*
X103635714Y-101778571D01*
X103683333Y-101873809D01*
X103683333Y-102111904D01*
X103635714Y-102207142D01*
X103588095Y-102254761D01*
X103492857Y-102302380D01*
X103207142Y-102302380D01*
X103111904Y-102254761D01*
X103064285Y-102207142D01*
X104016666Y-101302380D02*
X104635714Y-101302380D01*
X104302380Y-101683333D01*
X104445238Y-101683333D01*
X104540476Y-101730952D01*
X104588095Y-101778571D01*
X104635714Y-101873809D01*
X104635714Y-102111904D01*
X104588095Y-102207142D01*
X104540476Y-102254761D01*
X104445238Y-102302380D01*
X104159523Y-102302380D01*
X104064285Y-102254761D01*
X104016666Y-102207142D01*
X105254761Y-101302380D02*
X105350000Y-101302380D01*
X105445238Y-101350000D01*
X105492857Y-101397619D01*
X105540476Y-101492857D01*
X105588095Y-101683333D01*
X105588095Y-101921428D01*
X105540476Y-102111904D01*
X105492857Y-102207142D01*
X105445238Y-102254761D01*
X105350000Y-102302380D01*
X105254761Y-102302380D01*
X105159523Y-102254761D01*
X105111904Y-102207142D01*
X105064285Y-102111904D01*
X105016666Y-101921428D01*
X105016666Y-101683333D01*
X105064285Y-101492857D01*
X105111904Y-101397619D01*
X105159523Y-101350000D01*
X105254761Y-101302380D01*
X106588095Y-102302380D02*
X106254761Y-101826190D01*
X106016666Y-102302380D02*
X106016666Y-101302380D01*
X106397619Y-101302380D01*
X106492857Y-101350000D01*
X106540476Y-101397619D01*
X106588095Y-101492857D01*
X106588095Y-101635714D01*
X106540476Y-101730952D01*
X106492857Y-101778571D01*
X106397619Y-101826190D01*
X106016666Y-101826190D01*
X101683333Y-96632380D02*
X101350000Y-96156190D01*
X101111904Y-96632380D02*
X101111904Y-95632380D01*
X101492857Y-95632380D01*
X101588095Y-95680000D01*
X101635714Y-95727619D01*
X101683333Y-95822857D01*
X101683333Y-95965714D01*
X101635714Y-96060952D01*
X101588095Y-96108571D01*
X101492857Y-96156190D01*
X101111904Y-96156190D01*
X102064285Y-95727619D02*
X102111904Y-95680000D01*
X102207142Y-95632380D01*
X102445238Y-95632380D01*
X102540476Y-95680000D01*
X102588095Y-95727619D01*
X102635714Y-95822857D01*
X102635714Y-95918095D01*
X102588095Y-96060952D01*
X102016666Y-96632380D01*
X102635714Y-96632380D01*
X103064285Y-97552380D02*
X103683333Y-97552380D01*
X103350000Y-97933333D01*
X103492857Y-97933333D01*
X103588095Y-97980952D01*
X103635714Y-98028571D01*
X103683333Y-98123809D01*
X103683333Y-98361904D01*
X103635714Y-98457142D01*
X103588095Y-98504761D01*
X103492857Y-98552380D01*
X103207142Y-98552380D01*
X103111904Y-98504761D01*
X103064285Y-98457142D01*
X104016666Y-97552380D02*
X104635714Y-97552380D01*
X104302380Y-97933333D01*
X104445238Y-97933333D01*
X104540476Y-97980952D01*
X104588095Y-98028571D01*
X104635714Y-98123809D01*
X104635714Y-98361904D01*
X104588095Y-98457142D01*
X104540476Y-98504761D01*
X104445238Y-98552380D01*
X104159523Y-98552380D01*
X104064285Y-98504761D01*
X104016666Y-98457142D01*
X105254761Y-97552380D02*
X105350000Y-97552380D01*
X105445238Y-97600000D01*
X105492857Y-97647619D01*
X105540476Y-97742857D01*
X105588095Y-97933333D01*
X105588095Y-98171428D01*
X105540476Y-98361904D01*
X105492857Y-98457142D01*
X105445238Y-98504761D01*
X105350000Y-98552380D01*
X105254761Y-98552380D01*
X105159523Y-98504761D01*
X105111904Y-98457142D01*
X105064285Y-98361904D01*
X105016666Y-98171428D01*
X105016666Y-97933333D01*
X105064285Y-97742857D01*
X105111904Y-97647619D01*
X105159523Y-97600000D01*
X105254761Y-97552380D01*
X106588095Y-98552380D02*
X106254761Y-98076190D01*
X106016666Y-98552380D02*
X106016666Y-97552380D01*
X106397619Y-97552380D01*
X106492857Y-97600000D01*
X106540476Y-97647619D01*
X106588095Y-97742857D01*
X106588095Y-97885714D01*
X106540476Y-97980952D01*
X106492857Y-98028571D01*
X106397619Y-98076190D01*
X106016666Y-98076190D01*
M02*
